<svg width="26" height="26" viewBox="0 0 26 26" fill="none" xmlns="http://www.w3.org/2000/svg">
<path d="M14.8081 0.59082C15.5559 0.593478 15.9473 0.89405 16.2754 1.53936C16.3844 1.75383 16.6692 1.92046 16.9106 2.02021C18.1298 2.52406 19.3582 3.00632 20.5919 3.47366C20.7444 3.53144 20.9846 3.51487 21.1222 3.43135C22.1902 2.78333 23.5032 3.39703 23.498 4.61367C23.4933 5.70462 22.5313 6.41977 21.4697 6.0278C21.1986 5.92767 21.0093 5.94781 20.7859 6.08474C19.4099 6.92784 18.0301 7.7647 16.655 8.60914C16.4698 8.7229 16.3373 8.8466 16.3219 9.12376C16.2877 9.73977 15.7047 10.2391 15.102 10.3104C14.181 10.4193 13.6262 9.84854 13.4649 9.35178C13.2351 8.64411 13.4535 8.01088 14.0052 7.63411C14.5602 7.2551 15.4256 7.28567 15.9167 7.77744C16.001 7.86177 16.2673 7.87234 16.3812 7.80397C17.7885 6.95977 19.1832 6.09457 20.5635 5.24562C20.5456 4.9649 20.5281 4.68899 20.5068 4.35406C19.6614 4.01593 18.7876 3.66822 17.9153 3.31674C17.5156 3.1557 17.1107 3.00418 16.7236 2.81665C16.4243 2.67166 16.2302 2.69714 16.0256 2.98623C15.3427 3.95132 13.824 3.60813 13.5203 2.70811C13.195 1.74429 13.5557 0.689542 14.8081 0.59082Z" fill="white"/>
<path d="M24.8206 17.6582C24.1585 18.2635 23.3367 18.2012 22.6781 17.5203C22.1645 16.9893 22.1916 16.1061 22.7386 15.558C22.8189 15.4775 22.8895 15.3462 22.9832 15.3265C23.8627 15.1417 23.5969 14.3992 23.6772 13.8637C23.8324 12.8279 23.9179 11.7816 24.0216 10.7386C24.0451 10.5032 24.0251 10.2635 24.0251 10.0015C23.6866 9.67385 23.3422 9.87698 23.0004 10.1002C21.9975 10.755 20.9976 11.4144 19.991 12.0635C19.7463 12.2213 19.5713 12.3037 19.6328 12.7146C19.7021 13.1769 19.4803 13.6802 19.0122 13.9598C18.4859 14.2742 17.9365 14.3415 17.3826 14.0243C16.6697 13.6159 16.4663 12.5451 16.9094 11.8996C17.3507 11.2569 18.3463 10.9661 19.163 11.5799C20.4599 10.7472 21.7591 9.91309 23.0595 9.07819C22.8728 8.17367 23.2701 7.35715 23.9668 7.15153C24.9223 6.86953 25.7163 7.43621 25.916 8.06442C26.1852 8.91105 25.7976 9.67488 24.9139 10.0213C24.7625 11.3881 24.6117 12.7499 24.461 14.1116C24.4319 14.3749 24.3781 14.639 24.3859 14.9012C24.3895 15.0235 24.4846 15.179 24.5864 15.2566C25.2487 15.7619 25.4945 16.4346 25.2133 17.1329C25.138 17.3197 24.9688 17.469 24.8206 17.6582Z" fill="white"/>
<path d="M5.41597 10.625C5.90262 10.9554 6.3665 11.2642 6.83165 11.5737C7.61601 11.0985 8.46469 11.1378 8.94489 11.6735C9.38114 12.1601 9.46058 13.0653 9.10929 13.5469C8.61745 14.2212 7.92045 14.4044 7.18186 14.0536C6.53275 13.7453 6.21459 13.0346 6.40215 12.2916C5.10472 11.4376 3.8035 10.5812 2.50365 9.72565C1.95427 9.86633 2.03769 10.3065 2.06964 10.7036C2.14258 11.6103 2.23741 12.5152 2.31723 13.4214C2.35418 13.8409 2.35417 14.265 2.41543 14.6806C2.44664 14.8922 2.47698 15.1087 2.79434 15.2032C3.32631 15.3614 3.69907 16.0215 3.68619 16.599C3.67376 17.1564 3.27241 17.7876 2.78302 17.9548C2.18752 18.1582 1.63267 18.1178 1.15718 17.632C0.461744 16.9215 0.501372 15.9873 1.34535 15.3522C1.66872 15.1089 1.65046 14.8533 1.62389 14.5542C1.58192 14.0818 1.5106 13.6121 1.46537 13.1399C1.37464 12.1929 1.30164 11.244 1.19728 10.2985C1.18392 10.1774 1.0504 10.0201 0.933035 9.96795C0.301526 9.68745 -0.0796967 9.05338 0.0141206 8.34217C0.0874718 7.78612 0.544385 7.18887 1.33331 7.06973C1.8759 6.98779 2.68765 7.41224 2.88112 7.95121C2.99275 8.26217 2.97647 8.61875 3.03227 9.07283C3.7394 9.53124 4.5663 10.0673 5.41597 10.625Z" fill="white"/>
<path d="M9.11643 16.4437C8.97849 15.3329 9.14839 14.8907 9.96794 14.5662C10.9813 14.1649 11.9879 14.8781 11.9892 15.8412C11.9899 16.3443 11.8922 16.7933 11.4693 17.0584C11.0124 17.3447 11.1106 17.7265 11.1557 18.1227C11.1667 18.2192 11.2028 18.3136 11.2069 18.4099C11.2637 19.7466 11.317 21.0835 11.3724 22.4483C11.8884 22.5384 12.333 22.7774 12.5108 23.2589C12.6347 23.5943 12.6993 24.0196 12.6062 24.3537C12.3382 25.3158 11.6615 25.4933 10.8009 25.3781C10.1485 25.2908 9.59584 24.3908 9.70336 23.6865C8.51308 22.8375 7.31355 22.0008 6.14153 21.1275C5.92726 20.9678 5.80111 20.9798 5.58587 21.0644C4.5612 21.4671 3.67752 21.1593 3.37087 20.0831C3.18337 19.4251 3.63856 18.6429 4.36643 18.3635C4.97274 18.1307 5.82577 18.4335 6.11656 18.9945C6.20509 19.1653 6.3539 19.371 6.32014 19.5274C6.17498 20.2001 6.64476 20.4704 7.07009 20.7765C7.95159 21.4109 8.83218 22.0469 9.72799 22.6607C9.86005 22.7512 10.1195 22.8015 10.2369 22.7316C10.3791 22.6469 10.5159 22.4127 10.512 22.2465C10.4769 20.7244 10.4157 19.2028 10.3432 17.6819C10.3381 17.576 10.2027 17.4386 10.0934 17.3821C9.68256 17.1696 9.26971 16.9716 9.11643 16.4437Z" fill="white"/>
<path d="M17.5145 22.8969C17.1281 23.1763 16.7557 23.4235 16.4065 23.6997C16.3174 23.7701 16.2659 23.9306 16.2582 24.0535C16.202 24.9458 15.6147 25.4179 14.5751 25.3896C13.9133 25.3716 13.38 24.725 13.3369 23.9922C13.2905 23.2032 13.7203 22.551 14.7992 22.4462C14.7992 21.8996 14.7801 21.3402 14.8034 20.7826C14.8457 19.7707 14.9084 18.7596 14.9734 17.7489C14.9911 17.4733 14.9275 17.311 14.6506 17.1643C14.0997 16.8725 13.8674 16.1 14.0595 15.4344C14.2226 14.8697 14.7818 14.528 15.4233 14.4696C16.1627 14.4023 16.7642 14.9396 16.9204 15.5594C17.0968 16.259 16.7841 16.9723 16.101 17.2752C15.6696 17.4665 15.7833 17.8446 15.7587 18.1232C15.6793 19.0219 15.6872 19.9281 15.652 20.8311C15.635 21.2662 15.6043 21.701 15.5662 22.1348C15.5356 22.4833 15.5804 22.7887 15.9743 22.9575C17.0907 22.1589 18.2324 21.3211 19.3999 20.5208C19.7152 20.3048 19.6705 20.0406 19.6713 19.7564C19.6732 19.0841 19.9634 18.6436 20.5794 18.3843C21.3191 18.073 22.2856 18.5086 22.5509 19.2731C22.8085 20.0153 22.3513 21.0223 21.6201 21.164C21.2429 21.2371 20.8274 21.1037 20.4283 21.0788C20.2808 21.0696 20.0946 21.0523 19.9873 21.1266C19.1621 21.6973 18.3519 22.2897 17.5145 22.8969Z" fill="white"/>
<path d="M8.71203 8.20653C7.59042 7.47114 6.48606 6.76953 5.4025 6.03732C5.12443 5.84941 4.9148 5.81364 4.62645 5.99517C4.00875 6.38404 3.0162 5.96653 2.73058 5.40816C2.4265 4.81369 2.54404 3.93991 3.01959 3.51409C3.54842 3.04057 4.41306 3.00239 4.98877 3.48859C5.19775 3.66508 5.35217 3.65183 5.55095 3.56969C6.6173 3.12906 7.68527 2.69195 8.74268 2.23085C8.85684 2.18107 8.9656 1.98928 8.97649 1.85526C9.03891 1.08728 9.6414 0.581467 10.5214 0.590951C11.2574 0.598883 11.8522 1.1827 11.8973 1.89411C11.9541 2.79032 11.5242 3.37372 10.6582 3.5486C10.1499 3.65124 9.74063 3.41424 9.34484 3.13121C9.25624 3.06786 9.0924 3.02815 8.99843 3.06554C7.88818 3.50727 6.78215 3.95987 5.68107 4.42392C5.40799 4.53901 5.38171 5.01778 5.63378 5.18458C6.85292 5.99122 8.07504 6.79348 9.30554 7.58267C9.38426 7.63316 9.5544 7.58743 9.66196 7.54064C10.5447 7.15662 11.4793 7.42016 11.8154 8.3124C12.1994 9.33184 11.4793 10.3343 10.5155 10.3116C9.50588 10.2877 8.98327 9.79192 8.98999 8.78195C8.99155 8.54829 8.99294 8.33583 8.71203 8.20653Z" fill="white"/>
</svg>
