<svg width="200" height="114" viewBox="0 0 200 114" fill="none" xmlns="http://www.w3.org/2000/svg">
<path d="M154.44 10.7367C154.271 11.3365 154.217 11.8164 154.276 12.1765C154.336 12.5245 154.455 12.7827 154.635 12.9509C154.887 13.1551 155.217 13.2455 155.625 13.222C156.081 13.1865 156.453 13.0249 156.742 12.7372C156.874 12.6053 156.958 12.4434 156.994 12.2515C157.03 12.0595 156.995 11.8435 156.887 11.6033C156.611 11.039 156.282 10.5047 155.899 10.0003C155.527 9.49584 155.114 9.02739 154.658 8.59489C153.891 7.87405 153.406 7.16552 153.202 6.4693C153.011 5.76109 153.006 5.11308 153.187 4.52528C153.295 4.1774 153.451 3.85957 153.656 3.57179C153.872 3.28403 154.124 3.0383 154.412 2.83462C154.701 2.61893 155.013 2.45728 155.349 2.34964C155.685 2.23001 156.033 2.17039 156.393 2.17079C156.669 2.17109 156.939 2.20738 157.203 2.27967C157.479 2.35198 157.743 2.47226 157.995 2.64054C158.498 2.95309 158.912 3.45755 159.235 4.1539C159.558 4.85025 159.689 5.7744 159.628 6.92633L157.63 6.79814C157.667 6.07818 157.613 5.52612 157.47 5.14197C157.326 4.74581 157.141 4.46961 156.913 4.31336C156.781 4.22921 156.613 4.18703 156.409 4.18681C156.121 4.18649 155.857 4.2702 155.617 4.43794C155.388 4.60569 155.22 4.8275 155.112 5.10339C155.04 5.35531 155.063 5.65533 155.183 6.00346C155.303 6.3516 155.584 6.7179 156.028 7.10239C156.567 7.63098 157.071 8.20753 157.538 8.83204C158.017 9.44457 158.412 10.093 158.724 10.7773C159.047 11.4857 159.136 12.1278 158.992 12.7036C158.847 13.2675 158.564 13.7532 158.144 14.1607C157.844 14.4724 157.483 14.718 157.063 14.8975C156.655 15.0771 156.235 15.1846 155.803 15.2201C155.347 15.2676 154.897 15.2252 154.453 15.0927C154.021 14.9722 153.631 14.7558 153.284 14.4434C152.84 14.0469 152.523 13.5066 152.331 12.8223C152.152 12.1262 152.201 11.2562 152.478 10.2125L154.44 10.7367ZM160.384 14.9912L160.955 2.93178L162.953 3.02397L162.4 15.0834L160.384 14.9912ZM171.603 14.8414L169.371 14.839L166.122 6.62744L166.185 14.2775L164.187 14.2753L164.072 4.2672L164.073 3.2592L166.935 3.26233L169.771 10.3934L170.067 3.21176L172.065 3.26794L171.603 14.8414ZM178.512 14.975C177.816 15.0102 177.192 14.9616 176.64 14.829C176.088 14.6964 175.596 14.5038 175.165 14.2513C174.733 13.9989 174.361 13.6925 174.05 13.3321C173.75 12.9598 173.499 12.5515 173.295 12.1073C173.116 11.6991 172.984 11.273 172.9 10.8289C172.829 10.3848 172.799 9.93475 172.812 9.47877C172.849 8.55481 173.03 7.673 173.355 6.83336C173.571 6.2936 173.842 5.78989 174.166 5.32225C174.491 4.8546 174.863 4.45301 175.284 4.11747C175.704 3.76993 176.166 3.50044 176.671 3.30899C177.175 3.11754 177.715 3.03413 178.291 3.05876L178.217 5.09268C177.881 5.06831 177.563 5.12197 177.263 5.25364C176.962 5.37331 176.686 5.54701 176.434 5.77473C176.182 5.99045 175.953 6.2542 175.749 6.56598C175.545 6.87776 175.376 7.20757 175.244 7.55543C174.991 8.17915 174.847 8.83299 174.81 9.51695C174.809 10.189 174.923 10.7891 175.15 11.3173C175.377 11.8216 175.755 12.236 176.283 12.5606C176.81 12.8731 177.518 13.0059 178.406 12.9589L178.512 14.975ZM179.194 14.9758L179.531 3.06012L185.741 3.06692L185.739 5.10092L181.491 5.09627L181.378 9.20015L184.096 9.20312L184.094 11.2191L181.304 11.2161L181.266 12.908L185.802 12.805L185.872 14.8211L179.194 14.9758Z" fill="#F45001"/>
<path fill-rule="evenodd" clip-rule="evenodd" d="M148 15.6253C146.962 15.5019 145.925 15.4402 144.887 15.4402C142.367 15.4402 139.801 15.8135 137.187 16.5602C134.574 17.3068 132.241 18.4735 130.187 20.0602C126.454 22.6735 123.607 26.4535 121.647 31.4002C119.781 36.3468 119.454 42.6935 120.667 50.4402L136.067 48.0602C135.414 43.6735 135.414 40.3135 136.067 37.9802C136.814 35.5535 137.887 33.8268 139.287 32.8002C140.314 31.8668 141.527 31.3535 142.927 31.2602C143.674 31.0735 144.467 31.0268 145.307 31.1202C146.147 31.1202 146.941 31.2135 147.687 31.4002C149.554 31.8668 151.141 32.5202 152.447 33.3602C153.847 34.1068 154.641 34.9935 154.827 36.0202C155.481 39.3802 155.387 42.5535 154.547 45.5402C153.707 48.4335 152.401 51.1868 150.627 53.8002C148.947 56.4135 146.941 58.9335 144.607 61.3602C142.274 63.6935 139.894 66.0268 137.467 68.3602C134.667 70.9735 131.961 73.6335 129.347 76.3402C126.827 78.9535 124.541 81.7535 122.487 84.7402C120.527 87.6335 118.941 90.7602 117.727 94.1202C116.607 97.4802 116.094 101.213 116.187 105.32L116.327 112.88H124.027L165.047 113.44L165.327 97.9002L133.407 97.3402C134.807 94.3535 136.861 91.4135 139.567 88.5202C142.274 85.6268 145.167 82.7335 148.247 79.8402C151.421 76.7602 154.547 73.6335 157.627 70.4602C160.707 67.1935 163.321 63.7402 165.467 60.1002C167.707 56.3668 169.294 52.3068 170.227 47.9202C171.254 43.5335 171.254 38.6335 170.227 33.2202C169.667 30.4202 168.547 27.9468 166.867 25.8002C165.805 24.3843 164.594 23.1176 163.234 22.0001H148V15.6253ZM176.478 22.0001L177.89 34.0602L183.35 33.5002L181.67 112.74L197.35 113.16L199.186 22.0001H176.478ZM21.6599 16.5602C19.0466 17.3068 16.7133 18.4735 14.6599 20.0602C10.9266 22.6735 8.07994 26.4535 6.11994 31.4002C4.25327 36.3468 3.92661 42.6935 5.13994 50.4402L20.5399 48.0602C19.8866 43.6735 19.8866 40.3135 20.5399 37.9802C21.2866 35.5535 22.3599 33.8268 23.7599 32.8002C24.7866 31.8668 25.9999 31.3535 27.3999 31.2602C28.1466 31.0735 28.9399 31.0268 29.7799 31.1202C30.6199 31.1202 31.4133 31.2135 32.1599 31.4002C34.0266 31.8668 35.6133 32.5202 36.9199 33.3602C38.3199 34.1068 39.1133 34.9935 39.2999 36.0202C39.9533 39.3802 39.8599 42.5535 39.0199 45.5402C38.1799 48.4335 36.8733 51.1868 35.0999 53.8002C33.4199 56.4135 31.4133 58.9335 29.0799 61.3602C26.7466 63.6935 24.3666 66.0268 21.9399 68.3602C19.1399 70.9735 16.4333 73.6335 13.8199 76.3402C11.2999 78.9535 9.01327 81.7535 6.95994 84.7402C4.99994 87.6335 3.41327 90.7602 2.19994 94.1202C1.07994 97.4802 0.566605 101.213 0.659939 105.32L0.799938 112.88H8.49994L49.5199 113.44L49.7999 97.9002L17.8799 97.3402C19.2799 94.3535 21.3333 91.4135 24.0399 88.5202C26.7466 85.6268 29.6399 82.7335 32.7199 79.8402C35.8933 76.7602 39.0199 73.6335 42.0999 70.4602C45.1799 67.1935 47.7933 63.7402 49.9399 60.1002C52.1799 56.3668 53.7666 52.3068 54.6999 47.9202C55.7266 43.5335 55.7266 38.6335 54.6999 33.2202C54.1399 30.4202 53.0199 27.9468 51.3399 25.8002C49.6599 23.5602 47.6066 21.6935 45.1799 20.2002C42.8466 18.6135 40.2799 17.4468 37.4799 16.7002C34.7733 15.8602 32.0666 15.4402 29.3599 15.4402C26.8399 15.4402 24.2733 15.8135 21.6599 16.5602ZM63.3165 46.1002C62.4765 52.2602 62.0565 58.3735 62.0565 64.4402C62.0565 67.1468 62.1965 70.2268 62.4765 73.6802C62.7565 77.1335 63.2698 80.6802 64.0165 84.3202C64.7632 87.9602 65.7432 91.5535 66.9565 95.1002C68.1698 98.6468 69.7098 101.82 71.5765 104.62C73.4432 107.327 75.6365 109.52 78.1565 111.2C80.7698 112.88 83.7565 113.72 87.1165 113.72C90.1965 113.72 92.9965 112.833 95.5165 111.06C98.0365 109.287 100.277 106.86 102.237 103.78C104.197 100.7 105.877 97.1068 107.277 93.0002C108.677 88.8935 109.75 84.5535 110.497 79.9802C111.337 73.8202 111.757 67.6602 111.757 61.5002C111.943 55.4335 111.523 49.4135 110.497 43.4402C109.843 39.3335 108.863 35.5535 107.557 32.1002C106.25 28.6468 104.617 25.6602 102.657 23.1402C100.697 20.6202 98.4098 18.6602 95.7965 17.2602C93.2765 15.8602 90.3832 15.1602 87.1165 15.1602C83.7565 15.1602 80.7698 16.0002 78.1565 17.6802C75.5432 19.2668 73.2565 21.4602 71.2965 24.2602C69.3365 26.9668 67.7032 30.1868 66.3965 33.9202C65.0898 37.6535 64.0632 41.7135 63.3165 46.1002ZM89.9165 95.9402C89.0765 97.4335 88.1432 98.1802 87.1165 98.1802C85.9965 98.1802 84.9698 97.4802 84.0365 96.0802C83.1032 94.6802 82.2632 92.9068 81.5165 90.7602C80.8632 88.6135 80.2565 86.2335 79.6965 83.6202C79.2298 80.9135 78.8098 78.3002 78.4365 75.7802C78.1565 73.2602 77.9232 70.9735 77.7365 68.9202C77.6432 66.7735 77.5965 65.1868 77.5965 64.1602C77.5965 62.4802 77.7365 59.8202 78.0165 56.1802C78.2965 52.5402 78.7632 48.8535 79.4165 45.1202C80.1632 41.2935 81.1432 37.9802 82.3565 35.1802C83.6632 32.2868 85.2498 30.7935 87.1165 30.7002C88.9832 30.7002 90.5698 32.1935 91.8765 35.1802C93.1832 38.0735 94.2565 41.7135 95.0965 46.1002C95.4698 48.7135 95.7498 51.3268 95.9365 53.9402C96.1232 56.4602 96.2165 58.9802 96.2165 61.5002C96.2165 62.6202 96.1232 64.3002 95.9365 66.5402C95.7498 68.7802 95.4698 71.2535 95.0965 73.9602C94.8165 76.6668 94.3965 79.4668 93.8365 82.3602C93.3698 85.1602 92.8098 87.7735 92.1565 90.2002C91.5032 92.5335 90.7565 94.4468 89.9165 95.9402Z" fill="#A4B8FF"/>
</svg>
