<svg width="85" height="89" viewBox="0 0 85 89" fill="none" xmlns="http://www.w3.org/2000/svg">
<g clip-path="url(#clip0_448_7104)">
<path d="M84.7964 83.1372L78.3157 88.7145L5.25896 87.12L0 80.7559L0.737238 32.0449L10.7215 55.8862L14.162 58.868H30.5568L30.7604 62.4504L32.5789 63.6446L52.8143 63.8447L54.8364 61.8568L55.0401 58.868H70.6204L74.468 56.68L85 32.0449L84.7964 83.1372Z" fill="#243263"/>
<path d="M50.2796 53.8496H35.4365V58.8677H50.2796V53.8496Z" fill="#01979A"/>
<path d="M82.1564 11.7243L59.5338 12.1178L59.0844 3.71743L56.7463 0.714844L29.1385 2.39215L26.7091 6.01597L26.1755 12.6976L2.63305 13.1117L1.14453 15.8934V22.6579L15.1801 53.0979H30.7604V50.1161L32.7826 49.1221H53.4252L55.2437 50.5164V53.1048H70.824L84.7964 20.8771V13.9193L82.1564 11.7312V11.7243ZM32.0243 12.601V7.96247L33.0985 6.70622L51.0871 5.75367L52.6178 6.70622V12.2351L32.0243 12.594V12.601Z" fill="#01979A"/>
</g>
<defs>
<clipPath id="clip0_448_7104">
<rect width="85" height="88" fill="white" transform="translate(0 0.714844)"/>
</clipPath>
</defs>
</svg>
