<svg width="487" height="432" viewBox="0 0 487 432" fill="none" xmlns="http://www.w3.org/2000/svg">
<path d="M189.018 60.1988L138.823 68.5544C138.413 68.6363 138.03 68.8001 137.702 69.0459L73.5357 120.026C73.153 120.326 72.8522 120.736 72.7155 121.227L55.2455 178.57C55.1908 178.788 55.1361 179.034 55.1361 179.28V226.301C55.1361 226.847 54.9447 227.393 54.5893 227.802L31.8701 256.146C31.5693 256.528 31.1319 256.829 30.6398 256.965L12.0488 262.262C11.1739 262.508 10.5178 263.218 10.3264 264.119L0.0466911 314.608C-0.117347 315.454 0.15605 316.328 0.784862 316.902L19.7313 334.05C20.5241 334.76 21.6724 334.869 22.5746 334.35L58.4169 313.679C59.1551 313.27 60.0299 313.243 60.7681 313.652L81.1362 324.493C81.5736 324.738 81.9563 325.121 82.1751 325.558L94.97 351.635C95.3801 352.481 96.2277 353 97.1572 353H165.561C166.081 353 166.573 352.836 166.983 352.536L200.638 328.397C201.157 328.015 201.513 327.469 201.622 326.841L214.554 253.525C214.882 251.668 217.096 250.876 218.545 252.105L245.557 275.233C246.131 275.724 246.897 275.915 247.607 275.779L268.249 271.656C268.55 271.601 268.823 271.492 269.069 271.328L291.816 257.129C292.198 256.883 292.636 256.747 293.101 256.747H310.735C311.336 256.747 311.938 256.965 312.375 257.402L330.091 273.731C330.638 274.222 331.376 274.468 332.114 274.332L385.837 265.867C386.739 265.73 387.477 265.102 387.751 264.228L402.869 219.065C403.061 218.546 403.033 217.972 402.842 217.426L386.001 172.89C385.864 172.535 385.809 172.126 385.864 171.743L393.109 111.343C393.164 110.824 393.054 110.305 392.808 109.841L372.686 74.9713C372.55 74.6982 372.331 74.4798 372.112 74.2886L334.438 43.8971C334.11 43.6241 333.837 43.2691 333.7 42.8595L325.252 20.3594C325.115 19.9772 325.061 19.5676 325.115 19.158L327.467 2.77444C327.713 1.02686 326.072 -0.393048 324.377 0.0984583L303.572 6.21498C303.08 6.35151 302.642 6.65188 302.314 7.06146L264.558 56.3759C264.339 56.649 264.093 56.8674 263.792 57.0313L210.726 85.6752C209.906 86.1121 208.894 86.0574 208.129 85.5113L193.94 75.1897C193.366 74.7801 193.01 74.1521 192.955 73.4694L191.834 62.3286C191.698 60.936 190.413 59.953 189.018 60.1715" fill="#020E46" fill-opacity="0.54"/>
<path d="M115.069 9.148V12.256H107.677L107.565 19.62L112.745 19.704L112.689 22.84L107.537 22.756L107.425 29.28L104.317 29.224L104.597 10.688V9.148H115.069ZM116.19 9.484L119.298 9.764C119.298 9.764 119.298 9.78267 119.298 9.82C119.26 10.2867 119.223 10.8 119.186 11.36C119.148 11.9013 119.092 12.844 119.018 14.188C118.962 15.532 118.952 16.7827 118.99 17.94C119.046 19.0787 119.13 20.2547 119.242 21.468C119.354 22.6813 119.568 23.6707 119.886 24.436C120.222 25.1827 120.651 25.612 121.174 25.724C122.742 26.06 123.815 24.8747 124.394 22.168C124.842 20.04 124.963 16.68 124.758 12.088C124.72 11.024 124.702 10.268 124.702 9.82L127.838 9.904C127.819 10.1093 127.838 10.8 127.894 11.976C128.099 16.8107 127.95 20.4227 127.446 22.812C126.456 27.5533 124.142 29.5413 120.502 28.776C119.886 28.6453 119.326 28.328 118.822 27.824C118.318 27.3013 117.898 26.6853 117.562 25.976C117.244 25.248 116.974 24.3987 116.75 23.428C116.526 22.4387 116.358 21.4867 116.246 20.572C116.134 19.6387 116.059 18.6213 116.022 17.52C115.984 16.4187 115.966 15.476 115.966 14.692C115.966 13.8893 115.984 13.0587 116.022 12.2C116.059 11.3227 116.087 10.7253 116.106 10.408C116.143 10.0907 116.171 9.792 116.19 9.512C116.19 9.49333 116.19 9.484 116.19 9.484ZM139.147 25.5L139.231 28.608L130.523 28.832L128.899 28.888L128.927 27.236L129.347 11.052L129.375 9.512H139.035V12.648H132.427L132.231 19.76H138.559V22.896H132.175L132.091 25.696L139.147 25.5ZM140.305 9.344L143.413 9.372L143.273 25.808L146.969 25.836L150.077 25.92L150.133 27.348L150.217 29L148.565 28.972L141.677 28.888H140.137V27.32L140.305 9.344ZM154.266 29.056H151.13V9.344H154.266V29.056ZM158.257 29.112L155.149 29.028L155.625 10.996L155.681 9.484H160.105L160.469 10.492L164.473 21.132L164.921 9.288L168.029 9.4L167.385 26.788L167.329 28.3H163.857L163.465 27.264L158.649 14.552L158.257 29.112ZM174.53 21.832L174.362 18.696C175.78 18.6027 176.9 18.5467 177.722 18.528L179.234 18.5L179.29 20.04C179.364 21.944 179.243 23.5213 178.926 24.772C178.198 27.5533 176.658 28.8787 174.306 28.748C173.652 28.7293 173.055 28.5707 172.514 28.272C171.188 27.5813 170.218 26.256 169.602 24.296C169.098 22.6907 168.892 20.8893 168.986 18.892C169.098 16.5587 169.592 14.5707 170.47 12.928C171.235 11.4533 172.178 10.464 173.298 9.96C174.119 9.60533 174.931 9.54 175.734 9.764C176.499 9.96933 177.152 10.4173 177.694 11.108C178.571 12.2093 179.028 13.712 179.066 15.616L175.958 15.672C175.939 14.4773 175.706 13.6093 175.258 13.068C175.146 12.9 175.024 12.7973 174.894 12.76C174.8 12.7413 174.688 12.76 174.558 12.816C174.11 13.0213 173.662 13.544 173.214 14.384C172.56 15.616 172.187 17.1653 172.094 19.032C172.019 20.6187 172.178 22.0653 172.57 23.372C172.943 24.5107 173.41 25.2293 173.97 25.528C174.119 25.6027 174.278 25.64 174.446 25.64C175.118 25.6773 175.603 25.1267 175.902 23.988C176.07 23.3533 176.172 22.5973 176.21 21.72C176.042 21.7387 175.874 21.7573 175.706 21.776C175.538 21.776 175.379 21.776 175.23 21.776C175.099 21.776 174.978 21.7853 174.866 21.804C174.772 21.804 174.698 21.8133 174.642 21.832C174.586 21.832 174.548 21.832 174.53 21.832ZM190.469 29.056H187.333V9.344H190.469V29.056ZM194.46 29.112L191.352 29.028L191.828 10.996L191.884 9.484H196.308L196.672 10.492L200.676 21.132L201.124 9.288L204.232 9.4L203.588 26.788L203.532 28.3H200.06L199.668 27.264L194.852 14.552L194.46 29.112ZM208.269 29.112L205.161 29.028L205.637 10.996L205.693 9.484H210.117L210.481 10.492L214.485 21.132L214.933 9.288L218.041 9.4L217.397 26.788L217.341 28.3H213.869L213.477 27.264L208.661 14.552L208.269 29.112ZM225.073 12.424C224.793 12.4427 224.523 12.564 224.261 12.788C224 12.9933 223.757 13.2827 223.533 13.656C223.328 14.0293 223.132 14.4493 222.945 14.916C222.777 15.3827 222.628 15.896 222.497 16.456C222.236 17.6693 222.105 18.8733 222.105 20.068C222.087 21.3 222.208 22.42 222.469 23.428C222.936 25.108 223.608 25.9573 224.485 25.976C224.933 25.9947 225.344 25.6587 225.717 24.968C226.109 24.2587 226.427 23.3347 226.669 22.196C226.931 21.02 227.061 19.76 227.061 18.416C227.061 17.1093 226.94 15.924 226.697 14.86C226.268 13.1987 225.727 12.3867 225.073 12.424ZM219.445 15.756C219.893 13.908 220.584 12.396 221.517 11.22C222.451 10.0253 223.571 9.39067 224.877 9.316C226.091 9.24133 227.099 9.64267 227.901 10.52C228.723 11.3787 229.329 12.5733 229.721 14.104C230.039 15.392 230.197 16.8293 230.197 18.416C230.179 20.0213 230.02 21.5053 229.721 22.868C229.311 24.7533 228.648 26.2747 227.733 27.432C226.837 28.5893 225.727 29.14 224.401 29.084C223.151 29.0467 222.115 28.5987 221.293 27.74C220.472 26.8627 219.856 25.696 219.445 24.24C219.128 23.008 218.969 21.6173 218.969 20.068C218.988 18.556 219.147 17.1187 219.445 15.756ZM231.083 10.492L234.163 9.904L237.103 25.388H237.467L239.875 9.904L242.927 10.38L240.323 27.18L240.127 28.524H234.527L234.275 27.236L231.083 10.492ZM246.316 29L243.264 28.328L247.268 10.8L247.548 9.596H252.448L252.7 10.828L256.732 28.328L253.68 28.972L252.756 24.8H247.268L246.316 29ZM247.996 21.664H252.084L249.872 12.564L247.996 21.664ZM257.214 12.452L257.242 9.344L268.75 9.484L268.722 12.62L264.382 12.564L264.158 29.056L261.05 29.028L261.274 12.508L257.214 12.452ZM272.773 29.056H269.637V9.344H272.773V29.056ZM279.761 12.424C279.481 12.4427 279.21 12.564 278.949 12.788C278.688 12.9933 278.445 13.2827 278.221 13.656C278.016 14.0293 277.82 14.4493 277.633 14.916C277.465 15.3827 277.316 15.896 277.185 16.456C276.924 17.6693 276.793 18.8733 276.793 20.068C276.774 21.3 276.896 22.42 277.157 23.428C277.624 25.108 278.296 25.9573 279.173 25.976C279.621 25.9947 280.032 25.6587 280.405 24.968C280.797 24.2587 281.114 23.3347 281.357 22.196C281.618 21.02 281.749 19.76 281.749 18.416C281.749 17.1093 281.628 15.924 281.385 14.86C280.956 13.1987 280.414 12.3867 279.761 12.424ZM274.133 15.756C274.581 13.908 275.272 12.396 276.205 11.22C277.138 10.0253 278.258 9.39067 279.565 9.316C280.778 9.24133 281.786 9.64267 282.589 10.52C283.41 11.3787 284.017 12.5733 284.409 14.104C284.726 15.392 284.885 16.8293 284.885 18.416C284.866 20.0213 284.708 21.5053 284.409 22.868C283.998 24.7533 283.336 26.2747 282.421 27.432C281.525 28.5893 280.414 29.14 279.089 29.084C277.838 29.0467 276.802 28.5987 275.981 27.74C275.16 26.8627 274.544 25.696 274.133 24.24C273.816 23.008 273.657 21.6173 273.657 20.068C273.676 18.556 273.834 17.1187 274.133 15.756ZM288.878 29.112L285.77 29.028L286.246 10.996L286.302 9.484H290.726L291.09 10.492L295.094 21.132L295.542 9.288L298.65 9.4L298.006 26.788L297.95 28.3H294.478L294.086 27.264L289.27 14.552L288.878 29.112Z" fill="white"/>
<path d="M7.338 401V389.768H3.306V388.4H12.846V389.768H8.814V401H7.338ZM18.6502 392.198C19.6582 392.198 20.4682 392.486 21.0802 393.062C21.6922 393.638 21.9982 394.448 21.9982 395.492V401H20.5582V395.816C20.5582 395.06 20.3542 394.49 19.9462 394.106C19.5382 393.71 18.9862 393.512 18.2902 393.512C17.6062 393.512 17.0542 393.752 16.6342 394.232C16.2142 394.7 16.0042 395.342 16.0042 396.158V401H14.5642V388.4H16.0042V393.548C16.5802 392.648 17.4622 392.198 18.6502 392.198ZM28.4679 401.18C27.2199 401.18 26.1879 400.772 25.3719 399.956C24.5559 399.128 24.1479 398.042 24.1479 396.698C24.1479 395.354 24.5499 394.268 25.3539 393.44C26.1699 392.612 27.1959 392.198 28.4319 392.198C29.6559 392.198 30.6519 392.594 31.4199 393.386C32.1999 394.178 32.5899 395.228 32.5899 396.536C32.5899 396.68 32.5779 396.836 32.5539 397.004H25.5879C25.6359 397.916 25.9239 398.642 26.4519 399.182C26.9799 399.722 27.6519 399.992 28.4679 399.992C29.0919 399.992 29.6319 399.842 30.0879 399.542C30.5439 399.23 30.8319 398.81 30.9519 398.282L32.2299 398.696C32.0139 399.476 31.5579 400.088 30.8619 400.532C30.1779 400.964 29.3799 401.18 28.4679 401.18ZM25.6599 395.87H31.1679C31.0719 395.138 30.7779 394.544 30.2859 394.088C29.7939 393.632 29.1819 393.404 28.4499 393.404C27.7299 393.404 27.1179 393.626 26.6139 394.07C26.1099 394.514 25.7919 395.114 25.6599 395.87ZM38.8923 401V388.4H40.3323V401H38.8923ZM50.4722 399.938C50.5682 399.938 50.6702 399.926 50.7782 399.902V401.126C50.5982 401.162 50.3942 401.18 50.1662 401.18C49.7222 401.18 49.3502 401.072 49.0502 400.856C48.7502 400.628 48.5702 400.31 48.5102 399.902C47.8862 400.754 46.9262 401.18 45.6302 401.18C44.7182 401.18 43.9742 400.952 43.3982 400.496C42.8342 400.04 42.5522 399.41 42.5522 398.606C42.5522 397.814 42.8282 397.208 43.3802 396.788C43.9322 396.368 44.6222 396.116 45.4502 396.032L48.4922 395.69V395.528C48.4922 394.844 48.2882 394.316 47.8802 393.944C47.4722 393.572 46.9442 393.386 46.2962 393.386C45.7682 393.386 45.3182 393.524 44.9462 393.8C44.5862 394.064 44.3462 394.424 44.2262 394.88L42.9482 394.592C43.1402 393.812 43.5482 393.218 44.1722 392.81C44.7962 392.402 45.5282 392.198 46.3682 392.198C47.4602 392.198 48.3242 392.486 48.9602 393.062C49.6082 393.626 49.9322 394.436 49.9322 395.492V399.416C49.9322 399.764 50.1122 399.938 50.4722 399.938ZM46.0982 400.028C46.8302 399.98 47.4122 399.734 47.8442 399.29C48.2762 398.834 48.4922 398.216 48.4922 397.436V396.824L45.6842 397.148C44.5562 397.268 43.9922 397.748 43.9922 398.588C43.9922 399.08 44.1962 399.452 44.6042 399.704C45.0242 399.956 45.5222 400.064 46.0982 400.028ZM56.7578 392.198C57.2738 392.198 57.7058 392.27 58.0538 392.414L57.8378 393.764C57.4418 393.608 57.0158 393.53 56.5598 393.53C55.8518 393.53 55.2758 393.776 54.8318 394.268C54.3998 394.748 54.1838 395.408 54.1838 396.248V401H52.7438V392.378H54.1838V393.53C54.7478 392.642 55.6058 392.198 56.7578 392.198ZM66.2798 392.378H67.7198V400.568C67.7198 401.888 67.3238 402.92 66.5318 403.664C65.7518 404.408 64.7318 404.78 63.4718 404.78C62.4878 404.78 61.6238 404.552 60.8798 404.096C60.1478 403.64 59.6618 403.028 59.4218 402.26L60.7178 401.702C60.8498 402.23 61.1618 402.662 61.6538 402.998C62.1578 403.334 62.7578 403.502 63.4538 403.502C64.3058 403.502 64.9898 403.256 65.5058 402.764C66.0218 402.272 66.2798 401.57 66.2798 400.658V399.524C65.5958 400.628 64.5398 401.18 63.1118 401.18C61.9118 401.18 60.9098 400.766 60.1058 399.938C59.3018 399.098 58.8998 398.018 58.8998 396.698C58.8998 395.378 59.2958 394.298 60.0878 393.458C60.8918 392.618 61.8998 392.198 63.1118 392.198C64.5398 392.198 65.5958 392.75 66.2798 393.854V392.378ZM61.2218 399.02C61.7978 399.608 62.5118 399.902 63.3638 399.902C64.2158 399.902 64.9118 399.608 65.4518 399.02C66.0038 398.42 66.2798 397.646 66.2798 396.698C66.2798 395.75 66.0038 394.976 65.4518 394.376C64.9118 393.776 64.2158 393.476 63.3638 393.476C62.5118 393.476 61.7978 393.776 61.2218 394.376C60.6578 394.964 60.3758 395.738 60.3758 396.698C60.3758 397.658 60.6578 398.432 61.2218 399.02ZM74.2589 401.18C73.0109 401.18 71.9789 400.772 71.1629 399.956C70.3469 399.128 69.9389 398.042 69.9389 396.698C69.9389 395.354 70.3409 394.268 71.1449 393.44C71.9609 392.612 72.9869 392.198 74.2229 392.198C75.4469 392.198 76.4429 392.594 77.2109 393.386C77.9909 394.178 78.3809 395.228 78.3809 396.536C78.3809 396.68 78.3689 396.836 78.3449 397.004H71.3789C71.4269 397.916 71.7149 398.642 72.2429 399.182C72.7709 399.722 73.4429 399.992 74.2589 399.992C74.8829 399.992 75.4229 399.842 75.8789 399.542C76.3349 399.23 76.6229 398.81 76.7429 398.282L78.0209 398.696C77.8049 399.476 77.3489 400.088 76.6529 400.532C75.9689 400.964 75.1709 401.18 74.2589 401.18ZM71.4509 395.87H76.9589C76.8629 395.138 76.5689 394.544 76.0769 394.088C75.5849 393.632 74.9729 393.404 74.2409 393.404C73.5209 393.404 72.9089 393.626 72.4049 394.07C71.9009 394.514 71.5829 395.114 71.4509 395.87ZM83.378 401.18C82.502 401.18 81.746 400.988 81.11 400.604C80.486 400.208 80.078 399.668 79.886 398.984L81.11 398.588C81.23 399.02 81.488 399.362 81.884 399.614C82.292 399.854 82.772 399.974 83.324 399.974C83.912 399.974 84.386 399.848 84.746 399.596C85.106 399.344 85.286 399.008 85.286 398.588C85.286 398.372 85.238 398.192 85.142 398.048C85.046 397.904 84.89 397.79 84.674 397.706C84.458 397.61 84.254 397.538 84.062 397.49C83.87 397.442 83.6 397.388 83.252 397.328C82.904 397.268 82.64 397.22 82.46 397.184C82.28 397.136 82.034 397.07 81.722 396.986C81.41 396.902 81.164 396.8 80.984 396.68C80.816 396.56 80.636 396.416 80.444 396.248C80.252 396.08 80.114 395.87 80.03 395.618C79.946 395.366 79.904 395.084 79.904 394.772C79.904 393.98 80.198 393.356 80.786 392.9C81.386 392.432 82.166 392.198 83.126 392.198C83.966 392.198 84.68 392.39 85.268 392.774C85.868 393.146 86.264 393.686 86.456 394.394L85.214 394.79C85.106 394.346 84.854 394.004 84.458 393.764C84.074 393.512 83.63 393.386 83.126 393.386C82.586 393.386 82.16 393.512 81.848 393.764C81.536 394.004 81.38 394.322 81.38 394.718C81.38 395.138 81.53 395.438 81.83 395.618C82.13 395.786 82.586 395.924 83.198 396.032C84.314 396.224 85.064 396.404 85.448 396.572C86.324 396.98 86.762 397.634 86.762 398.534C86.762 399.338 86.444 399.98 85.808 400.46C85.172 400.94 84.362 401.18 83.378 401.18ZM92.7373 401.18C91.8013 401.18 91.0513 400.928 90.4873 400.424C89.9233 399.908 89.6413 399.158 89.6413 398.174V393.638H87.8593V392.378H89.2093C89.3773 392.246 89.4913 392.006 89.5513 391.658C89.6113 391.31 89.6413 390.71 89.6413 389.858H91.0813V392.378H94.1413V393.638H91.0813V398.174C91.0813 398.714 91.2433 399.14 91.5673 399.452C91.8913 399.752 92.3593 399.902 92.9713 399.902C93.3553 399.902 93.7513 399.83 94.1593 399.686L94.3573 400.91C93.8773 401.09 93.3373 401.18 92.7373 401.18ZM101.879 390.254C101.663 390.458 101.405 390.56 101.105 390.56C100.805 390.56 100.547 390.458 100.331 390.254C100.127 390.05 100.025 389.798 100.025 389.498C100.025 389.198 100.127 388.946 100.331 388.742C100.547 388.526 100.805 388.418 101.105 388.418C101.405 388.418 101.663 388.526 101.879 388.742C102.095 388.946 102.203 389.198 102.203 389.498C102.203 389.798 102.095 390.05 101.879 390.254ZM100.385 401V392.378H101.825V401H100.385ZM108.914 392.198C109.922 392.198 110.732 392.486 111.344 393.062C111.956 393.638 112.262 394.448 112.262 395.492V401H110.822V395.816C110.822 395.06 110.618 394.49 110.21 394.106C109.802 393.71 109.25 393.512 108.554 393.512C107.87 393.512 107.318 393.752 106.898 394.232C106.478 394.7 106.268 395.342 106.268 396.158V401H104.828V392.378H106.268V393.548C106.844 392.648 107.726 392.198 108.914 392.198ZM114.934 396.86V395.6H120.028V396.86H114.934ZM127.348 392.198C128.56 392.198 129.568 392.618 130.372 393.458C131.176 394.298 131.578 395.378 131.578 396.698C131.578 398.018 131.176 399.098 130.372 399.938C129.568 400.766 128.566 401.18 127.366 401.18C125.938 401.18 124.882 400.628 124.198 399.524V404.6H122.758V392.378H124.198V393.836C124.882 392.744 125.932 392.198 127.348 392.198ZM125.008 399.02C125.56 399.608 126.262 399.902 127.114 399.902C127.966 399.902 128.674 399.608 129.238 399.02C129.814 398.432 130.102 397.658 130.102 396.698C130.102 395.738 129.814 394.964 129.238 394.376C128.674 393.776 127.966 393.476 127.114 393.476C126.262 393.476 125.56 393.776 125.008 394.376C124.468 394.976 124.198 395.75 124.198 396.698C124.198 397.646 124.468 398.42 125.008 399.02ZM137.505 401.18C136.257 401.18 135.225 400.772 134.409 399.956C133.593 399.128 133.185 398.042 133.185 396.698C133.185 395.354 133.587 394.268 134.391 393.44C135.207 392.612 136.233 392.198 137.469 392.198C138.693 392.198 139.689 392.594 140.457 393.386C141.237 394.178 141.627 395.228 141.627 396.536C141.627 396.68 141.615 396.836 141.591 397.004H134.625C134.673 397.916 134.961 398.642 135.489 399.182C136.017 399.722 136.689 399.992 137.505 399.992C138.129 399.992 138.669 399.842 139.125 399.542C139.581 399.23 139.869 398.81 139.989 398.282L141.267 398.696C141.051 399.476 140.595 400.088 139.899 400.532C139.215 400.964 138.417 401.18 137.505 401.18ZM134.697 395.87H140.205C140.109 395.138 139.815 394.544 139.323 394.088C138.831 393.632 138.219 393.404 137.487 393.404C136.767 393.404 136.155 393.626 135.651 394.07C135.147 394.514 134.829 395.114 134.697 395.87ZM147.83 392.198C148.346 392.198 148.778 392.27 149.126 392.414L148.91 393.764C148.514 393.608 148.088 393.53 147.632 393.53C146.924 393.53 146.348 393.776 145.904 394.268C145.472 394.748 145.256 395.408 145.256 396.248V401H143.816V392.378H145.256V393.53C145.82 392.642 146.678 392.198 147.83 392.198ZM153.761 401.18C152.885 401.18 152.129 400.988 151.493 400.604C150.869 400.208 150.461 399.668 150.269 398.984L151.493 398.588C151.613 399.02 151.871 399.362 152.267 399.614C152.675 399.854 153.155 399.974 153.707 399.974C154.295 399.974 154.769 399.848 155.129 399.596C155.489 399.344 155.669 399.008 155.669 398.588C155.669 398.372 155.621 398.192 155.525 398.048C155.429 397.904 155.273 397.79 155.057 397.706C154.841 397.61 154.637 397.538 154.445 397.49C154.253 397.442 153.983 397.388 153.635 397.328C153.287 397.268 153.023 397.22 152.843 397.184C152.663 397.136 152.417 397.07 152.105 396.986C151.793 396.902 151.547 396.8 151.367 396.68C151.199 396.56 151.019 396.416 150.827 396.248C150.635 396.08 150.497 395.87 150.413 395.618C150.329 395.366 150.287 395.084 150.287 394.772C150.287 393.98 150.581 393.356 151.169 392.9C151.769 392.432 152.549 392.198 153.509 392.198C154.349 392.198 155.063 392.39 155.651 392.774C156.251 393.146 156.647 393.686 156.839 394.394L155.597 394.79C155.489 394.346 155.237 394.004 154.841 393.764C154.457 393.512 154.013 393.386 153.509 393.386C152.969 393.386 152.543 393.512 152.231 393.764C151.919 394.004 151.763 394.322 151.763 394.718C151.763 395.138 151.913 395.438 152.213 395.618C152.513 395.786 152.969 395.924 153.581 396.032C154.697 396.224 155.447 396.404 155.831 396.572C156.707 396.98 157.145 397.634 157.145 398.534C157.145 399.338 156.827 399.98 156.191 400.46C155.555 400.94 154.745 401.18 153.761 401.18ZM166.306 399.938C165.454 400.766 164.386 401.18 163.102 401.18C161.818 401.18 160.75 400.772 159.898 399.956C159.046 399.128 158.62 398.054 158.62 396.734C158.62 395.378 159.04 394.286 159.88 393.458C160.732 392.618 161.806 392.198 163.102 392.198C164.386 392.198 165.454 392.618 166.306 393.458C167.158 394.286 167.584 395.378 167.584 396.734C167.584 398.042 167.158 399.11 166.306 399.938ZM163.102 399.884C163.954 399.884 164.668 399.596 165.244 399.02C165.82 398.432 166.108 397.664 166.108 396.716C166.108 395.744 165.82 394.97 165.244 394.394C164.68 393.806 163.966 393.512 163.102 393.512C162.238 393.512 161.518 393.806 160.942 394.394C160.378 394.97 160.096 395.744 160.096 396.716C160.096 397.664 160.378 398.432 160.942 399.02C161.518 399.596 162.238 399.884 163.102 399.884ZM173.865 392.198C174.873 392.198 175.683 392.486 176.295 393.062C176.907 393.638 177.213 394.448 177.213 395.492V401H175.773V395.816C175.773 395.06 175.569 394.49 175.161 394.106C174.753 393.71 174.201 393.512 173.505 393.512C172.821 393.512 172.269 393.752 171.849 394.232C171.429 394.7 171.219 395.342 171.219 396.158V401H169.779V392.378H171.219V393.548C171.795 392.648 172.677 392.198 173.865 392.198ZM187.958 401.18C187.022 401.18 186.272 400.928 185.708 400.424C185.144 399.908 184.862 399.158 184.862 398.174V393.638H183.08V392.378H184.43C184.598 392.246 184.712 392.006 184.772 391.658C184.832 391.31 184.862 390.71 184.862 389.858H186.302V392.378H189.362V393.638H186.302V398.174C186.302 398.714 186.464 399.14 186.788 399.452C187.112 399.752 187.58 399.902 188.192 399.902C188.576 399.902 188.972 399.83 189.38 399.686L189.578 400.91C189.098 401.09 188.558 401.18 187.958 401.18ZM194.862 401.18C193.614 401.18 192.582 400.772 191.766 399.956C190.95 399.128 190.542 398.042 190.542 396.698C190.542 395.354 190.944 394.268 191.748 393.44C192.564 392.612 193.59 392.198 194.826 392.198C196.05 392.198 197.046 392.594 197.814 393.386C198.594 394.178 198.984 395.228 198.984 396.536C198.984 396.68 198.972 396.836 198.948 397.004H191.982C192.03 397.916 192.318 398.642 192.846 399.182C193.374 399.722 194.046 399.992 194.862 399.992C195.486 399.992 196.026 399.842 196.482 399.542C196.938 399.23 197.226 398.81 197.346 398.282L198.624 398.696C198.408 399.476 197.952 400.088 197.256 400.532C196.572 400.964 195.774 401.18 194.862 401.18ZM192.054 395.87H197.562C197.466 395.138 197.172 394.544 196.68 394.088C196.188 393.632 195.576 393.404 194.844 393.404C194.124 393.404 193.512 393.626 193.008 394.07C192.504 394.514 192.186 395.114 192.054 395.87ZM204.936 401.18C203.688 401.18 202.65 400.766 201.822 399.938C200.994 399.11 200.58 398.036 200.58 396.716C200.58 395.396 200.988 394.316 201.804 393.476C202.632 392.624 203.676 392.198 204.936 392.198C205.872 392.198 206.694 392.426 207.402 392.882C208.11 393.326 208.572 393.938 208.788 394.718L207.51 395.168C207.39 394.664 207.096 394.262 206.628 393.962C206.16 393.662 205.614 393.512 204.99 393.512C204.15 393.512 203.448 393.812 202.884 394.412C202.332 395 202.056 395.762 202.056 396.698C202.056 397.646 202.332 398.414 202.884 399.002C203.448 399.59 204.156 399.884 205.008 399.884C205.62 399.884 206.16 399.734 206.628 399.434C207.096 399.122 207.39 398.714 207.51 398.21L208.788 398.642C208.572 399.434 208.11 400.058 207.402 400.514C206.694 400.958 205.872 401.18 204.936 401.18ZM214.91 392.198C215.918 392.198 216.728 392.486 217.34 393.062C217.952 393.638 218.258 394.448 218.258 395.492V401H216.818V395.816C216.818 395.06 216.614 394.49 216.206 394.106C215.798 393.71 215.246 393.512 214.55 393.512C213.866 393.512 213.314 393.752 212.894 394.232C212.474 394.7 212.264 395.342 212.264 396.158V401H210.824V388.4H212.264V393.548C212.84 392.648 213.722 392.198 214.91 392.198ZM225.088 392.198C226.096 392.198 226.906 392.486 227.518 393.062C228.13 393.638 228.436 394.448 228.436 395.492V401H226.996V395.816C226.996 395.06 226.792 394.49 226.384 394.106C225.976 393.71 225.424 393.512 224.728 393.512C224.044 393.512 223.492 393.752 223.072 394.232C222.652 394.7 222.442 395.342 222.442 396.158V401H221.002V392.378H222.442V393.548C223.018 392.648 223.9 392.198 225.088 392.198ZM238.253 399.938C237.401 400.766 236.333 401.18 235.049 401.18C233.765 401.18 232.697 400.772 231.845 399.956C230.993 399.128 230.567 398.054 230.567 396.734C230.567 395.378 230.987 394.286 231.827 393.458C232.679 392.618 233.753 392.198 235.049 392.198C236.333 392.198 237.401 392.618 238.253 393.458C239.105 394.286 239.531 395.378 239.531 396.734C239.531 398.042 239.105 399.11 238.253 399.938ZM235.049 399.884C235.901 399.884 236.615 399.596 237.191 399.02C237.767 398.432 238.055 397.664 238.055 396.716C238.055 395.744 237.767 394.97 237.191 394.394C236.627 393.806 235.913 393.512 235.049 393.512C234.185 393.512 233.465 393.806 232.889 394.394C232.325 394.97 232.043 395.744 232.043 396.716C232.043 397.664 232.325 398.432 232.889 399.02C233.465 399.596 234.185 399.884 235.049 399.884ZM241.726 401V388.4H243.166V401H241.726ZM253.054 399.938C252.202 400.766 251.134 401.18 249.85 401.18C248.566 401.18 247.498 400.772 246.646 399.956C245.794 399.128 245.368 398.054 245.368 396.734C245.368 395.378 245.788 394.286 246.628 393.458C247.48 392.618 248.554 392.198 249.85 392.198C251.134 392.198 252.202 392.618 253.054 393.458C253.906 394.286 254.332 395.378 254.332 396.734C254.332 398.042 253.906 399.11 253.054 399.938ZM249.85 399.884C250.702 399.884 251.416 399.596 251.992 399.02C252.568 398.432 252.856 397.664 252.856 396.716C252.856 395.744 252.568 394.97 251.992 394.394C251.428 393.806 250.714 393.512 249.85 393.512C248.986 393.512 248.266 393.806 247.69 394.394C247.126 394.97 246.844 395.744 246.844 396.716C246.844 397.664 247.126 398.432 247.69 399.02C248.266 399.596 248.986 399.884 249.85 399.884ZM263.313 392.378H264.753V400.568C264.753 401.888 264.357 402.92 263.565 403.664C262.785 404.408 261.765 404.78 260.505 404.78C259.521 404.78 258.657 404.552 257.913 404.096C257.181 403.64 256.695 403.028 256.455 402.26L257.751 401.702C257.883 402.23 258.195 402.662 258.687 402.998C259.191 403.334 259.791 403.502 260.487 403.502C261.339 403.502 262.023 403.256 262.539 402.764C263.055 402.272 263.313 401.57 263.313 400.658V399.524C262.629 400.628 261.573 401.18 260.145 401.18C258.945 401.18 257.943 400.766 257.139 399.938C256.335 399.098 255.933 398.018 255.933 396.698C255.933 395.378 256.329 394.298 257.121 393.458C257.925 392.618 258.933 392.198 260.145 392.198C261.573 392.198 262.629 392.75 263.313 393.854V392.378ZM258.255 399.02C258.831 399.608 259.545 399.902 260.397 399.902C261.249 399.902 261.945 399.608 262.485 399.02C263.037 398.42 263.313 397.646 263.313 396.698C263.313 395.75 263.037 394.976 262.485 394.376C261.945 393.776 261.249 393.476 260.397 393.476C259.545 393.476 258.831 393.776 258.255 394.376C257.691 394.964 257.409 395.738 257.409 396.698C257.409 397.658 257.691 398.432 258.255 399.02ZM274.01 392.378H275.54L270.014 404.6H268.61L270.284 401L266.324 392.378H267.872L270.95 399.29L274.01 392.378ZM284.898 401.18C283.65 401.18 282.618 400.772 281.802 399.956C280.986 399.128 280.578 398.042 280.578 396.698C280.578 395.354 280.98 394.268 281.784 393.44C282.6 392.612 283.626 392.198 284.862 392.198C286.086 392.198 287.082 392.594 287.85 393.386C288.63 394.178 289.02 395.228 289.02 396.536C289.02 396.68 289.008 396.836 288.984 397.004H282.018C282.066 397.916 282.354 398.642 282.882 399.182C283.41 399.722 284.082 399.992 284.898 399.992C285.522 399.992 286.062 399.842 286.518 399.542C286.974 399.23 287.262 398.81 287.382 398.282L288.66 398.696C288.444 399.476 287.988 400.088 287.292 400.532C286.608 400.964 285.81 401.18 284.898 401.18ZM282.09 395.87H287.598C287.502 395.138 287.208 394.544 286.716 394.088C286.224 393.632 285.612 393.404 284.88 393.404C284.16 393.404 283.548 393.626 283.044 394.07C282.54 394.514 282.222 395.114 282.09 395.87ZM297.371 392.378H298.847L295.103 401H293.555L289.811 392.378H291.305L294.347 399.47L297.371 392.378ZM303.882 401.18C302.634 401.18 301.602 400.772 300.786 399.956C299.97 399.128 299.562 398.042 299.562 396.698C299.562 395.354 299.964 394.268 300.768 393.44C301.584 392.612 302.61 392.198 303.846 392.198C305.07 392.198 306.066 392.594 306.834 393.386C307.614 394.178 308.004 395.228 308.004 396.536C308.004 396.68 307.992 396.836 307.968 397.004H301.002C301.05 397.916 301.338 398.642 301.866 399.182C302.394 399.722 303.066 399.992 303.882 399.992C304.506 399.992 305.046 399.842 305.502 399.542C305.958 399.23 306.246 398.81 306.366 398.282L307.644 398.696C307.428 399.476 306.972 400.088 306.276 400.532C305.592 400.964 304.794 401.18 303.882 401.18ZM301.074 395.87H306.582C306.486 395.138 306.192 394.544 305.7 394.088C305.208 393.632 304.596 393.404 303.864 393.404C303.144 393.404 302.532 393.626 302.028 394.07C301.524 394.514 301.206 395.114 301.074 395.87ZM314.279 392.198C315.287 392.198 316.097 392.486 316.709 393.062C317.321 393.638 317.627 394.448 317.627 395.492V401H316.187V395.816C316.187 395.06 315.983 394.49 315.575 394.106C315.167 393.71 314.615 393.512 313.919 393.512C313.235 393.512 312.683 393.752 312.263 394.232C311.843 394.7 311.633 395.342 311.633 396.158V401H310.193V392.378H311.633V393.548C312.209 392.648 313.091 392.198 314.279 392.198ZM324.259 401.18C323.323 401.18 322.573 400.928 322.009 400.424C321.445 399.908 321.163 399.158 321.163 398.174V393.638H319.381V392.378H320.731C320.899 392.246 321.013 392.006 321.073 391.658C321.133 391.31 321.163 390.71 321.163 389.858H322.603V392.378H325.663V393.638H322.603V398.174C322.603 398.714 322.765 399.14 323.089 399.452C323.413 399.752 323.881 399.902 324.493 399.902C324.877 399.902 325.273 399.83 325.681 399.686L325.879 400.91C325.399 401.09 324.859 401.18 324.259 401.18ZM333.4 390.254C333.184 390.458 332.926 390.56 332.626 390.56C332.326 390.56 332.068 390.458 331.852 390.254C331.648 390.05 331.546 389.798 331.546 389.498C331.546 389.198 331.648 388.946 331.852 388.742C332.068 388.526 332.326 388.418 332.626 388.418C332.926 388.418 333.184 388.526 333.4 388.742C333.616 388.946 333.724 389.198 333.724 389.498C333.724 389.798 333.616 390.05 333.4 390.254ZM331.906 401V392.378H333.346V401H331.906ZM340.435 392.198C341.443 392.198 342.253 392.486 342.865 393.062C343.477 393.638 343.783 394.448 343.783 395.492V401H342.343V395.816C342.343 395.06 342.139 394.49 341.731 394.106C341.323 393.71 340.771 393.512 340.075 393.512C339.391 393.512 338.839 393.752 338.419 394.232C337.999 394.7 337.789 395.342 337.789 396.158V401H336.349V392.378H337.789V393.548C338.365 392.648 339.247 392.198 340.435 392.198ZM350.856 401V388.4H355.698C356.994 388.4 358.026 388.754 358.794 389.462C359.574 390.17 359.964 391.106 359.964 392.27C359.964 393.254 359.67 394.082 359.082 394.754C358.506 395.426 357.714 395.846 356.706 396.014L360 401H358.38L355.158 396.122H352.332V401H350.856ZM352.332 394.754H355.698C356.574 394.754 357.246 394.532 357.714 394.088C358.194 393.644 358.434 393.038 358.434 392.27C358.434 391.502 358.194 390.896 357.714 390.452C357.246 389.996 356.574 389.768 355.698 389.768H352.332V394.754ZM373.785 392.378H375.279L372.219 401H370.635L368.151 394.178L365.685 401H364.083L361.041 392.378H362.535L364.983 399.452L367.467 392.378H368.853L371.337 399.452L373.785 392.378ZM384.035 399.938C384.131 399.938 384.233 399.926 384.341 399.902V401.126C384.161 401.162 383.957 401.18 383.729 401.18C383.285 401.18 382.913 401.072 382.613 400.856C382.313 400.628 382.133 400.31 382.073 399.902C381.449 400.754 380.489 401.18 379.193 401.18C378.281 401.18 377.537 400.952 376.961 400.496C376.397 400.04 376.115 399.41 376.115 398.606C376.115 397.814 376.391 397.208 376.943 396.788C377.495 396.368 378.185 396.116 379.013 396.032L382.055 395.69V395.528C382.055 394.844 381.851 394.316 381.443 393.944C381.035 393.572 380.507 393.386 379.859 393.386C379.331 393.386 378.881 393.524 378.509 393.8C378.149 394.064 377.909 394.424 377.789 394.88L376.511 394.592C376.703 393.812 377.111 393.218 377.735 392.81C378.359 392.402 379.091 392.198 379.931 392.198C381.023 392.198 381.887 392.486 382.523 393.062C383.171 393.626 383.495 394.436 383.495 395.492V399.416C383.495 399.764 383.675 399.938 384.035 399.938ZM379.661 400.028C380.393 399.98 380.975 399.734 381.407 399.29C381.839 398.834 382.055 398.216 382.055 397.436V396.824L379.247 397.148C378.119 397.268 377.555 397.748 377.555 398.588C377.555 399.08 377.759 399.452 378.167 399.704C378.587 399.956 379.085 400.064 379.661 400.028ZM390.392 392.198C391.4 392.198 392.21 392.486 392.822 393.062C393.434 393.638 393.74 394.448 393.74 395.492V401H392.3V395.816C392.3 395.06 392.096 394.49 391.688 394.106C391.28 393.71 390.728 393.512 390.032 393.512C389.348 393.512 388.796 393.752 388.376 394.232C387.956 394.7 387.746 395.342 387.746 396.158V401H386.306V392.378H387.746V393.548C388.322 392.648 389.204 392.198 390.392 392.198ZM403.27 388.4H404.71V401H403.27V399.524C402.586 400.628 401.53 401.18 400.102 401.18C398.902 401.18 397.9 400.766 397.096 399.938C396.292 399.098 395.89 398.018 395.89 396.698C395.89 395.378 396.286 394.298 397.078 393.458C397.882 392.618 398.89 392.198 400.102 392.198C401.53 392.198 402.586 392.75 403.27 393.854V388.4ZM398.212 399.02C398.788 399.608 399.502 399.902 400.354 399.902C401.206 399.902 401.902 399.608 402.442 399.02C402.994 398.42 403.27 397.646 403.27 396.698C403.27 395.75 402.994 394.976 402.442 394.376C401.902 393.776 401.206 393.476 400.354 393.476C399.502 393.476 398.788 393.776 398.212 394.376C397.648 394.964 397.366 395.738 397.366 396.698C397.366 397.658 397.648 398.432 398.212 399.02ZM414.849 399.938C414.945 399.938 415.047 399.926 415.155 399.902V401.126C414.975 401.162 414.771 401.18 414.543 401.18C414.099 401.18 413.727 401.072 413.427 400.856C413.127 400.628 412.947 400.31 412.887 399.902C412.263 400.754 411.303 401.18 410.007 401.18C409.095 401.18 408.351 400.952 407.775 400.496C407.211 400.04 406.929 399.41 406.929 398.606C406.929 397.814 407.205 397.208 407.757 396.788C408.309 396.368 408.999 396.116 409.827 396.032L412.869 395.69V395.528C412.869 394.844 412.665 394.316 412.257 393.944C411.849 393.572 411.321 393.386 410.673 393.386C410.145 393.386 409.695 393.524 409.323 393.8C408.963 394.064 408.723 394.424 408.603 394.88L407.325 394.592C407.517 393.812 407.925 393.218 408.549 392.81C409.173 392.402 409.905 392.198 410.745 392.198C411.837 392.198 412.701 392.486 413.337 393.062C413.985 393.626 414.309 394.436 414.309 395.492V399.416C414.309 399.764 414.489 399.938 414.849 399.938ZM410.475 400.028C411.207 399.98 411.789 399.734 412.221 399.29C412.653 398.834 412.869 398.216 412.869 397.436V396.824L410.061 397.148C408.933 397.268 408.369 397.748 408.369 398.588C408.369 399.08 408.573 399.452 408.981 399.704C409.401 399.956 409.899 400.064 410.475 400.028ZM11.19 412.4H12.63V425H11.19V423.524C10.506 424.628 9.45 425.18 8.022 425.18C6.822 425.18 5.82 424.766 5.016 423.938C4.212 423.098 3.81 422.018 3.81 420.698C3.81 419.378 4.206 418.298 4.998 417.458C5.802 416.618 6.81 416.198 8.022 416.198C9.45 416.198 10.506 416.75 11.19 417.854V412.4ZM6.132 423.02C6.708 423.608 7.422 423.902 8.274 423.902C9.126 423.902 9.822 423.608 10.362 423.02C10.914 422.42 11.19 421.646 11.19 420.698C11.19 419.75 10.914 418.976 10.362 418.376C9.822 417.776 9.126 417.476 8.274 417.476C7.422 417.476 6.708 417.776 6.132 418.376C5.568 418.964 5.286 419.738 5.286 420.698C5.286 421.658 5.568 422.432 6.132 423.02ZM19.1691 425.18C17.9211 425.18 16.8891 424.772 16.0731 423.956C15.2571 423.128 14.8491 422.042 14.8491 420.698C14.8491 419.354 15.2511 418.268 16.0551 417.44C16.8711 416.612 17.8971 416.198 19.1331 416.198C20.3571 416.198 21.3531 416.594 22.1211 417.386C22.9011 418.178 23.2911 419.228 23.2911 420.536C23.2911 420.68 23.2791 420.836 23.2551 421.004H16.2891C16.3371 421.916 16.6251 422.642 17.1531 423.182C17.6811 423.722 18.3531 423.992 19.1691 423.992C19.7931 423.992 20.3331 423.842 20.7891 423.542C21.2451 423.23 21.5331 422.81 21.6531 422.282L22.9311 422.696C22.7151 423.476 22.2591 424.088 21.5631 424.532C20.8791 424.964 20.0811 425.18 19.1691 425.18ZM16.3611 419.87H21.8691C21.7731 419.138 21.4791 418.544 20.9871 418.088C20.4951 417.632 19.8831 417.404 19.1511 417.404C18.4311 417.404 17.8191 417.626 17.3151 418.07C16.8111 418.514 16.4931 419.114 16.3611 419.87ZM28.2882 425.18C27.4122 425.18 26.6562 424.988 26.0202 424.604C25.3962 424.208 24.9882 423.668 24.7962 422.984L26.0202 422.588C26.1402 423.02 26.3982 423.362 26.7942 423.614C27.2022 423.854 27.6822 423.974 28.2342 423.974C28.8222 423.974 29.2962 423.848 29.6562 423.596C30.0162 423.344 30.1962 423.008 30.1962 422.588C30.1962 422.372 30.1482 422.192 30.0522 422.048C29.9562 421.904 29.8002 421.79 29.5842 421.706C29.3682 421.61 29.1642 421.538 28.9722 421.49C28.7802 421.442 28.5102 421.388 28.1622 421.328C27.8142 421.268 27.5502 421.22 27.3702 421.184C27.1902 421.136 26.9442 421.07 26.6322 420.986C26.3202 420.902 26.0742 420.8 25.8942 420.68C25.7262 420.56 25.5462 420.416 25.3542 420.248C25.1622 420.08 25.0242 419.87 24.9402 419.618C24.8562 419.366 24.8142 419.084 24.8142 418.772C24.8142 417.98 25.1082 417.356 25.6962 416.9C26.2962 416.432 27.0762 416.198 28.0362 416.198C28.8762 416.198 29.5902 416.39 30.1782 416.774C30.7782 417.146 31.1742 417.686 31.3662 418.394L30.1242 418.79C30.0162 418.346 29.7642 418.004 29.3682 417.764C28.9842 417.512 28.5402 417.386 28.0362 417.386C27.4962 417.386 27.0702 417.512 26.7582 417.764C26.4462 418.004 26.2902 418.322 26.2902 418.718C26.2902 419.138 26.4402 419.438 26.7402 419.618C27.0402 419.786 27.4962 419.924 28.1082 420.032C29.2242 420.224 29.9742 420.404 30.3582 420.572C31.2342 420.98 31.6722 421.634 31.6722 422.534C31.6722 423.338 31.3542 423.98 30.7182 424.46C30.0822 424.94 29.2722 425.18 28.2882 425.18ZM35.4335 414.254C35.2175 414.458 34.9595 414.56 34.6595 414.56C34.3595 414.56 34.1015 414.458 33.8855 414.254C33.6815 414.05 33.5795 413.798 33.5795 413.498C33.5795 413.198 33.6815 412.946 33.8855 412.742C34.1015 412.526 34.3595 412.418 34.6595 412.418C34.9595 412.418 35.2175 412.526 35.4335 412.742C35.6495 412.946 35.7575 413.198 35.7575 413.498C35.7575 413.798 35.6495 414.05 35.4335 414.254ZM33.9395 425V416.378H35.3795V425H33.9395ZM45.1685 416.378H46.6085V424.568C46.6085 425.888 46.2125 426.92 45.4205 427.664C44.6405 428.408 43.6205 428.78 42.3605 428.78C41.3765 428.78 40.5125 428.552 39.7685 428.096C39.0365 427.64 38.5505 427.028 38.3105 426.26L39.6065 425.702C39.7385 426.23 40.0505 426.662 40.5425 426.998C41.0465 427.334 41.6465 427.502 42.3425 427.502C43.1945 427.502 43.8785 427.256 44.3945 426.764C44.9105 426.272 45.1685 425.57 45.1685 424.658V423.524C44.4845 424.628 43.4285 425.18 42.0005 425.18C40.8005 425.18 39.7985 424.766 38.9945 423.938C38.1905 423.098 37.7885 422.018 37.7885 420.698C37.7885 419.378 38.1845 418.298 38.9765 417.458C39.7805 416.618 40.7885 416.198 42.0005 416.198C43.4285 416.198 44.4845 416.75 45.1685 417.854V416.378ZM40.1105 423.02C40.6865 423.608 41.4005 423.902 42.2525 423.902C43.1045 423.902 43.8005 423.608 44.3405 423.02C44.8925 422.42 45.1685 421.646 45.1685 420.698C45.1685 419.75 44.8925 418.976 44.3405 418.376C43.8005 417.776 43.1045 417.476 42.2525 417.476C41.4005 417.476 40.6865 417.776 40.1105 418.376C39.5465 418.964 39.2645 419.738 39.2645 420.698C39.2645 421.658 39.5465 422.432 40.1105 423.02ZM53.5076 416.198C54.5156 416.198 55.3256 416.486 55.9376 417.062C56.5496 417.638 56.8556 418.448 56.8556 419.492V425H55.4156V419.816C55.4156 419.06 55.2116 418.49 54.8036 418.106C54.3956 417.71 53.8436 417.512 53.1476 417.512C52.4636 417.512 51.9116 417.752 51.4916 418.232C51.0716 418.7 50.8616 419.342 50.8616 420.158V425H49.4216V416.378H50.8616V417.548C51.4376 416.648 52.3196 416.198 53.5076 416.198ZM63.3253 425.18C62.0773 425.18 61.0453 424.772 60.2293 423.956C59.4133 423.128 59.0053 422.042 59.0053 420.698C59.0053 419.354 59.4073 418.268 60.2113 417.44C61.0273 416.612 62.0533 416.198 63.2893 416.198C64.5133 416.198 65.5093 416.594 66.2773 417.386C67.0573 418.178 67.4473 419.228 67.4473 420.536C67.4473 420.68 67.4353 420.836 67.4113 421.004H60.4453C60.4933 421.916 60.7813 422.642 61.3093 423.182C61.8373 423.722 62.5093 423.992 63.3253 423.992C63.9493 423.992 64.4893 423.842 64.9453 423.542C65.4013 423.23 65.6893 422.81 65.8093 422.282L67.0873 422.696C66.8713 423.476 66.4153 424.088 65.7193 424.532C65.0353 424.964 64.2373 425.18 63.3253 425.18ZM60.5173 419.87H66.0253C65.9293 419.138 65.6353 418.544 65.1433 418.088C64.6513 417.632 64.0393 417.404 63.3073 417.404C62.5873 417.404 61.9753 417.626 61.4713 418.07C60.9673 418.514 60.6493 419.114 60.5173 419.87ZM76.4224 412.4H77.8624V425H76.4224V423.524C75.7384 424.628 74.6824 425.18 73.2544 425.18C72.0544 425.18 71.0524 424.766 70.2484 423.938C69.4444 423.098 69.0424 422.018 69.0424 420.698C69.0424 419.378 69.4384 418.298 70.2304 417.458C71.0344 416.618 72.0424 416.198 73.2544 416.198C74.6824 416.198 75.7384 416.75 76.4224 417.854V412.4ZM71.3644 423.02C71.9404 423.608 72.6544 423.902 73.5064 423.902C74.3584 423.902 75.0544 423.608 75.5944 423.02C76.1464 422.42 76.4224 421.646 76.4224 420.698C76.4224 419.75 76.1464 418.976 75.5944 418.376C75.0544 417.776 74.3584 417.476 73.5064 417.476C72.6544 417.476 71.9404 417.776 71.3644 418.376C70.8004 418.964 70.5184 419.738 70.5184 420.698C70.5184 421.658 70.8004 422.432 71.3644 423.02ZM88.6768 425.18C87.7408 425.18 86.9908 424.928 86.4268 424.424C85.8628 423.908 85.5808 423.158 85.5808 422.174V417.638H83.7988V416.378H85.1488C85.3168 416.246 85.4308 416.006 85.4908 415.658C85.5508 415.31 85.5808 414.71 85.5808 413.858H87.0208V416.378H90.0808V417.638H87.0208V422.174C87.0208 422.714 87.1828 423.14 87.5068 423.452C87.8308 423.752 88.2988 423.902 88.9108 423.902C89.2948 423.902 89.6908 423.83 90.0988 423.686L90.2968 424.91C89.8168 425.09 89.2768 425.18 88.6768 425.18ZM98.9292 423.938C98.0772 424.766 97.0092 425.18 95.7252 425.18C94.4412 425.18 93.3732 424.772 92.5212 423.956C91.6692 423.128 91.2432 422.054 91.2432 420.734C91.2432 419.378 91.6632 418.286 92.5032 417.458C93.3552 416.618 94.4292 416.198 95.7252 416.198C97.0092 416.198 98.0772 416.618 98.9292 417.458C99.7812 418.286 100.207 419.378 100.207 420.734C100.207 422.042 99.7812 423.11 98.9292 423.938ZM95.7252 423.884C96.5772 423.884 97.2912 423.596 97.8672 423.02C98.4432 422.432 98.7312 421.664 98.7312 420.716C98.7312 419.744 98.4432 418.97 97.8672 418.394C97.3032 417.806 96.5892 417.512 95.7252 417.512C94.8612 417.512 94.1412 417.806 93.5652 418.394C93.0012 418.97 92.7192 419.744 92.7192 420.716C92.7192 421.664 93.0012 422.432 93.5652 423.02C94.1412 423.596 94.8612 423.884 95.7252 423.884ZM108.189 414.254C107.973 414.458 107.715 414.56 107.415 414.56C107.115 414.56 106.857 414.458 106.641 414.254C106.437 414.05 106.335 413.798 106.335 413.498C106.335 413.198 106.437 412.946 106.641 412.742C106.857 412.526 107.115 412.418 107.415 412.418C107.715 412.418 107.973 412.526 108.189 412.742C108.405 412.946 108.513 413.198 108.513 413.498C108.513 413.798 108.405 414.05 108.189 414.254ZM106.695 425V416.378H108.135V425H106.695ZM117.924 416.378H119.364V424.568C119.364 425.888 118.968 426.92 118.176 427.664C117.396 428.408 116.376 428.78 115.116 428.78C114.132 428.78 113.268 428.552 112.524 428.096C111.792 427.64 111.306 427.028 111.066 426.26L112.362 425.702C112.494 426.23 112.806 426.662 113.298 426.998C113.802 427.334 114.402 427.502 115.098 427.502C115.95 427.502 116.634 427.256 117.15 426.764C117.666 426.272 117.924 425.57 117.924 424.658V423.524C117.24 424.628 116.184 425.18 114.756 425.18C113.556 425.18 112.554 424.766 111.75 423.938C110.946 423.098 110.544 422.018 110.544 420.698C110.544 419.378 110.94 418.298 111.732 417.458C112.536 416.618 113.544 416.198 114.756 416.198C116.184 416.198 117.24 416.75 117.924 417.854V416.378ZM112.866 423.02C113.442 423.608 114.156 423.902 115.008 423.902C115.86 423.902 116.556 423.608 117.096 423.02C117.648 422.42 117.924 421.646 117.924 420.698C117.924 419.75 117.648 418.976 117.096 418.376C116.556 417.776 115.86 417.476 115.008 417.476C114.156 417.476 113.442 417.776 112.866 418.376C112.302 418.964 112.02 419.738 112.02 420.698C112.02 421.658 112.302 422.432 112.866 423.02ZM126.263 416.198C127.271 416.198 128.081 416.486 128.693 417.062C129.305 417.638 129.611 418.448 129.611 419.492V425H128.171V419.816C128.171 419.06 127.967 418.49 127.559 418.106C127.151 417.71 126.599 417.512 125.903 417.512C125.219 417.512 124.667 417.752 124.247 418.232C123.827 418.7 123.617 419.342 123.617 420.158V425H122.177V416.378H123.617V417.548C124.193 416.648 125.075 416.198 126.263 416.198ZM134.029 414.254C133.813 414.458 133.555 414.56 133.255 414.56C132.955 414.56 132.697 414.458 132.481 414.254C132.277 414.05 132.175 413.798 132.175 413.498C132.175 413.198 132.277 412.946 132.481 412.742C132.697 412.526 132.955 412.418 133.255 412.418C133.555 412.418 133.813 412.526 134.029 412.742C134.245 412.946 134.353 413.198 134.353 413.498C134.353 413.798 134.245 414.05 134.029 414.254ZM132.535 425V416.378H133.975V425H132.535ZM140.866 425.18C139.93 425.18 139.18 424.928 138.616 424.424C138.052 423.908 137.77 423.158 137.77 422.174V417.638H135.988V416.378H137.338C137.506 416.246 137.62 416.006 137.68 415.658C137.74 415.31 137.77 414.71 137.77 413.858H139.21V416.378H142.27V417.638H139.21V422.174C139.21 422.714 139.372 423.14 139.696 423.452C140.02 423.752 140.488 423.902 141.1 423.902C141.484 423.902 141.88 423.83 142.288 423.686L142.486 424.91C142.006 425.09 141.466 425.18 140.866 425.18ZM147.771 425.18C146.523 425.18 145.491 424.772 144.675 423.956C143.859 423.128 143.451 422.042 143.451 420.698C143.451 419.354 143.853 418.268 144.657 417.44C145.473 416.612 146.499 416.198 147.735 416.198C148.959 416.198 149.955 416.594 150.723 417.386C151.503 418.178 151.893 419.228 151.893 420.536C151.893 420.68 151.881 420.836 151.857 421.004H144.891C144.939 421.916 145.227 422.642 145.755 423.182C146.283 423.722 146.955 423.992 147.771 423.992C148.395 423.992 148.935 423.842 149.391 423.542C149.847 423.23 150.135 422.81 150.255 422.282L151.533 422.696C151.317 423.476 150.861 424.088 150.165 424.532C149.481 424.964 148.683 425.18 147.771 425.18ZM144.963 419.87H150.471C150.375 419.138 150.081 418.544 149.589 418.088C149.097 417.632 148.485 417.404 147.753 417.404C147.033 417.404 146.421 417.626 145.917 418.07C145.413 418.514 145.095 419.114 144.963 419.87ZM162.065 425.18C160.781 425.18 159.731 424.832 158.915 424.136C158.111 423.44 157.709 422.528 157.709 421.4C157.709 420.524 157.955 419.81 158.447 419.258C158.939 418.706 159.617 418.226 160.481 417.818C159.653 416.87 159.239 415.952 159.239 415.064C159.239 414.26 159.521 413.588 160.085 413.048C160.661 412.496 161.429 412.22 162.389 412.22C163.349 412.22 164.135 412.49 164.747 413.03C165.371 413.57 165.683 414.26 165.683 415.1C165.683 415.532 165.599 415.922 165.431 416.27C165.275 416.606 165.029 416.906 164.693 417.17C164.369 417.422 164.057 417.632 163.757 417.8C163.457 417.956 163.073 418.13 162.605 418.322L165.701 421.616C166.073 420.896 166.265 420.098 166.277 419.222H167.609C167.609 420.41 167.285 421.544 166.637 422.624L168.833 425H167.159L165.755 423.506C164.831 424.622 163.601 425.18 162.065 425.18ZM161.813 417.422C162.233 417.218 162.539 417.062 162.731 416.954C162.935 416.846 163.175 416.69 163.451 416.486C163.727 416.282 163.919 416.072 164.027 415.856C164.147 415.628 164.207 415.37 164.207 415.082C164.207 414.578 164.039 414.17 163.703 413.858C163.367 413.546 162.941 413.39 162.425 413.39C161.909 413.39 161.489 413.552 161.165 413.876C160.853 414.2 160.697 414.62 160.697 415.136C160.697 415.76 161.069 416.522 161.813 417.422ZM162.137 424.01C163.253 424.01 164.147 423.518 164.819 422.534L161.273 418.772C160.625 419.12 160.121 419.492 159.761 419.888C159.401 420.272 159.221 420.764 159.221 421.364C159.221 422.144 159.497 422.78 160.049 423.272C160.601 423.764 161.297 424.01 162.137 424.01ZM176.586 414.254C176.37 414.458 176.112 414.56 175.812 414.56C175.512 414.56 175.254 414.458 175.038 414.254C174.834 414.05 174.732 413.798 174.732 413.498C174.732 413.198 174.834 412.946 175.038 412.742C175.254 412.526 175.512 412.418 175.812 412.418C176.112 412.418 176.37 412.526 176.586 412.742C176.802 412.946 176.91 413.198 176.91 413.498C176.91 413.798 176.802 414.05 176.586 414.254ZM175.092 425V416.378H176.532V425H175.092ZM183.621 416.198C184.629 416.198 185.439 416.486 186.051 417.062C186.663 417.638 186.969 418.448 186.969 419.492V425H185.529V419.816C185.529 419.06 185.325 418.49 184.917 418.106C184.509 417.71 183.957 417.512 183.261 417.512C182.577 417.512 182.025 417.752 181.605 418.232C181.185 418.7 180.975 419.342 180.975 420.158V425H179.535V416.378H180.975V417.548C181.551 416.648 182.433 416.198 183.621 416.198ZM192.521 425.18C191.645 425.18 190.889 424.988 190.253 424.604C189.629 424.208 189.221 423.668 189.029 422.984L190.253 422.588C190.373 423.02 190.631 423.362 191.027 423.614C191.435 423.854 191.915 423.974 192.467 423.974C193.055 423.974 193.529 423.848 193.889 423.596C194.249 423.344 194.429 423.008 194.429 422.588C194.429 422.372 194.381 422.192 194.285 422.048C194.189 421.904 194.033 421.79 193.817 421.706C193.601 421.61 193.397 421.538 193.205 421.49C193.013 421.442 192.743 421.388 192.395 421.328C192.047 421.268 191.783 421.22 191.603 421.184C191.423 421.136 191.177 421.07 190.865 420.986C190.553 420.902 190.307 420.8 190.127 420.68C189.959 420.56 189.779 420.416 189.587 420.248C189.395 420.08 189.257 419.87 189.173 419.618C189.089 419.366 189.047 419.084 189.047 418.772C189.047 417.98 189.341 417.356 189.929 416.9C190.529 416.432 191.309 416.198 192.269 416.198C193.109 416.198 193.823 416.39 194.411 416.774C195.011 417.146 195.407 417.686 195.599 418.394L194.357 418.79C194.249 418.346 193.997 418.004 193.601 417.764C193.217 417.512 192.773 417.386 192.269 417.386C191.729 417.386 191.303 417.512 190.991 417.764C190.679 418.004 190.523 418.322 190.523 418.718C190.523 419.138 190.673 419.438 190.973 419.618C191.273 419.786 191.729 419.924 192.341 420.032C193.457 420.224 194.207 420.404 194.591 420.572C195.467 420.98 195.905 421.634 195.905 422.534C195.905 423.338 195.587 423.98 194.951 424.46C194.315 424.94 193.505 425.18 192.521 425.18ZM202.582 416.198C203.794 416.198 204.802 416.618 205.606 417.458C206.41 418.298 206.812 419.378 206.812 420.698C206.812 422.018 206.41 423.098 205.606 423.938C204.802 424.766 203.8 425.18 202.6 425.18C201.172 425.18 200.116 424.628 199.432 423.524V428.6H197.992V416.378H199.432V417.836C200.116 416.744 201.166 416.198 202.582 416.198ZM200.242 423.02C200.794 423.608 201.496 423.902 202.348 423.902C203.2 423.902 203.908 423.608 204.472 423.02C205.048 422.432 205.336 421.658 205.336 420.698C205.336 419.738 205.048 418.964 204.472 418.376C203.908 417.776 203.2 417.476 202.348 417.476C201.496 417.476 200.794 417.776 200.242 418.376C199.702 418.976 199.432 419.75 199.432 420.698C199.432 421.646 199.702 422.42 200.242 423.02ZM210.687 414.254C210.471 414.458 210.213 414.56 209.913 414.56C209.613 414.56 209.355 414.458 209.139 414.254C208.935 414.05 208.833 413.798 208.833 413.498C208.833 413.198 208.935 412.946 209.139 412.742C209.355 412.526 209.613 412.418 209.913 412.418C210.213 412.418 210.471 412.526 210.687 412.742C210.903 412.946 211.011 413.198 211.011 413.498C211.011 413.798 210.903 414.05 210.687 414.254ZM209.193 425V416.378H210.633V425H209.193ZM217.65 416.198C218.166 416.198 218.598 416.27 218.946 416.414L218.73 417.764C218.334 417.608 217.908 417.53 217.452 417.53C216.744 417.53 216.168 417.776 215.724 418.268C215.292 418.748 215.076 419.408 215.076 420.248V425H213.636V416.378H215.076V417.53C215.64 416.642 216.498 416.198 217.65 416.198ZM224.112 425.18C222.864 425.18 221.832 424.772 221.016 423.956C220.2 423.128 219.792 422.042 219.792 420.698C219.792 419.354 220.194 418.268 220.998 417.44C221.814 416.612 222.84 416.198 224.076 416.198C225.3 416.198 226.296 416.594 227.064 417.386C227.844 418.178 228.234 419.228 228.234 420.536C228.234 420.68 228.222 420.836 228.198 421.004H221.232C221.28 421.916 221.568 422.642 222.096 423.182C222.624 423.722 223.296 423.992 224.112 423.992C224.736 423.992 225.276 423.842 225.732 423.542C226.188 423.23 226.476 422.81 226.596 422.282L227.874 422.696C227.658 423.476 227.202 424.088 226.506 424.532C225.822 424.964 225.024 425.18 224.112 425.18ZM221.304 419.87H226.812C226.716 419.138 226.422 418.544 225.93 418.088C225.438 417.632 224.826 417.404 224.094 417.404C223.374 417.404 222.762 417.626 222.258 418.07C221.754 418.514 221.436 419.114 221.304 419.87ZM236.211 414.254C235.995 414.458 235.737 414.56 235.437 414.56C235.137 414.56 234.879 414.458 234.663 414.254C234.459 414.05 234.357 413.798 234.357 413.498C234.357 413.198 234.459 412.946 234.663 412.742C234.879 412.526 235.137 412.418 235.437 412.418C235.737 412.418 235.995 412.526 236.211 412.742C236.427 412.946 236.535 413.198 236.535 413.498C236.535 413.798 236.427 414.05 236.211 414.254ZM234.717 425V416.378H236.157V425H234.717ZM243.246 416.198C244.254 416.198 245.064 416.486 245.676 417.062C246.288 417.638 246.594 418.448 246.594 419.492V425H245.154V419.816C245.154 419.06 244.95 418.49 244.542 418.106C244.134 417.71 243.582 417.512 242.886 417.512C242.202 417.512 241.65 417.752 241.23 418.232C240.81 418.7 240.6 419.342 240.6 420.158V425H239.16V416.378H240.6V417.548C241.176 416.648 242.058 416.198 243.246 416.198ZM253.424 416.198C254.432 416.198 255.242 416.486 255.854 417.062C256.466 417.638 256.772 418.448 256.772 419.492V425H255.332V419.816C255.332 419.06 255.128 418.49 254.72 418.106C254.312 417.71 253.76 417.512 253.064 417.512C252.38 417.512 251.828 417.752 251.408 418.232C250.988 418.7 250.778 419.342 250.778 420.158V425H249.338V416.378H250.778V417.548C251.354 416.648 252.236 416.198 253.424 416.198ZM266.589 423.938C265.737 424.766 264.669 425.18 263.385 425.18C262.101 425.18 261.033 424.772 260.181 423.956C259.329 423.128 258.903 422.054 258.903 420.734C258.903 419.378 259.323 418.286 260.163 417.458C261.015 416.618 262.089 416.198 263.385 416.198C264.669 416.198 265.737 416.618 266.589 417.458C267.441 418.286 267.867 419.378 267.867 420.734C267.867 422.042 267.441 423.11 266.589 423.938ZM263.385 423.884C264.237 423.884 264.951 423.596 265.527 423.02C266.103 422.432 266.391 421.664 266.391 420.716C266.391 419.744 266.103 418.97 265.527 418.394C264.963 417.806 264.249 417.512 263.385 417.512C262.521 417.512 261.801 417.806 261.225 418.394C260.661 418.97 260.379 419.744 260.379 420.716C260.379 421.664 260.661 422.432 261.225 423.02C261.801 423.596 262.521 423.884 263.385 423.884ZM276.119 416.378H277.595L273.851 425H272.303L268.559 416.378H270.053L273.095 423.47L276.119 416.378ZM286.23 423.938C286.326 423.938 286.428 423.926 286.536 423.902V425.126C286.356 425.162 286.152 425.18 285.924 425.18C285.48 425.18 285.108 425.072 284.808 424.856C284.508 424.628 284.328 424.31 284.268 423.902C283.644 424.754 282.684 425.18 281.388 425.18C280.476 425.18 279.732 424.952 279.156 424.496C278.592 424.04 278.31 423.41 278.31 422.606C278.31 421.814 278.586 421.208 279.138 420.788C279.69 420.368 280.38 420.116 281.208 420.032L284.25 419.69V419.528C284.25 418.844 284.046 418.316 283.638 417.944C283.23 417.572 282.702 417.386 282.054 417.386C281.526 417.386 281.076 417.524 280.704 417.8C280.344 418.064 280.104 418.424 279.984 418.88L278.706 418.592C278.898 417.812 279.306 417.218 279.93 416.81C280.554 416.402 281.286 416.198 282.126 416.198C283.218 416.198 284.082 416.486 284.718 417.062C285.366 417.626 285.69 418.436 285.69 419.492V423.416C285.69 423.764 285.87 423.938 286.23 423.938ZM281.856 424.028C282.588 423.98 283.17 423.734 283.602 423.29C284.034 422.834 284.25 422.216 284.25 421.436V420.824L281.442 421.148C280.314 421.268 279.75 421.748 279.75 422.588C279.75 423.08 279.954 423.452 280.362 423.704C280.782 423.956 281.28 424.064 281.856 424.028ZM292.39 425.18C291.454 425.18 290.704 424.928 290.14 424.424C289.576 423.908 289.294 423.158 289.294 422.174V417.638H287.512V416.378H288.862C289.03 416.246 289.144 416.006 289.204 415.658C289.264 415.31 289.294 414.71 289.294 413.858H290.734V416.378H293.794V417.638H290.734V422.174C290.734 422.714 290.896 423.14 291.22 423.452C291.544 423.752 292.012 423.902 292.624 423.902C293.008 423.902 293.404 423.83 293.812 423.686L294.01 424.91C293.53 425.09 292.99 425.18 292.39 425.18ZM297.418 414.254C297.202 414.458 296.944 414.56 296.644 414.56C296.344 414.56 296.086 414.458 295.87 414.254C295.666 414.05 295.564 413.798 295.564 413.498C295.564 413.198 295.666 412.946 295.87 412.742C296.086 412.526 296.344 412.418 296.644 412.418C296.944 412.418 297.202 412.526 297.418 412.742C297.634 412.946 297.742 413.198 297.742 413.498C297.742 413.798 297.634 414.05 297.418 414.254ZM295.924 425V416.378H297.364V425H295.924ZM307.441 423.938C306.589 424.766 305.521 425.18 304.237 425.18C302.953 425.18 301.885 424.772 301.033 423.956C300.181 423.128 299.755 422.054 299.755 420.734C299.755 419.378 300.175 418.286 301.015 417.458C301.867 416.618 302.941 416.198 304.237 416.198C305.521 416.198 306.589 416.618 307.441 417.458C308.293 418.286 308.719 419.378 308.719 420.734C308.719 422.042 308.293 423.11 307.441 423.938ZM304.237 423.884C305.089 423.884 305.803 423.596 306.379 423.02C306.955 422.432 307.243 421.664 307.243 420.716C307.243 419.744 306.955 418.97 306.379 418.394C305.815 417.806 305.101 417.512 304.237 417.512C303.373 417.512 302.653 417.806 302.077 418.394C301.513 418.97 301.231 419.744 301.231 420.716C301.231 421.664 301.513 422.432 302.077 423.02C302.653 423.596 303.373 423.884 304.237 423.884ZM315 416.198C316.008 416.198 316.818 416.486 317.43 417.062C318.042 417.638 318.348 418.448 318.348 419.492V425H316.908V419.816C316.908 419.06 316.704 418.49 316.296 418.106C315.888 417.71 315.336 417.512 314.64 417.512C313.956 417.512 313.404 417.752 312.984 418.232C312.564 418.7 312.354 419.342 312.354 420.158V425H310.914V416.378H312.354V417.548C312.93 416.648 313.812 416.198 315 416.198ZM322.406 425.09C322.106 425.09 321.854 424.994 321.65 424.802C321.458 424.598 321.362 424.346 321.362 424.046C321.362 423.758 321.458 423.518 321.65 423.326C321.854 423.122 322.106 423.02 322.406 423.02C322.694 423.02 322.94 423.122 323.144 423.326C323.36 423.518 323.468 423.758 323.468 424.046C323.468 424.334 323.36 424.58 323.144 424.784C322.94 424.988 322.694 425.09 322.406 425.09Z" fill="white"/>
<path d="M255.44 119.737C255.271 120.336 255.217 120.816 255.276 121.176C255.336 121.525 255.455 121.783 255.635 121.951C255.887 122.155 256.217 122.246 256.625 122.222C257.081 122.186 257.453 122.025 257.742 121.737C257.874 121.605 257.958 121.443 257.994 121.251C258.03 121.059 257.995 120.843 257.887 120.603C257.611 120.039 257.282 119.505 256.899 119C256.527 118.496 256.114 118.027 255.658 117.595C254.891 116.874 254.406 116.166 254.202 115.469C254.011 114.761 254.006 114.113 254.187 113.525C254.295 113.177 254.451 112.86 254.656 112.572C254.872 112.284 255.124 112.038 255.412 111.835C255.701 111.619 256.013 111.457 256.349 111.35C256.685 111.23 257.033 111.17 257.393 111.171C257.669 111.171 257.939 111.207 258.203 111.28C258.479 111.352 258.743 111.472 258.995 111.641C259.498 111.953 259.912 112.458 260.235 113.154C260.558 113.85 260.689 114.774 260.628 115.926L258.63 115.798C258.667 115.078 258.613 114.526 258.47 114.142C258.326 113.746 258.141 113.47 257.913 113.313C257.781 113.229 257.613 113.187 257.409 113.187C257.121 113.186 256.857 113.27 256.617 113.438C256.388 113.606 256.22 113.828 256.112 114.103C256.04 114.355 256.063 114.655 256.183 115.003C256.303 115.352 256.584 115.718 257.028 116.102C257.567 116.631 258.071 117.208 258.538 117.832C259.017 118.445 259.412 119.093 259.724 119.777C260.047 120.486 260.136 121.128 259.992 121.704C259.847 122.267 259.564 122.753 259.144 123.161C258.844 123.472 258.483 123.718 258.063 123.898C257.655 124.077 257.235 124.185 256.803 124.22C256.347 124.268 255.897 124.225 255.453 124.093C255.021 123.972 254.631 123.756 254.284 123.443C253.84 123.047 253.523 122.507 253.331 121.822C253.152 121.126 253.201 120.256 253.478 119.213L255.44 119.737ZM261.384 123.991L261.955 111.932L263.953 112.024L263.4 124.083L261.384 123.991ZM272.603 123.841L270.371 123.839L267.122 115.627L267.185 123.278L265.187 123.275L265.072 113.267L265.073 112.259L267.935 112.262L270.771 119.393L271.067 112.212L273.065 112.268L272.603 123.841ZM279.512 123.975C278.816 124.01 278.192 123.962 277.64 123.829C277.088 123.696 276.596 123.504 276.165 123.251C275.733 122.999 275.361 122.692 275.05 122.332C274.75 121.96 274.499 121.552 274.295 121.107C274.116 120.699 273.984 120.273 273.9 119.829C273.829 119.385 273.799 118.935 273.812 118.479C273.849 117.555 274.03 116.673 274.355 115.833C274.571 115.294 274.842 114.79 275.166 114.322C275.491 113.855 275.863 113.453 276.284 113.117C276.704 112.77 277.166 112.5 277.671 112.309C278.175 112.118 278.715 112.034 279.291 112.059L279.217 114.093C278.881 114.068 278.563 114.122 278.263 114.254C277.962 114.373 277.686 114.547 277.434 114.775C277.182 114.99 276.953 115.254 276.749 115.566C276.545 115.878 276.376 116.208 276.244 116.555C275.991 117.179 275.847 117.833 275.81 118.517C275.809 119.189 275.923 119.789 276.15 120.317C276.377 120.822 276.755 121.236 277.283 121.561C277.81 121.873 278.518 122.006 279.406 121.959L279.512 123.975ZM280.194 123.976L280.531 112.06L286.741 112.067L286.739 114.101L282.491 114.096L282.378 118.2L285.096 118.203L285.094 120.219L282.304 120.216L282.266 121.908L286.802 121.805L286.872 123.821L280.194 123.976Z" fill="#F45001"/>
<path fill-rule="evenodd" clip-rule="evenodd" d="M249 124.625C247.962 124.502 246.925 124.44 245.887 124.44C243.367 124.44 240.801 124.813 238.187 125.56C235.574 126.307 233.241 127.473 231.187 129.06C227.454 131.673 224.607 135.453 222.647 140.4C220.781 145.347 220.454 151.693 221.667 159.44L237.067 157.06C236.414 152.673 236.414 149.313 237.067 146.98C237.814 144.553 238.887 142.827 240.287 141.8C241.314 140.867 242.527 140.353 243.927 140.26C244.674 140.073 245.467 140.027 246.307 140.12C247.147 140.12 247.941 140.213 248.687 140.4C250.554 140.867 252.141 141.52 253.447 142.36C254.847 143.107 255.641 143.993 255.827 145.02C256.481 148.38 256.387 151.553 255.547 154.54C254.707 157.433 253.401 160.187 251.627 162.8C249.947 165.413 247.941 167.933 245.607 170.36C243.274 172.693 240.894 175.027 238.467 177.36C235.667 179.973 232.961 182.633 230.347 185.34C227.827 187.953 225.541 190.753 223.487 193.74C221.527 196.633 219.941 199.76 218.727 203.12C217.607 206.48 217.094 210.213 217.187 214.32L217.327 221.88H225.027L266.047 222.44L266.327 206.9L234.407 206.34C235.807 203.353 237.861 200.413 240.567 197.52C243.274 194.627 246.167 191.733 249.247 188.84C252.421 185.76 255.547 182.633 258.627 179.46C261.707 176.193 264.321 172.74 266.467 169.1C268.707 165.367 270.294 161.307 271.227 156.92C272.254 152.533 272.254 147.633 271.227 142.22C270.667 139.42 269.547 136.947 267.867 134.8C266.805 133.384 265.594 132.118 264.234 131H249V124.625ZM277.478 131L278.89 143.06L284.35 142.5L282.67 221.74L298.35 222.16L300.186 131H277.478ZM122.66 125.56C120.047 126.307 117.713 127.473 115.66 129.06C111.927 131.673 109.08 135.453 107.12 140.4C105.253 145.347 104.927 151.693 106.14 159.44L121.54 157.06C120.887 152.673 120.887 149.313 121.54 146.98C122.287 144.553 123.36 142.827 124.76 141.8C125.787 140.867 127 140.353 128.4 140.26C129.147 140.073 129.94 140.027 130.78 140.12C131.62 140.12 132.413 140.213 133.16 140.4C135.027 140.867 136.613 141.52 137.92 142.36C139.32 143.107 140.113 143.993 140.3 145.02C140.953 148.38 140.86 151.553 140.02 154.54C139.18 157.433 137.873 160.187 136.1 162.8C134.42 165.413 132.413 167.933 130.08 170.36C127.747 172.693 125.367 175.027 122.94 177.36C120.14 179.973 117.433 182.633 114.82 185.34C112.3 187.953 110.013 190.753 107.96 193.74C106 196.633 104.413 199.76 103.2 203.12C102.08 206.48 101.567 210.213 101.66 214.32L101.8 221.88H109.5L150.52 222.44L150.8 206.9L118.88 206.34C120.28 203.353 122.333 200.413 125.04 197.52C127.747 194.627 130.64 191.733 133.72 188.84C136.893 185.76 140.02 182.633 143.1 179.46C146.18 176.193 148.793 172.74 150.94 169.1C153.18 165.367 154.767 161.307 155.7 156.92C156.727 152.533 156.727 147.633 155.7 142.22C155.14 139.42 154.02 136.947 152.34 134.8C150.66 132.56 148.607 130.693 146.18 129.2C143.847 127.613 141.28 126.447 138.48 125.7C135.773 124.86 133.067 124.44 130.36 124.44C127.84 124.44 125.273 124.813 122.66 125.56ZM164.317 155.1C163.477 161.26 163.057 167.373 163.057 173.44C163.057 176.147 163.197 179.227 163.477 182.68C163.757 186.133 164.27 189.68 165.017 193.32C165.763 196.96 166.743 200.553 167.957 204.1C169.17 207.647 170.71 210.82 172.576 213.62C174.443 216.327 176.637 218.52 179.157 220.2C181.77 221.88 184.757 222.72 188.117 222.72C191.197 222.72 193.997 221.833 196.517 220.06C199.037 218.287 201.277 215.86 203.237 212.78C205.197 209.7 206.877 206.107 208.277 202C209.677 197.893 210.75 193.553 211.497 188.98C212.337 182.82 212.757 176.66 212.757 170.5C212.943 164.433 212.523 158.413 211.497 152.44C210.843 148.333 209.863 144.553 208.557 141.1C207.25 137.647 205.617 134.66 203.657 132.14C201.697 129.62 199.41 127.66 196.797 126.26C194.277 124.86 191.383 124.16 188.117 124.16C184.757 124.16 181.77 125 179.157 126.68C176.543 128.267 174.257 130.46 172.297 133.26C170.337 135.967 168.703 139.187 167.396 142.92C166.09 146.653 165.063 150.713 164.317 155.1ZM190.917 204.94C190.077 206.433 189.143 207.18 188.117 207.18C186.997 207.18 185.97 206.48 185.037 205.08C184.103 203.68 183.263 201.907 182.517 199.76C181.863 197.613 181.257 195.233 180.697 192.62C180.23 189.913 179.81 187.3 179.437 184.78C179.157 182.26 178.923 179.973 178.737 177.92C178.643 175.773 178.597 174.187 178.597 173.16C178.597 171.48 178.737 168.82 179.017 165.18C179.297 161.54 179.763 157.853 180.417 154.12C181.163 150.293 182.143 146.98 183.357 144.18C184.663 141.287 186.25 139.793 188.117 139.7C189.983 139.7 191.57 141.193 192.877 144.18C194.183 147.073 195.257 150.713 196.097 155.1C196.47 157.713 196.75 160.327 196.937 162.94C197.123 165.46 197.217 167.98 197.217 170.5C197.217 171.62 197.123 173.3 196.937 175.54C196.75 177.78 196.47 180.253 196.097 182.96C195.817 185.667 195.397 188.467 194.837 191.36C194.37 194.16 193.81 196.773 193.157 199.2C192.503 201.533 191.757 203.447 190.917 204.94Z" fill="#A4B8FF"/>
</svg>
