<svg width="50" height="51" viewBox="0 0 50 51" fill="none" xmlns="http://www.w3.org/2000/svg">
<circle cx="25" cy="25.4824" r="24.5" stroke="white"/>
<path d="M26.6668 26.0823H26.0168V26.7323V33.1656H23.9835V26.7323V26.0823H23.3335H21.4835V24.0489H23.3335H23.9835V23.3989V21.0656C23.9835 19.939 24.3367 19.1409 24.8716 18.6235C25.4103 18.1023 26.2026 17.7989 27.2027 17.7989C27.8593 17.7989 28.4909 17.8294 28.9335 17.8601V19.4156H28.3335C27.4212 19.4156 26.7257 19.6354 26.336 20.214C26.1556 20.482 26.0819 20.772 26.0485 21.0243C26.0168 21.2638 26.0168 21.512 26.0168 21.714C26.0168 21.7201 26.0168 21.7262 26.0168 21.7323V23.3989V24.0489H26.6668H28.751L28.2427 26.0823H26.6668Z" stroke="white" stroke-width="1.3"/>
</svg>
