<svg width="284" height="59" viewBox="0 0 284 59" fill="none" xmlns="http://www.w3.org/2000/svg">
<g clip-path="url(#clip0_950_11105)">
<path d="M0.2424 14.1966L10.7675 2.70738L34.3625 31.4861L10.5308 57.6752L1.39302 46.7294L19.8136 31.2292L0.2424 14.1966Z" fill="#F45001"/>
<path d="M30.2154 13.5521L40.7405 2.06285L64.3355 30.8416L40.5138 57.0305L31.376 46.0846L49.7866 30.5847L30.2154 13.5521Z" fill="#F45001"/>
<path d="M60.8626 14.0208L71.3877 2.5316L94.9825 31.3003L71.151 57.4994L62.0133 46.5536L80.4338 31.0535L60.8626 14.0208Z" fill="#F45001"/>
</g>
<g clip-path="url(#clip1_950_11105)">
<path d="M94.2424 14.1966L104.767 2.70738L128.363 31.4861L104.531 57.6752L95.393 46.7294L113.814 31.2292L94.2424 14.1966Z" fill="#F45001"/>
<path d="M124.215 13.5521L134.741 2.06285L158.336 30.8416L134.514 57.0305L125.376 46.0846L143.787 30.5847L124.215 13.5521Z" fill="#F45001"/>
<path d="M154.863 14.0208L165.388 2.5316L188.983 31.3003L165.151 57.4994L156.013 46.5536L174.434 31.0535L154.863 14.0208Z" fill="#F45001"/>
</g>
<g clip-path="url(#clip2_950_11105)">
<path d="M188.242 14.1966L198.767 2.70738L222.363 31.4861L198.531 57.6752L189.393 46.7294L207.814 31.2292L188.242 14.1966Z" fill="#F45001"/>
<path d="M218.215 13.5521L228.741 2.06285L252.336 30.8416L228.514 57.0305L219.376 46.0846L237.787 30.5847L218.215 13.5521Z" fill="#F45001"/>
<path d="M248.863 14.0208L259.388 2.5316L282.983 31.3003L259.151 57.4994L250.013 46.5536L268.434 31.0535L248.863 14.0208Z" fill="#F45001"/>
</g>
<defs>
<clipPath id="clip0_950_11105">
<rect width="56.08" height="94.35" fill="white" transform="translate(94.3281 0.908203) rotate(88.7665)"/>
</clipPath>
<clipPath id="clip1_950_11105">
<rect width="56.08" height="94.35" fill="white" transform="translate(188.328 0.908203) rotate(88.7665)"/>
</clipPath>
<clipPath id="clip2_950_11105">
<rect width="56.08" height="94.35" fill="white" transform="translate(282.328 0.908203) rotate(88.7665)"/>
</clipPath>
</defs>
</svg>
