<svg width="1390" height="931" viewBox="0 0 1390 931" fill="none" xmlns="http://www.w3.org/2000/svg">
<path d="M0 4.99999C0 2.23857 2.23858 0 5 0H165.886C167.215 0 168.49 0.529612 169.429 1.47175L203.534 35.7181C204.473 36.6602 205.747 37.1899 207.077 37.1899H458.235C459.675 37.1899 461.044 36.5693 461.994 35.487L491.628 1.70287C492.577 0.620568 493.947 0 495.387 0H1385C1387.76 0 1390 2.23858 1390 5V926C1390 928.761 1387.76 931 1385 931H1193.35C1191.75 931 1190.26 930.241 1189.31 928.955L1162 891.676C1161.06 890.391 1159.56 889.631 1157.97 889.631H897.764C896.325 889.631 894.956 890.252 894.006 891.333L860.688 929.298C859.739 930.38 858.369 931 856.93 931H4.99998C2.23856 931 0 928.761 0 926V4.99999Z" fill="#01979A"/>
</svg>
