<svg width="102" height="26" viewBox="0 0 102 26" fill="none" xmlns="http://www.w3.org/2000/svg">
<path d="M14.8085 0.59082C15.5564 0.593478 15.9478 0.89405 16.2759 1.53936C16.3849 1.75383 16.6697 1.92046 16.9111 2.02021C18.1302 2.52406 19.3587 3.00632 20.5924 3.47366C20.7449 3.53144 20.9851 3.51487 21.1227 3.43135C22.1907 2.78333 23.5037 3.39703 23.4985 4.61367C23.4938 5.70462 22.5318 6.41977 21.4702 6.0278C21.199 5.92767 21.0098 5.94781 20.7863 6.08474C19.4104 6.92784 18.0306 7.7647 16.6555 8.60914C16.4702 8.7229 16.3378 8.8466 16.3224 9.12376C16.2882 9.73977 15.7052 10.2391 15.1025 10.3104C14.1815 10.4193 13.6267 9.84854 13.4654 9.35178C13.2356 8.64411 13.454 8.01088 14.0057 7.63411C14.5607 7.2551 15.4261 7.28567 15.9172 7.77744C16.0015 7.86177 16.2678 7.87234 16.3817 7.80397C17.789 6.95977 19.1837 6.09457 20.5639 5.24562C20.5461 4.9649 20.5286 4.68899 20.5073 4.35406C19.6619 4.01593 18.7881 3.66822 17.9158 3.31674C17.5161 3.1557 17.1112 3.00418 16.7241 2.81665C16.4248 2.67166 16.2307 2.69714 16.0261 2.98623C15.3432 3.95132 13.8245 3.60813 13.5208 2.70811C13.1955 1.74429 13.5562 0.689542 14.8085 0.59082Z" fill="#F45001"/>
<path d="M24.8206 17.6582C24.1585 18.2635 23.3367 18.2012 22.6781 17.5203C22.1645 16.9893 22.1916 16.1061 22.7386 15.558C22.8189 15.4775 22.8895 15.3462 22.9832 15.3265C23.8627 15.1417 23.5969 14.3992 23.6772 13.8637C23.8324 12.8279 23.9179 11.7816 24.0216 10.7386C24.0451 10.5032 24.0251 10.2635 24.0251 10.0015C23.6866 9.67385 23.3422 9.87698 23.0004 10.1002C21.9975 10.755 20.9976 11.4144 19.991 12.0635C19.7463 12.2213 19.5713 12.3037 19.6328 12.7146C19.7021 13.1769 19.4803 13.6802 19.0122 13.9598C18.4859 14.2742 17.9365 14.3415 17.3826 14.0243C16.6697 13.6159 16.4663 12.5451 16.9094 11.8996C17.3507 11.2569 18.3463 10.9661 19.163 11.5799C20.4599 10.7472 21.7591 9.91309 23.0595 9.07819C22.8728 8.17367 23.2701 7.35715 23.9668 7.15153C24.9223 6.86953 25.7163 7.43621 25.916 8.06442C26.1852 8.91105 25.7976 9.67488 24.9139 10.0213C24.7625 11.3881 24.6117 12.7499 24.461 14.1116C24.4319 14.3749 24.3781 14.639 24.3859 14.9012C24.3895 15.0235 24.4846 15.179 24.5864 15.2566C25.2487 15.7619 25.4945 16.4346 25.2133 17.1329C25.138 17.3197 24.9688 17.469 24.8206 17.6582Z" fill="#F45001"/>
<path d="M5.41597 10.625C5.90262 10.9554 6.3665 11.2642 6.83165 11.5737C7.61601 11.0985 8.46469 11.1378 8.94489 11.6735C9.38114 12.1601 9.46058 13.0653 9.10929 13.5469C8.61745 14.2212 7.92045 14.4044 7.18186 14.0536C6.53275 13.7453 6.21459 13.0346 6.40215 12.2916C5.10472 11.4376 3.8035 10.5812 2.50365 9.72565C1.95427 9.86633 2.03769 10.3065 2.06964 10.7036C2.14258 11.6103 2.23741 12.5152 2.31723 13.4214C2.35418 13.8409 2.35417 14.265 2.41543 14.6806C2.44664 14.8922 2.47698 15.1087 2.79434 15.2032C3.32631 15.3614 3.69907 16.0215 3.68619 16.599C3.67376 17.1564 3.27241 17.7876 2.78302 17.9548C2.18752 18.1582 1.63267 18.1178 1.15718 17.632C0.461744 16.9215 0.501372 15.9873 1.34535 15.3522C1.66872 15.1089 1.65046 14.8533 1.62389 14.5542C1.58192 14.0818 1.5106 13.6121 1.46537 13.1399C1.37464 12.1929 1.30164 11.244 1.19728 10.2985C1.18392 10.1774 1.0504 10.0201 0.933035 9.96795C0.301526 9.68745 -0.0796967 9.05338 0.0141206 8.34217C0.0874718 7.78612 0.544385 7.18887 1.33331 7.06973C1.8759 6.98779 2.68765 7.41224 2.88112 7.95121C2.99275 8.26217 2.97647 8.61875 3.03227 9.07283C3.7394 9.53124 4.5663 10.0673 5.41597 10.625Z" fill="#F45001"/>
<path d="M9.11594 16.4437C8.978 15.3329 9.14791 14.8907 9.96745 14.5662C10.9808 14.1649 11.9874 14.8781 11.9887 15.8412C11.9894 16.3443 11.8917 16.7933 11.4688 17.0584C11.0119 17.3447 11.1102 17.7265 11.1552 18.1227C11.1662 18.2192 11.2023 18.3136 11.2064 18.4099C11.2632 19.7466 11.3166 21.0835 11.3719 22.4483C11.8879 22.5384 12.3325 22.7774 12.5103 23.2589C12.6342 23.5943 12.6988 24.0196 12.6057 24.3537C12.3378 25.3158 11.661 25.4933 10.8004 25.3781C10.148 25.2908 9.59535 24.3908 9.70287 23.6865C8.51259 22.8375 7.31306 22.0008 6.14104 21.1275C5.92677 20.9678 5.80062 20.9798 5.58538 21.0644C4.56071 21.4671 3.67704 21.1593 3.37038 20.0831C3.18288 19.4251 3.63807 18.6429 4.36595 18.3635C4.97225 18.1307 5.82528 18.4335 6.11607 18.9945C6.2046 19.1653 6.35341 19.371 6.31965 19.5274C6.17449 20.2001 6.64427 20.4704 7.06961 20.7765C7.9511 21.4109 8.8317 22.0469 9.7275 22.6607C9.85956 22.7512 10.1191 22.8015 10.2364 22.7316C10.3786 22.6469 10.5154 22.4127 10.5116 22.2465C10.4765 20.7244 10.4152 19.2028 10.3427 17.6819C10.3376 17.576 10.2022 17.4386 10.0929 17.3821C9.68207 17.1696 9.26922 16.9716 9.11594 16.4437Z" fill="#F45001"/>
<path d="M17.515 22.8969C17.1286 23.1763 16.7562 23.4235 16.407 23.6997C16.3179 23.7701 16.2664 23.9306 16.2587 24.0535C16.2025 24.9458 15.6152 25.4179 14.5756 25.3896C13.9138 25.3716 13.3805 24.725 13.3374 23.9922C13.2909 23.2032 13.7208 22.551 14.7997 22.4462C14.7997 21.8996 14.7806 21.3402 14.8039 20.7826C14.8462 19.7707 14.9088 18.7596 14.9739 17.7489C14.9916 17.4733 14.928 17.311 14.6511 17.1643C14.1002 16.8725 13.8679 16.1 14.06 15.4344C14.2231 14.8697 14.7823 14.528 15.4238 14.4696C16.1632 14.4023 16.7647 14.9396 16.9209 15.5594C17.0973 16.259 16.7846 16.9723 16.1015 17.2752C15.6701 17.4665 15.7838 17.8446 15.7592 18.1232C15.6798 19.0219 15.6877 19.9281 15.6525 20.8311C15.6355 21.2662 15.6048 21.701 15.5667 22.1348C15.5361 22.4833 15.5809 22.7887 15.9748 22.9575C17.0912 22.1589 18.2329 21.3211 19.4004 20.5208C19.7157 20.3048 19.671 20.0406 19.6718 19.7564C19.6737 19.0841 19.9639 18.6436 20.5799 18.3843C21.3196 18.073 22.2861 18.5086 22.5514 19.2731C22.809 20.0153 22.3518 21.0223 21.6206 21.164C21.2434 21.2371 20.8279 21.1037 20.4288 21.0788C20.2813 21.0696 20.0951 21.0523 19.9878 21.1266C19.1626 21.6973 18.3524 22.2897 17.515 22.8969Z" fill="#F45001"/>
<path d="M8.71154 8.20653C7.58993 7.47114 6.48557 6.76953 5.40201 6.03732C5.12394 5.84941 4.91431 5.81364 4.62596 5.99517C4.00826 6.38404 3.01571 5.96653 2.73009 5.40816C2.42601 4.81369 2.54355 3.93991 3.0191 3.51409C3.54793 3.04057 4.41258 3.00239 4.98828 3.48859C5.19726 3.66508 5.35168 3.65183 5.55047 3.56969C6.61681 3.12906 7.68478 2.69195 8.74219 2.23085C8.85635 2.18107 8.96511 1.98928 8.976 1.85526C9.03843 1.08728 9.64091 0.581467 10.5209 0.590951C11.2569 0.598883 11.8517 1.1827 11.8968 1.89411C11.9536 2.79032 11.5237 3.37372 10.6577 3.5486C10.1494 3.65124 9.74014 3.41424 9.34435 3.13121C9.25575 3.06786 9.09192 3.02815 8.99794 3.06554C7.88769 3.50727 6.78166 3.95987 5.68058 4.42392C5.40751 4.53901 5.38122 5.01778 5.6333 5.18458C6.85243 5.99122 8.07455 6.79348 9.30505 7.58267C9.38378 7.63316 9.55391 7.58743 9.66147 7.54064C10.5443 7.15662 11.4788 7.42016 11.8149 8.3124C12.1989 9.33184 11.4789 10.3343 10.515 10.3116C9.50539 10.2877 8.98279 9.79192 8.98951 8.78195C8.99106 8.54829 8.99245 8.33583 8.71154 8.20653Z" fill="#F45001"/>
<path d="M79.6319 24.3166C79.5433 24.2643 79.4945 24.1728 79.4358 24.1652C78.2816 24.0157 77.2 23.6639 76.2797 22.8922C75.646 22.3609 75.2987 21.6588 75.2216 20.8049C75.1069 19.5333 75.5919 18.5621 76.559 17.799C76.071 17.1321 75.766 16.3778 75.8353 15.5226C75.9045 14.6686 76.2802 13.9488 76.9063 13.3531C76.3658 12.7548 75.9354 12.1064 75.7267 11.3147C75.3224 9.78175 75.5835 8.37381 76.4756 7.10667C77.3221 5.90425 78.5321 5.28571 79.8897 4.98951C81.2295 4.69719 82.5739 4.7338 83.8776 5.21392C84.3371 5.38313 84.7652 5.64463 85.2121 5.85326C85.3106 5.89923 85.4367 5.93825 85.536 5.91486C86.1929 5.7601 86.8444 5.57994 87.5021 5.42919C87.5948 5.40793 87.7602 5.4685 87.8097 5.5476C88.2132 6.1936 88.612 6.84427 88.9723 7.51693C89.0326 7.62932 88.9536 7.91666 88.8474 8.01787C88.3191 8.5214 87.7602 8.98972 87.2325 9.45255C87.4029 10.7561 87.1718 11.9423 86.4433 12.9967C85.642 14.1563 84.4689 14.6547 83.183 14.9193C82.2051 15.1205 81.2214 15.1604 80.2376 14.9118C80.2299 14.959 80.2221 15.0061 80.2143 15.0533C80.5228 15.1149 80.8303 15.2229 81.1398 15.2295C82.1819 15.2518 83.2269 15.1938 84.2666 15.2502C85.3601 15.3095 86.4528 15.4424 87.438 16.0266C88.4893 16.65 89.0422 17.5701 89.1051 18.8516C89.1647 20.0643 88.8011 21.1033 88.0367 21.9743C87.4558 22.6361 86.7169 23.0994 85.9226 23.441C85.0207 23.8288 84.0831 24.0832 83.1067 24.1647C83.0536 24.1692 83.0044 24.2249 82.9713 24.2867C81.8819 24.3166 80.7746 24.3166 79.6319 24.3166ZM81.0753 9.15333C80.9874 9.30466 80.8834 9.44842 80.8146 9.60871C80.5902 10.131 80.7161 10.7347 81.1123 11.102C81.5237 11.4835 82.0833 11.5206 82.5701 11.1986C82.9759 10.9301 83.1909 10.3251 83.062 9.81387C82.9343 9.3074 82.4823 8.91247 81.9782 8.93169C81.6895 8.94271 81.4041 9.04671 81.0753 9.15333ZM80.1758 20.2912C81.1183 20.6283 82.0825 20.6105 83.0379 20.411C83.4546 20.324 83.9018 20.185 84.154 19.6427C82.7 19.3231 81.2584 19.6594 79.8739 19.3932C79.6218 19.9171 79.6218 19.9171 80.1758 20.2912Z" fill="#F45001"/>
<path d="M45.1437 20.2906C43.8523 20.2906 42.5985 20.2906 41.2991 20.2906C41.2991 20.1234 41.2991 19.9837 41.2991 19.8439C41.2991 16.9501 41.2992 14.0564 41.299 11.1626C41.299 10.209 40.7636 9.70634 39.9438 9.56867C39.2512 9.45236 38.5111 10.2584 38.5105 11.0769C38.5083 13.8917 38.5097 16.7066 38.5097 19.5214C38.5097 19.7576 38.5097 19.9937 38.5097 20.2602C36.8082 20.2602 35.1208 20.2602 33.4082 20.2602C33.4082 14.0802 33.4082 7.89333 33.4082 1.68311C35.0987 1.68311 36.786 1.68311 38.5084 1.68311C38.5084 3.28105 38.5084 4.86472 38.5084 6.47764C38.9981 6.23367 39.4291 5.93782 39.9021 5.7974C41.9358 5.19367 43.805 5.4708 45.3362 7.12229C45.9906 7.82807 46.3564 8.6858 46.3537 9.70213C46.3446 13.0694 46.3502 16.4367 46.3502 19.804C46.3502 19.9475 46.3502 20.091 46.3502 20.2906C45.9491 20.2906 45.5652 20.2906 45.1437 20.2906Z" fill="#F45001"/>
<path d="M101.31 11.1536C101.31 14.1771 101.31 17.1632 101.31 20.1804C100.187 20.1804 99.0768 20.1804 97.9268 20.1804C97.8392 19.7382 97.7479 19.2771 97.6535 18.8004C97.2334 19.1057 96.8209 19.4212 96.3936 19.7128C95.4903 20.3292 94.4852 20.6527 93.4166 20.5945C91.3941 20.4845 89.9136 19.2048 89.5366 16.9843C89.3445 15.8524 89.3734 14.7769 89.8533 13.7375C90.3304 12.7044 91.1358 12.0311 92.1297 11.6164C93.0944 11.2139 94.1015 10.9833 95.1499 10.9694C95.5581 10.964 95.9655 10.8974 96.3755 10.8585C96.4465 10.1835 95.8954 9.71084 95.3003 9.5646C94.3614 9.33387 93.4348 9.50447 92.5205 9.77721C91.9427 9.94954 91.3597 10.1033 90.7763 10.2536C90.5619 10.3088 90.4637 10.2132 90.4492 9.96398C90.3851 8.86068 90.307 7.75822 90.2259 6.6561C90.1702 5.89799 90.161 5.87464 90.8744 5.76811C91.9004 5.6149 92.931 5.4942 93.9609 5.3711C95.3443 5.20572 96.6918 5.38121 98.0131 5.83908C99.6358 6.40141 100.568 7.61911 100.999 9.29205C101.153 9.88594 101.209 10.5073 101.31 11.1536ZM94.147 14.8845C93.8425 15.2266 93.7375 15.6274 93.9137 16.0585C94.0956 16.5036 94.4926 16.5969 94.9033 16.5722C95.1426 16.5578 95.4072 16.5172 95.6073 16.3939C95.8977 16.2149 96.3027 15.9922 96.3678 15.7136C96.4897 15.1917 96.4029 14.6163 96.4029 14.0437C95.5926 14.223 94.8227 14.3288 94.147 14.8845Z" fill="#F45001"/>
<path d="M49.1398 9.70406C49.0406 8.57151 48.9401 7.47505 48.8429 6.37827C48.8192 6.11066 48.8106 5.90686 49.1761 5.82944C50.3413 5.58258 51.5097 5.42996 52.6983 5.34954C53.9249 5.26655 55.1176 5.37031 56.2932 5.69735C57.0583 5.91019 57.7672 6.2584 58.3583 6.84555C59.2219 7.70354 59.6448 8.78971 59.8334 9.97819C59.9468 10.6927 59.9839 11.4267 59.989 12.1525C60.0069 14.6774 59.996 17.2024 59.996 19.7274C59.996 19.8706 59.996 20.0138 59.996 20.1844C58.8659 20.1844 57.7555 20.1844 56.6249 20.1844C56.5303 19.7305 56.4343 19.2702 56.3182 18.7138C56.0745 18.9418 55.8816 19.1629 55.6525 19.3295C54.7866 19.9591 53.8715 20.4251 52.7872 20.5498C51.7403 20.6703 50.7937 20.463 49.934 19.8831C49.0208 19.2671 48.5172 18.3439 48.2744 17.2322C48.0134 16.0367 48.0163 14.8853 48.5309 13.7593C49.0063 12.7192 49.8115 12.0528 50.792 11.6202C51.7515 11.1969 52.7663 10.9948 53.813 10.9705C54.2332 10.9607 54.6523 10.8976 55.0724 10.8588C55.1147 10.2852 54.6402 9.7092 53.9753 9.55675C53.0553 9.34577 52.1543 9.51222 51.2617 9.74637C50.6677 9.90218 50.0818 10.0931 49.4856 10.2378C49.0516 10.3431 49.1722 9.97068 49.1398 9.70406ZM54.7706 14.0557C54.6629 14.0816 54.5557 14.1095 54.4476 14.133C53.7724 14.2794 53.1066 14.4358 52.5492 14.9131C52.214 15.2 52.1091 15.5631 52.1645 15.9728C52.217 16.3597 52.4431 16.6351 52.834 16.6945C53.0667 16.7299 53.3082 16.7575 53.5399 16.7315C54.0559 16.6737 54.4856 16.3955 54.7835 15.9712C54.9177 15.78 54.9178 15.4708 54.9391 15.2115C54.9638 14.9113 54.9523 14.6068 54.9399 14.305C54.9364 14.2209 54.8737 14.1396 54.7706 14.0557Z" fill="#F45001"/>
<path d="M73.7805 20.2904C72.5162 20.2904 71.2886 20.2904 70.0218 20.2904C70.0218 20.1156 70.0218 19.975 70.0218 19.8344C70.0218 17.0069 70.0287 14.1795 70.0156 11.3521C70.0131 10.8123 69.914 10.2809 69.6266 9.80552C69.4097 9.44674 69.0818 9.29343 68.71 9.24283C67.7537 9.11272 66.9807 9.50782 66.291 10.1731C65.9837 10.4696 65.8602 10.7762 65.8638 11.2254C65.8864 14.0921 65.8753 16.959 65.8753 19.8259C65.8753 19.9673 65.8753 20.1087 65.8753 20.27C64.4901 20.27 63.1384 20.27 61.7578 20.27C61.7578 15.4831 61.7578 10.6913 61.7578 5.87157C62.8583 5.87157 63.9687 5.87157 65.1146 5.87157C65.211 6.43286 65.3093 7.00488 65.4115 7.5995C65.9419 7.19249 66.4148 6.80601 66.9102 6.45411C68.0914 5.61502 69.3907 5.37567 70.7976 5.59692C72.5047 5.86539 73.4918 7.07207 73.8482 8.68364C74.0501 9.59641 74.1412 10.5528 74.1543 11.4914C74.1931 14.2657 74.1682 17.0409 74.1682 19.8157C74.1682 19.9582 74.1682 20.1007 74.1682 20.2675C74.0345 20.2762 73.9258 20.2833 73.7805 20.2904Z" fill="#F45001"/>
</svg>
