<svg width="54" height="55" viewBox="0 0 54 55" fill="none" xmlns="http://www.w3.org/2000/svg">
<path d="M38.25 23.2734H15.75V27.7734H38.25V23.2734ZM42.75 7.52344H40.5V3.02344H36V7.52344H18V3.02344H13.5V7.52344H11.25C8.7525 7.52344 6.7725 9.54844 6.7725 12.0234L6.75 43.5234C6.75 44.7169 7.22411 45.8615 8.06802 46.7054C8.91193 47.5493 10.0565 48.0234 11.25 48.0234H42.75C45.225 48.0234 47.25 45.9984 47.25 43.5234V12.0234C47.25 9.54844 45.225 7.52344 42.75 7.52344ZM42.75 43.5234H11.25V18.7734H42.75V43.5234ZM31.5 32.2734H15.75V36.7734H31.5V32.2734Z" fill="white"/>
</svg>
