<svg width="54" height="55" viewBox="0 0 54 55" fill="none" xmlns="http://www.w3.org/2000/svg">
<path d="M33.75 21.0234L24.75 30.0234L20.25 25.5234M16.029 42.8507L12.6 45.5957C10.7257 47.0919 9.78975 47.8412 9.00225 47.8434C8.6637 47.8437 8.32945 47.7676 8.02441 47.6207C7.71938 47.4738 7.45142 47.26 7.2405 46.9952C6.75 46.3809 6.75 45.1817 6.75 42.7832V16.9757C6.75 14.4557 6.75 13.1934 7.2405 12.2282C7.6725 11.3822 8.35875 10.6959 9.207 10.2639C10.17 9.77344 11.43 9.77344 13.95 9.77344H40.05C42.57 9.77344 43.83 9.77344 44.793 10.2639C45.6397 10.6954 46.3281 11.3837 46.7595 12.2304C47.25 13.1912 47.25 14.4512 47.25 16.9667V34.0824C47.25 36.5957 47.25 37.8534 46.7595 38.8164C46.3281 39.6631 45.6397 40.3515 44.793 40.7829C43.8323 41.2734 42.5745 41.2734 40.059 41.2734H20.5268C19.5908 41.2734 19.1205 41.2734 18.6727 41.3634C18.2761 41.4457 17.8924 41.5812 17.532 41.7662C17.127 41.9732 16.7625 42.2634 16.0357 42.8462L16.029 42.8507Z" stroke="white" stroke-width="4" stroke-linecap="round" stroke-linejoin="round"/>
</svg>
