<svg width="54" height="55" viewBox="0 0 54 55" fill="none" xmlns="http://www.w3.org/2000/svg">
<path d="M24.75 34.5234H38.25V39.0234H24.75V34.5234ZM20.25 16.5234H15.75V21.0234H20.25V16.5234ZM24.75 30.0234H38.25V25.5234H24.75V30.0234ZM24.75 21.0234H38.25V16.5234H24.75V21.0234ZM20.25 25.5234H15.75V30.0234H20.25V25.5234ZM47.25 12.0234V43.5234C47.25 45.9984 45.225 48.0234 42.75 48.0234H11.25C8.775 48.0234 6.75 45.9984 6.75 43.5234V12.0234C6.75 9.54844 8.775 7.52344 11.25 7.52344H42.75C45.225 7.52344 47.25 9.54844 47.25 12.0234ZM42.75 12.0234H11.25V43.5234H42.75V12.0234ZM20.25 34.5234H15.75V39.0234H20.25V34.5234Z" fill="white"/>
</svg>
