<svg width="54" height="59" viewBox="0 0 54 59" fill="none" xmlns="http://www.w3.org/2000/svg">
<path d="M27 25.9727C24.6131 25.9727 22.3239 25.0244 20.636 23.3366C18.9482 21.6488 18 19.3596 18 16.9727C18 14.5857 18.9482 12.2965 20.636 10.6087C22.3239 8.92087 24.6131 7.97266 27 7.97266C29.3869 7.97266 31.6761 8.92087 33.364 10.6087C35.0518 12.2965 36 14.5857 36 16.9727C36 19.3596 35.0518 21.6488 33.364 23.3366C31.6761 25.0244 29.3869 25.9727 27 25.9727ZM27 11.5727C24.012 11.5727 21.6 13.9847 21.6 16.9727C21.6 19.9607 24.012 22.3727 27 22.3727C29.988 22.3727 32.4 19.9607 32.4 16.9727C32.4 13.9847 29.988 11.5727 27 11.5727Z" fill="white"/>
<path d="M48.6 40.3727C47.592 40.3727 46.8 39.5807 46.8 38.5727C46.8 37.5647 47.592 36.7727 48.6 36.7727C49.608 36.7727 50.4 35.9807 50.4 34.9727C50.4 32.5857 49.4518 30.2965 47.764 28.6087C46.0761 26.9209 43.7869 25.9727 41.4 25.9727H37.8C36.792 25.9727 36 25.1807 36 24.1727C36 23.1647 36.792 22.3727 37.8 22.3727C40.788 22.3727 43.2 19.9607 43.2 16.9727C43.2 13.9847 40.788 11.5727 37.8 11.5727C36.792 11.5727 36 10.7807 36 9.77266C36 8.76466 36.792 7.97266 37.8 7.97266C40.1869 7.97266 42.4761 8.92087 44.164 10.6087C45.8518 12.2965 46.8 14.5857 46.8 16.9727C46.8 19.2047 46.008 21.2207 44.64 22.8047C50.004 24.2447 54 29.1407 54 34.9727C54 37.9607 51.588 40.3727 48.6 40.3727ZM5.4 40.3727C2.412 40.3727 0 37.9607 0 34.9727C0 29.1407 3.96 24.2447 9.36 22.8047C8.028 21.2207 7.2 19.2047 7.2 16.9727C7.2 14.5857 8.14821 12.2965 9.83604 10.6087C11.5239 8.92087 13.8131 7.97266 16.2 7.97266C17.208 7.97266 18 8.76466 18 9.77266C18 10.7807 17.208 11.5727 16.2 11.5727C13.212 11.5727 10.8 13.9847 10.8 16.9727C10.8 19.9607 13.212 22.3727 16.2 22.3727C17.208 22.3727 18 23.1647 18 24.1727C18 25.1807 17.208 25.9727 16.2 25.9727H12.6C10.2131 25.9727 7.92387 26.9209 6.23604 28.6087C4.54821 30.2965 3.6 32.5857 3.6 34.9727C3.6 35.9807 4.392 36.7727 5.4 36.7727C6.408 36.7727 7.2 37.5647 7.2 38.5727C7.2 39.5807 6.408 40.3727 5.4 40.3727ZM37.8 51.1727H16.2C13.212 51.1727 10.8 48.7607 10.8 45.7727V42.1727C10.8 35.2247 16.452 29.5727 23.4 29.5727H30.6C37.548 29.5727 43.2 35.2247 43.2 42.1727V45.7727C43.2 48.7607 40.788 51.1727 37.8 51.1727ZM23.4 33.1727C21.0131 33.1727 18.7239 34.1209 17.036 35.8087C15.3482 37.4965 14.4 39.7857 14.4 42.1727V45.7727C14.4 46.7807 15.192 47.5727 16.2 47.5727H37.8C38.808 47.5727 39.6 46.7807 39.6 45.7727V42.1727C39.6 39.7857 38.6518 37.4965 36.964 35.8087C35.2761 34.1209 32.9869 33.1727 30.6 33.1727H23.4Z" fill="white"/>
</svg>
