<svg width="54" height="55" viewBox="0 0 54 55" fill="none" xmlns="http://www.w3.org/2000/svg">
<path d="M45.6525 19.4264L36 29.0789L33.075 26.1764L29.9025 29.3714L35.9775 35.4464L48.8475 22.6214L45.6525 19.4264ZM9 18.7739C8.97229 19.9633 9.18615 21.1461 9.62863 22.2505C10.0711 23.355 10.733 24.3582 11.5743 25.1995C12.4157 26.0408 13.4189 26.7028 14.5233 27.1452C15.6278 27.5877 16.8105 27.8016 18 27.7739C19.1895 27.8016 20.3722 27.5877 21.4767 27.1452C22.5811 26.7028 23.5843 26.0408 24.4257 25.1995C25.267 24.3582 25.9289 23.355 26.3714 22.2505C26.8139 21.1461 27.0277 19.9633 27 18.7739C27.0277 17.5844 26.8139 16.4017 26.3714 15.2972C25.9289 14.1928 25.267 13.1895 24.4257 12.3482C23.5843 11.5069 22.5811 10.845 21.4767 10.4025C20.3722 9.96002 19.1895 9.74616 18 9.77387C16.8105 9.74616 15.6278 9.96002 14.5233 10.4025C13.4189 10.845 12.4157 11.5069 11.5743 12.3482C10.733 13.1895 10.0711 14.1928 9.62863 15.2972C9.18615 16.4017 8.97229 17.5844 9 18.7739ZM22.5 18.7739C22.5289 19.3725 22.4324 19.9705 22.2164 20.5296C22.0005 21.0887 21.6701 21.5964 21.2463 22.0202C20.8225 22.444 20.3148 22.7744 19.7557 22.9903C19.1967 23.2062 18.5986 23.3028 18 23.2739C17.4014 23.3028 16.8033 23.2062 16.2443 22.9903C15.6852 22.7744 15.1775 22.444 14.7537 22.0202C14.3299 21.5964 13.9995 21.0887 13.7836 20.5296C13.5676 19.9705 13.4711 19.3725 13.5 18.7739C13.4711 18.1753 13.5676 17.5772 13.7836 17.0181C13.9995 16.4591 14.3299 15.9513 14.7537 15.5276C15.1775 15.1038 15.6852 14.7733 16.2443 14.5574C16.8033 14.3415 17.4014 14.2449 18 14.2739C18.5986 14.2449 19.1967 14.3415 19.7557 14.5574C20.3148 14.7733 20.8225 15.1038 21.2463 15.5276C21.6701 15.9513 22.0005 16.4591 22.2164 17.0181C22.4324 17.5772 22.5289 18.1753 22.5 18.7739ZM9 41.2739C9 39.4837 9.71116 37.7668 10.977 36.5009C12.2429 35.235 13.9598 34.5239 15.75 34.5239H20.25C22.0402 34.5239 23.7571 35.235 25.023 36.5009C26.2888 37.7668 27 39.4837 27 41.2739V43.5239H31.5V41.2739C31.5 39.7965 31.209 38.3336 30.6436 36.9687C30.0783 35.6038 29.2496 34.3636 28.205 33.3189C27.1603 32.2743 25.9201 31.4456 24.5552 30.8802C23.1903 30.3149 21.7274 30.0239 20.25 30.0239H15.75C12.7663 30.0239 9.90483 31.2091 7.79505 33.3189C5.68526 35.4287 4.5 38.2902 4.5 41.2739V43.5239H9V41.2739Z" fill="white"/>
</svg>
