<svg width="42" height="44" viewBox="0 0 42 44" fill="none" xmlns="http://www.w3.org/2000/svg">
<g clip-path="url(#clip0_624_3983)">
<path d="M15.2744 34.9531L24.8086 35.345L24.286 39.9159L20.368 42.3973L15.6663 40.3078L15.2744 34.9531Z" fill="#132060"/>
<path d="M15.4048 33.7764L13.8374 26.9851L7.30722 23.0671L6.6543 14.1863L10.7031 4.91359L19.845 2.5625L27.8118 4.39097L32.7746 12.6189L31.5995 23.72L25.853 27.638L25.1996 33.4892L15.4048 33.7764Z" fill="#132060"/>
<path d="M35.6593 10.0254L35.7901 8.19694L34.2227 7.41324L33.9616 6.10739L34.6145 5.06261L33.3087 3.62599L32.2639 4.53999L31.0883 4.14815L30.3046 2.05859L28.2151 2.31967V3.62553L26.6477 4.14815L25.0803 3.36445L23.5129 4.80107L24.4269 5.84585L23.9043 7.54355L22.3369 8.06617V10.1557L23.7735 10.6783L24.2962 11.8539L23.6432 12.7679L25.3409 14.5964L26.5165 13.9434L27.8223 14.2045L28.0834 15.7719H30.434L30.6951 14.2045L31.8707 13.5516L33.1765 14.5964L34.4824 12.8987L33.8295 11.9847L34.3521 10.6788L35.6579 10.0259L35.6593 10.0254ZM30.6073 11.2037L28.1913 11.7263L26.4282 10.3551L26.4936 7.80829L28.2567 6.30628L30.7381 6.69813L31.8483 8.98384L30.6073 11.2042V11.2037Z" fill="#F45001"/>
</g>
<defs>
<clipPath id="clip0_624_3983">
<rect width="42" height="43.0274" fill="white" transform="translate(0 0.316406)"/>
</clipPath>
</defs>
</svg>
