<svg width="50" height="51" viewBox="0 0 50 51" fill="none" xmlns="http://www.w3.org/2000/svg">
<circle cx="25" cy="25.4824" r="24.5" stroke="white"/>
<path d="M25.0007 22.9823C24.3376 22.9823 23.7017 23.2457 23.2329 23.7145C22.7641 24.1833 22.5007 24.8192 22.5007 25.4823C22.5007 26.1453 22.7641 26.7812 23.2329 27.25C23.7017 27.7189 24.3376 27.9823 25.0007 27.9823C25.6637 27.9823 26.2996 27.7189 26.7684 27.25C27.2373 26.7812 27.5007 26.1453 27.5007 25.4823C27.5007 24.8192 27.2373 24.1833 26.7684 23.7145C26.2996 23.2457 25.6637 22.9823 25.0007 22.9823ZM25.0007 21.3156C26.1057 21.3156 27.1655 21.7546 27.9469 22.536C28.7284 23.3174 29.1673 24.3772 29.1673 25.4823C29.1673 26.5873 28.7284 27.6471 27.9469 28.4285C27.1655 29.2099 26.1057 29.6489 25.0007 29.6489C23.8956 29.6489 22.8358 29.2099 22.0544 28.4285C21.273 27.6471 20.834 26.5873 20.834 25.4823C20.834 24.3772 21.273 23.3174 22.0544 22.536C22.8358 21.7546 23.8956 21.3156 25.0007 21.3156ZM30.4173 21.1073C30.4173 21.3835 30.3076 21.6485 30.1122 21.8438C29.9169 22.0392 29.6519 22.1489 29.3757 22.1489C29.0994 22.1489 28.8345 22.0392 28.6391 21.8438C28.4438 21.6485 28.334 21.3835 28.334 21.1073C28.334 20.831 28.4438 20.566 28.6391 20.3707C28.8345 20.1753 29.0994 20.0656 29.3757 20.0656C29.6519 20.0656 29.9169 20.1753 30.1122 20.3707C30.3076 20.566 30.4173 20.831 30.4173 21.1073ZM25.0007 18.8156C22.939 18.8156 22.6023 18.8214 21.6432 18.8639C20.9898 18.8948 20.5515 18.9823 20.1448 19.1406C19.8045 19.2655 19.4968 19.4658 19.2448 19.7264C18.984 19.9784 18.7835 20.2861 18.6582 20.6264C18.4998 21.0348 18.4123 21.4723 18.3823 22.1248C18.339 23.0448 18.3332 23.3664 18.3332 25.4823C18.3332 27.5448 18.339 27.8806 18.3815 28.8398C18.4123 29.4923 18.4998 29.9314 18.6573 30.3373C18.799 30.6998 18.9657 30.9606 19.2423 31.2373C19.5232 31.5173 19.784 31.6848 20.1423 31.8231C20.554 31.9823 20.9923 32.0706 21.6423 32.1006C22.5623 32.1439 22.884 32.1489 24.9998 32.1489C27.0623 32.1489 27.3982 32.1431 28.3573 32.1006C29.009 32.0698 29.4473 31.9823 29.8548 31.8248C30.1948 31.6992 30.5024 31.499 30.7548 31.2389C31.0357 30.9589 31.2032 30.6981 31.3415 30.3389C31.4998 29.9289 31.5882 29.4906 31.6182 28.8389C31.6615 27.9198 31.6665 27.5973 31.6665 25.4823C31.6665 23.4206 31.6607 23.0839 31.6182 22.1248C31.5873 21.4731 31.499 21.0331 31.3415 20.6264C31.2159 20.2864 31.0157 19.9789 30.7557 19.7264C30.5038 19.4655 30.1961 19.2649 29.8557 19.1398C29.4473 18.9814 29.009 18.8939 28.3573 18.8639C27.4382 18.8206 27.1165 18.8156 24.9998 18.8156M24.9998 17.1489C27.264 17.1489 27.5465 17.1573 28.4357 17.1989C29.3223 17.2406 29.9273 17.3798 30.4582 17.5864C31.0082 17.7981 31.4715 18.0848 31.9348 18.5473C32.3586 18.9638 32.6865 19.4677 32.8957 20.0239C33.1015 20.5548 33.2415 21.1598 33.2832 22.0473C33.3223 22.9356 33.3332 23.2181 33.3332 25.4823C33.3332 27.7464 33.3248 28.0289 33.2832 28.9173C33.2415 29.8048 33.1015 30.4089 32.8957 30.9406C32.687 31.4971 32.3591 32.0011 31.9348 32.4173C31.5181 32.8409 31.0143 33.1687 30.4582 33.3781C29.9273 33.5839 29.3223 33.7239 28.4357 33.7656C27.5465 33.8048 27.264 33.8156 24.9998 33.8156C22.7357 33.8156 22.4532 33.8073 21.564 33.7656C20.6773 33.7239 20.0732 33.5839 19.5415 33.3781C18.9851 33.1693 18.4811 32.8414 18.0648 32.4173C17.641 32.0007 17.3131 31.4968 17.104 30.9406C16.8973 30.4098 16.7582 29.8048 16.7165 28.9173C16.6765 28.0289 16.6665 27.7464 16.6665 25.4823C16.6665 23.2181 16.6748 22.9356 16.7165 22.0473C16.7582 21.1598 16.8973 20.5556 17.104 20.0239C17.3125 19.4674 17.6405 18.9634 18.0648 18.5473C18.4812 18.1233 18.9852 17.7954 19.5415 17.5864C20.0723 17.3798 20.6765 17.2406 21.564 17.1989C22.454 17.1598 22.7365 17.1489 25.0007 17.1489" fill="white"/>
</svg>
