<svg width="50" height="51" viewBox="0 0 50 51" fill="none" xmlns="http://www.w3.org/2000/svg">
<circle cx="25" cy="25.4824" r="24.5" stroke="white"/>
<path d="M28.3332 22.1489C29.6593 22.1489 30.931 22.6757 31.8687 23.6134C32.8064 24.5511 33.3332 25.8228 33.3332 27.1489V32.9823H29.9998V27.1489C29.9998 26.7069 29.8242 26.283 29.5117 25.9704C29.1991 25.6579 28.7752 25.4823 28.3332 25.4823C27.8911 25.4823 27.4672 25.6579 27.1547 25.9704C26.8421 26.283 26.6665 26.7069 26.6665 27.1489V32.9823H23.3332V27.1489C23.3332 25.8228 23.86 24.5511 24.7976 23.6134C25.7353 22.6757 27.0071 22.1489 28.3332 22.1489ZM16.6665 22.9823H19.9998V32.9823H16.6665V22.9823Z" stroke="white" stroke-width="2" stroke-linecap="round" stroke-linejoin="round"/>
<path d="M18.3332 20.4823C19.2536 20.4823 19.9998 19.7361 19.9998 18.8156C19.9998 17.8951 19.2536 17.1489 18.3332 17.1489C17.4127 17.1489 16.6665 17.8951 16.6665 18.8156C16.6665 19.7361 17.4127 20.4823 18.3332 20.4823Z" stroke="white" stroke-width="2" stroke-linecap="round" stroke-linejoin="round"/>
</svg>
