<svg width="102" height="26" viewBox="0 0 102 26" fill="none" xmlns="http://www.w3.org/2000/svg">
<path d="M14.8081 0.59082C15.5559 0.593478 15.9473 0.89405 16.2754 1.53936C16.3844 1.75383 16.6692 1.92046 16.9106 2.02021C18.1298 2.52406 19.3582 3.00632 20.5919 3.47366C20.7444 3.53144 20.9846 3.51487 21.1222 3.43135C22.1902 2.78333 23.5032 3.39703 23.498 4.61367C23.4933 5.70462 22.5313 6.41977 21.4697 6.0278C21.1986 5.92767 21.0093 5.94781 20.7859 6.08474C19.4099 6.92784 18.0301 7.7647 16.655 8.60914C16.4698 8.7229 16.3373 8.8466 16.3219 9.12376C16.2877 9.73977 15.7047 10.2391 15.102 10.3104C14.181 10.4193 13.6262 9.84854 13.4649 9.35178C13.2351 8.64411 13.4535 8.01088 14.0052 7.63411C14.5602 7.2551 15.4256 7.28567 15.9167 7.77744C16.001 7.86177 16.2673 7.87234 16.3812 7.80397C17.7885 6.95977 19.1832 6.09457 20.5635 5.24562C20.5456 4.9649 20.5281 4.68899 20.5068 4.35406C19.6614 4.01593 18.7876 3.66822 17.9153 3.31674C17.5156 3.1557 17.1107 3.00418 16.7236 2.81665C16.4243 2.67166 16.2302 2.69714 16.0256 2.98623C15.3427 3.95132 13.824 3.60813 13.5203 2.70811C13.195 1.74429 13.5557 0.689542 14.8081 0.59082Z" fill="white"/>
<path d="M24.8206 17.6582C24.1585 18.2635 23.3367 18.2012 22.6781 17.5203C22.1645 16.9893 22.1916 16.1061 22.7386 15.558C22.8189 15.4775 22.8895 15.3462 22.9832 15.3265C23.8627 15.1417 23.5969 14.3992 23.6772 13.8637C23.8324 12.8279 23.9179 11.7816 24.0216 10.7386C24.0451 10.5032 24.0251 10.2635 24.0251 10.0015C23.6866 9.67385 23.3422 9.87698 23.0004 10.1002C21.9975 10.755 20.9976 11.4144 19.991 12.0635C19.7463 12.2213 19.5713 12.3037 19.6328 12.7146C19.7021 13.1769 19.4803 13.6802 19.0122 13.9598C18.4859 14.2742 17.9365 14.3415 17.3826 14.0243C16.6697 13.6159 16.4663 12.5451 16.9094 11.8996C17.3507 11.2569 18.3463 10.9661 19.163 11.5799C20.4599 10.7472 21.7591 9.91309 23.0595 9.07819C22.8728 8.17367 23.2701 7.35715 23.9668 7.15153C24.9223 6.86953 25.7163 7.43621 25.916 8.06442C26.1852 8.91105 25.7976 9.67488 24.9139 10.0213C24.7625 11.3881 24.6117 12.7499 24.461 14.1116C24.4319 14.3749 24.3781 14.639 24.3859 14.9012C24.3895 15.0235 24.4846 15.179 24.5864 15.2566C25.2487 15.7619 25.4945 16.4346 25.2133 17.1329C25.138 17.3197 24.9688 17.469 24.8206 17.6582Z" fill="white"/>
<path d="M5.41597 10.625C5.90262 10.9554 6.3665 11.2642 6.83165 11.5737C7.61601 11.0985 8.46469 11.1378 8.94489 11.6735C9.38114 12.1601 9.46058 13.0653 9.10929 13.5469C8.61745 14.2212 7.92045 14.4044 7.18186 14.0536C6.53275 13.7453 6.21459 13.0346 6.40215 12.2916C5.10472 11.4376 3.8035 10.5812 2.50365 9.72565C1.95427 9.86633 2.03769 10.3065 2.06964 10.7036C2.14258 11.6103 2.23741 12.5152 2.31723 13.4214C2.35418 13.8409 2.35417 14.265 2.41543 14.6806C2.44664 14.8922 2.47698 15.1087 2.79434 15.2032C3.32631 15.3614 3.69907 16.0215 3.68619 16.599C3.67376 17.1564 3.27241 17.7876 2.78302 17.9548C2.18752 18.1582 1.63267 18.1178 1.15718 17.632C0.461744 16.9215 0.501372 15.9873 1.34535 15.3522C1.66872 15.1089 1.65046 14.8533 1.62389 14.5542C1.58192 14.0818 1.5106 13.6121 1.46537 13.1399C1.37464 12.1929 1.30164 11.244 1.19728 10.2985C1.18392 10.1774 1.0504 10.0201 0.933035 9.96795C0.301526 9.68745 -0.0796967 9.05338 0.0141206 8.34217C0.0874718 7.78612 0.544385 7.18887 1.33331 7.06973C1.8759 6.98779 2.68765 7.41224 2.88112 7.95121C2.99275 8.26217 2.97647 8.61875 3.03227 9.07283C3.7394 9.53124 4.5663 10.0673 5.41597 10.625Z" fill="white"/>
<path d="M9.11643 16.4437C8.97849 15.3329 9.14839 14.8907 9.96794 14.5662C10.9813 14.1649 11.9879 14.8781 11.9892 15.8412C11.9899 16.3443 11.8922 16.7933 11.4693 17.0584C11.0124 17.3447 11.1106 17.7265 11.1557 18.1227C11.1667 18.2192 11.2028 18.3136 11.2069 18.4099C11.2637 19.7466 11.317 21.0835 11.3724 22.4483C11.8884 22.5384 12.333 22.7774 12.5108 23.2589C12.6347 23.5943 12.6993 24.0196 12.6062 24.3537C12.3382 25.3158 11.6615 25.4933 10.8009 25.3781C10.1485 25.2908 9.59584 24.3908 9.70336 23.6865C8.51308 22.8375 7.31355 22.0008 6.14153 21.1275C5.92726 20.9678 5.80111 20.9798 5.58587 21.0644C4.5612 21.4671 3.67752 21.1593 3.37087 20.0831C3.18337 19.4251 3.63856 18.6429 4.36643 18.3635C4.97274 18.1307 5.82577 18.4335 6.11656 18.9945C6.20509 19.1653 6.3539 19.371 6.32014 19.5274C6.17498 20.2001 6.64476 20.4704 7.07009 20.7765C7.95159 21.4109 8.83218 22.0469 9.72799 22.6607C9.86005 22.7512 10.1195 22.8015 10.2369 22.7316C10.3791 22.6469 10.5159 22.4127 10.512 22.2465C10.4769 20.7244 10.4157 19.2028 10.3432 17.6819C10.3381 17.576 10.2027 17.4386 10.0934 17.3821C9.68256 17.1696 9.26971 16.9716 9.11643 16.4437Z" fill="white"/>
<path d="M17.5145 22.8969C17.1281 23.1763 16.7557 23.4235 16.4065 23.6997C16.3174 23.7701 16.2659 23.9306 16.2582 24.0535C16.202 24.9458 15.6147 25.4179 14.5751 25.3896C13.9133 25.3716 13.38 24.725 13.3369 23.9922C13.2905 23.2032 13.7203 22.551 14.7992 22.4462C14.7992 21.8996 14.7801 21.3402 14.8034 20.7826C14.8457 19.7707 14.9084 18.7596 14.9734 17.7489C14.9911 17.4733 14.9275 17.311 14.6506 17.1643C14.0997 16.8725 13.8674 16.1 14.0595 15.4344C14.2226 14.8697 14.7818 14.528 15.4233 14.4696C16.1627 14.4023 16.7642 14.9396 16.9204 15.5594C17.0968 16.259 16.7841 16.9723 16.101 17.2752C15.6696 17.4665 15.7833 17.8446 15.7587 18.1232C15.6793 19.0219 15.6872 19.9281 15.652 20.8311C15.635 21.2662 15.6043 21.701 15.5662 22.1348C15.5356 22.4833 15.5804 22.7887 15.9743 22.9575C17.0907 22.1589 18.2324 21.3211 19.3999 20.5208C19.7152 20.3048 19.6705 20.0406 19.6713 19.7564C19.6732 19.0841 19.9634 18.6436 20.5794 18.3843C21.3191 18.073 22.2856 18.5086 22.5509 19.2731C22.8085 20.0153 22.3513 21.0223 21.6201 21.164C21.2429 21.2371 20.8274 21.1037 20.4283 21.0788C20.2808 21.0696 20.0946 21.0523 19.9873 21.1266C19.1621 21.6973 18.3519 22.2897 17.5145 22.8969Z" fill="white"/>
<path d="M8.71203 8.20653C7.59042 7.47114 6.48606 6.76953 5.4025 6.03732C5.12443 5.84941 4.9148 5.81364 4.62645 5.99517C4.00875 6.38404 3.0162 5.96653 2.73058 5.40816C2.4265 4.81369 2.54404 3.93991 3.01959 3.51409C3.54842 3.04057 4.41306 3.00239 4.98877 3.48859C5.19775 3.66508 5.35217 3.65183 5.55095 3.56969C6.6173 3.12906 7.68527 2.69195 8.74268 2.23085C8.85684 2.18107 8.9656 1.98928 8.97649 1.85526C9.03891 1.08728 9.6414 0.581467 10.5214 0.590951C11.2574 0.598883 11.8522 1.1827 11.8973 1.89411C11.9541 2.79032 11.5242 3.37372 10.6582 3.5486C10.1499 3.65124 9.74063 3.41424 9.34484 3.13121C9.25624 3.06786 9.0924 3.02815 8.99843 3.06554C7.88818 3.50727 6.78215 3.95987 5.68107 4.42392C5.40799 4.53901 5.38171 5.01778 5.63378 5.18458C6.85292 5.99122 8.07504 6.79348 9.30554 7.58267C9.38426 7.63316 9.5544 7.58743 9.66196 7.54064C10.5447 7.15662 11.4793 7.42016 11.8154 8.3124C12.1994 9.33184 11.4793 10.3343 10.5155 10.3116C9.50588 10.2877 8.98327 9.79192 8.98999 8.78195C8.99155 8.54829 8.99294 8.33583 8.71203 8.20653Z" fill="white"/>
<path d="M79.6315 24.3166C79.5428 24.2643 79.494 24.1728 79.4354 24.1652C78.2812 24.0157 77.1995 23.6639 76.2792 22.8922C75.6455 22.3609 75.2982 21.6588 75.2212 20.8049C75.1064 19.5333 75.5914 18.5621 76.5585 17.799C76.0705 17.1321 75.7656 16.3778 75.8348 15.5226C75.904 14.6686 76.2797 13.9488 76.9058 13.3531C76.3653 12.7548 75.9349 12.1064 75.7262 11.3147C75.3219 9.78175 75.583 8.37381 76.4751 7.10667C77.3216 5.90425 78.5316 5.28571 79.8892 4.98951C81.229 4.69719 82.5734 4.7338 83.8771 5.21392C84.3366 5.38313 84.7647 5.64463 85.2116 5.85326C85.3101 5.89923 85.4363 5.93825 85.5356 5.91486C86.1925 5.7601 86.8439 5.57994 87.5016 5.42919C87.5944 5.40793 87.7598 5.4685 87.8092 5.5476C88.2127 6.1936 88.6115 6.84427 88.9719 7.51693C89.0321 7.62932 88.9531 7.91666 88.8469 8.01787C88.3186 8.5214 87.7598 8.98972 87.232 9.45255C87.4024 10.7561 87.1714 11.9423 86.4428 12.9967C85.6415 14.1563 84.4684 14.6547 83.1825 14.9193C82.2047 15.1205 81.221 15.1604 80.2372 14.9118C80.2294 14.959 80.2216 15.0061 80.2138 15.0533C80.5223 15.1149 80.8298 15.2229 81.1393 15.2295C82.1814 15.2518 83.2264 15.1938 84.2661 15.2502C85.3596 15.3095 86.4523 15.4424 87.4375 16.0266C88.4888 16.65 89.0417 17.5701 89.1046 18.8516C89.1642 20.0643 88.8006 21.1033 88.0362 21.9743C87.4553 22.6361 86.7164 23.0994 85.9221 23.441C85.0202 23.8288 84.0827 24.0832 83.1062 24.1647C83.0531 24.1692 83.0039 24.2249 82.9708 24.2867C81.8814 24.3166 80.7741 24.3166 79.6315 24.3166ZM81.0748 9.15333C80.9869 9.30466 80.883 9.44842 80.8141 9.60871C80.5897 10.131 80.7156 10.7347 81.1118 11.102C81.5232 11.4835 82.0828 11.5206 82.5696 11.1986C82.9754 10.9301 83.1904 10.3251 83.0615 9.81387C82.9338 9.3074 82.4819 8.91247 81.9777 8.93169C81.6891 8.94271 81.4036 9.04671 81.0748 9.15333ZM80.1753 20.2912C81.1178 20.6283 82.082 20.6105 83.0374 20.411C83.4542 20.324 83.9013 20.185 84.1535 19.6427C82.6995 19.3231 81.2579 19.6594 79.8734 19.3932C79.6213 19.9171 79.6213 19.9171 80.1753 20.2912Z" fill="white"/>
<path d="M45.1428 20.2906C43.8513 20.2906 42.5975 20.2906 41.2981 20.2906C41.2981 20.1234 41.2981 19.9837 41.2981 19.8439C41.2981 16.9501 41.2982 14.0564 41.2981 11.1626C41.298 10.209 40.7626 9.70634 39.9429 9.56867C39.2503 9.45236 38.5102 10.2584 38.5095 11.0769C38.5074 13.8917 38.5087 16.7066 38.5087 19.5214C38.5087 19.7576 38.5087 19.9937 38.5087 20.2602C36.8072 20.2602 35.1198 20.2602 33.4072 20.2602C33.4072 14.0802 33.4072 7.89333 33.4072 1.68311C35.0977 1.68311 36.785 1.68311 38.5074 1.68311C38.5074 3.28105 38.5074 4.86472 38.5074 6.47764C38.9971 6.23367 39.4281 5.93782 39.9011 5.7974C41.9348 5.19367 43.804 5.4708 45.3353 7.12229C45.9897 7.82807 46.3554 8.6858 46.3527 9.70213C46.3436 13.0694 46.3492 16.4367 46.3492 19.804C46.3492 19.9475 46.3492 20.091 46.3492 20.2906C45.9481 20.2906 45.5643 20.2906 45.1428 20.2906Z" fill="white"/>
<path d="M101.308 11.1536C101.308 14.1771 101.308 17.1632 101.308 20.1804C100.185 20.1804 99.0748 20.1804 97.9248 20.1804C97.8372 19.7382 97.7459 19.2771 97.6515 18.8004C97.2314 19.1057 96.8189 19.4212 96.3916 19.7128C95.4883 20.3292 94.4833 20.6527 93.4147 20.5945C91.3921 20.4845 89.9117 19.2048 89.5347 16.9843C89.3425 15.8524 89.3715 14.7769 89.8514 13.7375C90.3284 12.7044 91.1339 12.0311 92.1278 11.6164C93.0925 11.2139 94.0996 10.9833 95.148 10.9694C95.5561 10.964 95.9636 10.8974 96.3735 10.8585C96.4446 10.1835 95.8934 9.71084 95.2983 9.5646C94.3594 9.33387 93.4329 9.50447 92.5185 9.77721C91.9408 9.94954 91.3578 10.1033 90.7744 10.2536C90.56 10.3088 90.4617 10.2132 90.4472 9.96398C90.3832 8.86068 90.3051 7.75822 90.224 6.6561C90.1682 5.89799 90.159 5.87464 90.8724 5.76811C91.8984 5.6149 92.929 5.4942 93.9589 5.3711C95.3424 5.20572 96.6898 5.38121 98.0111 5.83908C99.6338 6.40141 100.566 7.61911 100.998 9.29205C101.151 9.88594 101.207 10.5073 101.308 11.1536ZM94.1451 14.8845C93.8405 15.2266 93.7356 15.6274 93.9118 16.0585C94.0937 16.5036 94.4906 16.5969 94.9013 16.5722C95.1406 16.5578 95.4053 16.5172 95.6054 16.3939C95.8957 16.2149 96.3007 15.9922 96.3658 15.7136C96.4877 15.1917 96.4009 14.6163 96.4009 14.0437C95.5906 14.223 94.8207 14.3288 94.1451 14.8845Z" fill="white"/>
<path d="M49.1388 9.70406C49.0396 8.57151 48.9391 7.47505 48.842 6.37827C48.8183 6.11066 48.8096 5.90686 49.1751 5.82944C50.3403 5.58258 51.5087 5.42996 52.6973 5.34954C53.9239 5.26655 55.1167 5.37031 56.2922 5.69735C57.0573 5.91019 57.7662 6.2584 58.3573 6.84555C59.221 7.70354 59.6438 8.78971 59.8324 9.97819C59.9458 10.6927 59.9829 11.4267 59.9881 12.1525C60.006 14.6774 59.995 17.2024 59.995 19.7274C59.995 19.8706 59.995 20.0138 59.995 20.1844C58.8649 20.1844 57.7545 20.1844 56.6239 20.1844C56.5293 19.7305 56.4333 19.2702 56.3172 18.7138C56.0736 18.9418 55.8806 19.1629 55.6515 19.3295C54.7856 19.9591 53.8705 20.4251 52.7863 20.5498C51.7393 20.6703 50.7927 20.463 49.9331 19.8831C49.0198 19.2671 48.5162 18.3439 48.2735 17.2322C48.0124 16.0367 48.0153 14.8853 48.5299 13.7593C49.0053 12.7192 49.8106 12.0528 50.7911 11.6202C51.7505 11.1969 52.7653 10.9948 53.812 10.9705C54.2323 10.9607 54.6514 10.8976 55.0715 10.8588C55.1137 10.2852 54.6392 9.7092 53.9744 9.55675C53.0543 9.34577 52.1534 9.51222 51.2608 9.74637C50.6668 9.90218 50.0809 10.0931 49.4846 10.2378C49.0506 10.3431 49.1713 9.97068 49.1388 9.70406ZM54.7696 14.0557C54.662 14.0816 54.5547 14.1095 54.4466 14.133C53.7714 14.2794 53.1057 14.4358 52.5482 14.9131C52.213 15.2 52.1081 15.5631 52.1636 15.9728C52.216 16.3597 52.4421 16.6351 52.8331 16.6945C53.0657 16.7299 53.3072 16.7575 53.5389 16.7315C54.055 16.6737 54.4846 16.3955 54.7825 15.9712C54.9167 15.78 54.9168 15.4708 54.9381 15.2115C54.9628 14.9113 54.9514 14.6068 54.9389 14.305C54.9354 14.2209 54.8727 14.1396 54.7696 14.0557Z" fill="white"/>
<path d="M73.7805 20.2904C72.5162 20.2904 71.2886 20.2904 70.0218 20.2904C70.0218 20.1156 70.0218 19.975 70.0218 19.8344C70.0218 17.0069 70.0287 14.1795 70.0156 11.3521C70.0131 10.8123 69.914 10.2809 69.6266 9.80552C69.4097 9.44674 69.0818 9.29343 68.71 9.24283C67.7537 9.11272 66.9807 9.50782 66.291 10.1731C65.9837 10.4696 65.8602 10.7762 65.8638 11.2254C65.8864 14.0921 65.8753 16.959 65.8753 19.8259C65.8753 19.9673 65.8753 20.1087 65.8753 20.27C64.4901 20.27 63.1384 20.27 61.7578 20.27C61.7578 15.4831 61.7578 10.6913 61.7578 5.87157C62.8583 5.87157 63.9687 5.87157 65.1146 5.87157C65.211 6.43286 65.3093 7.00488 65.4115 7.5995C65.9419 7.19249 66.4148 6.80601 66.9102 6.45411C68.0914 5.61502 69.3907 5.37567 70.7976 5.59692C72.5047 5.86539 73.4918 7.07207 73.8482 8.68364C74.0501 9.59641 74.1412 10.5528 74.1543 11.4914C74.1931 14.2657 74.1682 17.0409 74.1682 19.8157C74.1682 19.9582 74.1682 20.1007 74.1682 20.2675C74.0345 20.2762 73.9258 20.2833 73.7805 20.2904Z" fill="white"/>
</svg>
