<svg width="1440" height="35" viewBox="0 0 1440 35" fill="none" xmlns="http://www.w3.org/2000/svg">
<g clip-path="url(#clip0_203_5057)">
<path d="M0.0961926 20.715C1.2327 21.5299 2.4396 22.2551 3.61637 23.0101C8.06414 25.8692 12.522 28.7084 16.9698 31.5575C22.6044 35.1618 28.239 38.766 33.8635 42.3702C38.2715 45.1891 42.6694 48.008 47.0773 50.827C52.8017 54.4916 58.536 58.1562 64.2603 61.8208C64.719 62.1128 64.729 62.1229 65.1207 61.7345C66.4664 60.4003 67.8122 59.0661 69.1579 57.7318C69.5596 57.3335 69.5597 57.3236 69.1313 56.9317C67.7367 55.6757 66.332 54.4397 64.9273 53.1936C62.8353 51.3346 60.7333 49.4656 58.6413 47.6066C56.5094 45.7074 54.3675 43.8082 52.2357 41.899C50.1437 40.03 48.0517 38.171 45.9597 36.302C43.2102 33.8602 40.4706 31.4184 37.7211 28.9766C35.639 27.1276 33.5669 25.2687 31.4849 23.4198C29.0243 21.2292 26.5636 19.0386 24.103 16.848C23.5651 16.3657 23.0271 15.8834 22.4992 15.4011C22.3697 15.2906 22.2302 15.18 22.1709 15.0097L0.121094 14.915L0.0961926 20.715Z" fill="#F05423"/>
<path d="M163.649 15.6168C163.598 15.8166 163.428 15.9159 163.287 16.0453C159.272 19.5381 155.247 23.0308 151.232 26.5236C147.689 29.6084 144.145 32.6933 140.592 35.778C136.457 39.3703 132.321 42.9526 128.186 46.5449C124.954 49.351 121.722 52.1672 118.489 54.9733C116.833 56.4162 115.167 57.8491 113.511 59.292C112.728 59.9686 112.809 59.829 113.325 60.5912C113.941 61.5039 114.568 62.4065 115.194 63.3092C115.561 63.8408 115.561 63.8408 116.063 63.483C121.269 59.7453 126.465 56.0176 131.671 52.2799C138.462 47.409 145.253 42.5381 152.044 37.6672C157.09 34.0388 162.145 30.4205 167.191 26.7921C168.224 26.0566 169.257 25.311 170.29 24.5754C170.441 24.4661 170.591 24.3467 170.782 24.3075L170.819 15.6676L163.659 15.6369L163.649 15.6168Z" fill="#F05423"/>
<path d="M170.737 34.9775C169.063 35.9403 167.379 36.9031 165.704 37.8659C158.727 41.896 151.76 45.9261 144.792 49.9662C140.051 52.7059 135.319 55.4556 130.577 58.2053C126.346 60.6571 122.116 63.099 117.885 65.5508C117.725 65.6502 117.554 65.7394 117.394 65.8387C116.993 66.087 116.973 66.1169 117.191 66.5679C117.934 68.1611 118.687 69.7643 119.44 71.3576C119.668 71.8285 119.678 71.8386 120.159 71.5907C123.427 69.9047 126.694 68.2187 129.961 66.5327C134.862 64.0037 139.763 61.4847 144.664 58.9557C149.094 56.6747 153.523 54.3837 157.953 52.1027C161.962 50.0299 165.971 47.9571 169.97 45.8943C170.201 45.7753 170.431 45.6362 170.691 45.5674L170.737 34.9875L170.737 34.9775Z" fill="#F05423"/>
<path d="M141.25 15.5208C141.199 15.7106 141.058 15.85 140.938 15.9895C137.741 19.7858 134.555 23.5922 131.359 27.3885C128.213 31.135 125.067 34.8715 121.92 38.618C118.774 42.3646 115.628 46.1011 112.482 49.8476C111.467 51.0533 110.462 52.259 109.437 53.4546C109.135 53.8033 109.074 54.103 109.312 54.5141C109.689 55.1957 110.006 55.9071 110.353 56.5986C110.532 56.9393 110.602 56.9496 110.903 56.6809C111.003 56.5913 111.094 56.4917 111.184 56.4021C119.188 48.5164 127.192 40.6207 135.186 32.7349C140.749 27.2488 146.313 21.7726 151.867 16.2964C152.077 16.0873 152.358 15.9185 152.38 15.5786L141.24 15.5308L141.25 15.5208Z" fill="#F05423"/>
<path d="M70.5101 15.2169C70.459 15.4667 70.488 15.7068 70.5369 15.947C72.1421 24.054 73.7473 32.171 75.3425 40.2779C75.8026 42.5999 76.2526 44.9218 76.7126 47.2438C76.8595 47.9645 76.9194 47.9947 77.5014 47.5372C78.4445 46.8113 79.3877 46.0753 80.3507 45.3794C80.7519 45.0812 80.9134 44.7418 80.8255 44.2615C80.7571 43.8912 80.7787 43.5113 80.7703 43.1312C80.7307 40.711 80.7311 38.281 80.6415 35.8606C80.5875 34.4604 80.6136 33.0604 80.5596 31.6602C80.4624 28.6698 80.4352 25.6796 80.3581 22.6893C80.3241 21.2891 80.3501 19.8892 80.2661 18.4888C80.2007 17.4085 80.2354 16.3287 80.17 15.2584L70.5001 15.2169L70.5101 15.2169Z" fill="#F05423"/>
<path d="M108.951 15.3822C108.446 16.34 107.942 17.2879 107.438 18.2457C105.018 22.8954 102.598 27.555 100.178 32.2147C98.6355 35.1681 97.0929 38.1215 95.5502 41.0749C95.4896 41.1946 95.4391 41.3144 95.3687 41.4241C95.1975 41.6934 95.2768 41.8637 95.526 42.0348C96.6028 42.7794 97.6696 43.534 98.7364 44.2786C99.0754 44.5101 99.1355 44.4903 99.4073 44.0815C100.082 43.0544 100.746 42.0172 101.411 40.98C104.088 36.8415 106.756 32.7029 109.434 28.5744C112.122 24.4259 114.81 20.2774 117.487 16.1288C117.628 15.9094 117.789 15.6901 117.811 15.4102C114.851 15.3975 111.901 15.3848 108.941 15.3721L108.951 15.3822Z" fill="#F05423"/>
<path d="M87.4611 15.2898C87.2657 16.559 87.1902 17.8487 87.0647 19.1281C86.9286 20.5376 86.7725 21.9569 86.6365 23.3663C86.5423 24.346 86.4581 25.3256 86.3638 26.3052C86.2174 27.8146 86.0709 29.324 85.9244 30.8234C85.7885 32.2028 85.6626 33.5723 85.5267 34.9517C85.3802 36.4611 85.2338 37.9605 85.0873 39.4698C85.0242 40.1896 84.9612 40.8993 84.9081 41.6191C84.9076 41.7291 84.8571 41.8489 84.9867 41.9394C85.1966 41.9603 85.3173 41.7909 85.4578 41.6815C86.7623 40.637 88.0569 39.5826 89.3613 38.5482C89.6122 38.3493 89.7731 38.1199 89.8644 37.8203C91.6095 31.9978 93.3545 26.1752 95.1095 20.3527C95.5457 18.9046 95.982 17.4464 96.4182 15.9983C96.4791 15.7785 96.56 15.5689 96.561 15.3389L87.4611 15.2998L87.4611 15.2898Z" fill="#F05423"/>
<path d="M55.0497 15.1505C54.9187 15.37 54.6883 15.479 54.4877 15.6081C49.6345 18.6673 44.7813 21.7265 39.9281 24.7957C39.8279 24.8553 39.7376 24.9149 39.6473 24.9845C39.4668 25.1137 39.4561 25.2637 39.6155 25.4144C39.8046 25.6052 40.0039 25.776 40.1931 25.9669C41.3581 27.1319 42.5231 28.2969 43.6881 29.4619C44.3254 30.0946 44.1955 30.0841 44.9574 29.6273C48.7373 27.3436 52.5071 25.0597 56.277 22.7659C59.5355 20.7899 62.794 18.8238 66.0425 16.8478C66.634 16.4903 66.634 16.4903 66.4569 15.8095C66.4078 15.6093 66.3687 15.3991 66.3296 15.199C62.5796 15.1829 58.8196 15.1667 55.0697 15.1506L55.0497 15.1505Z" fill="#F05423"/>
<path d="M29.4609 15.041C29.46 15.271 29.6193 15.4217 29.7687 15.5623C31.3121 17.109 32.8455 18.6456 34.3889 20.1922C34.7075 20.5136 34.7275 20.5137 35.1185 20.2854C37.7652 18.7267 40.4019 17.158 43.0487 15.5994C43.2392 15.4802 43.4596 15.3911 43.4608 15.1011L29.4709 15.0411L29.4609 15.041Z" fill="#F05423"/>
<path d="M130.221 15.4732C130.17 15.713 130.319 15.8636 130.478 16.0143C131.554 17.0589 132.619 18.1035 133.705 19.1382C134.074 19.4898 134.114 19.4899 134.455 19.0614C135.27 18.0649 136.074 17.0583 136.878 16.0518C137.009 15.8923 137.13 15.7229 137.161 15.503L130.221 15.4732Z" fill="#F05423"/>
<path d="M69.4365 27.3028C69.407 27.1926 69.3875 27.0826 69.358 26.9724C68.9643 25.4907 68.5807 24.0091 68.187 22.5274C68.0394 21.9767 67.9894 21.9665 67.518 22.3045C65.0704 24.064 62.6328 25.8235 60.1852 27.583C56.8148 30.0086 53.4544 32.4342 50.0839 34.8597C49.4921 35.2872 49.482 35.2972 50.0098 35.8194C51.0454 36.8439 52.081 37.8683 53.1166 38.9028C53.5249 39.3046 53.5348 39.3146 54.0063 38.9666C57.3168 36.5308 60.6273 34.095 63.9477 31.6692C65.6431 30.4265 67.3384 29.1838 69.0338 27.931C69.2445 27.7819 69.505 27.6531 69.4465 27.3128L69.4365 27.3028Z" fill="#F05423"/>
<path d="M72.3599 38.4051C72.3403 38.3151 72.3108 38.1849 72.2714 38.0648C71.9566 36.8534 71.6417 35.652 71.3269 34.4407C71.3072 34.3706 71.2875 34.2905 71.2678 34.2204C71.1493 33.8899 71.0694 33.8596 70.7885 34.0784C70.1564 34.5656 69.5442 35.063 68.9221 35.5604C65.5505 38.2559 62.1888 40.9615 58.8172 43.657C58.7269 43.7267 58.6466 43.8063 58.5563 43.8759C58.3957 44.0152 58.385 44.1652 58.5344 44.3158C58.6439 44.4263 58.7434 44.5367 58.853 44.6372C59.8687 45.6516 60.8843 46.676 61.8999 47.6903C62.3182 48.1021 62.3281 48.1122 62.7698 47.7141C63.5228 47.0273 64.2658 46.3305 65.0188 45.6237C67.3382 43.4436 69.6576 41.2736 71.9769 39.0935C72.1677 38.9143 72.4083 38.7654 72.3699 38.4052L72.3599 38.4051Z" fill="#F05423"/>
<path d="M126.442 28.8072C126.642 28.808 126.723 28.6384 126.833 28.5089C127.507 27.6817 128.16 26.8545 128.834 26.0374C129.166 25.6288 129.507 25.2203 129.829 24.7917C130.111 24.4329 130.111 24.4029 129.772 24.0914C128.726 23.1069 127.671 22.1324 126.615 21.1479C125.27 19.9021 123.926 18.6463 122.581 17.4005C121.575 16.4762 121.804 16.5972 121.15 17.5244C120.426 18.5413 119.732 19.5783 119.027 20.6153C118.715 21.0739 118.715 21.0839 119.103 21.4656C121.433 23.8156 123.773 26.1757 126.103 28.5257C126.213 28.6362 126.302 28.7566 126.462 28.8073L126.442 28.8072Z" fill="#F05423"/>
<path d="M120.4 36.3813C120.5 36.3617 120.57 36.302 120.63 36.2223C121.405 35.2656 122.169 34.3089 122.943 33.3522C123.154 33.0931 123.045 32.9126 122.846 32.7218C122.278 32.1393 121.721 31.5469 121.163 30.9545C119.56 29.2976 117.947 27.6407 116.344 25.9838C116.255 25.8934 116.165 25.793 116.066 25.7026C115.777 25.4314 115.717 25.4211 115.495 25.7402C114.701 26.8668 113.926 28.0134 113.141 29.1501C112.98 29.3794 113.009 29.5495 113.218 29.7404C113.676 30.1624 114.115 30.6043 114.573 31.0362C116.206 32.5833 117.849 34.1203 119.493 35.6674C119.712 35.8784 119.941 36.0793 120.17 36.2803C120.24 36.3406 120.31 36.4009 120.42 36.4114L120.4 36.3813Z" fill="#F05423"/>
<path d="M114.024 44.294C114.144 44.2745 114.195 44.1947 114.255 44.1249C115.059 43.1184 115.864 42.1118 116.678 41.1153C116.899 40.8463 116.82 40.6559 116.641 40.4151C115.219 38.569 113.807 36.7229 112.395 34.8669C111.937 34.2649 111.48 33.6629 111.012 33.0609C110.744 32.7198 110.664 32.7194 110.422 33.0584C109.597 34.2349 108.792 35.4314 107.967 36.6079C107.766 36.897 107.895 37.0876 108.074 37.3083C109.049 38.4625 110.014 39.6367 110.989 40.7909C111.885 41.8647 112.79 42.9386 113.696 44.0025C113.785 44.1129 113.854 44.2632 114.024 44.274L114.024 44.294Z" fill="#F05423"/>
<path d="M183.666 15.7027C183.715 16.0129 183.924 16.2438 184.103 16.4946C186.618 20.0054 189.133 23.5262 191.648 27.037C196.668 34.0487 201.678 41.0602 206.697 48.0719C210.803 53.8095 214.908 59.5372 219.014 65.2649C223.229 71.153 227.433 77.0412 231.648 82.9293C231.668 82.9594 231.688 82.9895 231.718 83.0196C232.066 83.4911 232.066 83.5011 232.597 83.2834C233.668 82.848 234.73 82.4025 235.802 81.9571C237.986 81.0465 240.17 80.1359 242.364 79.2353C242.985 78.9779 243.665 78.9809 244.316 78.8836C246.207 78.6118 248.108 78.3599 249.999 78.098C250.429 78.0399 250.5 77.9602 250.502 77.5002C250.517 76.3102 250.532 75.1103 250.537 73.9203C250.549 71.1303 250.531 68.3502 250.603 65.5605C250.745 60.3311 250.668 55.1007 250.79 49.8712C250.911 44.9117 250.843 39.9413 250.964 34.9818C251.087 29.7523 251.059 24.5221 251.141 19.2924C251.156 18.1925 251.211 17.0927 251.216 16.0027L243.936 15.9714C243.862 16.7111 243.909 17.4513 243.926 18.1914C244.006 20.4418 244.117 22.6923 244.197 24.9426C244.25 26.5129 244.254 28.0829 244.337 29.6533C244.383 30.5435 244.359 31.4334 244.425 32.3237C244.511 33.4241 244.486 34.524 244.531 35.6142C244.622 37.8846 244.722 40.155 244.802 42.4254C244.856 43.9356 244.849 45.4556 244.943 46.966C244.998 47.9863 244.994 49.0063 245.039 50.0365C245.13 52.2869 245.23 54.5373 245.31 56.7877C245.364 58.358 245.367 59.928 245.45 61.4984C245.496 62.3886 245.473 63.2785 245.539 64.1688C245.624 65.2691 245.599 66.369 245.645 67.4592C245.736 69.5797 245.816 71.7 245.917 73.8105C245.936 74.1206 245.835 74.3201 245.515 74.3888C245.425 74.4084 245.335 74.448 245.245 74.4676C241.53 75.5217 237.805 76.5857 234.091 77.6397C233.71 77.7514 233.404 77.6368 233.172 77.2958C228.054 69.7938 222.937 62.3017 217.819 54.7997C212.731 47.3477 207.653 39.8959 202.565 32.454C200.408 29.2947 198.242 26.1354 196.085 22.9761C194.445 20.569 192.806 18.1519 191.166 15.7349C188.666 15.7241 186.166 15.7134 183.656 15.7026L183.666 15.7027Z" fill="#F05423"/>
<path d="M352.485 30.1878L352.541 17.108C352.321 17.137 352.18 17.3064 352.02 17.4357C351.428 17.9332 350.835 18.4407 350.233 18.9381C346.921 21.7139 343.609 24.4797 340.297 27.2555C336.684 30.29 333.071 33.3245 329.458 36.359C326.337 38.9757 323.216 41.5923 320.094 44.2089C318.198 45.8008 316.291 47.4026 314.384 48.9844C314.003 49.3028 313.993 49.3028 313.554 49.0409C312.446 48.3861 311.339 47.7314 310.232 47.0666C309.324 46.5227 309.334 46.6827 310.017 45.8457C314.38 40.4843 318.743 35.123 323.117 29.7618C326.575 25.5166 330.033 21.2714 333.481 17.0261C333.652 16.8169 333.833 16.6276 333.874 16.3478C331.714 16.3385 329.554 16.3293 327.394 16.32C327.274 16.4895 327.163 16.669 327.042 16.8385C325.161 19.4504 323.29 22.0724 321.408 24.6844C317.113 30.666 312.817 36.6576 308.511 42.6392C304.075 48.8102 299.648 54.9712 295.212 61.1422C295.111 61.2818 295.01 61.4214 294.92 61.561C294.819 61.7206 294.838 61.8506 295.018 61.9314C295.108 61.9718 295.188 62.0121 295.278 62.0425C296.805 62.6591 298.342 63.2657 299.86 63.9022C300.239 64.0638 300.529 64.0151 300.86 63.7965C302.024 63.0115 303.207 62.2566 304.38 61.4916C308.853 58.5708 313.325 55.66 317.808 52.7392C324.106 48.6262 330.403 44.5232 336.711 40.4102C341.785 37.102 346.869 33.7838 351.944 30.4755C352.114 30.3663 352.305 30.2771 352.485 30.1678L352.485 30.1878Z" fill="#F05423"/>
<path d="M237.338 15.9332C235.368 15.9248 233.398 15.9163 231.428 15.9079C231.427 16.0579 231.427 16.2079 231.456 16.358C231.581 17.5385 231.706 18.7291 231.831 19.9096C231.994 21.4903 232.137 23.071 232.31 24.6517C232.512 26.5726 232.724 28.4935 232.926 30.4044C233.089 32.0051 233.242 33.6058 233.405 35.2065C233.607 37.1274 233.819 39.0483 234.02 40.9592C234.184 42.5599 234.327 44.1606 234.5 45.7613C234.702 47.6822 234.913 49.6031 235.115 51.514C235.317 53.4549 235.498 55.3957 235.7 57.3366C235.93 59.5976 236.191 61.8487 236.421 64.1097C236.44 64.3198 236.489 64.55 236.388 64.7796C236.179 64.6587 236.119 64.4685 236.03 64.3081C234.342 61.5208 232.654 58.7335 230.976 55.9463C226.26 48.126 221.543 40.3057 216.827 32.4853C213.47 26.9209 210.114 21.3564 206.768 15.792C203.928 15.7798 201.078 15.7676 198.238 15.7554C198.247 16.0154 198.406 16.2161 198.535 16.4267C199.797 18.4321 201.058 20.4275 202.33 22.433C205.389 27.2662 208.448 32.0994 211.507 36.9325C215.739 43.6208 219.98 50.319 224.211 57.0073C226.635 60.8377 229.049 64.6581 231.472 68.4885C232.148 69.5614 232.833 70.6244 233.508 71.7073C233.687 71.9981 233.877 72.1289 234.247 72.0405C236.369 71.5496 238.491 71.0787 240.613 70.5878C241.054 70.4897 241.074 70.4398 241.046 70.0097C241 69.1195 240.973 68.2293 240.887 67.3489C240.83 66.7487 240.812 66.1386 240.765 65.5384C240.671 64.198 240.566 62.8575 240.482 61.5172C240.398 60.2568 240.323 58.9865 240.238 57.7261C240.144 56.3257 240.04 54.9352 239.946 53.5348C239.862 52.3044 239.787 51.0841 239.702 49.8537C239.608 48.4933 239.504 47.1328 239.41 45.7724C239.325 44.522 239.25 43.2817 239.166 42.0313C239.072 40.6009 238.968 39.1605 238.864 37.73C238.779 36.5396 238.705 35.3493 238.63 34.159C238.535 32.8385 238.431 31.5181 238.347 30.1977C238.262 28.9173 238.188 27.627 238.103 26.3466C237.981 24.5161 237.829 22.6854 237.707 20.8549C237.594 19.2144 237.521 17.564 237.348 15.9333L237.338 15.9332Z" fill="#F05423"/>
<path d="M315.127 16.2672C315.076 16.557 314.895 16.7862 314.744 17.0256C310.203 24.2662 305.661 31.5067 301.12 38.7373C296.438 46.1973 291.746 53.6572 287.064 61.1172C285.936 62.9123 284.809 64.7175 283.691 66.5127C283.641 66.5925 283.59 66.6723 283.54 66.7521C283.429 66.9516 283.488 67.0719 283.698 67.1428C283.828 67.1833 283.958 67.2139 284.078 67.2444C289.062 68.5358 294.057 69.8173 299.041 71.1287C299.581 71.271 300.011 71.2028 300.492 70.9249C305.885 67.828 311.279 64.7612 316.682 61.6743C321.995 58.6371 327.308 55.5999 332.621 52.5727C338.245 49.3568 343.879 46.151 349.503 42.9451C350.295 42.4985 351.087 42.0419 351.869 41.5852C352.049 41.486 352.22 41.3667 352.43 41.3176L352.454 35.7477C352.144 35.7463 351.923 35.9454 351.692 36.0844C347.602 38.5469 343.511 41.0193 339.42 43.4818C334.598 46.3911 329.775 49.2904 324.963 52.1998C316.691 57.1943 308.41 62.1788 300.148 67.1834C299.707 67.4515 299.317 67.5198 298.817 67.4177C295.7 66.7643 292.583 66.1309 289.465 65.4875C288.566 65.3037 288.566 65.3037 289.069 64.5558C292.783 59.0617 296.507 53.5676 300.22 48.0835C305.453 40.3459 310.687 32.6083 315.92 24.8707C317.701 22.2383 319.483 19.596 321.264 16.9536C321.395 16.7542 321.616 16.5851 321.497 16.2946L315.127 16.2672Z" fill="#F05423"/>
<path d="M288.626 16.1536C288.425 16.4027 288.125 16.4214 287.855 16.4603C287.465 16.5186 287.065 16.5469 286.665 16.5652C284.204 16.6846 281.744 16.794 279.293 16.9135C277.253 17.0147 275.212 17.126 273.172 17.2272C271.131 17.3285 269.091 17.4397 267.05 17.541C265.67 17.615 264.29 17.6791 262.909 17.7532C262.829 17.7528 262.759 17.7525 262.679 17.7722C261.839 17.8586 261.849 17.8686 261.755 18.7182C261.599 20.1676 261.403 21.6067 261.226 23.056C261.175 23.4858 261.103 23.9155 261.071 24.3553C261.039 24.7052 261.139 24.8056 261.499 24.7772C262.369 24.7109 263.23 24.6346 264.1 24.5584C265.611 24.4248 267.121 24.3013 268.622 24.1678C270.132 24.0342 271.643 23.9007 273.143 23.7772C274.554 23.6532 275.974 23.5393 277.385 23.4154C278.936 23.282 280.476 23.1486 282.027 23.0153C282.937 22.9392 283.838 22.8431 284.748 22.787C285.168 22.7588 285.568 22.6705 285.969 22.5522C290.745 21.1427 295.521 19.7232 300.297 18.3237C300.698 18.2054 300.978 18.0166 301.14 17.6473C301.362 17.1683 301.744 16.7699 301.816 16.2202L288.626 16.1636L288.626 16.1536Z" fill="#F05423"/>
<path d="M213.917 15.8327C213.816 16.0522 213.935 16.2328 214.034 16.4232C216.812 21.5952 219.59 26.7671 222.357 31.9391C224.461 35.8581 226.554 39.7872 228.657 43.7062C229.262 44.8388 229.877 45.9715 230.492 47.1041C230.562 47.2344 230.611 47.3846 230.771 47.4953C230.941 47.3461 230.872 47.1458 230.863 46.9857C230.787 46.0054 230.691 45.025 230.606 44.0446C230.52 43.0442 230.424 42.0438 230.328 41.0534C230.195 39.5628 230.061 38.0822 229.928 36.5916C229.842 35.6312 229.766 34.6709 229.68 33.7105C229.546 32.1999 229.403 30.6993 229.269 29.1887C229.145 27.7782 229.031 26.3577 228.908 24.9471C228.784 23.5166 228.64 22.086 228.516 20.6554C228.383 19.0748 228.26 17.4843 228.126 15.9037C226.416 15.8963 224.716 15.889 223.006 15.8817C222.955 16.1715 223.064 16.442 223.133 16.7223C223.841 19.5553 224.549 22.3784 225.256 25.2115C225.286 25.3416 225.365 25.4719 225.254 25.6514C225.155 25.481 225.066 25.3506 224.996 25.2203C223.696 22.8847 222.386 20.5591 221.086 18.2235C220.66 17.4416 220.163 16.6995 219.836 15.8681L213.926 15.8427L213.917 15.8327Z" fill="#F05423"/>
<path d="M298.832 21.4873C298.662 21.4066 298.541 21.5161 298.401 21.5755C295.766 22.7442 293.141 23.9129 290.506 25.0816C288.152 26.1315 285.797 27.1714 283.443 28.2213C282.982 28.4293 282.482 28.4272 281.991 28.4751C279.861 28.6659 277.73 28.8368 275.589 29.0076C273.628 29.1692 271.658 29.3107 269.697 29.4723C267.736 29.6339 265.776 29.8055 263.815 29.9671C262.854 30.0529 261.894 30.1188 260.924 30.2046C260.354 30.2522 260.334 30.2621 260.251 30.8418C260.106 31.9512 259.982 33.0606 259.847 34.1701C259.764 34.8497 259.671 35.5193 259.608 36.1991C259.566 36.6789 259.606 36.699 260.056 36.661C261.737 36.4982 263.408 36.3254 265.088 36.1526C266.649 35.9893 268.21 35.826 269.78 35.6627C271.761 35.4512 273.732 35.2497 275.713 35.0382C276.884 34.9132 278.044 34.7882 279.215 34.6832C279.525 34.6545 279.805 34.5858 280.086 34.457C283.984 32.6037 287.892 30.7504 291.8 28.9072C293.002 28.3424 294.195 27.7675 295.397 27.2126C295.657 27.0937 295.878 26.9347 296.029 26.6753C296.906 25.1091 297.803 23.5429 298.679 21.9667C298.76 21.827 298.901 21.6976 298.811 21.5072L298.832 21.4873Z" fill="#F05423"/>
<path d="M292.668 32.3709C292.448 32.3399 292.287 32.4892 292.117 32.5885C288.187 34.8716 284.257 37.1648 280.327 39.4479C279.546 39.9046 278.744 40.3412 277.972 40.8278C277.51 41.1159 277.01 41.1537 276.5 41.1815C274.399 41.3125 272.299 41.4135 270.198 41.5345C267.888 41.6746 265.587 41.8147 263.277 41.9548C262.086 42.0296 260.896 42.0945 259.706 42.1694C259.576 42.1689 259.445 42.2083 259.305 42.2077C258.985 42.2263 258.845 42.3957 258.803 42.7056C258.699 43.6851 258.565 44.6646 258.451 45.6341C258.368 46.2937 258.285 46.9534 258.212 47.6031C258.15 48.1928 258.19 48.233 258.76 48.2154C261.35 48.1365 263.95 48.0777 266.541 47.9688C268.381 47.8967 270.211 47.8446 272.052 47.7625C273.242 47.7076 274.442 47.7328 275.632 47.6279C275.992 47.5994 276.283 47.4607 276.574 47.2719C279.121 45.5928 281.678 43.9238 284.235 42.2547C285.629 41.3407 287.023 40.4267 288.427 39.5227C288.768 39.3042 289.039 39.0353 289.241 38.6762C290.329 36.7209 291.438 34.7856 292.536 32.8303C292.617 32.6906 292.757 32.5612 292.668 32.3509L292.668 32.3709Z" fill="#F05423"/>
<path d="M363.515 30.4551C365.249 31.8125 366.983 33.16 368.707 34.5174C372.933 37.8456 377.149 41.1837 381.374 44.5219C387.494 49.3582 393.623 54.2045 399.742 59.0408C402.642 61.3333 405.543 63.6158 408.433 65.9182C408.752 66.1696 409.002 66.1807 409.352 66.0122C412.559 64.4559 415.766 62.9097 418.972 61.3734C420.957 60.4219 422.941 59.4705 424.915 58.5289C425.175 58.41 425.436 58.3212 425.726 58.2624C432.031 57.0795 438.346 55.8866 444.651 54.6936C445.182 54.5959 445.342 54.6466 445.465 53.8871C446.102 49.8498 446.77 45.8126 447.437 41.7855C447.991 38.3878 448.566 34.9902 449.121 31.5926C449.603 28.6446 450.086 25.6867 450.569 22.7387C450.856 20.96 451.144 19.1912 451.441 17.4124C451.472 17.2226 451.503 17.0427 451.484 16.8526L445.114 16.8253C444.952 17.2346 444.88 17.6543 444.838 18.0941C444.734 19.1836 444.589 20.273 444.464 21.3625C444.288 22.8818 444.101 24.401 443.915 25.9302C443.738 27.4294 443.572 28.9387 443.395 30.438C443.219 31.9573 443.032 33.4765 442.846 35.0057C442.669 36.5049 442.503 38.0142 442.327 39.5135C442.14 41.0927 441.953 42.6719 441.766 44.2511C441.6 45.7004 441.444 47.1498 441.258 48.589C441.154 49.4186 441.144 49.4185 440.343 49.6151C435.368 50.8137 430.403 52.0224 425.428 53.2111C424.837 53.3585 424.276 53.5561 423.725 53.8338C419.496 55.9356 415.267 58.0175 411.048 60.1194C410.637 60.3276 410.347 60.3264 409.978 60.0248C408.354 58.6878 406.699 57.3807 405.065 56.0637C398.996 51.1876 392.927 46.3015 386.858 41.4254C380.051 35.9561 373.245 30.4868 366.428 25.0175C365.471 24.2434 364.535 23.4394 363.528 22.725C363.517 25.305 363.506 27.885 363.495 30.455L363.515 30.4551Z" fill="#F05423"/>
<path d="M497.531 17.0505C496.654 18.6467 495.777 20.233 494.901 21.8292C492.945 25.3609 490.98 28.8825 489.015 32.4041C487.06 35.9157 485.105 39.4173 483.15 42.929C481.185 46.4506 479.23 49.9822 477.264 53.5038C475.289 57.0454 473.324 60.587 471.349 64.1285C471.107 64.5575 470.875 64.9865 470.633 65.4154C470.361 65.9043 470.351 65.9142 470.75 66.2859C471.925 67.391 473.1 68.4861 474.275 69.5911C475.49 70.7263 476.756 71.8218 477.931 73.0068C479.584 74.674 481.498 75.9922 483.392 77.3503C484.868 78.4067 486.363 79.4531 487.829 80.5294C488.247 80.8312 488.667 80.963 489.187 80.9852C492.156 81.108 495.136 81.0508 498.106 81.1335C499.396 81.1691 500.676 81.1946 501.966 81.2301C502.346 81.2317 502.646 81.123 502.937 80.8643C506.882 77.3412 510.827 73.8381 514.783 70.325C517.232 68.1455 519.671 65.956 522.121 63.7765C525.303 60.9401 528.485 58.1137 531.677 55.2774C532.48 54.5609 533.254 53.7942 534.117 53.1479L534.154 44.388C533.964 44.3771 533.844 44.4966 533.713 44.6161C533.382 44.9246 533.041 45.2332 532.719 45.5418C529.416 48.6977 526.122 51.8535 522.818 55.0094C520.75 56.9905 518.681 58.9617 516.613 60.9428C513.249 64.1684 509.875 67.3839 506.511 70.6095C504.372 72.6504 502.234 74.6912 500.105 76.7421C499.824 77.0109 499.533 77.1296 499.143 77.0979C498.404 77.0248 497.674 76.9916 496.934 76.9285C495.065 76.7804 493.195 76.6124 491.326 76.4744C490.776 76.432 490.317 76.2901 489.878 75.9282C488.394 74.6918 486.869 73.4952 485.364 72.2887C482.354 69.8658 479.335 67.4528 476.325 65.0299C475.886 64.678 475.887 64.668 476.179 64.1692C477.72 61.5858 479.271 58.9925 480.822 56.4091C486.06 47.6715 491.307 38.924 496.555 30.1864C499.043 26.047 501.52 21.8976 504.008 17.7583C504.129 17.5488 504.29 17.3495 504.251 17.0793C502.011 17.0697 499.781 17.0601 497.541 17.0505L497.531 17.0505Z" fill="#F05423"/>
<path d="M516.184 17.1307L509.134 17.1005C509.073 17.3902 508.902 17.6195 508.751 17.8588C507.502 19.8535 506.254 21.8381 505.005 23.8328C500.796 30.5448 496.587 37.2468 492.388 43.9588C488.27 50.5212 484.162 57.0936 480.044 63.656C479.591 64.3741 479.591 64.3741 480.298 64.8971C483.787 67.4421 487.267 69.9971 490.766 72.5421C492.042 73.4776 491.642 73.4259 493.303 73.263C493.363 73.2633 493.413 73.2635 493.473 73.2637C495.453 73.1522 497.444 73.0308 499.424 72.9193C499.744 72.9007 500.005 72.8018 500.226 72.5627C500.678 72.0747 501.14 71.5966 501.602 71.1186C504.324 68.3003 507.056 65.482 509.788 62.6637C512.46 59.9051 515.132 57.1366 517.814 54.3681C520.576 51.5099 523.349 48.6518 526.121 45.7937C528.692 43.1447 531.264 40.4857 533.835 37.8367C533.945 37.7272 534.036 37.6076 534.196 37.5683L534.228 30.0583C534.008 30.0974 533.868 30.2568 533.727 30.4062C532.953 31.2329 532.17 32.0695 531.396 32.8962C529.307 35.1172 527.217 37.3383 525.118 39.5493C521.551 43.324 517.985 47.0887 514.419 50.8635C512.54 52.8454 510.672 54.8274 508.793 56.8094C505.599 60.1957 502.394 63.582 499.21 66.9883C498.798 67.4265 498.357 67.6047 497.777 67.6422C496.226 67.7355 494.676 67.8489 493.135 68.0122C492.685 68.0603 492.335 67.9788 491.976 67.7273C490.032 66.3789 488.068 65.0505 486.114 63.7121C485.406 63.229 485.485 63.2794 485.928 62.6313C489.541 57.2267 493.145 51.8221 496.758 46.4276C500.623 40.6441 504.488 34.8707 508.352 29.0872C510.848 25.3579 513.345 21.6186 515.841 17.8893C516.002 17.65 516.183 17.4307 516.214 17.1309L516.184 17.1307Z" fill="#F05423"/>
<path d="M440.564 16.8058C438.704 16.7978 436.854 16.7899 434.994 16.7819C434.892 17.2415 434.86 17.7213 434.838 18.1912C434.805 18.9111 434.742 19.6308 434.689 20.3406C434.583 21.7602 434.467 23.1697 434.361 24.5893C434.265 25.8389 434.18 27.0785 434.085 28.3281C433.979 29.6877 433.863 31.0472 433.757 32.4067C433.662 33.7063 433.586 35.016 433.48 36.3156C433.342 38.145 433.175 39.9743 433.047 41.8038C432.993 42.6036 433.084 42.5439 432.233 42.7603C430.08 43.3011 427.928 43.8218 425.786 44.3826C424.855 44.6286 423.894 44.7745 422.992 45.1406C421.96 45.5562 420.938 46.0318 419.917 46.4774C417.231 47.6559 414.536 48.8244 411.851 50.0129C411.541 50.1515 411.341 50.1107 411.102 49.8896C410.484 49.307 409.837 48.7442 409.209 48.1715C407.297 46.4433 405.384 44.715 403.471 42.9968C400.772 40.5652 398.072 38.1336 395.363 35.6919C393.42 33.9436 391.488 32.1853 389.545 30.4369C386.856 28.0153 384.166 25.5938 381.486 23.1722C379.444 21.3335 377.402 19.5047 375.37 17.6559C374.981 17.3043 374.523 17.0123 374.255 16.5411L364.245 16.4982C364.144 16.7377 364.313 16.8385 364.463 16.9691C365.22 17.6224 365.977 18.2856 366.744 18.9389C370.49 22.165 374.237 25.3911 377.983 28.6172C381.48 31.6323 384.977 34.6573 388.484 37.6724C391.971 40.6774 395.458 43.6724 398.945 46.6774C402.423 49.6724 405.89 52.6673 409.357 55.6622C409.666 55.9335 409.926 55.9946 410.316 55.8163C413.833 54.2114 417.35 52.6265 420.877 51.0416C421.648 50.6949 422.4 50.2781 423.231 50.0617C424.973 49.6092 426.715 49.1467 428.457 48.6941C431.24 47.9661 434.033 47.2481 436.817 46.51C437.457 46.3428 437.447 46.3127 437.51 45.663C437.594 44.7633 437.698 43.8538 437.792 42.9542C437.938 41.6148 438.083 40.2854 438.219 38.946C438.354 37.6865 438.49 36.4271 438.625 35.1677C438.771 33.8283 438.907 32.4988 439.052 31.1595C439.188 29.9 439.313 28.6406 439.449 27.3811C439.594 26.0617 439.73 24.7523 439.876 23.4329C440.011 22.1335 440.157 20.8341 440.292 19.5347C440.386 18.6351 440.47 17.7254 440.554 16.8258L440.564 16.8058Z" fill="#F05423"/>
<path d="M523.911 17.164C523.638 17.7328 523.206 18.191 522.834 18.6894C519.525 23.0752 516.216 27.461 512.907 31.8469C505.988 41.0073 499.079 50.1777 492.159 59.338C491.837 59.7633 491.899 60.1369 492.344 60.4589C492.833 60.811 493.331 61.1631 493.82 61.5252C494.079 61.7163 494.339 61.8074 494.659 61.7688C495.71 61.6233 496.76 61.4878 497.811 61.3523C498.121 61.3137 498.332 61.1546 498.523 60.9354C500.934 58.2857 503.345 55.636 505.747 52.9863C508.681 49.7589 511.604 46.5314 514.538 43.314C516.859 40.7639 519.19 38.2239 521.511 35.6738C524.827 32.028 528.132 28.3822 531.448 24.7364C532.212 23.8997 532.975 23.053 533.749 22.2163C533.9 22.0469 534.08 21.9077 534.241 21.7484L534.261 17.1984L523.911 17.154L523.911 17.164Z" fill="#F05423"/>
<path d="M390.413 16.5906L380.863 16.5496C380.912 16.8398 381.121 17.0007 381.311 17.1815C383.541 19.3711 385.782 21.5507 388.012 23.7403C390.343 26.0203 392.673 28.3004 395.003 30.5804C397.742 33.2622 400.47 35.9339 403.199 38.6156C405.718 41.0865 408.238 43.5373 410.747 46.0181C411.095 46.3696 411.385 46.4109 411.836 46.2328C414.881 45.0159 417.927 43.8189 420.972 42.612C421.322 42.4735 421.683 42.355 422.053 42.2666C424.686 41.6379 427.319 41.0092 429.951 40.3805C430.962 40.1349 430.832 40.1843 430.836 39.2643C430.864 32.8644 430.871 26.4543 430.799 20.054C430.783 18.9539 430.778 17.8539 430.773 16.7538C428.533 16.7442 426.303 16.7346 424.063 16.725C424.062 17.005 424.05 17.295 424.059 17.575C424.153 18.9954 424.257 20.4059 424.341 21.8263C424.435 23.2967 424.498 24.777 424.582 26.2473C424.704 28.2279 424.845 30.2085 424.967 32.189C425.06 33.7195 425.133 35.2498 425.217 36.7802C425.245 37.2603 425.235 37.2902 424.764 37.3682C422.563 37.7488 420.361 38.1293 418.159 38.4999C417.819 38.5584 417.499 38.637 417.178 38.7657C415.796 39.3297 414.403 39.8738 413.021 40.4478C412.7 40.5765 412.511 40.5356 412.282 40.2847C411.535 39.4514 410.779 38.6282 410.022 37.8149C406.23 33.7186 402.427 29.6123 398.635 25.5159C396.694 23.4176 394.733 21.3391 392.802 19.2308C391.996 18.3474 391.139 17.5137 390.403 16.5805L390.413 16.5906Z" fill="#F05423"/>
<path d="M456.934 16.876C456.637 18.4948 456.35 20.1135 456.053 21.7323C455.367 25.4394 454.671 29.1364 453.985 32.8435C453.463 35.6313 452.931 38.419 452.419 41.2169C451.661 45.2936 450.904 49.3704 450.146 53.4372C450.013 54.1467 449.87 54.846 449.737 55.5555C449.655 56.0351 449.695 56.1153 450.175 56.2274C451.353 56.5024 452.532 56.7675 453.721 57.0326C454.221 57.1447 454.71 57.2969 455.179 57.4889C458.743 58.9842 462.306 60.4695 465.88 61.9549C466.589 62.2479 466.589 62.2479 466.952 61.5694C470.742 54.4657 474.533 47.3619 478.313 40.258C480.37 36.3968 482.437 32.5357 484.493 28.6845C486.419 25.0727 488.354 21.471 490.28 17.8592C490.421 17.5998 490.612 17.3406 490.593 17.0205C488.853 17.0131 487.103 17.0056 485.363 16.9981C485.293 17.1678 485.222 17.3475 485.141 17.5171C483.587 20.7005 482.034 23.8839 480.47 27.0672C477.958 32.1864 475.446 37.3057 472.934 42.425C470.674 47.0353 468.404 51.6456 466.145 56.2559C466.044 56.4555 465.953 56.6651 465.852 56.8747C465.66 57.2639 465.64 57.2638 465.241 57.1521C465.171 57.1318 465.101 57.1115 465.021 57.0811C462.514 56.2603 460.018 55.4496 457.511 54.6289C457.132 54.5072 456.752 54.3956 456.353 54.3339C455.533 54.2004 454.714 54.0568 453.884 53.9233C453.615 53.8821 453.505 53.7816 453.596 53.512C453.617 53.4421 453.627 53.3622 453.637 53.2922C454.667 48.6166 455.697 43.931 456.727 39.2553C458.196 32.6016 459.665 25.9378 461.113 19.284C461.287 18.4947 461.54 17.7158 461.573 16.8959C460.024 16.8893 458.464 16.8826 456.914 16.8759L456.934 16.876Z" fill="#F05423"/>
<path d="M481.954 16.9836C480.364 16.9768 478.774 16.97 477.174 16.9631C475.882 19.9176 474.599 22.8621 473.306 25.8166C470.751 31.6657 468.186 37.5047 465.631 43.3538C465.247 44.2422 464.863 45.1205 464.47 46.0088C464.389 46.1885 464.338 46.4383 464.048 46.387C463.318 46.2539 462.599 46.1108 461.87 45.9677C461.66 45.9268 461.601 45.7765 461.661 45.5768C461.692 45.4669 461.722 45.357 461.763 45.2472C462.371 43.3498 462.969 41.4624 463.577 39.5649C465.909 32.2549 468.24 24.9548 470.571 17.6448C470.642 17.4151 470.743 17.1855 470.694 16.9253C468.874 16.9175 467.054 16.9097 465.235 16.9019C465.204 17.0717 465.183 17.2416 465.142 17.4015C464.094 21.747 463.045 26.0925 461.986 30.428C460.378 37.0712 458.769 43.7143 457.161 50.3575C457.12 50.5273 457.079 50.6872 457.049 50.857C456.967 51.2667 457.007 51.3268 457.376 51.4384C457.446 51.4587 457.526 51.4691 457.596 51.4894C459.814 51.9989 462.022 52.5184 464.239 53.0379C464.829 53.1804 464.839 53.1805 465.101 52.6216C466.251 50.2265 467.392 47.8414 468.532 45.4463C471.801 38.5902 475.061 31.7242 478.32 24.8681C479.471 22.453 480.611 20.0479 481.762 17.6328C481.862 17.4232 481.973 17.2237 481.944 16.9836L481.954 16.9836Z" fill="#F05423"/>
<path d="M399.283 16.6289C399.292 16.869 399.432 17.0496 399.571 17.2402C402.245 20.9617 404.919 24.6832 407.593 28.4047C409.293 30.7721 411.003 33.1294 412.692 35.5167C412.971 35.9079 413.23 35.999 413.691 35.901C416.073 35.3712 418.465 34.8815 420.857 34.3717C420.897 34.3719 420.928 34.362 420.968 34.3522C421.528 34.2246 421.578 34.1648 421.521 33.5746C421.444 32.7842 421.358 31.9939 421.271 31.2035C421.108 29.6428 420.934 28.082 420.771 26.5213C420.608 24.9806 420.434 23.4398 420.271 21.8991C420.146 20.7186 420.031 19.5281 419.886 18.3474C419.819 17.8071 419.851 17.2473 419.643 16.7264L413.953 16.7019C413.862 16.9315 413.931 17.1518 413.99 17.3721C414.777 20.4155 415.554 23.4589 416.331 26.5022C416.705 27.9538 417.069 29.3954 417.433 30.847C417.541 31.2675 417.501 31.3073 417.061 31.2754C416.421 31.2327 415.761 31.1398 415.131 31.1771C414.181 31.243 413.843 30.7316 413.496 29.9801C411.435 25.5312 409.324 21.1021 407.233 16.6631C404.583 16.6517 401.923 16.6403 399.273 16.6289L399.283 16.6289Z" fill="#F05423"/>
<path d="M587.392 17.447C587.371 17.7569 587.57 17.9778 587.709 18.2184C590.369 22.7199 593.03 27.2213 595.701 31.7228C600.933 40.5554 606.155 49.3979 611.387 58.2404C612.31 59.8044 613.244 61.3684 614.157 62.9424C614.336 63.2531 614.575 63.4541 614.904 63.5856C619.766 65.6065 624.627 67.6374 629.488 69.6682C629.848 69.8198 630.197 69.8713 630.588 69.773C631.929 69.4487 633.281 69.1245 634.632 68.8503C635.122 68.7524 635.433 68.5038 635.705 68.1049C637.275 65.8516 638.854 63.5984 640.424 61.3551C642.457 58.4538 644.469 55.5324 646.531 52.6513C647.014 51.9733 647.247 51.2643 647.311 50.4546C647.49 48.3453 647.699 46.2362 647.888 44.127C648.024 42.6376 648.141 41.1481 648.287 39.6587C648.424 38.1692 648.58 36.6799 648.726 35.1905C648.863 33.7011 648.989 32.2116 649.126 30.7222C649.262 29.2328 649.418 27.7434 649.555 26.254C649.691 24.7846 649.817 23.3151 649.954 21.8457C650.048 20.7861 650.153 19.7365 650.257 18.6769C650.289 18.3571 650.32 18.0372 650.271 17.717L641.632 17.6799C641.608 18.6098 641.664 19.54 641.68 20.4601C641.729 22.9404 641.678 25.4202 641.758 27.9105C641.838 30.2409 641.788 32.5707 641.838 34.9009C641.904 37.9713 641.881 41.0412 641.938 44.1115C641.962 45.6416 641.945 47.1815 641.998 48.7118C642.016 49.1918 641.945 49.5815 641.673 49.9804C639.801 52.6524 637.95 55.3344 636.098 58.0165C634.71 60.0306 633.311 62.0346 631.912 64.0386C631.58 64.5172 631.56 64.5171 631.031 64.3248C629.693 63.8391 628.365 63.3434 627.027 62.8576C624.072 61.7749 621.127 60.6823 618.171 59.6096C617.872 59.4983 617.642 59.3373 617.504 59.0367C617.425 58.8663 617.315 58.7059 617.226 58.5455C614.397 53.5933 611.568 48.6411 608.73 43.6889C605.484 38.0149 602.238 32.3409 599.003 26.657C597.256 23.5994 595.509 20.5319 593.762 17.4744C591.642 17.4653 589.512 17.4561 587.392 17.447Z" fill="#F05423"/>
<path d="M545.064 75.0356C545.514 75.2375 545.994 75.1996 546.463 75.2516C549.092 75.5629 551.731 75.8442 554.37 76.1355C556.969 76.4267 559.557 76.7378 562.156 77.029C564.795 77.3303 567.424 77.6116 570.062 77.9029C572.661 78.1941 575.25 78.5052 577.849 78.7964C580.487 79.0977 583.116 79.379 585.755 79.6703C588.693 80.0029 591.622 80.3455 594.561 80.6881C595.99 80.8543 597.419 81.0004 598.849 81.1765C599.268 81.2283 599.559 81.0896 599.84 80.7808C601.679 78.7587 603.528 76.7566 605.376 74.7545C607.084 72.9018 608.792 71.0491 610.5 69.1965C610.842 68.8279 610.842 68.7879 610.574 68.3668C609.759 67.1132 608.944 65.8597 608.13 64.6062C603.977 58.2383 599.834 51.8705 595.682 45.5026C591.35 38.854 587.019 32.1953 582.687 25.5466C580.919 22.829 579.151 20.1114 577.392 17.3938C574.512 17.3815 571.632 17.3691 568.752 17.3567C568.771 17.7068 569.01 17.9378 569.199 18.1987C570.58 20.1246 571.972 22.0406 573.354 23.9566C579.438 32.3928 585.522 40.829 591.616 49.2652C595.83 55.1033 600.045 60.9415 604.26 66.7796C604.579 67.221 604.578 67.231 604.217 67.6295C602.679 69.3329 601.142 71.0263 599.595 72.7297C598.55 73.8852 597.505 75.0307 596.46 76.1762C596.299 76.3555 596.139 76.4649 595.869 76.4237C594.01 76.1757 592.151 75.9477 590.292 75.6997C588.023 75.41 585.744 75.1102 583.476 74.8205C581.207 74.5307 578.928 74.2409 576.659 73.9412C574.331 73.6412 572.002 73.3412 569.673 73.0412C567.414 72.7515 565.166 72.4618 562.917 72.1722C560.628 71.8724 558.339 71.5825 556.041 71.2827C554.032 71.024 552.023 70.7654 550.014 70.5068C548.385 70.2998 546.746 70.0927 545.106 69.8957C545.099 71.6057 545.092 73.3057 545.084 75.0157L545.064 75.0356Z" fill="#F05423"/>
<path d="M550.772 17.2898L545.312 17.2664C545.306 18.8163 545.299 20.3763 545.292 21.9263C545.452 22.087 545.621 22.2477 545.78 22.4084C553.806 30.4629 561.821 38.5174 569.847 46.582C574.557 51.3122 579.256 56.0424 583.956 60.7727C584.095 60.9133 584.275 61.024 584.334 61.2443C584.124 61.3134 583.974 61.2028 583.814 61.1621C578.531 59.7194 573.257 58.2667 567.973 56.814C561.45 55.026 554.928 53.228 548.406 51.45C547.327 51.1553 546.258 50.8207 545.169 50.5961C545.16 52.716 545.151 54.846 545.142 56.966C552.235 58.5765 559.328 60.1869 566.421 61.7974C571.986 63.0613 577.541 64.3252 583.105 65.5891C584.894 65.9967 586.692 66.4045 588.48 66.8121C588.973 66.9209 589.357 66.7692 589.632 66.3571C590.075 65.689 590.508 65.0308 590.941 64.3627C591.283 63.8442 591.283 63.8341 590.855 63.3423C589.969 62.3285 589.084 61.3147 588.208 60.3009C586.138 57.932 584.078 55.5531 582.009 53.1842C579.929 50.7953 577.849 48.4163 575.769 46.0374C573.192 43.0763 570.625 40.1152 568.047 37.1641C565.699 34.464 563.34 31.7739 560.982 29.0737C558.295 25.9922 555.598 22.9106 552.922 19.819C552.205 18.986 551.439 18.2027 550.792 17.3099L550.772 17.2898Z" fill="#F05423"/>
<path d="M657.565 17.7478C657.308 19.3767 657.051 21.0056 656.794 22.6245C656.383 25.1427 655.962 27.671 655.552 30.1892C655.182 32.4477 654.802 34.7061 654.432 36.9645C653.98 39.7326 653.539 42.4907 653.087 45.2588C652.809 46.9776 652.522 48.6964 652.245 50.4152C652.152 51.0148 652.142 51.0248 652.741 51.2174C654.609 51.8354 656.486 52.4534 658.363 53.0415C659.702 53.4673 660.989 53.9828 662.226 54.6781C664.202 55.7966 666.217 56.8553 668.222 57.9339C668.572 58.1154 668.831 58.3665 669.059 58.6775C669.795 59.7306 670.56 60.7739 671.286 61.8371C671.564 62.2483 671.893 62.3997 672.373 62.3817C673.544 62.3468 674.724 62.3018 675.894 62.2969C680.174 62.2852 684.454 62.2736 688.734 62.192C691.315 62.1431 693.884 62.2041 696.465 62.1152C699.115 62.0266 701.775 62.118 704.425 62.0293C707.006 61.9504 709.575 62.0215 712.156 61.9525C713.386 61.9178 714.616 61.9331 715.846 61.8684L715.88 53.9085C715.63 53.9074 715.39 53.8863 715.14 53.9053C714.1 53.9708 713.06 54.0463 712.019 54.1119C710.889 54.187 709.749 54.2621 708.618 54.3373C706.678 54.4689 704.727 54.6006 702.786 54.7422C701.576 54.827 700.366 54.9019 699.155 54.9867C697.285 55.1186 695.414 55.2506 693.544 55.3726C692.243 55.457 690.933 55.5314 689.633 55.6258C687.692 55.7575 685.741 55.8891 683.801 56.0307C682.55 56.1154 681.31 56.2001 680.06 56.2847C678.719 56.3789 677.379 56.4632 676.038 56.5674C675.668 56.5958 675.339 56.4944 675.009 56.323C672.366 54.8916 669.722 53.4403 667.048 52.0488C663.875 50.3951 660.591 48.951 657.368 47.3972C656.749 47.0945 656.739 47.1045 656.902 46.4152C658.195 41.0407 659.498 35.6662 660.791 30.2917C661.738 26.3757 662.685 22.4498 663.632 18.5338C663.693 18.2741 663.764 18.0244 663.695 17.7541C661.645 17.7453 659.605 17.7365 657.555 17.7277L657.565 17.7478Z" fill="#F05423"/>
<path d="M563.282 17.3435L556.682 17.3152C556.561 17.5847 556.781 17.7456 556.91 17.9062C557.586 18.7491 558.263 19.592 558.949 20.4249C561.834 23.9874 564.718 27.5598 567.593 31.1221C571.711 36.2199 575.839 41.3176 579.968 46.4154C582.216 49.2051 584.474 51.9848 586.722 54.7745C589.557 58.2867 592.392 61.7889 595.227 65.3011C595.505 65.6423 595.515 65.7123 595.244 66.0412C594.268 67.227 593.283 68.4028 592.308 69.5886C592.127 69.8078 591.937 69.857 591.667 69.8059C590.568 69.5811 589.469 69.3764 588.38 69.1717C582.255 67.9954 576.14 66.8192 570.015 65.6429C565.069 64.6916 560.123 63.7304 555.167 62.7791C551.82 62.1347 548.473 61.4803 545.125 60.836C545.117 62.7359 545.109 64.6259 545.101 66.5259C545.261 66.5666 545.431 66.6273 545.59 66.648C546.49 66.7819 547.389 66.9057 548.289 67.0396C552.816 67.719 557.353 68.4185 561.88 69.098C567.107 69.8804 572.333 70.6629 577.56 71.4453C583.137 72.2793 588.723 73.1132 594.299 73.9672C594.689 74.0289 594.93 73.9399 595.171 73.6209C596.861 71.3782 598.57 69.1555 600.26 66.9227C600.592 66.4841 600.592 66.4741 600.264 66.0427C598.663 63.9458 597.061 61.8589 595.47 59.7621C588.51 50.6321 581.549 41.4922 574.588 32.3622C570.929 27.5564 567.259 22.7506 563.6 17.9449C563.461 17.7643 563.311 17.5936 563.272 17.3535L563.282 17.3435Z" fill="#F05423"/>
<path d="M606.042 17.5266C603.802 17.517 601.572 17.5074 599.332 17.4978C599.321 17.7777 599.46 18.0083 599.579 18.2389C600.61 20.3033 601.652 22.3778 602.673 24.4422C605.835 30.8258 608.998 37.2095 612.171 43.5931C614.124 47.5316 616.087 51.46 618.04 55.3984C618.179 55.669 618.318 55.9196 618.607 56.0809C620.772 57.3302 622.936 58.5795 625.101 59.8388C625.36 59.9899 625.61 60.071 625.91 60.0323C627.491 59.8691 629.072 59.6759 630.652 59.5526C631.182 59.5049 631.503 59.2763 631.795 58.8575C634.019 55.7571 636.242 52.6766 638.485 49.5962C638.726 49.2672 638.818 48.9176 638.76 48.5273C638.692 47.997 638.694 47.4671 638.686 46.937C638.652 45.5369 638.618 44.1367 638.564 42.7365C638.484 40.4661 638.364 38.1956 638.304 35.9253C638.252 34.075 638.17 32.2147 638.108 30.3644C638.037 28.1641 637.966 25.9737 637.886 23.7734C637.832 22.2731 637.809 20.783 637.755 19.2828C637.737 18.7327 637.68 18.1824 637.642 17.6423C636.052 17.6354 634.462 17.6286 632.862 17.6217C632.861 18.0217 632.829 18.4216 632.857 18.8117C632.991 20.2423 632.935 21.6921 632.999 23.1224C633.1 25.2428 633.14 27.363 633.201 29.4833C633.272 31.7536 633.322 34.0239 633.412 36.2943C633.484 38.1346 633.496 39.9647 633.538 41.8049C633.538 41.9349 633.557 42.0649 633.557 42.2049C633.61 43.7152 633.654 45.2354 633.717 46.7457C633.726 47.0057 633.645 47.2154 633.454 47.4046C631.365 49.5156 629.276 51.6367 627.177 53.7477C626.856 54.0663 626.846 54.0662 626.457 53.8246C624.661 52.7269 622.876 51.6192 621.081 50.5215C620.772 50.3301 620.583 50.0893 620.434 49.7687C618.067 44.4585 615.69 39.1482 613.322 33.838C611.48 29.7001 609.638 25.5721 607.786 21.4341C607.201 20.1216 606.597 18.809 606.003 17.5064L606.042 17.5266Z" fill="#F05423"/>
<path d="M715.872 50.5187L715.901 43.6987C715.562 43.5773 715.222 43.6758 714.891 43.7244C713.41 43.918 711.93 44.1317 710.449 44.3253C707.647 44.6733 704.846 45.0113 702.044 45.3593C698.382 45.8135 694.72 46.2778 691.058 46.7421C687.616 47.1673 684.184 47.5926 680.743 48.0278C680.462 48.0666 680.233 48.0256 679.993 47.8646C679.056 47.2506 678.108 46.6565 677.181 46.0325C674.04 43.949 670.849 41.9453 667.516 40.161C666.718 39.7375 666.777 39.8878 667.131 39.0193C669.89 32.2311 672.659 25.4429 675.419 18.6447C675.53 18.3852 675.671 18.1258 675.632 17.8356C673.472 17.8263 671.312 17.8171 669.152 17.8078C669.101 17.9676 669.061 18.1374 669.01 18.2972C667.247 23.6997 665.484 29.1021 663.72 34.5046C662.889 37.0611 662.048 39.6175 661.217 42.1739C661.025 42.7731 661.025 42.7831 661.564 43.0554C663.16 43.8423 664.777 44.5993 666.364 45.3961C667.601 46.0114 668.869 46.5568 670.015 47.3518C672.259 48.9314 674.542 50.4612 676.805 52.021C677.134 52.2424 677.464 52.3538 677.864 52.3355C678.474 52.3081 679.074 52.2707 679.674 52.2433C681.645 52.1517 683.615 52.1002 685.576 51.9886C686.446 51.9424 687.316 51.9261 688.186 51.8798C690.737 51.7608 693.287 51.6217 695.848 51.5027C697.848 51.4113 699.858 51.3599 701.859 51.2485C702.669 51.202 703.489 51.1855 704.299 51.149C706.15 51.0569 708 50.9549 709.861 50.8729C711.681 50.7907 713.491 50.7185 715.312 50.6463C715.502 50.6471 715.692 50.6179 715.862 50.5286L715.872 50.5187Z" fill="#F05423"/>
<path d="M690.881 17.8911L681.671 17.8516C681.65 18.0815 681.529 18.281 681.429 18.4806C681.106 19.0992 680.783 19.7278 680.461 20.3464C677.748 25.6848 675.045 31.0233 672.332 36.3617C672.221 36.5812 672.11 36.8007 671.989 37.0202C671.848 37.2596 671.907 37.4498 672.126 37.6108C672.266 37.7114 672.395 37.8219 672.525 37.9325C675.226 40.0341 677.947 42.1358 680.638 44.2574C681.017 44.559 681.377 44.5506 681.797 44.4724C686.891 43.4942 691.985 42.5361 697.09 41.568C702.914 40.463 708.739 39.358 714.554 38.2429C715.014 38.1549 715.495 38.127 715.925 37.9088L715.962 29.4889C715.712 29.4778 715.481 29.5769 715.251 29.6459C712.017 30.672 708.792 31.6982 705.568 32.7243C699.099 34.7966 692.62 36.8688 686.151 38.941C685.38 39.1877 684.599 39.4244 683.828 39.681C683.547 39.7698 683.337 39.7589 683.108 39.548C681.515 38.0411 679.901 36.5442 678.307 35.0373C677.969 34.7158 677.979 34.7059 678.26 34.3371C680.342 31.666 682.433 28.995 684.525 26.3239C686.556 23.7226 688.577 21.1313 690.608 18.53C690.759 18.3406 690.95 18.1614 690.911 17.8813L690.881 17.8911Z" fill="#F05423"/>
<path d="M615.823 17.5689L610.133 17.5444C610.102 17.8443 610.241 18.0949 610.35 18.3554C612.447 23.4944 614.555 28.6235 616.653 33.7526C618.316 37.8198 619.989 41.877 621.641 45.9441C621.77 46.2647 621.959 46.4755 622.248 46.6567C623.515 47.3822 624.762 48.1375 626.019 48.8729C626.378 49.0845 626.747 49.2861 627.096 49.5076C627.305 49.6385 627.446 49.5891 627.547 49.3795C627.607 49.2598 627.668 49.14 627.728 49.0203C628.424 47.6132 629.1 46.1961 629.816 44.7892C630.088 44.2704 630.201 43.7408 630.183 43.1608C630.143 40.9306 630.082 38.6903 629.992 36.4599C629.937 35.2296 629.943 33.9996 629.908 32.7695C629.839 30.1992 629.78 27.6189 629.701 25.0485C629.64 23.0282 629.618 20.9981 629.567 18.9779C629.559 18.5279 629.491 18.0776 629.463 17.6174C627.193 17.6077 624.913 17.5979 622.643 17.5882C622.659 18.4982 622.805 19.3989 622.881 20.2992C622.996 21.5397 623.141 22.7803 623.265 24.0309C623.39 25.2714 623.505 26.5119 623.639 27.7625C623.802 29.3832 623.975 31.004 624.138 32.6147C624.273 33.9153 624.407 35.2159 624.542 36.5065C624.571 36.7466 624.58 36.9966 624.599 37.2467C624.608 37.4868 624.726 37.7273 624.635 38.0769C624.536 37.8665 624.486 37.7663 624.447 37.6661C621.882 31.715 619.308 25.7739 616.753 19.8229C616.436 19.0715 616.05 18.3499 615.833 17.5689L615.823 17.5689Z" fill="#F05423"/>
<path d="M699.071 17.9262C698.93 18.1556 698.729 18.3247 698.538 18.5139C695.405 21.5705 692.272 24.6171 689.129 27.6636C687.211 29.5254 685.293 31.3772 683.375 33.229C683.074 33.5177 683.063 33.5876 683.392 33.849C684.329 34.6231 685.276 35.3771 686.203 36.1511C686.491 36.4024 686.732 36.3234 687.023 36.1547C689.088 34.9935 691.162 33.8524 693.227 32.7013C697.187 30.5082 701.136 28.3052 705.096 26.1122C708.574 24.1771 712.042 22.2519 715.521 20.3169C715.681 20.2275 715.842 20.1182 716.012 20.029L716.021 17.979L699.081 17.9063L699.071 17.9262Z" fill="#F05423"/>
<path d="M545.194 45.0059C553.284 47.4707 561.363 49.9454 569.493 52.4203C569.534 52.1105 569.334 52.0196 569.215 51.8991C568.299 51.0552 567.372 50.2112 566.446 49.3772C564.762 47.85 563.079 46.3327 561.395 44.8055C558.925 42.5649 556.454 40.3342 553.984 38.0936C551.982 36.275 549.98 34.4564 547.967 32.6377C547.071 31.8239 546.164 31.02 545.258 30.2161C545.237 35.146 545.215 40.076 545.194 44.9959L545.194 45.0059Z" fill="#F05423"/>
<path d="M795.75 18.3409C795.389 18.7193 794.888 18.8872 794.437 19.1253C790.979 20.9704 787.511 22.7956 784.043 24.6407C779.162 27.2298 774.271 29.8288 769.39 32.4278C766.012 34.2234 762.624 36.0088 759.246 37.8044C754.766 40.1851 750.276 42.5659 745.796 44.9467C743.891 45.9585 741.977 46.9603 740.073 47.9821C739.842 48.1011 739.582 48.19 739.421 48.4093C739.47 48.6195 739.66 48.6604 739.799 48.741C742.074 49.9507 744.359 51.1406 746.624 52.3603C747.003 52.5619 747.303 52.5632 747.684 52.3648C751.873 50.1528 756.063 47.9508 760.252 45.7487C763.039 44.2907 765.825 42.8326 768.611 41.3646C773.202 38.9543 777.802 36.534 782.392 34.1137C785.038 32.725 787.694 31.3364 790.34 29.9378C795.292 27.339 800.233 24.7402 805.184 22.1414C807.259 21.0503 809.343 19.9593 811.428 18.8682C811.629 18.7591 811.839 18.67 811.89 18.4102L795.74 18.3408L795.75 18.3409Z" fill="#F05423"/>
<path d="M726.956 42.6055C728.123 43.2306 729.321 43.8057 730.518 44.3809C730.818 44.5221 731.058 44.4632 731.318 44.3243C732.461 43.7292 733.603 43.1441 734.746 42.549C737.372 41.1803 739.988 39.8115 742.604 38.4527C748.617 35.3285 754.641 32.1943 760.654 29.0701C767.038 25.7475 773.433 22.4349 779.817 19.1123C780.088 18.9734 780.348 18.8246 780.619 18.6857C780.789 18.5964 780.96 18.4972 780.951 18.2671L763.661 18.1929C763.54 18.3524 763.37 18.4317 763.199 18.5209C761.335 19.4929 759.471 20.4749 757.607 21.4469C753.528 23.5795 749.448 25.712 745.369 27.8445C740.147 30.5721 734.926 33.2897 729.704 36.0173C728.782 36.5033 727.84 36.9393 726.948 37.4955L726.926 42.6154L726.956 42.6055Z" fill="#F05423"/>
<path d="M822.249 18.4546C822.027 19.0337 822.064 19.6439 821.991 20.2435C821.825 21.7328 821.699 23.2223 821.542 24.7017C821.48 25.2314 821.558 25.6717 821.876 26.1331C827.869 34.8389 833.841 43.5646 839.824 52.2804C840.082 52.6515 840.331 53.0326 840.599 53.4037C840.828 53.7147 840.918 53.7251 841.159 53.4262C841.551 52.9378 841.933 52.4395 842.315 51.9511C843.371 50.5856 844.427 49.2201 845.483 47.8547C845.875 47.3463 845.875 47.3463 845.508 46.8248C843.53 43.9962 841.542 41.1777 839.564 38.3592C837.934 36.0321 836.304 33.7051 834.664 31.3781C833.928 30.3349 833.062 29.4112 832.236 28.4476C829.59 25.3262 826.923 22.2247 824.266 19.1033C824.097 18.9026 823.888 18.7217 823.839 18.4415L822.249 18.4346L822.249 18.4546Z" fill="#F05423"/>
<path d="M897.66 41.6288C897.101 41.1864 896.694 40.6147 896.236 40.0827C893.191 36.6296 890.166 33.1566 887.131 29.7035C884.772 27.0133 882.404 24.3231 880.045 21.633C880.015 21.6029 879.995 21.5728 879.966 21.5527C879.577 21.141 879.557 21.1409 879.176 21.5493C877.92 22.9339 876.644 24.3184 875.398 25.7131C874.745 26.4403 874.825 26.3006 875.342 26.9629C879.699 32.5116 884.055 38.0404 888.411 43.5891C891.206 47.1511 894.001 50.7132 896.805 54.2653C897.034 54.5562 897.182 54.9369 897.592 55.0486L897.65 41.6288L897.66 41.6288Z" fill="#F05423"/>
<path d="M829.639 18.4864C829.578 18.7961 829.787 18.977 829.946 19.1877C831.418 21.064 832.89 22.9404 834.362 24.8267C838.689 30.3453 843.015 35.864 847.341 41.3726C847.799 41.9546 848.256 42.5365 848.714 43.1185C849.082 43.5801 849.132 43.5803 849.514 43.1219C850.64 41.7367 851.756 40.3515 852.872 38.9663C853.113 38.6673 853.334 38.3683 853.585 38.0894C853.796 37.8503 853.807 37.6403 853.608 37.3895C853.27 36.958 852.952 36.5066 852.624 36.0752C848.408 30.4671 844.202 24.869 839.986 19.2608C839.817 19.0401 839.608 18.8292 839.529 18.5488L829.639 18.5064L829.639 18.4864Z" fill="#F05423"/>
<path d="M844.197 18.5491C844.166 18.829 844.345 19.0097 844.495 19.2004C846.741 22.3201 848.988 25.4397 851.235 28.5594C852.736 30.6459 854.247 32.7424 855.748 34.8288C856.185 35.4307 856.195 35.4308 856.687 34.8829C858.114 33.289 859.531 31.6851 860.948 30.0811C861.29 29.6926 861.29 29.6626 860.952 29.2111C859.53 27.275 858.098 25.3388 856.667 23.4027C855.613 21.9681 854.549 20.5336 853.495 19.109C853.376 18.9385 853.226 18.7879 853.167 18.5776L844.188 18.5391L844.197 18.5491Z" fill="#F05423"/>
<path d="M882.979 18.7156C882.948 18.9555 883.087 19.1061 883.226 19.2667C885.147 21.4349 887.068 23.6032 888.988 25.7715C891.347 28.4416 893.706 31.1018 896.064 33.7719C896.452 34.2136 896.84 34.6553 897.229 35.0869C897.358 35.2275 897.477 35.378 897.687 35.3789L897.74 23.209C897.61 23.1685 897.51 23.088 897.41 22.9976C896.016 21.7016 894.621 20.4156 893.227 19.1196C893.117 19.0191 893.018 18.9087 892.979 18.7485L882.969 18.7056L882.979 18.7156Z" fill="#F05423"/>
<path d="M727.018 27.9358C727.77 27.6491 728.412 27.1818 729.093 26.7847C733.735 24.0747 738.367 21.3445 742.998 18.6244C743.189 18.5152 743.499 18.4665 743.431 18.1162L727.051 18.0459L727.008 27.9358L727.018 27.9358Z" fill="#F05423"/>
<path d="M857.729 18.607C857.758 18.8471 857.897 19.0277 858.036 19.2083C859.697 21.3655 861.358 23.5226 863.018 25.6798C863.356 26.1212 863.406 26.1314 863.788 25.7231C865.828 23.5618 867.857 21.4005 869.886 19.2392C870.037 19.0698 870.207 18.9206 870.229 18.6706L857.719 18.6169L857.729 18.607Z" fill="#F05423"/>
<path d="M813.545 23.6371C813.576 23.5073 813.606 23.3574 813.497 23.2669C813.347 23.1563 813.207 23.2757 813.076 23.3451C811.763 24.0595 810.45 24.7839 809.137 25.5082C805.168 27.6912 801.198 29.8742 797.239 32.0572C793.289 34.2303 789.34 36.4033 785.391 38.5764C781.552 40.6899 777.722 42.7935 773.883 44.907C769.583 47.2686 765.283 49.6402 760.983 52.0017C759.078 53.0536 757.164 54.0953 755.259 55.1472C755.049 55.2563 754.719 55.3149 754.727 55.5949C754.736 55.8349 755.066 55.8664 755.266 55.9472C757.172 56.7954 759.079 57.6236 760.985 58.4818C761.364 58.6534 761.674 58.6448 762.045 58.4463C769.763 54.1994 777.492 49.9726 785.22 45.7357C792.367 41.8164 799.514 37.907 806.651 33.9876C808.615 32.9161 810.57 31.8244 812.534 30.7629C812.845 30.5942 813.036 30.405 813.058 30.0251C813.09 29.3852 813.183 28.7456 813.226 28.1058C813.342 26.6163 813.439 25.1267 813.545 23.6271L813.545 23.6371Z" fill="#F05423"/>
<path d="M888.947 61.0916C889.107 61.0923 889.217 61.0228 889.337 60.9633C890.941 60.1902 892.544 59.4171 894.147 58.6439C894.678 58.3862 894.678 58.3562 894.321 57.8547C892.084 54.755 889.817 51.6653 887.611 48.5358C885.831 46.0281 883.791 43.7293 881.841 41.3609C879.016 37.9188 876.161 34.5065 873.315 31.0842C872.967 30.6627 872.609 30.2412 872.251 29.8197C871.893 29.3981 871.863 29.398 871.481 29.8163C870.828 30.5336 870.185 31.2508 869.541 31.968C868.908 32.6753 868.275 33.3726 867.632 34.0699C867.17 34.5779 867.16 34.5978 867.608 35.0898C868.892 36.5153 870.176 37.9308 871.45 39.3463C873.898 42.0668 876.347 44.7774 878.775 47.5078C879.372 48.1904 879.879 48.9526 880.415 49.6849C883.07 53.2763 885.725 56.8778 888.379 60.4792C888.489 60.6297 888.608 60.7802 888.727 60.9307C888.787 61.0009 888.857 61.0712 888.947 61.0616L888.947 61.0916Z" fill="#F05423"/>
<path d="M820.762 31.5184C820.581 31.6476 820.6 31.8477 820.57 32.0276C820.341 33.9666 820.113 35.8957 819.865 37.8346C819.813 38.2744 819.972 38.5851 820.24 38.9063C822.996 42.2081 825.752 45.51 828.498 48.8118C829.115 49.5644 829.511 50.4462 829.997 51.2883C831.645 54.1454 833.263 57.0123 834.89 59.8793C835.218 60.4608 835.278 60.461 835.71 59.9429C836.414 59.0759 837.117 58.2089 837.821 57.3419C838.193 56.8835 838.193 56.8735 837.885 56.3522C835.522 52.402 833.169 48.4518 830.806 44.5017C830.34 43.7197 829.843 42.9575 829.416 42.1557C828.742 40.8828 827.796 39.8287 826.891 38.7348C824.991 36.4466 823.081 34.1684 821.17 31.8902C821.051 31.7497 820.982 31.5594 820.762 31.5184Z" fill="#F05423"/>
<path d="M977.489 19.1212C977.127 19.4996 976.626 19.6675 976.175 19.9055C972.717 21.7507 969.249 23.5758 965.781 25.421C960.9 28.01 956.009 30.6091 951.128 33.2081C947.75 35.0036 944.362 36.7891 940.985 38.5846C936.504 40.9654 932.014 43.3462 927.534 45.7269C925.629 46.7388 923.715 47.7406 921.811 48.7624C921.58 48.8814 921.32 48.9703 921.159 49.1896C921.208 49.3998 921.398 49.4406 921.538 49.5212C923.812 50.731 926.097 51.9208 928.362 53.1406C928.741 53.3422 929.041 53.3435 929.422 53.1451C933.612 50.9331 937.801 48.731 941.991 46.529C944.777 45.071 947.563 43.6129 950.349 42.1449C954.94 39.7345 959.54 37.3143 964.131 34.894C966.777 33.5053 969.433 32.1167 972.079 30.718C977.03 28.1193 981.971 25.5205 986.922 22.9217C988.997 21.8306 991.082 20.7395 993.166 19.6485C993.367 19.5393 993.577 19.4502 993.628 19.1905L977.479 19.1211L977.489 19.1212Z" fill="#F05423"/>
<path d="M908.694 43.3858C909.861 44.0108 911.059 44.586 912.256 45.1611C912.556 45.3024 912.796 45.2434 913.057 45.1046C914.199 44.5095 915.342 43.9244 916.484 43.3293C919.11 41.9605 921.726 40.5917 924.342 39.233C930.355 36.1088 936.379 32.9746 942.392 29.8504C948.777 26.5278 955.171 23.2152 961.555 19.8926C961.826 19.7537 962.087 19.6048 962.357 19.466C962.528 19.3767 962.698 19.2775 962.689 19.0474L945.399 18.9732C945.278 19.1327 945.108 19.2119 944.938 19.3012C943.074 20.2732 941.209 21.2552 939.345 22.2272C935.266 24.3597 931.187 26.4922 927.108 28.6247C921.886 31.3523 916.664 34.07 911.442 36.7976C910.52 37.2836 909.578 37.7196 908.686 38.2757L908.664 43.3957L908.694 43.3858Z" fill="#F05423"/>
<path d="M1003.99 19.2349C1003.76 19.814 1003.8 20.4241 1003.73 21.0238C1003.56 22.5131 1003.44 24.0026 1003.28 25.4819C1003.22 26.0117 1003.3 26.452 1003.61 26.9134C1009.61 35.6192 1015.58 44.3449 1021.56 53.0607C1021.82 53.4318 1022.07 53.8129 1022.34 54.184C1022.57 54.495 1022.66 54.5054 1022.9 54.2064C1023.29 53.7181 1023.67 53.2197 1024.05 52.7314C1025.11 51.3659 1026.17 50.0004 1027.22 48.6349C1027.61 48.1266 1027.61 48.1266 1027.25 47.605C1025.27 44.7765 1023.28 41.958 1021.3 39.1394C1019.67 36.8124 1018.04 34.4854 1016.4 32.1583C1015.67 31.1152 1014.8 30.1914 1013.97 29.2279C1011.33 26.1065 1008.66 23.005 1006 19.8836C1005.84 19.6829 1005.63 19.502 1005.58 19.2217L1003.99 19.2149L1003.99 19.2349Z" fill="#F05423"/>
<path d="M1079.4 42.4091C1078.84 41.9667 1078.43 41.3949 1077.97 40.863C1074.93 37.4098 1071.9 33.9368 1068.87 30.4838C1066.51 27.7936 1064.14 25.1034 1061.78 22.4133C1061.75 22.3831 1061.73 22.3531 1061.7 22.3329C1061.32 21.9213 1061.3 21.9212 1060.91 22.3295C1059.66 23.7142 1058.38 25.0987 1057.14 26.4934C1056.48 27.2206 1056.56 27.0809 1057.08 27.7431C1061.44 33.2919 1065.79 38.8206 1070.15 44.3694C1072.94 47.9314 1075.74 51.4935 1078.54 55.0455C1078.77 55.3365 1078.92 55.7171 1079.33 55.8289L1079.39 42.409L1079.4 42.4091Z" fill="#F05423"/>
<path d="M1011.38 19.2666C1011.32 19.5764 1011.53 19.7573 1011.68 19.968C1013.16 21.8443 1014.63 23.7206 1016.1 25.607C1020.43 31.1256 1024.75 36.6442 1029.08 42.1529C1029.54 42.7348 1029.99 43.3168 1030.45 43.8988C1030.82 44.3603 1030.87 44.3606 1031.25 43.9022C1032.38 42.517 1033.49 41.1318 1034.61 39.7466C1034.85 39.4476 1035.07 39.1486 1035.32 38.8696C1035.53 38.6305 1035.55 38.4206 1035.35 38.1697C1035.01 37.7383 1034.69 37.2869 1034.36 36.8555C1030.15 31.2473 1025.94 25.6492 1021.72 20.0411C1021.56 19.8203 1021.35 19.6094 1021.27 19.3291L1011.38 19.2866L1011.38 19.2666Z" fill="#F05423"/>
<path d="M1025.94 19.3294C1025.9 19.6092 1026.08 19.79 1026.23 19.9807C1028.48 23.1003 1030.73 26.22 1032.97 29.3397C1034.47 31.4261 1035.98 33.5227 1037.49 35.6091C1037.92 36.211 1037.93 36.211 1038.43 35.6632C1039.85 34.0693 1041.27 32.4653 1042.69 30.8614C1043.03 30.4729 1043.03 30.4429 1042.69 29.9914C1041.27 28.0553 1039.84 26.1191 1038.41 24.183C1037.35 22.7484 1036.29 21.3138 1035.23 19.8893C1035.11 19.7188 1034.96 19.5681 1034.91 19.3579L1025.93 19.3193L1025.94 19.3294Z" fill="#F05423"/>
<path d="M1064.72 19.4959C1064.69 19.7358 1064.83 19.8864 1064.96 20.047C1066.89 22.2152 1068.81 24.3835 1070.73 26.5517C1073.09 29.2219 1075.44 31.8821 1077.8 34.5522C1078.19 34.9939 1078.58 35.4355 1078.97 35.8672C1079.1 36.0078 1079.22 36.1583 1079.43 36.1592L1079.48 23.9893C1079.35 23.9487 1079.25 23.8683 1079.15 23.7779C1077.75 22.4819 1076.36 21.1959 1074.97 19.8999C1074.86 19.7994 1074.76 19.689 1074.72 19.5288L1064.71 19.4858L1064.72 19.4959Z" fill="#F05423"/>
<path d="M908.757 28.7161C909.508 28.4293 910.15 27.9621 910.832 27.565C915.473 24.8549 920.105 22.1248 924.737 19.4046C924.927 19.2955 925.237 19.2468 925.169 18.8965L908.789 18.8262L908.747 28.7161L908.757 28.7161Z" fill="#F05423"/>
<path d="M1039.47 19.3872C1039.5 19.6274 1039.64 19.808 1039.77 19.9886C1041.44 22.1457 1043.1 24.3029 1044.76 26.46C1045.09 26.9015 1045.14 26.9117 1045.53 26.5033C1047.57 24.3421 1049.6 22.1808 1051.62 20.0195C1051.78 19.8501 1051.95 19.7008 1051.97 19.4509L1039.46 19.3972L1039.47 19.3872Z" fill="#F05423"/>
<path d="M995.283 24.4174C995.314 24.2875 995.345 24.1377 995.235 24.0472C995.085 23.9366 994.945 24.0559 994.815 24.1254C993.501 24.8398 992.188 25.5641 990.875 26.2885C986.906 28.4715 982.936 30.6545 978.977 32.8375C975.028 35.0105 971.078 37.1836 967.129 39.3567C963.29 41.4702 959.461 43.5738 955.622 45.6873C951.321 48.0489 947.021 50.4204 942.721 52.782C940.817 53.8338 938.902 54.8756 936.998 55.9275C936.787 56.0366 936.457 56.0951 936.466 56.3752C936.475 56.6152 936.804 56.6466 937.004 56.7275C938.91 57.5757 940.817 58.4039 942.723 59.2621C943.103 59.4337 943.413 59.425 943.783 59.2266C951.502 54.9797 959.23 50.7529 966.958 46.516C974.105 42.5966 981.252 38.6873 988.389 34.7679C990.354 33.6963 992.308 32.6047 994.273 31.5431C994.584 31.3745 994.774 31.1853 994.796 30.8054C994.829 30.1655 994.921 29.5259 994.964 28.8861C995.081 27.3966 995.177 25.907 995.283 24.4074L995.283 24.4174Z" fill="#F05423"/>
<path d="M1070.68 61.8719C1070.84 61.8726 1070.96 61.8031 1071.08 61.7436C1072.68 60.9704 1074.28 60.1973 1075.89 59.4242C1076.42 59.1665 1076.42 59.1365 1076.06 58.6349C1073.82 55.5353 1071.56 52.4455 1069.35 49.316C1067.57 46.8084 1065.53 44.5096 1063.58 42.1412C1060.75 38.699 1057.9 35.2868 1055.05 31.8645C1054.71 31.443 1054.35 31.0215 1053.99 30.5999C1053.63 30.1784 1053.6 30.1783 1053.22 30.5966C1052.57 31.3138 1051.92 32.0311 1051.28 32.7483C1050.65 33.4556 1050.01 34.1529 1049.37 34.8501C1048.91 35.3582 1048.9 35.3781 1049.35 35.87C1050.63 37.2956 1051.91 38.7111 1053.19 40.1266C1055.64 42.8471 1058.08 45.5576 1060.51 48.2881C1061.11 48.9707 1061.62 49.7329 1062.15 50.4652C1064.81 54.0566 1067.46 57.658 1070.12 61.2595C1070.23 61.4099 1070.35 61.5604 1070.47 61.711C1070.53 61.7812 1070.59 61.8515 1070.69 61.8419L1070.68 61.8719Z" fill="#F05423"/>
<path d="M1002.5 32.2987C1002.32 32.4279 1002.34 32.628 1002.31 32.8079C1002.08 34.7469 1001.85 36.676 1001.6 38.6149C1001.55 39.0547 1001.71 39.3654 1001.98 39.6865C1004.73 42.9884 1007.49 46.2902 1010.24 49.5921C1010.85 50.3447 1011.25 51.2264 1011.74 52.0685C1013.38 54.9256 1015 57.7926 1016.63 60.6596C1016.96 61.241 1017.02 61.2413 1017.45 60.7231C1018.15 59.8561 1018.86 58.9892 1019.56 58.1222C1019.93 57.6638 1019.93 57.6538 1019.62 57.1324C1017.26 53.1823 1014.91 49.2321 1012.54 45.2819C1012.08 44.4999 1011.58 43.7378 1011.15 42.936C1010.48 41.663 1009.53 40.609 1008.63 39.5151C1006.73 37.2269 1004.82 34.9487 1002.91 32.6705C1002.79 32.5299 1002.72 32.3396 1002.5 32.2987Z" fill="#F05423"/>
<path d="M1159.23 19.9014C1158.87 20.2799 1158.36 20.4477 1157.91 20.6858C1154.46 22.531 1150.99 24.3561 1147.52 26.2012C1142.64 28.7903 1137.75 31.3893 1132.87 33.9884C1129.49 35.7839 1126.1 37.5694 1122.72 39.3649C1118.24 41.7457 1113.75 44.1264 1109.27 46.5072C1107.37 47.519 1105.45 48.5208 1103.55 49.5427C1103.32 49.6617 1103.06 49.7506 1102.9 49.9699C1102.95 50.1801 1103.14 50.2209 1103.28 50.3015C1105.55 51.5113 1107.84 52.7011 1110.1 53.9208C1110.48 54.1225 1110.78 54.1238 1111.16 53.9254C1115.35 51.7134 1119.54 49.5113 1123.73 47.3093C1126.52 45.8512 1129.3 44.3932 1132.09 42.9251C1136.68 40.5148 1141.28 38.0946 1145.87 35.6742C1148.52 34.2856 1151.17 32.897 1153.82 31.4983C1158.77 28.8996 1163.71 26.3007 1168.66 23.702C1170.74 22.6109 1172.82 21.5198 1174.9 20.4288C1175.11 20.3196 1175.32 20.2305 1175.37 19.9707L1159.22 19.9014L1159.23 19.9014Z" fill="#F05423"/>
<path d="M1090.43 44.1661C1091.6 44.7911 1092.8 45.3663 1093.99 45.9414C1094.29 46.0827 1094.53 46.0237 1094.79 45.8848C1095.94 45.2897 1097.08 44.7046 1098.22 44.1095C1100.85 42.7408 1103.46 41.372 1106.08 40.0132C1112.09 36.889 1118.12 33.7549 1124.13 30.6306C1130.52 27.308 1136.91 23.9954 1143.29 20.6728C1143.56 20.534 1143.82 20.3851 1144.1 20.2463C1144.27 20.157 1144.44 20.0577 1144.43 19.8277L1127.14 19.7535C1127.02 19.9129 1126.85 19.9922 1126.68 20.0815C1124.81 21.0535 1122.95 22.0355 1121.08 23.0075C1117 25.14 1112.93 27.2725 1108.85 29.405C1103.62 32.1326 1098.4 34.8502 1093.18 37.5778C1092.26 38.0639 1091.32 38.4998 1090.42 39.056L1090.4 44.176L1090.43 44.1661Z" fill="#F05423"/>
<path d="M1185.73 20.0152C1185.5 20.5942 1185.54 21.2044 1185.47 21.8041C1185.3 23.2934 1185.18 24.7829 1185.02 26.2622C1184.96 26.7919 1185.03 27.2323 1185.35 27.6937C1191.35 36.3995 1197.32 45.1252 1203.3 53.8409C1203.56 54.2121 1203.81 54.5931 1204.08 54.9643C1204.3 55.2753 1204.39 55.2857 1204.64 54.9867C1205.03 54.4984 1205.41 54 1205.79 53.5116C1206.85 52.1462 1207.9 50.7807 1208.96 49.4152C1209.35 48.9069 1209.35 48.9069 1208.98 48.3853C1207.01 45.5568 1205.02 42.7382 1203.04 39.9197C1201.41 37.5927 1199.78 35.2657 1198.14 32.9386C1197.4 31.8954 1196.54 30.9717 1195.71 30.0082C1193.07 26.8868 1190.4 23.7853 1187.74 20.6639C1187.57 20.4631 1187.36 20.2822 1187.32 20.002L1185.73 19.9952L1185.73 20.0152Z" fill="#F05423"/>
<path d="M1261.14 43.1894C1260.58 42.747 1260.17 42.1752 1259.71 41.6432C1256.67 38.1901 1253.64 34.7171 1250.61 31.264C1248.25 28.5739 1245.88 25.8837 1243.52 23.1935C1243.49 23.1634 1243.47 23.1333 1243.44 23.1132C1243.05 22.7015 1243.03 22.7014 1242.65 23.1098C1241.4 24.4944 1240.12 25.879 1238.87 27.2736C1238.22 28.0008 1238.3 27.8612 1238.82 28.5234C1243.18 34.0722 1247.53 39.6009 1251.89 45.1497C1254.68 48.7117 1257.48 52.2737 1260.28 55.8258C1260.51 56.1168 1260.66 56.4974 1261.07 56.6092L1261.13 43.1893L1261.14 43.1894Z" fill="#F05423"/>
<path d="M1193.12 20.0469C1193.05 20.3567 1193.26 20.5376 1193.42 20.7482C1194.89 22.6246 1196.37 24.5009 1197.84 26.3873C1202.17 31.9059 1206.49 37.4245 1210.82 42.9331C1211.28 43.5151 1211.73 44.0971 1212.19 44.679C1212.56 45.1406 1212.61 45.1408 1212.99 44.6825C1214.12 43.2973 1215.23 41.9121 1216.35 40.5269C1216.59 40.2279 1216.81 39.9288 1217.06 39.6499C1217.27 39.4108 1217.28 39.2009 1217.09 38.95C1216.75 38.5185 1216.43 38.0672 1216.1 37.6358C1211.88 32.0276 1207.68 26.4295 1203.46 20.8213C1203.29 20.6006 1203.08 20.3897 1203.01 20.1094L1193.12 20.0669L1193.12 20.0469Z" fill="#F05423"/>
<path d="M1207.67 20.1097C1207.64 20.3895 1207.82 20.5703 1207.97 20.7609C1210.22 23.8806 1212.46 27.0003 1214.71 30.12C1216.21 32.2064 1217.72 34.3029 1219.22 36.3894C1219.66 36.9913 1219.67 36.9913 1220.16 36.4434C1221.59 34.8495 1223.01 33.2456 1224.42 31.6417C1224.77 31.2531 1224.77 31.2231 1224.43 30.7717C1223.01 28.8356 1221.57 26.8994 1220.14 24.9632C1219.09 23.5287 1218.03 22.0941 1216.97 20.6696C1216.85 20.4991 1216.7 20.3484 1216.64 20.1382L1207.66 20.0996L1207.67 20.1097Z" fill="#F05423"/>
<path d="M1246.46 20.2762C1246.42 20.516 1246.56 20.6666 1246.7 20.8272C1248.62 22.9955 1250.54 25.1638 1252.47 27.332C1254.82 30.0022 1257.18 32.6623 1259.54 35.3325C1259.93 35.7741 1260.32 36.2158 1260.71 36.6475C1260.83 36.788 1260.95 36.9386 1261.16 36.9395L1261.22 24.7696C1261.09 24.729 1260.99 24.6486 1260.89 24.5582C1259.49 23.2622 1258.1 21.9762 1256.7 20.6802C1256.59 20.5797 1256.49 20.4693 1256.46 20.3091L1246.45 20.2661L1246.46 20.2762Z" fill="#F05423"/>
<path d="M1090.49 29.4964C1091.25 29.2096 1091.89 28.7424 1092.57 28.3453C1097.21 25.6352 1101.84 22.9051 1106.48 20.1849C1106.67 20.0757 1106.98 20.0271 1106.91 19.6768L1090.53 19.6064L1090.48 29.4964L1090.49 29.4964Z" fill="#F05423"/>
<path d="M1221.21 20.1675C1221.23 20.4076 1221.37 20.5882 1221.51 20.7688C1223.17 22.926 1224.83 25.0831 1226.49 27.2403C1226.83 27.6818 1226.88 27.692 1227.26 27.2836C1229.3 25.1223 1231.33 22.961 1233.36 20.7997C1233.51 20.6304 1233.68 20.4811 1233.71 20.2312L1221.2 20.1775L1221.21 20.1675Z" fill="#F05423"/>
<path d="M1177.02 25.1977C1177.05 25.0678 1177.08 24.9179 1176.97 24.8275C1176.82 24.7168 1176.68 24.8362 1176.55 24.9057C1175.24 25.62 1173.93 26.3444 1172.61 27.0688C1168.64 29.2517 1164.67 31.4347 1160.72 33.6177C1156.77 35.7908 1152.82 37.9639 1148.87 40.1369C1145.03 42.2505 1141.2 44.3541 1137.36 46.4676C1133.06 48.8292 1128.76 51.2007 1124.46 53.5623C1122.55 54.6141 1120.64 55.6559 1118.74 56.7077C1118.53 56.8168 1118.2 56.8754 1118.2 57.1554C1118.21 57.3955 1118.54 57.4269 1118.74 57.5078C1120.65 58.356 1122.56 59.1841 1124.46 60.0423C1124.84 60.214 1125.15 60.2053 1125.52 60.0069C1133.24 55.76 1140.97 51.5331 1148.7 47.2963C1155.84 43.3769 1162.99 39.4676 1170.13 35.5482C1172.09 34.4766 1174.05 33.385 1176.01 32.3234C1176.32 32.1547 1176.51 31.9656 1176.53 31.5856C1176.57 30.9458 1176.66 30.3062 1176.7 29.6663C1176.82 28.1768 1176.92 26.6872 1177.02 25.1877L1177.02 25.1977Z" fill="#F05423"/>
<path d="M1252.42 62.6522C1252.58 62.6529 1252.69 62.5833 1252.81 62.5238C1254.42 61.7507 1256.02 60.9776 1257.62 60.2045C1258.15 59.9468 1258.15 59.9168 1257.8 59.4152C1255.56 56.3156 1253.29 53.2258 1251.09 50.0963C1249.31 47.5887 1247.27 45.2899 1245.32 42.9215C1242.49 39.4793 1239.64 36.067 1236.79 32.6448C1236.44 32.2233 1236.09 31.8017 1235.73 31.3802C1235.37 30.9587 1235.34 30.9585 1234.96 31.3769C1234.3 32.0941 1233.66 32.8113 1233.02 33.5286C1232.38 34.2359 1231.75 34.9332 1231.11 35.6304C1230.65 36.1384 1230.64 36.1584 1231.08 36.6503C1232.37 38.0758 1233.65 39.4914 1234.93 40.9068C1237.37 43.6274 1239.82 46.3379 1242.25 49.0684C1242.85 49.7509 1243.36 50.5131 1243.89 51.2454C1246.55 54.8369 1249.2 58.4383 1251.86 62.0397C1251.97 62.1902 1252.08 62.3407 1252.2 62.4912C1252.26 62.5615 1252.33 62.6318 1252.42 62.6222L1252.42 62.6522Z" fill="#F05423"/>
<path d="M1184.24 33.079C1184.06 33.2082 1184.08 33.4083 1184.05 33.5881C1183.82 35.5272 1183.59 37.4562 1183.34 39.3952C1183.29 39.835 1183.45 40.1456 1183.72 40.4668C1186.47 43.7687 1189.23 47.0705 1191.97 50.3723C1192.59 51.125 1192.99 52.0067 1193.47 52.8488C1195.12 55.7059 1196.74 58.5729 1198.37 61.4399C1198.69 62.0213 1198.75 62.0216 1199.19 61.5034C1199.89 60.6364 1200.59 59.7694 1201.3 58.9024C1201.67 58.444 1201.67 58.434 1201.36 57.9127C1199 53.9625 1196.65 50.0124 1194.28 46.0622C1193.82 45.2802 1193.32 44.5181 1192.89 43.7162C1192.22 42.4433 1191.27 41.3892 1190.37 40.2954C1188.47 38.0072 1186.56 35.7289 1184.65 33.4507C1184.53 33.3102 1184.46 33.1199 1184.24 33.079Z" fill="#F05423"/>
<path d="M1340.97 20.6817C1340.6 21.0602 1340.1 21.228 1339.65 21.4661C1336.19 23.3113 1332.73 25.1364 1329.26 26.9815C1324.38 29.5706 1319.49 32.1696 1314.6 34.7687C1311.23 36.5642 1307.84 38.3497 1304.46 40.1452C1299.98 42.526 1295.49 44.9067 1291.01 47.2875C1289.11 48.2993 1287.19 49.3011 1285.29 50.3229C1285.06 50.442 1284.8 50.5308 1284.64 50.7501C1284.68 50.9604 1284.87 51.0012 1285.01 51.0818C1287.29 52.2916 1289.57 53.4814 1291.84 54.7011C1292.22 54.9027 1292.52 54.904 1292.9 54.7057C1297.09 52.4936 1301.28 50.2916 1305.47 48.0896C1308.25 46.6315 1311.04 45.1735 1313.83 43.7054C1318.42 41.2951 1323.02 38.8748 1327.61 36.4545C1330.25 35.0659 1332.91 33.6772 1335.56 32.2786C1340.51 29.6798 1345.45 27.081 1350.4 24.4823C1352.47 23.3911 1354.56 22.3001 1356.64 21.209C1356.84 21.0999 1357.05 21.0108 1357.1 20.751L1340.96 20.6817L1340.97 20.6817Z" fill="#F05423"/>
<path d="M1272.17 44.9464C1273.34 45.5714 1274.54 46.1465 1275.73 46.7217C1276.03 46.863 1276.27 46.804 1276.53 46.6651C1277.68 46.07 1278.82 45.4849 1279.96 44.8898C1282.59 43.5211 1285.2 42.1523 1287.82 40.7935C1293.83 37.6693 1299.86 34.5351 1305.87 31.4109C1312.25 28.0883 1318.65 24.7757 1325.03 21.4531C1325.3 21.3143 1325.56 21.1654 1325.83 21.0265C1326 20.9373 1326.17 20.838 1326.17 20.608L1308.88 20.5337C1308.76 20.6932 1308.58 20.7725 1308.41 20.8618C1306.55 21.8338 1304.69 22.8158 1302.82 23.7878C1298.74 25.9203 1294.66 28.0528 1290.58 30.1853C1285.36 32.9129 1280.14 35.6305 1274.92 38.3581C1274 38.8442 1273.05 39.2801 1272.16 39.8363L1272.14 44.9562L1272.17 44.9464Z" fill="#F05423"/>
<path d="M1367.46 20.7955C1367.24 21.3745 1367.28 21.9847 1367.21 22.5844C1367.04 24.0737 1366.91 25.5631 1366.76 27.0425C1366.69 27.5722 1366.77 28.0126 1367.09 28.4739C1373.08 37.1797 1379.06 45.9055 1385.04 54.6212C1385.3 54.9923 1385.55 55.3734 1385.81 55.7446C1386.04 56.0555 1386.13 56.0659 1386.37 55.767C1386.77 55.2786 1387.15 54.7803 1387.53 54.2919C1388.59 52.9264 1389.64 51.561 1390.7 50.1955C1391.09 49.6872 1391.09 49.6872 1390.72 49.1656C1388.74 46.3371 1386.76 43.5185 1384.78 40.7C1383.15 38.373 1381.52 36.0459 1379.88 33.7189C1379.14 32.6757 1378.28 31.752 1377.45 30.7884C1374.8 27.667 1372.14 24.5656 1369.48 21.4441C1369.31 21.2434 1369.1 21.0625 1369.05 20.7823L1367.46 20.7755L1367.46 20.7955Z" fill="#F05423"/>
<path d="M1442.87 43.9696C1442.32 43.5272 1441.91 42.9555 1441.45 42.4235C1438.41 38.9704 1435.38 35.4974 1432.35 32.0443C1429.99 29.3542 1427.62 26.664 1425.26 23.9738C1425.23 23.9437 1425.21 23.9136 1425.18 23.8935C1424.79 23.4818 1424.77 23.4817 1424.39 23.8901C1423.13 25.2747 1421.86 26.6592 1420.61 28.0539C1419.96 28.7811 1420.04 28.6414 1420.56 29.3037C1424.91 34.8524 1429.27 40.3812 1433.63 45.9299C1436.42 49.492 1439.22 53.054 1442.02 56.6061C1442.25 56.8971 1442.4 57.2777 1442.81 57.3895L1442.86 43.9696L1442.87 43.9696Z" fill="#F05423"/>
<path d="M1374.85 20.8272C1374.79 21.1369 1375 21.3178 1375.16 21.5285C1376.63 23.4049 1378.11 25.2812 1379.58 27.1675C1383.9 32.6862 1388.23 38.2048 1392.56 43.7134C1393.01 44.2954 1393.47 44.8773 1393.93 45.4593C1394.3 45.9209 1394.35 45.9211 1394.73 45.4627C1395.85 44.0776 1396.97 42.6923 1398.09 41.3071C1398.33 41.0082 1398.55 40.7091 1398.8 40.4302C1399.01 40.1911 1399.02 39.9811 1398.82 39.7303C1398.49 39.2988 1398.17 38.8474 1397.84 38.416C1393.62 32.8079 1389.42 27.2098 1385.2 21.6016C1385.03 21.3809 1384.82 21.17 1384.74 20.8897L1374.85 20.8472L1374.85 20.8272Z" fill="#F05423"/>
<path d="M1389.41 20.8899C1389.38 21.1698 1389.56 21.3506 1389.71 21.5412C1391.96 24.6609 1394.2 27.7806 1396.45 30.9002C1397.95 32.9867 1399.46 35.0832 1400.96 37.1697C1401.4 37.7715 1401.41 37.7716 1401.9 37.2237C1403.33 35.6298 1404.75 34.0259 1406.16 32.4219C1406.5 32.0334 1406.5 32.0034 1406.17 31.552C1404.74 29.6158 1403.31 27.6797 1401.88 25.7435C1400.83 24.309 1399.76 22.8744 1398.71 21.4498C1398.59 21.2793 1398.44 21.1287 1398.38 20.9184L1389.4 20.8799L1389.41 20.8899Z" fill="#F05423"/>
<path d="M1428.19 21.0564C1428.16 21.2963 1428.3 21.4469 1428.44 21.6075C1430.36 23.7758 1432.28 25.944 1434.2 28.1123C1436.56 30.7824 1438.92 33.4426 1441.28 36.1127C1441.67 36.5544 1442.06 36.9961 1442.44 37.4278C1442.57 37.5683 1442.69 37.7188 1442.9 37.7197L1442.95 25.5498C1442.82 25.5093 1442.72 25.4289 1442.63 25.3384C1441.23 24.0424 1439.84 22.7564 1438.44 21.4604C1438.33 21.36 1438.23 21.2495 1438.19 21.0894L1428.18 21.0464L1428.19 21.0564Z" fill="#F05423"/>
<path d="M1272.23 30.2767C1272.98 29.9899 1273.63 29.5226 1274.31 29.1256C1278.95 26.4155 1283.58 23.6853 1288.21 20.9652C1288.4 20.856 1288.71 20.8073 1288.65 20.457L1272.27 20.3867L1272.22 30.2766L1272.23 30.2767Z" fill="#F05423"/>
<path d="M1402.94 20.9478C1402.97 21.1879 1403.11 21.3685 1403.25 21.5491C1404.91 23.7063 1406.57 25.8634 1408.23 28.0206C1408.57 28.462 1408.62 28.4722 1409 28.0639C1411.04 25.9026 1413.07 23.7413 1415.1 21.58C1415.25 21.4106 1415.42 21.2614 1415.44 21.0115L1402.93 20.9578L1402.94 20.9478Z" fill="#F05423"/>
<path d="M1358.76 25.978C1358.79 25.8481 1358.82 25.6982 1358.71 25.6077C1358.56 25.4971 1358.42 25.6165 1358.29 25.6859C1356.98 26.4003 1355.66 27.1247 1354.35 27.849C1350.38 30.032 1346.41 32.215 1342.45 34.398C1338.5 36.5711 1334.55 38.7441 1330.61 40.9172C1326.77 43.0308 1322.94 45.1343 1319.1 47.2479C1314.8 49.6094 1310.5 51.981 1306.2 54.3425C1304.29 55.3944 1302.38 56.4362 1300.47 57.488C1300.26 57.5971 1299.93 57.6557 1299.94 57.9357C1299.95 58.1758 1300.28 58.2072 1300.48 58.288C1302.39 59.1362 1304.29 59.9644 1306.2 60.8226C1306.58 60.9942 1306.89 60.9856 1307.26 60.7872C1314.98 56.5403 1322.71 52.3134 1330.43 48.0765C1337.58 44.1572 1344.73 40.2478 1351.87 36.3284C1353.83 35.2569 1355.78 34.1653 1357.75 33.1037C1358.06 32.935 1358.25 32.7458 1358.27 32.3659C1358.31 31.7261 1358.4 31.0864 1358.44 30.4466C1358.56 28.9571 1358.65 27.4675 1358.76 25.968L1358.76 25.978Z" fill="#F05423"/>
<path d="M1434.16 63.4324C1434.32 63.4331 1434.43 63.3636 1434.55 63.3041C1436.16 62.531 1437.76 61.7579 1439.36 60.9847C1439.89 60.727 1439.89 60.697 1439.54 60.1955C1437.3 57.0959 1435.03 54.0061 1432.83 50.8766C1431.05 48.3689 1429.01 46.0701 1427.06 43.7018C1424.23 40.2596 1421.38 36.8473 1418.53 33.4251C1418.18 33.0036 1417.82 32.582 1417.47 32.1605C1417.11 31.7389 1417.08 31.7388 1416.7 32.1572C1416.04 32.8744 1415.4 33.5916 1414.76 34.3089C1414.12 35.0162 1413.49 35.7134 1412.85 36.4107C1412.39 36.9187 1412.37 36.9387 1412.82 37.4306C1414.11 38.8561 1415.39 40.2716 1416.66 41.6871C1419.11 44.4077 1421.56 47.1182 1423.99 49.8486C1424.59 50.5312 1425.09 51.2934 1425.63 52.0257C1428.28 55.6171 1430.94 59.2186 1433.59 62.82C1433.7 62.9705 1433.82 63.121 1433.94 63.2715C1434 63.3418 1434.07 63.4121 1434.16 63.4024L1434.16 63.4324Z" fill="#F05423"/>
<path d="M1365.98 33.8592C1365.8 33.9885 1365.82 34.1886 1365.78 34.3684C1365.56 36.3075 1365.33 38.2365 1365.08 40.1755C1365.03 40.6152 1365.19 40.9259 1365.46 41.2471C1368.21 44.5489 1370.97 47.8508 1373.71 51.1526C1374.33 51.9053 1374.73 52.787 1375.21 53.6291C1376.86 56.4862 1378.48 59.3531 1380.11 62.2202C1380.43 62.8016 1380.49 62.8018 1380.92 62.2837C1381.63 61.4167 1382.33 60.5497 1383.04 59.6827C1383.41 59.2243 1383.41 59.2143 1383.1 58.693C1380.74 54.7428 1378.38 50.7927 1376.02 46.8425C1375.55 46.0605 1375.06 45.2983 1374.63 44.4965C1373.96 43.2236 1373.01 42.1695 1372.11 41.0756C1370.21 38.7874 1368.3 36.5092 1366.39 34.231C1366.27 34.0905 1366.2 33.9002 1365.98 33.8592Z" fill="#F05423"/>
</g>
<defs>
<clipPath id="clip0_203_5057">
<rect width="39.0139" height="1466.89" fill="white" transform="matrix(-0.0042933 0.999991 0.999991 0.0042933 -11.832 0.853516)"/>
</clipPath>
</defs>
</svg>
