<svg width="1440" height="35" viewBox="0 0 1440 35" fill="none" xmlns="http://www.w3.org/2000/svg">
<g clip-path="url(#clip0_457_4020)">
<path d="M0.0922864 20.714C1.2288 21.5289 2.4357 22.2541 3.61246 23.0091C8.06023 25.8683 12.5181 28.7074 16.9659 31.5566C22.6005 35.1608 28.235 38.765 33.8596 42.3692C38.2676 45.1881 42.6655 48.007 47.0734 50.826C52.7978 54.4906 58.5321 58.1553 64.2564 61.8199C64.7151 62.1118 64.7251 62.1219 65.1168 61.7336C66.4625 60.3993 67.8083 59.0651 69.154 57.7308C69.5557 57.3326 69.5557 57.3226 69.1274 56.9307C67.7328 55.6747 66.3281 54.4387 64.9234 53.1926C62.8314 51.3336 60.7294 49.4646 58.6374 47.6056C56.5055 45.7064 54.3636 43.8072 52.2318 41.8981C50.1398 40.0291 48.0478 38.1701 45.9558 36.3011C43.2062 33.8592 40.4667 31.4174 37.7172 28.9756C35.6351 27.1267 33.563 25.2677 31.481 23.4188C29.0203 21.2282 26.5597 19.0376 24.0991 16.847C23.5612 16.3647 23.0232 15.8824 22.4953 15.4001C22.3658 15.2896 22.2263 15.179 22.167 15.0087L0.117188 14.9141L0.0922864 20.714Z" fill="#243263"/>
<path d="M163.645 15.6154C163.594 15.8152 163.424 15.9144 163.283 16.0438C159.268 19.5366 155.243 23.0294 151.228 26.5222C147.685 29.607 144.141 32.6918 140.588 35.7766C136.453 39.3688 132.317 42.9511 128.182 46.5434C124.95 49.3496 121.718 52.1657 118.486 54.9719C116.829 56.4148 115.163 57.8476 113.507 59.2905C112.724 59.9672 112.805 59.8275 113.321 60.5897C113.937 61.5024 114.564 62.4051 115.19 63.3078C115.557 63.8394 115.557 63.8394 116.059 63.4815C121.265 59.7438 126.461 56.0161 131.667 52.2784C138.458 47.4075 145.249 42.5366 152.04 37.6658C157.086 34.0374 162.141 30.4191 167.187 26.7907C168.22 26.0551 169.253 25.3095 170.287 24.574C170.437 24.4646 170.588 24.3453 170.778 24.3061L170.815 15.6662L163.655 15.6354L163.645 15.6154Z" fill="#243263"/>
<path d="M170.733 34.976C169.059 35.9388 167.375 36.9016 165.701 37.8644C158.723 41.8945 151.756 45.9246 144.788 49.9647C140.047 52.7044 135.315 55.4541 130.573 58.2038C126.342 60.6557 122.112 63.0975 117.881 65.5494C117.721 65.6487 117.55 65.7379 117.39 65.8373C116.989 66.0855 116.969 66.1155 117.187 66.5664C117.93 68.1596 118.683 69.7629 119.436 71.3561C119.664 71.8271 119.674 71.8371 120.155 71.5892C123.423 69.9032 126.69 68.2172 129.957 66.5312C134.858 64.0022 139.759 61.4833 144.66 58.9543C149.09 56.6733 153.52 54.3823 157.949 52.1013C161.958 50.0285 165.967 47.9557 169.966 45.8928C170.197 45.7738 170.427 45.6348 170.688 45.5659L170.733 34.986L170.733 34.976Z" fill="#243263"/>
<path d="M141.246 15.5198C141.195 15.7096 141.055 15.849 140.934 15.9885C137.738 19.7848 134.551 23.5912 131.355 27.3875C128.209 31.134 125.063 34.8705 121.917 38.6171C118.77 42.3636 115.624 46.1001 112.478 49.8467C111.463 51.0523 110.458 52.258 109.433 53.4536C109.131 53.8023 109.07 54.1021 109.308 54.5131C109.685 55.1947 110.002 55.9061 110.349 56.5976C110.528 56.9383 110.598 56.9486 110.899 56.6799C110.999 56.5904 111.09 56.4908 111.18 56.4011C119.184 48.5154 127.188 40.6197 135.182 32.734C140.746 27.2478 146.309 21.7716 151.863 16.2954C152.074 16.0863 152.354 15.9175 152.376 15.5776L141.236 15.5298L141.246 15.5198Z" fill="#243263"/>
<path d="M70.5062 15.2169C70.4551 15.4667 70.4841 15.7068 70.533 15.947C72.1382 24.054 73.7434 32.171 75.3386 40.2779C75.7986 42.5999 76.2487 44.9218 76.7087 47.2438C76.8556 47.9645 76.9155 47.9947 77.4975 47.5372C78.4406 46.8113 79.3838 46.0753 80.3468 45.3794C80.748 45.0812 80.9095 44.7418 80.8216 44.2615C80.7531 43.8912 80.7748 43.5113 80.7664 43.1312C80.7268 40.711 80.7272 38.281 80.6376 35.8606C80.5836 34.4604 80.6096 33.0604 80.5557 31.6602C80.4585 28.6698 80.4313 25.6796 80.3542 22.6893C80.3202 21.2891 80.3462 19.8892 80.2622 18.4888C80.1968 17.4085 80.2315 16.3287 80.1661 15.2584L70.4962 15.2169L70.5062 15.2169Z" fill="#243263"/>
<path d="M108.947 15.3807C108.443 16.3386 107.938 17.2864 107.434 18.2443C105.014 22.8939 102.594 27.5536 100.174 32.2132C98.6316 35.1666 97.0889 38.12 95.5463 41.0734C95.4857 41.1932 95.4352 41.3129 95.3648 41.4226C95.1936 41.6919 95.2729 41.8623 95.5221 42.0333C96.5989 42.778 97.6657 43.5325 98.7325 44.2771C99.0715 44.5086 99.1316 44.4888 99.4034 44.08C100.078 43.0529 100.742 42.0157 101.407 40.9786C104.085 36.84 106.752 32.7015 109.43 28.5729C112.118 24.4244 114.806 20.2759 117.484 16.1274C117.625 15.908 117.785 15.6887 117.807 15.4088C114.847 15.396 111.897 15.3834 108.937 15.3707L108.947 15.3807Z" fill="#243263"/>
<path d="M87.4572 15.2898C87.2618 16.559 87.1863 17.8487 87.0608 19.1281C86.9247 20.5376 86.7686 21.9569 86.6326 23.3663C86.5383 24.346 86.4541 25.3256 86.3599 26.3052C86.2135 27.8146 86.067 29.324 85.9205 30.8234C85.7846 32.2028 85.6587 33.5723 85.5228 34.9517C85.3763 36.4611 85.2299 37.9605 85.0834 39.4698C85.0203 40.1896 84.9573 40.8993 84.9042 41.6191C84.9037 41.7291 84.8532 41.8489 84.9828 41.9394C85.1927 41.9603 85.3134 41.7909 85.4539 41.6815C86.7584 40.637 88.0529 39.5826 89.3574 38.5482C89.6083 38.3493 89.7692 38.1199 89.8605 37.8203C91.6055 31.9978 93.3506 26.1752 95.1056 20.3527C95.5418 18.9046 95.9781 17.4464 96.4143 15.9983C96.4752 15.7785 96.5561 15.5689 96.5571 15.3389L87.4572 15.2998L87.4572 15.2898Z" fill="#243263"/>
<path d="M55.0477 15.1505C54.9168 15.37 54.6863 15.479 54.4857 15.6081C49.6326 18.6673 44.7794 21.7265 39.9262 24.7957C39.8259 24.8553 39.7357 24.9149 39.6454 24.9845C39.4648 25.1137 39.4542 25.2637 39.6135 25.4144C39.8027 25.6052 40.002 25.776 40.1911 25.9669C41.3562 27.1319 42.5212 28.2969 43.6862 29.4619C44.3235 30.0946 44.1935 30.0841 44.9555 29.6273C48.7353 27.3436 52.5051 25.0597 56.275 22.7659C59.5335 20.7899 62.792 18.8238 66.0405 16.8478C66.6321 16.4903 66.6321 16.4903 66.455 15.8095C66.4059 15.6093 66.3668 15.3991 66.3276 15.199C62.5777 15.1829 58.8177 15.1667 55.0677 15.1506L55.0477 15.1505Z" fill="#243263"/>
<path d="M29.457 15.041C29.456 15.271 29.6154 15.4217 29.7648 15.5623C31.3082 17.109 32.8416 18.6456 34.385 20.1922C34.7036 20.5136 34.7236 20.5137 35.1146 20.2854C37.7613 18.7267 40.398 17.158 43.0448 15.5994C43.2353 15.4802 43.4557 15.3911 43.4569 15.1011L29.467 15.0411L29.457 15.041Z" fill="#243263"/>
<path d="M130.217 15.4727C130.166 15.7125 130.315 15.8631 130.474 16.0138C131.55 17.0584 132.616 18.103 133.701 19.1377C134.07 19.4893 134.11 19.4894 134.451 19.0609C135.266 18.0644 136.07 17.0578 136.874 16.0513C137.005 15.8918 137.126 15.7224 137.157 15.5025L130.217 15.4727Z" fill="#243263"/>
<path d="M69.4346 27.3023C69.4051 27.1921 69.3855 27.0821 69.356 26.9719C68.9624 25.4902 68.5787 24.0086 68.1851 22.5269C68.0374 21.9762 67.9875 21.966 67.516 22.304C65.0685 24.0635 62.6309 25.8231 60.1833 27.5826C56.8128 30.0081 53.4524 32.4337 50.082 34.8593C49.4901 35.2867 49.4801 35.2967 50.0078 35.8189C51.0435 36.8434 52.0791 37.8679 53.1146 38.9023C53.5229 39.3041 53.5329 39.3141 54.0044 38.9661C57.3149 36.5303 60.6253 34.0945 63.9458 31.6688C65.6411 30.426 67.3365 29.1833 69.0319 27.9306C69.2425 27.7815 69.5031 27.6526 69.4445 27.3123L69.4346 27.3023Z" fill="#243263"/>
<path d="M72.3579 38.4037C72.3383 38.3136 72.3089 38.1835 72.2694 38.0633C71.9546 36.8519 71.6398 35.6506 71.325 34.4392C71.3053 34.3691 71.2856 34.289 71.2659 34.2189C71.1473 33.8884 71.0674 33.8581 70.7865 34.0769C70.1544 34.5642 69.5423 35.0616 68.9201 35.5589C65.5485 38.2544 62.1869 40.96 58.8153 43.6556C58.725 43.7252 58.6446 43.8049 58.5543 43.8745C58.3937 44.0138 58.3831 44.1637 58.5324 44.3144C58.642 44.4248 58.7415 44.5353 58.8511 44.6357C59.8667 45.6501 60.8823 46.6745 61.898 47.6889C62.3162 48.1007 62.3262 48.1107 62.7679 47.7126C63.5208 47.0258 64.2638 46.329 65.0169 45.6222C67.3363 43.4422 69.6556 41.2721 71.975 39.092C72.1658 38.9129 72.4064 38.7639 72.3679 38.4037L72.3579 38.4037Z" fill="#243263"/>
<path d="M126.438 28.8067C126.638 28.8076 126.719 28.6379 126.829 28.5084C127.503 27.6813 128.156 26.8541 128.83 26.0369C129.162 25.6284 129.503 25.2198 129.825 24.7912C130.107 24.4324 130.107 24.4024 129.768 24.0909C128.723 23.1064 127.667 22.1319 126.611 21.1474C125.266 19.9016 123.922 18.6458 122.577 17.4C121.571 16.4757 121.8 16.5967 121.146 17.5239C120.422 18.5408 119.728 19.5778 119.023 20.6148C118.711 21.0735 118.711 21.0834 119.1 21.4651C121.429 23.8151 123.769 26.1752 126.099 28.5252C126.209 28.6357 126.298 28.7561 126.458 28.8068L126.438 28.8067Z" fill="#243263"/>
<path d="M120.396 36.3813C120.496 36.3617 120.566 36.302 120.627 36.2223C121.401 35.2656 122.165 34.3089 122.939 33.3522C123.15 33.0931 123.041 32.9126 122.842 32.7218C122.274 32.1393 121.717 31.5469 121.159 30.9545C119.556 29.2976 117.943 27.6407 116.34 25.9838C116.251 25.8934 116.161 25.793 116.062 25.7026C115.773 25.4314 115.713 25.4211 115.492 25.7402C114.697 26.8668 113.922 28.0134 113.137 29.1501C112.976 29.3794 113.005 29.5495 113.214 29.7404C113.673 30.1624 114.111 30.6043 114.569 31.0362C116.202 32.5833 117.846 34.1203 119.489 35.6674C119.708 35.8784 119.937 36.0793 120.166 36.2803C120.236 36.3406 120.306 36.4009 120.416 36.4114L120.396 36.3813Z" fill="#243263"/>
<path d="M114.022 44.2925C114.142 44.273 114.193 44.1932 114.253 44.1235C115.057 43.1169 115.862 42.1104 116.676 41.1139C116.897 40.8448 116.818 40.6545 116.639 40.4137C115.217 38.5676 113.805 36.7215 112.393 34.8654C111.935 34.2634 111.478 33.6615 111.011 33.0595C110.742 32.7183 110.662 32.718 110.421 33.0569C109.595 34.2334 108.79 35.4299 107.965 36.6064C107.764 36.8956 107.893 37.0861 108.072 37.3069C109.047 38.4611 110.012 39.6352 110.987 40.7894C111.883 41.8633 112.788 42.9372 113.694 44.0011C113.783 44.1115 113.852 44.2618 114.022 44.2725L114.022 44.2925Z" fill="#243263"/>
<path d="M183.667 15.7032C183.716 16.0134 183.925 16.2443 184.104 16.495C186.619 20.0059 189.134 23.5267 191.649 27.0375C196.669 34.0492 201.679 41.0607 206.698 48.0723C210.804 53.81 214.909 59.5377 219.015 65.2654C223.23 71.1535 227.434 77.0416 231.649 82.9298C231.669 82.9599 231.689 82.99 231.719 83.0201C232.067 83.4916 232.067 83.5016 232.598 83.2839C233.669 82.8485 234.731 82.403 235.803 81.9576C237.987 81.047 240.171 80.1364 242.365 79.2358C242.986 78.9784 243.666 78.9813 244.317 78.8841C246.208 78.6123 248.109 78.3604 250 78.0985C250.43 78.0404 250.501 77.9607 250.503 77.5007C250.518 76.3107 250.533 75.1108 250.538 73.9208C250.55 71.1308 250.532 68.3507 250.604 65.561C250.746 60.3316 250.669 55.1012 250.791 49.8717C250.912 44.9121 250.844 39.9418 250.965 34.9823C251.088 29.7528 251.06 24.5226 251.142 19.2929C251.157 18.1929 251.212 17.0932 251.217 16.0032L243.937 15.9719C243.863 16.7116 243.91 17.4518 243.927 18.1919C244.007 20.4423 244.118 22.6928 244.198 24.9431C244.251 26.5134 244.255 28.0834 244.338 29.6538C244.384 30.544 244.36 31.4339 244.426 32.3242C244.512 33.4246 244.487 34.5245 244.532 35.6147C244.623 37.8851 244.723 40.1555 244.803 42.4259C244.857 43.9361 244.85 45.4561 244.944 46.9665C244.999 47.9868 244.995 49.0068 245.04 50.037C245.131 52.2874 245.231 54.5378 245.311 56.7882C245.365 58.3584 245.368 59.9285 245.451 61.4988C245.497 62.3891 245.474 63.279 245.54 64.1692C245.625 65.2696 245.6 66.3695 245.646 67.4597C245.736 69.5801 245.817 71.7005 245.918 73.811C245.937 74.1211 245.836 74.3206 245.516 74.3892C245.426 74.4089 245.336 74.4485 245.245 74.4681C241.531 75.5221 237.806 76.5862 234.092 77.6402C233.711 77.7519 233.405 77.6373 233.173 77.2963C228.055 69.7942 222.938 62.3022 217.82 54.8002C212.732 47.3482 207.654 39.8964 202.565 32.4545C200.409 29.2952 198.243 26.1358 196.086 22.9766C194.446 20.5695 192.807 18.1524 191.167 15.7354C188.667 15.7246 186.167 15.7139 183.657 15.7031L183.667 15.7032Z" fill="#243263"/>
<path d="M352.486 30.1883L352.542 17.1085C352.322 17.1375 352.181 17.3069 352.021 17.4362C351.429 17.9337 350.836 18.4411 350.234 18.9386C346.922 21.7144 343.61 24.4802 340.298 27.256C336.685 30.2905 333.072 33.325 329.459 36.3595C326.338 38.9762 323.217 41.5928 320.095 44.2094C318.199 45.8013 316.292 47.4031 314.385 48.9849C314.004 49.3033 313.994 49.3032 313.555 49.0414C312.447 48.3866 311.34 47.7318 310.233 47.0671C309.325 46.5232 309.335 46.6832 310.018 45.8462C314.381 40.4848 318.744 35.1235 323.117 29.7622C326.576 25.5171 330.034 21.2719 333.482 17.0266C333.653 16.8174 333.834 16.6281 333.875 16.3483C331.715 16.339 329.555 16.3298 327.395 16.3205C327.275 16.49 327.164 16.6695 327.043 16.839C325.162 19.4509 323.291 22.0729 321.409 24.6849C317.114 30.6665 312.818 36.6581 308.512 42.6397C304.076 48.8107 299.649 54.9717 295.213 61.1427C295.112 61.2823 295.011 61.4219 294.921 61.5615C294.82 61.721 294.839 61.8511 295.019 61.9319C295.109 61.9723 295.189 62.0126 295.279 62.043C296.806 62.6596 298.343 63.2662 299.861 63.9027C300.24 64.0643 300.53 64.0156 300.861 63.797C302.025 63.012 303.208 62.2571 304.381 61.4921C308.854 58.5713 313.326 55.6604 317.809 52.7397C324.107 48.6267 330.404 44.5237 336.712 40.4107C341.786 37.1025 346.87 33.7843 351.945 30.476C352.115 30.3667 352.306 30.2776 352.486 30.1683L352.486 30.1883Z" fill="#243263"/>
<path d="M237.337 15.9337C235.367 15.9253 233.397 15.9168 231.427 15.9084C231.426 16.0584 231.426 16.2084 231.455 16.3585C231.58 17.539 231.705 18.7296 231.83 19.9101C231.993 21.4908 232.136 23.0715 232.309 24.6522C232.511 26.5731 232.723 28.494 232.925 30.4049C233.088 32.0056 233.241 33.6063 233.404 35.207C233.606 37.1279 233.818 39.0488 234.019 40.9597C234.183 42.5604 234.326 44.1611 234.499 45.7618C234.701 47.6827 234.912 49.6036 235.114 51.5145C235.316 53.4554 235.497 55.3962 235.699 57.3371C235.929 59.5981 236.19 61.8492 236.42 64.1102C236.439 64.3203 236.488 64.5505 236.387 64.7801C236.178 64.6592 236.119 64.4689 236.029 64.3086C234.341 61.5213 232.653 58.734 230.975 55.9468C226.259 48.1265 221.542 40.3061 216.826 32.4858C213.47 26.9214 210.113 21.3569 206.767 15.7925C203.927 15.7803 201.077 15.7681 198.237 15.7559C198.246 16.0159 198.405 16.2166 198.534 16.4271C199.796 18.4326 201.057 20.428 202.329 22.4335C205.388 27.2667 208.447 32.0998 211.507 36.933C215.738 43.6212 219.979 50.3195 224.21 57.0077C226.634 60.8382 229.048 64.6586 231.471 68.489C232.147 69.5619 232.832 70.6249 233.507 71.7078C233.686 71.9986 233.876 72.1294 234.246 72.041C236.368 71.5501 238.49 71.0792 240.612 70.5883C241.053 70.4902 241.073 70.4403 241.045 70.0101C240.999 69.1199 240.972 68.2298 240.886 67.3494C240.829 66.7492 240.811 66.1391 240.764 65.5389C240.67 64.1985 240.565 62.858 240.481 61.5176C240.397 60.2573 240.322 58.9869 240.238 57.7266C240.144 56.3261 240.039 54.9357 239.946 53.5353C239.861 52.3049 239.786 51.0846 239.701 49.8542C239.607 48.4938 239.503 47.1333 239.409 45.7729C239.324 44.5225 239.25 43.2822 239.165 42.0318C239.071 40.6014 238.967 39.1609 238.863 37.7305C238.778 36.5401 238.704 35.3498 238.629 34.1594C238.534 32.839 238.43 31.5186 238.346 30.1982C238.261 28.9178 238.187 27.6275 238.102 26.3471C237.98 24.5166 237.828 22.6859 237.706 20.8554C237.593 19.2149 237.52 17.5645 237.347 15.9338L237.337 15.9337Z" fill="#243263"/>
<path d="M315.126 16.2677C315.075 16.5575 314.894 16.7867 314.743 17.0261C310.202 24.2667 305.66 31.5072 301.119 38.7378C296.437 46.1978 291.745 53.6577 287.063 61.1177C285.935 62.9128 284.808 64.718 283.69 66.5132C283.64 66.593 283.589 66.6728 283.539 66.7526C283.428 66.9521 283.488 67.0724 283.697 67.1433C283.827 67.1838 283.957 67.2144 284.077 67.2449C289.061 68.5363 294.056 69.8178 299.04 71.1292C299.58 71.2715 300.01 71.2033 300.491 70.9254C305.884 67.8285 311.278 64.7617 316.681 61.6748C321.994 58.6376 327.307 55.6004 332.62 52.5732C338.244 49.3573 343.878 46.1514 349.502 42.9456C350.294 42.499 351.086 42.0423 351.868 41.5857C352.048 41.4865 352.219 41.3672 352.429 41.3181L352.453 35.7482C352.143 35.7468 351.922 35.9459 351.691 36.0849C347.601 38.5474 343.51 41.0198 339.419 43.4823C334.597 46.3916 329.774 49.2909 324.962 52.2003C316.69 57.1948 308.409 62.1793 300.147 67.1839C299.706 67.452 299.316 67.5203 298.816 67.4182C295.699 66.7648 292.582 66.1314 289.464 65.488C288.565 65.3041 288.565 65.3041 289.068 64.5563C292.782 59.0622 296.506 53.5681 300.219 48.084C305.452 40.3464 310.686 32.6088 315.919 24.8712C317.7 22.2388 319.482 19.5965 321.263 16.9541C321.394 16.7546 321.615 16.5856 321.496 16.2951L315.126 16.2677Z" fill="#243263"/>
<path d="M288.625 16.1533C288.424 16.4025 288.124 16.4212 287.854 16.46C287.464 16.5183 287.064 16.5466 286.664 16.5649C284.203 16.6843 281.743 16.7938 279.292 16.9133C277.252 17.0145 275.211 17.1257 273.171 17.227C271.13 17.3282 269.09 17.4395 267.049 17.5407C265.669 17.6148 264.289 17.6789 262.908 17.7529C262.828 17.7526 262.758 17.7523 262.678 17.7719C261.838 17.8583 261.848 17.8684 261.754 18.718C261.598 20.1673 261.402 21.6065 261.225 23.0558C261.174 23.4855 261.102 23.9152 261.07 24.3551C261.038 24.705 261.138 24.8054 261.498 24.7769C262.368 24.7107 263.229 24.6344 264.099 24.5581C265.61 24.4246 267.12 24.3011 268.621 24.1675C270.131 24.034 271.642 23.9005 273.142 23.7769C274.553 23.653 275.974 23.5391 277.384 23.4151C278.935 23.2818 280.475 23.1484 282.026 23.0151C282.936 22.939 283.837 22.8428 284.747 22.7867C285.167 22.7585 285.567 22.6703 285.968 22.552C290.744 21.1425 295.52 19.723 300.296 18.3235C300.697 18.2052 300.977 18.0164 301.139 17.6471C301.361 17.168 301.743 16.7697 301.815 16.22L288.625 16.1633L288.625 16.1533Z" fill="#243263"/>
<path d="M213.918 15.8341C213.817 16.0537 213.936 16.2342 214.035 16.4247C216.813 21.5966 219.591 26.7686 222.358 31.9405C224.462 35.8596 226.555 39.7886 228.658 43.7077C229.263 44.8403 229.878 45.9729 230.493 47.1056C230.563 47.2359 230.612 47.3861 230.772 47.4968C230.942 47.3475 230.873 47.1472 230.864 46.9872C230.788 46.0069 230.692 45.0264 230.607 44.0461C230.521 43.0457 230.425 42.0453 230.329 41.0548C230.196 39.5643 230.062 38.0837 229.929 36.5931C229.843 35.6327 229.767 34.6724 229.681 33.712C229.547 32.2014 229.404 30.7008 229.27 29.1902C229.146 27.7796 229.032 26.3591 228.909 24.9486C228.785 23.518 228.641 22.0874 228.517 20.6569C228.384 19.0763 228.261 17.4857 228.127 15.9052C226.417 15.8978 224.717 15.8905 223.007 15.8832C222.956 16.173 223.065 16.4434 223.134 16.7237C223.842 19.5568 224.55 22.3799 225.257 25.2129C225.287 25.343 225.366 25.4734 225.255 25.6529C225.156 25.4825 225.067 25.3521 224.997 25.2218C223.697 22.8862 222.387 20.5606 221.087 18.2249C220.661 17.4431 220.164 16.701 219.837 15.8696L213.927 15.8442L213.918 15.8341Z" fill="#243263"/>
<path d="M298.833 21.4873C298.663 21.4066 298.542 21.5161 298.402 21.5755C295.767 22.7442 293.142 23.9129 290.507 25.0816C288.152 26.1315 285.798 27.1714 283.443 28.2213C282.983 28.4293 282.483 28.4272 281.992 28.4751C279.862 28.6659 277.731 28.8368 275.59 29.0076C273.629 29.1692 271.659 29.3107 269.698 29.4723C267.737 29.6339 265.777 29.8055 263.816 29.9671C262.855 30.0529 261.895 30.1188 260.925 30.2046C260.355 30.2522 260.335 30.2621 260.252 30.8418C260.107 31.9512 259.982 33.0606 259.848 34.1701C259.765 34.8497 259.672 35.5193 259.609 36.1991C259.567 36.6789 259.607 36.699 260.057 36.661C261.738 36.4982 263.409 36.3254 265.089 36.1526C266.65 35.9893 268.211 35.826 269.781 35.6627C271.762 35.4512 273.733 35.2497 275.714 35.0382C276.885 34.9132 278.045 34.7882 279.216 34.6832C279.526 34.6545 279.806 34.5858 280.087 34.457C283.985 32.6037 287.893 30.7504 291.801 28.9072C293.003 28.3424 294.196 27.7675 295.398 27.2126C295.658 27.0937 295.879 26.9347 296.03 26.6753C296.907 25.1091 297.804 23.5429 298.68 21.9667C298.761 21.827 298.902 21.6976 298.812 21.5072L298.833 21.4873Z" fill="#243263"/>
<path d="M292.667 32.3709C292.447 32.3399 292.287 32.4892 292.116 32.5885C288.186 34.8716 284.256 37.1648 280.327 39.4479C279.545 39.9046 278.743 40.3412 277.971 40.8278C277.509 41.1159 277.009 41.1537 276.499 41.1815C274.398 41.3125 272.298 41.4135 270.197 41.5345C267.887 41.6746 265.586 41.8147 263.276 41.9548C262.085 42.0296 260.895 42.0945 259.705 42.1694C259.575 42.1689 259.444 42.2083 259.304 42.2077C258.984 42.2263 258.844 42.3957 258.802 42.7056C258.698 43.6851 258.564 44.6646 258.45 45.6341C258.367 46.2937 258.284 46.9534 258.211 47.6031C258.149 48.1928 258.189 48.233 258.759 48.2154C261.349 48.1365 263.949 48.0777 266.54 47.9688C268.38 47.8967 270.21 47.8446 272.051 47.7625C273.241 47.7076 274.441 47.7328 275.631 47.6279C275.991 47.5994 276.282 47.4607 276.573 47.2719C279.12 45.5928 281.677 43.9238 284.235 42.2547C285.628 41.3407 287.022 40.4267 288.426 39.5227C288.767 39.3042 289.038 39.0353 289.24 38.6762C290.328 36.7209 291.437 34.7856 292.535 32.8303C292.616 32.6906 292.756 32.5612 292.667 32.3509L292.667 32.3709Z" fill="#243263"/>
<path d="M363.515 30.4546C365.249 31.812 366.983 33.1595 368.707 34.5169C372.933 37.8451 377.149 41.1832 381.374 44.5214C387.494 49.3577 393.623 54.204 399.742 59.0404C402.642 61.3328 405.543 63.6153 408.433 65.9177C408.752 66.1691 409.002 66.1802 409.352 66.0117C412.559 64.4554 415.766 62.9092 418.972 61.3729C420.957 60.4215 422.941 59.47 424.915 58.5284C425.175 58.4096 425.436 58.3207 425.726 58.2619C432.031 57.079 438.346 55.8861 444.651 54.6931C445.182 54.5954 445.342 54.6461 445.465 53.8866C446.102 49.8493 446.77 45.8121 447.437 41.785C447.991 38.3873 448.566 34.9898 449.121 31.5921C449.603 28.6442 450.086 25.6862 450.569 22.7382C450.856 20.9595 451.144 19.1907 451.441 17.4119C451.472 17.2221 451.503 17.0422 451.484 16.8521L445.114 16.8248C444.952 17.2341 444.88 17.6538 444.838 18.0936C444.734 19.1832 444.589 20.2725 444.464 21.362C444.288 22.8813 444.101 24.4005 443.915 25.9297C443.738 27.429 443.572 28.9383 443.395 30.4375C443.219 31.9568 443.032 33.476 442.846 35.0052C442.669 36.5045 442.503 38.0138 442.327 39.513C442.14 41.0922 441.953 42.6714 441.766 44.2507C441.6 45.7 441.444 47.1493 441.258 48.5885C441.154 49.4181 441.144 49.418 440.343 49.6146C435.368 50.8132 430.403 52.0219 425.428 53.2106C424.837 53.3581 424.276 53.5556 423.725 53.8333C419.496 55.9351 415.267 58.017 411.048 60.1189C410.637 60.3272 410.347 60.3259 409.978 60.0243C408.354 58.6873 406.699 57.3802 405.065 56.0632C398.996 51.1871 392.927 46.301 386.858 41.4249C380.051 35.9556 373.245 30.4863 366.428 25.017C365.471 24.2429 364.535 23.4389 363.528 22.7246C363.517 25.3045 363.506 27.8845 363.495 30.4545L363.515 30.4546Z" fill="#243263"/>
<path d="M497.533 17.051C496.656 18.6472 495.779 20.2335 494.903 21.8297C492.947 25.3614 490.982 28.8829 489.017 32.4045C487.062 35.9162 485.107 39.4178 483.152 42.9295C481.187 46.4511 479.232 49.9827 477.266 53.5043C475.291 57.0458 473.326 60.5874 471.351 64.129C471.109 64.558 470.877 64.987 470.635 65.4159C470.363 65.9048 470.353 65.9147 470.751 66.2864C471.927 67.3915 473.102 68.4865 474.277 69.5916C475.492 70.7268 476.758 71.8223 477.933 73.0073C479.586 74.6744 481.5 75.9927 483.394 77.3508C484.87 78.4072 486.365 79.4536 487.83 80.5299C488.249 80.8317 488.669 80.9635 489.189 80.9857C492.158 81.1085 495.138 81.0513 498.108 81.134C499.398 81.1696 500.678 81.1951 501.968 81.2306C502.348 81.2322 502.648 81.1235 502.939 80.8648C506.884 77.3417 510.829 73.8386 514.785 70.3255C517.234 68.146 519.673 65.9565 522.123 63.777C525.305 60.9406 528.487 58.1142 531.679 55.2779C532.482 54.5614 533.256 53.7947 534.118 53.1484L534.156 44.3884C533.966 44.3776 533.846 44.4971 533.715 44.6166C533.384 44.9251 533.042 45.2337 532.721 45.5423C529.418 48.6981 526.124 51.854 522.82 55.0099C520.752 56.991 518.683 58.9621 516.615 60.9433C513.251 64.1689 509.877 67.3844 506.513 70.61C504.374 72.6509 502.236 74.6917 500.107 76.7426C499.826 77.0114 499.535 77.1301 499.145 77.0984C498.406 77.0253 497.676 76.9921 496.936 76.929C495.067 76.7809 493.197 76.6129 491.328 76.4749C490.778 76.4325 490.319 76.2905 489.88 75.9287C488.396 74.6923 486.871 73.4957 485.366 72.2892C482.356 69.8663 479.337 67.4533 476.327 65.0304C475.888 64.6785 475.888 64.6685 476.181 64.1697C477.722 61.5863 479.273 58.993 480.824 56.4096C486.062 47.672 491.309 38.9244 496.557 30.1869C499.044 26.0475 501.522 21.8981 504.01 17.7588C504.131 17.5493 504.292 17.35 504.253 17.0798C502.013 17.0702 499.783 17.0606 497.543 17.051L497.533 17.051Z" fill="#243263"/>
<path d="M516.184 17.1302L509.134 17.1C509.073 17.3897 508.902 17.619 508.751 17.8583C507.502 19.853 506.254 21.8377 505.005 23.8323C500.796 30.5443 496.587 37.2463 492.388 43.9583C488.27 50.5207 484.162 57.0931 480.044 63.6555C479.591 64.3736 479.591 64.3736 480.298 64.8966C483.787 67.4416 487.267 69.9966 490.766 72.5416C492.042 73.4771 491.642 73.4254 493.303 73.2625C493.363 73.2628 493.413 73.263 493.473 73.2633C495.453 73.1518 497.444 73.0303 499.424 72.9188C499.744 72.9002 500.005 72.8013 500.226 72.5622C500.678 72.0742 501.14 71.5962 501.602 71.1181C504.324 68.2998 507.056 65.4815 509.788 62.6632C512.46 59.9046 515.132 57.1361 517.814 54.3676C520.576 51.5094 523.349 48.6513 526.121 45.7932C528.692 43.1442 531.264 40.4852 533.835 37.8362C533.945 37.7267 534.036 37.6071 534.196 37.5678L534.228 30.0578C534.008 30.0969 533.868 30.2563 533.727 30.4057C532.953 31.2324 532.17 32.069 531.396 32.8957C529.307 35.1167 527.217 37.3378 525.118 39.5488C521.551 43.3235 517.985 47.0883 514.419 50.863C512.54 52.8449 510.672 54.8269 508.793 56.8089C505.599 60.1952 502.394 63.5815 499.21 66.9878C498.798 67.4261 498.357 67.6042 497.777 67.6417C496.226 67.735 494.676 67.8484 493.135 68.0118C492.685 68.0598 492.335 67.9783 491.976 67.7268C490.032 66.3784 488.068 65.05 486.114 63.7116C485.406 63.2285 485.485 63.2789 485.928 62.6308C489.541 57.2262 493.145 51.8216 496.758 46.4271C500.623 40.6436 504.488 34.8702 508.352 29.0867C510.848 25.3574 513.345 21.6181 515.841 17.8888C516.002 17.6495 516.183 17.4302 516.214 17.1304L516.184 17.1302Z" fill="#243263"/>
<path d="M440.564 16.8063C438.704 16.7983 436.854 16.7904 434.994 16.7824C434.892 17.242 434.86 17.7218 434.838 18.1917C434.805 18.9116 434.742 19.6313 434.689 20.3411C434.583 21.7607 434.467 23.1702 434.361 24.5897C434.265 25.8393 434.18 27.079 434.085 28.3286C433.979 29.6882 433.863 31.0477 433.757 32.4072C433.662 33.7068 433.586 35.0165 433.48 36.3161C433.342 38.1455 433.175 39.9748 433.047 41.8043C432.993 42.604 433.084 42.5444 432.233 42.7608C430.08 43.3015 427.928 43.8223 425.786 44.3831C424.855 44.6291 423.894 44.775 422.992 45.1411C421.96 45.5567 420.938 46.0323 419.917 46.4779C417.231 47.6564 414.536 48.8249 411.851 50.0133C411.541 50.152 411.341 50.1112 411.102 49.8901C410.484 49.3075 409.837 48.7447 409.209 48.172C407.297 46.4438 405.384 44.7155 403.471 42.9973C400.772 40.5657 398.072 38.1341 395.363 35.6924C393.42 33.9441 391.488 32.1858 389.545 30.4374C386.856 28.0158 384.166 25.5943 381.486 23.1727C379.444 21.3339 377.402 19.5052 375.37 17.6564C374.981 17.3047 374.523 17.0128 374.255 16.5416L364.245 16.4986C364.144 16.7382 364.313 16.8389 364.463 16.9696C365.22 17.6228 365.977 18.2861 366.744 18.9394C370.49 22.1655 374.237 25.3916 377.983 28.6177C381.48 31.6328 384.977 34.6578 388.484 37.6729C391.971 40.6779 395.458 43.6729 398.945 46.6779C402.423 49.6729 405.89 52.6678 409.357 55.6627C409.666 55.934 409.926 55.9951 410.316 55.8168C413.833 54.2119 417.35 52.627 420.877 51.0421C421.648 50.6954 422.4 50.2786 423.231 50.0622C424.973 49.6097 426.715 49.1471 428.457 48.6946C431.24 47.9666 434.033 47.2485 436.817 46.5105C437.457 46.3432 437.447 46.3132 437.51 45.6635C437.594 44.7638 437.698 43.8542 437.792 42.9546C437.938 41.6153 438.083 40.2859 438.219 38.9464C438.354 37.687 438.49 36.4276 438.625 35.1682C438.771 33.8288 438.907 32.4993 439.052 31.1599C439.188 29.9005 439.313 28.641 439.449 27.3816C439.594 26.0622 439.73 24.7528 439.876 23.4334C440.011 22.134 440.157 20.8346 440.292 19.5352C440.386 18.6356 440.47 17.7259 440.554 16.8263L440.564 16.8063Z" fill="#243263"/>
<path d="M523.913 17.164C523.64 17.7328 523.208 18.191 522.836 18.6894C519.527 23.0752 516.218 27.461 512.909 31.8469C505.99 41.0073 499.081 50.1777 492.161 59.338C491.839 59.7633 491.901 60.1369 492.346 60.4589C492.835 60.811 493.333 61.1631 493.822 61.5252C494.081 61.7163 494.341 61.8074 494.661 61.7688C495.711 61.6233 496.762 61.4878 497.813 61.3523C498.123 61.3137 498.334 61.1546 498.524 60.9354C500.936 58.2857 503.347 55.636 505.749 52.9863C508.683 49.7589 511.606 46.5314 514.54 43.314C516.861 40.7639 519.192 38.2239 521.513 35.6738C524.829 32.028 528.134 28.3822 531.45 24.7364C532.214 23.8997 532.977 23.053 533.751 22.2163C533.902 22.0469 534.082 21.9077 534.243 21.7484L534.263 17.1984L523.913 17.154L523.913 17.164Z" fill="#243263"/>
<path d="M390.415 16.5901L380.865 16.5491C380.914 16.8393 381.123 17.0002 381.312 17.181C383.543 19.3706 385.784 21.5502 388.014 23.7398C390.345 26.0198 392.675 28.2999 395.005 30.5799C397.744 33.2617 400.472 35.9334 403.201 38.6152C405.72 41.086 408.24 43.5368 410.749 46.0176C411.097 46.3691 411.387 46.4104 411.838 46.2323C414.883 45.0154 417.928 43.8184 420.974 42.6115C421.324 42.473 421.685 42.3545 422.055 42.2661C424.688 41.6374 427.321 41.0087 429.953 40.38C430.964 40.1344 430.834 40.1838 430.838 39.2638C430.866 32.8639 430.873 26.4539 430.801 20.0535C430.785 18.9534 430.78 17.8534 430.775 16.7533C428.535 16.7437 426.305 16.7342 424.065 16.7245C424.064 17.0045 424.052 17.2945 424.061 17.5745C424.155 18.9949 424.259 20.4054 424.343 21.8258C424.437 23.2962 424.5 24.7765 424.584 26.2468C424.705 28.2274 424.847 30.208 424.968 32.1886C425.062 33.719 425.135 35.2493 425.219 36.7797C425.247 37.2598 425.237 37.2898 424.766 37.3677C422.565 37.7483 420.363 38.1288 418.161 38.4994C417.821 38.5579 417.501 38.6366 417.18 38.7652C415.798 39.3292 414.405 39.8733 413.023 40.4473C412.702 40.576 412.513 40.5352 412.284 40.2842C411.537 39.451 410.781 38.6277 410.024 37.8144C406.232 33.7181 402.429 29.6118 398.637 25.5154C396.696 23.4171 394.735 21.3387 392.804 19.2303C391.998 18.3469 391.141 17.5132 390.405 16.58L390.415 16.5901Z" fill="#243263"/>
<path d="M456.934 16.876C456.637 18.4948 456.35 20.1135 456.053 21.7323C455.367 25.4394 454.671 29.1364 453.985 32.8435C453.463 35.6313 452.931 38.419 452.419 41.2169C451.661 45.2936 450.904 49.3704 450.146 53.4372C450.013 54.1467 449.87 54.846 449.737 55.5555C449.655 56.0351 449.695 56.1153 450.175 56.2274C451.353 56.5024 452.532 56.7675 453.721 57.0326C454.221 57.1447 454.71 57.2969 455.179 57.4889C458.743 58.9842 462.306 60.4695 465.88 61.9549C466.589 62.2479 466.589 62.2479 466.952 61.5694C470.742 54.4657 474.533 47.3619 478.313 40.258C480.37 36.3968 482.437 32.5357 484.493 28.6845C486.419 25.0727 488.354 21.471 490.28 17.8592C490.421 17.5998 490.612 17.3406 490.593 17.0205C488.853 17.0131 487.103 17.0056 485.363 16.9981C485.293 17.1678 485.222 17.3475 485.141 17.5171C483.587 20.7005 482.034 23.8839 480.47 27.0672C477.958 32.1864 475.446 37.3057 472.934 42.425C470.674 47.0353 468.404 51.6456 466.145 56.2559C466.044 56.4555 465.953 56.6651 465.852 56.8747C465.66 57.2639 465.64 57.2638 465.241 57.1521C465.171 57.1318 465.101 57.1115 465.021 57.0811C462.514 56.2603 460.018 55.4496 457.511 54.6289C457.132 54.5072 456.752 54.3956 456.353 54.3339C455.533 54.2004 454.714 54.0568 453.884 53.9233C453.615 53.8821 453.505 53.7816 453.596 53.512C453.617 53.4421 453.627 53.3622 453.637 53.2922C454.667 48.6166 455.697 43.931 456.727 39.2553C458.196 32.6016 459.665 25.9378 461.113 19.284C461.287 18.4947 461.54 17.7158 461.573 16.8959C460.024 16.8893 458.464 16.8826 456.914 16.8759L456.934 16.876Z" fill="#243263"/>
<path d="M481.954 16.9836C480.364 16.9768 478.774 16.97 477.174 16.9631C475.882 19.9176 474.599 22.8621 473.306 25.8166C470.751 31.6657 468.186 37.5047 465.631 43.3538C465.247 44.2422 464.863 45.1205 464.47 46.0088C464.389 46.1885 464.338 46.4383 464.048 46.387C463.318 46.2539 462.599 46.1108 461.87 45.9677C461.66 45.9268 461.601 45.7765 461.661 45.5768C461.692 45.4669 461.722 45.357 461.763 45.2472C462.371 43.3498 462.969 41.4624 463.577 39.5649C465.909 32.2549 468.24 24.9548 470.571 17.6448C470.642 17.4151 470.743 17.1855 470.694 16.9253C468.874 16.9175 467.054 16.9097 465.235 16.9019C465.204 17.0717 465.183 17.2416 465.142 17.4015C464.094 21.747 463.045 26.0925 461.986 30.428C460.378 37.0712 458.769 43.7143 457.161 50.3575C457.12 50.5273 457.079 50.6872 457.049 50.857C456.967 51.2667 457.007 51.3268 457.376 51.4384C457.446 51.4587 457.526 51.4691 457.596 51.4894C459.814 51.9989 462.022 52.5184 464.239 53.0379C464.829 53.1804 464.839 53.1805 465.101 52.6216C466.251 50.2265 467.392 47.8414 468.532 45.4463C471.801 38.5902 475.061 31.7242 478.32 24.8681C479.471 22.453 480.611 20.0479 481.762 17.6328C481.862 17.4232 481.973 17.2237 481.944 16.9836L481.954 16.9836Z" fill="#243263"/>
<path d="M399.283 16.6289C399.292 16.869 399.432 17.0496 399.571 17.2402C402.245 20.9617 404.919 24.6832 407.593 28.4047C409.293 30.7721 411.003 33.1294 412.692 35.5167C412.971 35.9079 413.23 35.999 413.691 35.901C416.073 35.3712 418.465 34.8815 420.857 34.3717C420.897 34.3719 420.928 34.362 420.968 34.3522C421.528 34.2246 421.578 34.1648 421.521 33.5746C421.444 32.7842 421.358 31.9939 421.271 31.2035C421.108 29.6428 420.934 28.082 420.771 26.5213C420.608 24.9806 420.434 23.4398 420.271 21.8991C420.146 20.7186 420.031 19.5281 419.886 18.3474C419.819 17.8071 419.851 17.2473 419.643 16.7264L413.953 16.7019C413.862 16.9315 413.931 17.1518 413.99 17.3721C414.777 20.4155 415.554 23.4589 416.331 26.5022C416.705 27.9538 417.069 29.3954 417.433 30.847C417.541 31.2675 417.501 31.3073 417.061 31.2754C416.421 31.2327 415.761 31.1398 415.131 31.1771C414.181 31.243 413.843 30.7316 413.496 29.9801C411.435 25.5312 409.324 21.1021 407.233 16.6631C404.583 16.6517 401.923 16.6403 399.273 16.6289L399.283 16.6289Z" fill="#243263"/>
<path d="M587.392 17.4473C587.371 17.7572 587.57 17.978 587.709 18.2186C590.369 22.7201 593.03 27.2216 595.701 31.7231C600.933 40.5556 606.155 49.3981 611.387 58.2407C612.31 59.8046 613.244 61.3687 614.157 62.9426C614.336 63.2534 614.575 63.4544 614.904 63.5858C619.766 65.6067 624.627 67.6376 629.488 69.6685C629.848 69.82 630.197 69.8715 630.588 69.7732C631.929 69.449 633.281 69.1248 634.632 68.8506C635.122 68.7527 635.433 68.504 635.705 68.1052C637.275 65.8519 638.854 63.5986 640.424 61.3554C642.457 58.4541 644.469 55.5327 646.531 52.6515C647.014 51.9736 647.247 51.2646 647.311 50.4548C647.49 48.3456 647.699 46.2365 647.888 44.1272C648.024 42.6378 648.141 41.1483 648.287 39.6589C648.424 38.1695 648.58 36.6801 648.726 35.1908C648.863 33.7013 648.989 32.2119 649.126 30.7224C649.262 29.233 649.418 27.7437 649.555 26.2542C649.691 24.7848 649.817 23.3153 649.954 21.8459C650.048 20.7863 650.153 19.7367 650.257 18.6772C650.289 18.3573 650.32 18.0374 650.271 17.7172L641.632 17.6801C641.608 18.61 641.664 19.5403 641.68 20.4604C641.729 22.9406 641.678 25.4204 641.758 27.9108C641.838 30.2411 641.788 32.5709 641.838 34.9012C641.904 37.9715 641.881 41.0414 641.938 44.1117C641.962 45.6418 641.945 47.1818 641.998 48.712C642.016 49.1921 641.945 49.5818 641.673 49.9806C639.801 52.6526 637.95 55.3347 636.098 58.0168C634.71 60.0308 633.311 62.0348 631.912 64.0388C631.58 64.5174 631.56 64.5173 631.031 64.3251C629.693 63.8393 628.365 63.3436 627.027 62.8579C624.072 61.7752 621.127 60.6825 618.171 59.6098C617.872 59.4985 617.642 59.3375 617.504 59.0369C617.425 58.8666 617.315 58.7061 617.226 58.5457C614.397 53.5935 611.568 48.6414 608.73 43.6891C605.484 38.0151 602.238 32.3411 599.003 26.6572C597.256 23.5997 595.509 20.5321 593.762 17.4746C591.642 17.4655 589.512 17.4564 587.392 17.4473Z" fill="#243263"/>
<path d="M545.064 75.0353C545.514 75.2373 545.994 75.1993 546.463 75.2513C549.092 75.5626 551.731 75.844 554.37 76.1353C556.969 76.4264 559.557 76.7376 562.156 77.0287C564.795 77.3301 567.424 77.6113 570.062 77.9027C572.661 78.1938 575.25 78.505 577.849 78.7961C580.487 79.0974 583.116 79.3787 585.755 79.6701C588.693 80.0027 591.622 80.3453 594.561 80.6879C595.99 80.854 597.419 81.0002 598.849 81.1763C599.268 81.2281 599.559 81.0893 599.84 80.7805C601.679 78.7584 603.528 76.7563 605.376 74.7543C607.084 72.9016 608.792 71.0489 610.5 69.1962C610.842 68.8277 610.842 68.7877 610.574 68.3665C609.759 67.113 608.944 65.8595 608.13 64.606C603.977 58.2381 599.834 51.8703 595.682 45.5024C591.35 38.8537 587.019 32.1951 582.687 25.5464C580.919 22.8288 579.151 20.1112 577.392 17.3936C574.512 17.3812 571.632 17.3689 568.752 17.3565C568.771 17.7066 569.01 17.9376 569.199 18.1984C570.58 20.1244 571.972 22.0404 573.354 23.9563C579.438 32.3925 585.522 40.8287 591.616 49.2649C595.83 55.1031 600.045 60.9412 604.26 66.7794C604.579 67.2208 604.578 67.2308 604.217 67.6292C602.679 69.3326 601.142 71.026 599.595 72.7294C598.55 73.8849 597.505 75.0305 596.46 76.176C596.299 76.3553 596.139 76.4646 595.869 76.4235C594.01 76.1755 592.151 75.9475 590.292 75.6995C588.023 75.4098 585.744 75.11 583.476 74.8202C581.207 74.5305 578.928 74.2407 576.659 73.941C574.331 73.641 572.002 73.341 569.673 73.041C567.414 72.7513 565.166 72.4616 562.917 72.1719C560.628 71.8721 558.339 71.5823 556.041 71.2824C554.032 71.0238 552.023 70.7652 550.014 70.5065C548.385 70.2995 546.746 70.0925 545.106 69.8955C545.099 71.6054 545.092 73.3054 545.084 75.0154L545.064 75.0353Z" fill="#243263"/>
<path d="M550.772 17.291L545.312 17.2676C545.306 18.8176 545.299 20.3775 545.292 21.9275C545.452 22.0882 545.621 22.2489 545.78 22.4096C553.806 30.4642 561.821 38.5187 569.847 46.5832C574.557 51.3134 579.256 56.0437 583.956 60.7739C584.095 60.9145 584.275 61.0253 584.334 61.2455C584.124 61.3146 583.974 61.204 583.814 61.1633C578.531 59.7206 573.257 58.2679 567.973 56.8152C561.45 55.0272 554.928 53.2292 548.406 51.4512C547.327 51.1565 546.258 50.822 545.169 50.5973C545.16 52.7173 545.151 54.8472 545.142 56.9672C552.235 58.5777 559.328 60.1881 566.421 61.7986C571.986 63.0625 577.541 64.3264 583.105 65.5903C584.894 65.998 586.692 66.4057 588.48 66.8134C588.973 66.9221 589.357 66.7705 589.632 66.3583C590.075 65.6902 590.508 65.0321 590.941 64.3639C591.283 63.8454 591.283 63.8354 590.855 63.3435C589.969 62.3297 589.084 61.3159 588.208 60.3021C586.138 57.9332 584.078 55.5544 582.009 53.1855C579.929 50.7965 577.849 48.4176 575.769 46.0386C573.192 43.0775 570.625 40.1165 568.047 37.1654C565.699 34.4653 563.34 31.7751 560.982 29.075C558.295 25.9934 555.598 22.9118 552.922 19.8203C552.205 18.9872 551.439 18.2039 550.792 17.3111L550.772 17.291Z" fill="#243263"/>
<path d="M657.563 17.7475C657.306 19.3764 657.049 21.0053 656.792 22.6242C656.381 25.1425 655.96 27.6707 655.55 30.189C655.18 32.4474 654.8 34.7058 654.43 36.9642C653.979 39.7323 653.537 42.4905 653.085 45.2585C652.807 46.9774 652.52 48.6961 652.243 50.415C652.15 51.0146 652.14 51.0245 652.739 51.2171C654.607 51.8351 656.484 52.4532 658.361 53.0413C659.7 53.467 660.987 53.9825 662.224 54.6779C664.2 55.7964 666.215 56.855 668.221 57.9336C668.57 58.1151 668.829 58.3663 669.057 58.6772C669.793 59.7304 670.558 60.7737 671.284 61.8368C671.562 62.248 671.891 62.3994 672.372 62.3815C673.542 62.3465 674.722 62.3016 675.892 62.2966C680.172 62.285 684.452 62.2734 688.732 62.1917C691.313 62.1428 693.882 62.2039 696.463 62.1149C699.113 62.0263 701.773 62.1177 704.423 62.0291C707.004 61.9502 709.573 62.0212 712.154 61.9523C713.384 61.9176 714.614 61.9329 715.844 61.8681L715.878 53.9082C715.628 53.9071 715.388 53.8861 715.138 53.905C714.098 53.9706 713.058 54.0461 712.017 54.1116C710.887 54.1868 709.747 54.2619 708.616 54.337C706.676 54.4687 704.725 54.6003 702.785 54.742C701.574 54.8268 700.364 54.9016 699.154 54.9864C697.283 55.1184 695.412 55.2504 693.542 55.3723C692.241 55.4567 690.931 55.5311 689.631 55.6255C687.69 55.7572 685.739 55.8888 683.799 56.0305C682.548 56.1151 681.308 56.1998 680.058 56.2844C678.717 56.3787 677.377 56.4629 676.036 56.5672C675.666 56.5956 675.337 56.4942 675.008 56.3228C672.364 54.8914 669.72 53.44 667.046 52.0485C663.873 50.3949 660.589 48.9508 657.366 47.3969C656.747 47.0943 656.737 47.1042 656.9 46.4149C658.193 41.0404 659.496 35.666 660.789 30.2915C661.736 26.3755 662.683 22.4495 663.63 18.5336C663.691 18.2738 663.762 18.0241 663.693 17.7538C661.643 17.745 659.603 17.7363 657.553 17.7275L657.563 17.7475Z" fill="#243263"/>
<path d="M563.282 17.3447L556.682 17.3164C556.561 17.5859 556.781 17.7468 556.91 17.9074C557.586 18.7503 558.263 19.5932 558.949 20.4262C561.834 23.9886 564.718 27.561 567.593 31.1234C571.711 36.2211 575.839 41.3189 579.968 46.4166C582.216 49.2063 584.474 51.986 586.722 54.7757C589.557 58.2879 592.392 61.7901 595.227 65.3023C595.505 65.6435 595.515 65.7136 595.244 66.0424C594.268 67.2282 593.283 68.404 592.308 69.5898C592.127 69.8091 591.937 69.8582 591.667 69.8071C590.568 69.5824 589.469 69.3776 588.38 69.173C582.255 67.9966 576.14 66.8204 570.015 65.6441C565.069 64.6928 560.123 63.7316 555.167 62.7803C551.82 62.1359 548.473 61.4816 545.125 60.8372C545.117 62.7372 545.109 64.6271 545.101 66.5271C545.261 66.5678 545.431 66.6285 545.59 66.6492C546.49 66.7831 547.389 66.907 548.289 67.0408C552.816 67.7203 557.353 68.4197 561.88 69.0992C567.107 69.8816 572.333 70.6641 577.56 71.4465C583.137 72.2805 588.723 73.1145 594.299 73.9684C594.689 74.0301 594.93 73.9411 595.171 73.6222C596.861 71.3794 598.57 69.1567 600.26 66.9239C600.592 66.4854 600.592 66.4754 600.264 66.0439C598.663 63.9471 597.061 61.8602 595.47 59.7633C588.51 50.6333 581.549 41.4934 574.588 32.3634C570.929 27.5576 567.259 22.7519 563.6 17.9461C563.461 17.7655 563.311 17.5949 563.272 17.3547L563.282 17.3447Z" fill="#243263"/>
<path d="M606.042 17.5273C603.802 17.5177 601.572 17.5081 599.332 17.4985C599.321 17.7785 599.46 18.0091 599.579 18.2396C600.61 20.304 601.652 22.3785 602.673 24.4429C605.835 30.8266 608.998 37.2102 612.171 43.5939C614.124 47.5323 616.087 51.4608 618.04 55.3992C618.179 55.6698 618.318 55.9204 618.607 56.0816C620.772 57.3309 622.936 58.5802 625.101 59.8395C625.36 59.9907 625.61 60.0717 625.91 60.033C627.491 59.8698 629.072 59.6766 630.652 59.5534C631.182 59.5056 631.503 59.277 631.795 58.8583C634.019 55.7578 636.242 52.6773 638.485 49.5969C638.726 49.2679 638.818 48.9183 638.76 48.5281C638.692 47.9978 638.694 47.4678 638.686 46.9377C638.652 45.5376 638.618 44.1374 638.564 42.7372C638.484 40.4668 638.364 38.1963 638.304 35.926C638.252 34.0758 638.17 32.2154 638.108 30.3651C638.037 28.1648 637.966 25.9745 637.886 23.7741C637.832 22.2739 637.809 20.7837 637.755 19.2835C637.737 18.7334 637.68 18.1832 637.642 17.643C636.052 17.6362 634.462 17.6293 632.862 17.6225C632.861 18.0225 632.829 18.4223 632.857 18.8125C632.991 20.243 632.935 21.6928 632.999 23.1231C633.1 25.2436 633.14 27.3638 633.201 29.484C633.272 31.7544 633.322 34.0246 633.412 36.295C633.484 38.1353 633.496 39.9654 633.538 41.8056C633.538 41.9356 633.557 42.0657 633.557 42.2057C633.61 43.7159 633.654 45.2361 633.717 46.7464C633.726 47.0065 633.645 47.2161 633.454 47.4053C631.365 49.5163 629.276 51.6374 627.177 53.7484C626.856 54.067 626.846 54.067 626.457 53.8253C624.661 52.7276 622.876 51.6199 621.081 50.5222C620.772 50.3309 620.583 50.09 620.434 49.7694C618.067 44.4592 615.69 39.1489 613.322 33.8387C611.48 29.7008 609.638 25.5728 607.786 21.4348C607.201 20.1223 606.597 18.8097 606.003 17.5072L606.042 17.5273Z" fill="#243263"/>
<path d="M715.872 50.5184L715.901 43.6985C715.562 43.577 715.222 43.6756 714.891 43.7242C713.41 43.9178 711.93 44.1314 710.449 44.3251C707.647 44.6731 704.846 45.011 702.044 45.359C698.382 45.8133 694.72 46.2776 691.058 46.7419C687.616 47.1671 684.184 47.5924 680.743 48.0276C680.462 48.0664 680.233 48.0254 679.993 47.8644C679.056 47.2503 678.108 46.6563 677.181 46.0323C674.04 43.9488 670.849 41.9451 667.516 40.1607C666.718 39.7373 666.777 39.8876 667.131 39.0191C669.89 32.2309 672.659 25.4427 675.419 18.6445C675.53 18.3849 675.671 18.1255 675.632 17.8354C673.472 17.8261 671.312 17.8168 669.152 17.8075C669.101 17.9673 669.061 18.1372 669.01 18.2969C667.247 23.6994 665.484 29.1019 663.72 34.5044C662.889 37.0608 662.048 39.6172 661.217 42.1737C661.025 42.7729 661.025 42.7829 661.564 43.0552C663.16 43.8421 664.777 44.599 666.364 45.3958C667.601 46.0111 668.869 46.5566 670.015 47.3515C672.259 48.9312 674.542 50.461 676.805 52.0207C677.134 52.2421 677.464 52.3535 677.864 52.3353C678.474 52.3079 679.074 52.2705 679.674 52.243C681.645 52.1515 683.615 52.1 685.576 51.9884C686.446 51.9421 687.316 51.9258 688.186 51.8796C690.737 51.7605 693.287 51.6215 695.848 51.5025C697.848 51.4111 699.858 51.3597 701.859 51.2483C702.669 51.2018 703.489 51.1853 704.299 51.1488C706.15 51.0567 708 50.9546 709.861 50.8726C711.681 50.7904 713.491 50.7182 715.312 50.646C715.502 50.6468 715.692 50.6177 715.862 50.5284L715.872 50.5184Z" fill="#243263"/>
<path d="M690.881 17.8919L681.671 17.8523C681.65 18.0822 681.529 18.2817 681.429 18.4813C681.106 19.0999 680.783 19.7285 680.461 20.3471C677.748 25.6855 675.045 31.024 672.332 36.3624C672.221 36.5819 672.11 36.8014 671.989 37.0209C671.848 37.2603 671.907 37.4506 672.126 37.6115C672.266 37.7121 672.395 37.8227 672.525 37.9332C675.226 40.0349 677.947 42.1366 680.638 44.2581C681.017 44.5598 681.377 44.5513 681.797 44.4731C686.891 43.495 691.985 42.5368 697.09 41.5687C702.914 40.4637 708.739 39.3587 714.554 38.2437C715.014 38.1557 715.495 38.1277 715.925 37.9096L715.962 29.4896C715.712 29.4786 715.481 29.5776 715.251 29.6466C712.017 30.6727 708.792 31.6989 705.568 32.7251C699.099 34.7973 692.62 36.8695 686.151 38.9417C685.38 39.1884 684.599 39.4251 683.828 39.6818C683.547 39.7706 683.337 39.7597 683.108 39.5487C681.515 38.0418 679.901 36.5449 678.307 35.038C677.969 34.7166 677.979 34.7066 678.26 34.3378C680.342 31.6667 682.433 28.9957 684.525 26.3246C686.556 23.7233 688.577 21.132 690.608 18.5307C690.759 18.3413 690.95 18.1622 690.911 17.882L690.881 17.8919Z" fill="#243263"/>
<path d="M615.823 17.5696L610.133 17.5452C610.102 17.845 610.241 18.0956 610.35 18.3561C612.447 23.4952 614.555 28.6243 616.653 33.7533C618.316 37.8205 619.989 41.8777 621.641 45.9448C621.77 46.2654 621.959 46.4762 622.248 46.6575C623.515 47.3829 624.762 48.1383 626.019 48.8737C626.378 49.0852 626.747 49.2868 627.096 49.5083C627.305 49.6392 627.446 49.5898 627.547 49.3802C627.607 49.2605 627.668 49.1407 627.728 49.021C628.424 47.614 629.1 46.1969 629.816 44.7899C630.088 44.2711 630.201 43.7416 630.183 43.1615C630.143 40.9313 630.082 38.691 629.992 36.4606C629.937 35.2304 629.943 34.0004 629.908 32.7702C629.839 30.1999 629.78 27.6196 629.701 25.0493C629.64 23.029 629.618 20.9989 629.567 18.9786C629.559 18.5286 629.491 18.0783 629.463 17.6182C627.193 17.6084 624.913 17.5986 622.643 17.5889C622.659 18.499 622.805 19.3996 622.881 20.2999C622.996 21.5404 623.141 22.7811 623.265 24.0316C623.39 25.2722 623.505 26.5127 623.639 27.7633C623.802 29.384 623.975 31.0047 624.138 32.6154C624.273 33.916 624.407 35.2166 624.542 36.5072C624.571 36.7473 624.58 36.9974 624.599 37.2475C624.608 37.4875 624.726 37.728 624.635 38.0776C624.536 37.8672 624.486 37.767 624.447 37.6668C621.882 31.7157 619.308 25.7746 616.753 19.8236C616.436 19.0723 616.05 18.3506 615.833 17.5696L615.823 17.5696Z" fill="#243263"/>
<path d="M699.071 17.926C698.93 18.1554 698.729 18.3245 698.538 18.5137C695.405 21.5703 692.272 24.6168 689.129 27.6634C687.211 29.5252 685.293 31.3769 683.375 33.2287C683.074 33.5174 683.063 33.5874 683.392 33.8488C684.329 34.6228 685.276 35.3769 686.203 36.1509C686.491 36.4021 686.732 36.3232 687.023 36.1544C689.088 34.9933 691.162 33.8522 693.227 32.701C697.187 30.508 701.136 28.3049 705.096 26.1119C708.574 24.1768 712.042 22.2517 715.521 20.3166C715.681 20.2273 715.842 20.118 716.012 20.0287L716.021 17.9787L699.081 17.906L699.071 17.926Z" fill="#243263"/>
<path d="M545.194 45.0067C553.284 47.4714 561.363 49.9461 569.493 52.4211C569.534 52.1112 569.334 52.0204 569.215 51.8999C568.299 51.0559 567.372 50.2119 566.446 49.3779C564.762 47.8507 563.079 46.3335 561.395 44.8062C558.925 42.5656 556.454 40.335 553.984 38.0943C551.982 36.2757 549.98 34.4571 547.967 32.6385C547.071 31.8246 546.164 31.0207 545.258 30.2168C545.237 35.1468 545.215 40.0767 545.194 44.9967L545.194 45.0067Z" fill="#243263"/>
<path d="M795.752 18.3409C795.391 18.7193 794.89 18.8872 794.439 19.1253C790.981 20.9704 787.513 22.7956 784.045 24.6407C779.164 27.2298 774.273 29.8288 769.392 32.4278C766.014 34.2234 762.626 36.0088 759.248 37.8044C754.768 40.1851 750.278 42.5659 745.798 44.9467C743.893 45.9585 741.979 46.9603 740.074 47.9821C739.844 48.1011 739.584 48.19 739.423 48.4093C739.472 48.6195 739.662 48.6604 739.801 48.741C742.076 49.9507 744.361 51.1406 746.626 52.3603C747.005 52.5619 747.305 52.5632 747.686 52.3648C751.875 50.1528 756.065 47.9508 760.254 45.7487C763.041 44.2907 765.827 42.8326 768.613 41.3646C773.204 38.9543 777.804 36.534 782.394 34.1137C785.04 32.725 787.696 31.3364 790.342 29.9378C795.294 27.339 800.235 24.7402 805.186 22.1414C807.261 21.0503 809.345 19.9593 811.43 18.8682C811.631 18.7591 811.841 18.67 811.892 18.4102L795.742 18.3408L795.752 18.3409Z" fill="#243263"/>
<path d="M726.958 42.6051C728.125 43.2301 729.323 43.8052 730.52 44.3804C730.819 44.5217 731.06 44.4627 731.32 44.3238C732.463 43.7287 733.605 43.1436 734.748 42.5485C737.374 41.1798 739.99 39.811 742.606 38.4522C748.619 35.328 754.643 32.1938 760.656 29.0696C767.04 25.747 773.435 22.4344 779.819 19.1118C780.09 18.973 780.35 18.8241 780.621 18.6852C780.791 18.596 780.962 18.4967 780.953 18.2667L763.663 18.1924C763.542 18.3519 763.372 18.4312 763.201 18.5204C761.337 19.4924 759.473 20.4745 757.609 21.4465C753.53 23.579 749.45 25.7115 745.371 27.844C740.149 30.5716 734.928 33.2892 729.706 36.0168C728.784 36.5028 727.842 36.9388 726.95 37.495L726.928 42.6149L726.958 42.6051Z" fill="#243263"/>
<path d="M822.253 18.4546C822.031 19.0337 822.068 19.6439 821.995 20.2435C821.829 21.7328 821.703 23.2223 821.546 24.7017C821.484 25.2314 821.562 25.6717 821.88 26.1331C827.873 34.8389 833.845 43.5646 839.828 52.2804C840.086 52.6515 840.335 53.0326 840.603 53.4037C840.832 53.7147 840.922 53.7251 841.163 53.4262C841.555 52.9378 841.937 52.4395 842.319 51.9511C843.375 50.5856 844.431 49.2201 845.487 47.8547C845.879 47.3463 845.879 47.3463 845.511 46.8248C843.534 43.9962 841.546 41.1777 839.568 38.3592C837.938 36.0321 836.308 33.7051 834.668 31.3781C833.932 30.3349 833.066 29.4112 832.24 28.4476C829.594 25.3262 826.927 22.2247 824.27 19.1033C824.101 18.9026 823.892 18.7217 823.843 18.4415L822.253 18.4346L822.253 18.4546Z" fill="#243263"/>
<path d="M897.663 41.6278C897.105 41.1854 896.698 40.6137 896.24 40.0817C893.195 36.6286 890.17 33.1556 887.135 29.7025C884.776 27.0124 882.408 24.3222 880.049 21.632C880.019 21.6019 879.999 21.5718 879.969 21.5517C879.581 21.14 879.561 21.1399 879.179 21.5483C877.924 22.9329 876.648 24.3174 875.402 25.7121C874.748 26.4393 874.829 26.2997 875.346 26.9619C879.702 32.5106 884.059 38.0394 888.415 43.5881C891.21 47.1502 894.004 50.7122 896.809 54.2643C897.038 54.5553 897.186 54.9359 897.596 55.0477L897.653 41.6278L897.663 41.6278Z" fill="#243263"/>
<path d="M829.641 18.4864C829.58 18.7961 829.789 18.977 829.948 19.1877C831.42 21.064 832.892 22.9404 834.364 24.8267C838.691 30.3453 843.017 35.864 847.343 41.3726C847.801 41.9546 848.258 42.5365 848.716 43.1185C849.084 43.5801 849.134 43.5803 849.516 43.1219C850.642 41.7367 851.758 40.3515 852.874 38.9663C853.115 38.6673 853.336 38.3683 853.587 38.0894C853.798 37.8503 853.809 37.6403 853.61 37.3895C853.272 36.958 852.954 36.5066 852.626 36.0752C848.41 30.4671 844.204 24.869 839.988 19.2608C839.819 19.0401 839.61 18.8292 839.531 18.5488L829.641 18.5064L829.641 18.4864Z" fill="#243263"/>
<path d="M844.201 18.5491C844.17 18.829 844.349 19.0097 844.499 19.2004C846.745 22.3201 848.992 25.4397 851.238 28.5594C852.74 30.6459 854.251 32.7424 855.752 34.8288C856.189 35.4307 856.199 35.4308 856.691 34.8829C858.118 33.289 859.535 31.6851 860.952 30.0811C861.294 29.6926 861.294 29.6626 860.956 29.2111C859.534 27.275 858.102 25.3388 856.671 23.4027C855.617 21.9681 854.553 20.5336 853.499 19.109C853.38 18.9385 853.23 18.7879 853.171 18.5776L844.191 18.5391L844.201 18.5491Z" fill="#243263"/>
<path d="M882.983 18.7151C882.952 18.955 883.091 19.1056 883.23 19.2662C885.151 21.4345 887.072 23.6027 888.992 25.771C891.351 28.4411 893.71 31.1013 896.068 33.7714C896.456 34.2131 896.844 34.6548 897.232 35.0864C897.362 35.227 897.481 35.3775 897.691 35.3784L897.743 23.2085C897.614 23.168 897.514 23.0875 897.414 22.9971C896.02 21.7011 894.625 20.4151 893.231 19.1191C893.121 19.0187 893.022 18.9082 892.983 18.7481L882.973 18.7051L882.983 18.7151Z" fill="#243263"/>
<path d="M727.02 27.9349C727.772 27.6481 728.414 27.1808 729.095 26.7838C733.737 24.0737 738.369 21.3435 743 18.6234C743.191 18.5142 743.501 18.4655 743.433 18.1152L727.053 18.0449L727.01 27.9348L727.02 27.9349Z" fill="#243263"/>
<path d="M857.733 18.6075C857.762 18.8476 857.901 19.0282 858.04 19.2088C859.701 21.3659 861.362 23.5231 863.022 25.6802C863.36 26.1217 863.41 26.1319 863.792 25.7235C865.831 23.5623 867.861 21.401 869.89 19.2397C870.041 19.0703 870.211 18.921 870.232 18.6711L857.723 18.6174L857.733 18.6075Z" fill="#243263"/>
<path d="M813.549 23.6371C813.58 23.5073 813.61 23.3574 813.501 23.2669C813.351 23.1563 813.211 23.2757 813.08 23.3451C811.767 24.0595 810.454 24.7839 809.141 25.5082C805.171 27.6912 801.202 29.8742 797.243 32.0572C793.293 34.2303 789.344 36.4033 785.395 38.5764C781.555 40.6899 777.726 42.7935 773.887 44.907C769.587 47.2686 765.287 49.6402 760.987 52.0017C759.082 53.0536 757.168 54.0953 755.263 55.1472C755.053 55.2563 754.722 55.3149 754.731 55.5949C754.74 55.8349 755.07 55.8664 755.27 55.9472C757.176 56.7954 759.083 57.6236 760.989 58.4818C761.368 58.6534 761.678 58.6448 762.049 58.4463C769.767 54.1994 777.496 49.9726 785.224 45.7357C792.371 41.8164 799.518 37.907 806.655 33.9876C808.619 32.9161 810.574 31.8244 812.538 30.7629C812.849 30.5942 813.04 30.405 813.062 30.0251C813.094 29.3852 813.187 28.7456 813.23 28.1058C813.346 26.6163 813.443 25.1267 813.549 23.6271L813.549 23.6371Z" fill="#243263"/>
<path d="M888.951 61.0906C889.111 61.0913 889.221 61.0218 889.341 60.9623C890.944 60.1892 892.548 59.4161 894.151 58.6429C894.682 58.3852 894.682 58.3552 894.324 57.8537C892.088 54.7541 889.821 51.6643 887.614 48.5348C885.835 46.0271 883.795 43.7284 881.845 41.36C879.02 37.9178 876.165 34.5055 873.319 31.0833C872.971 30.6618 872.613 30.2402 872.255 29.8187C871.896 29.3971 871.866 29.397 871.485 29.8154C870.832 30.5326 870.188 31.2498 869.545 31.9671C868.912 32.6744 868.279 33.3716 867.636 34.0689C867.174 34.5769 867.164 34.5969 867.612 35.0888C868.896 36.5143 870.18 37.9298 871.454 39.3453C873.902 42.0659 876.35 44.7764 878.779 47.5068C879.376 48.1894 879.883 48.9516 880.419 49.6839C883.074 53.2753 885.729 56.8768 888.383 60.4782C888.493 60.6287 888.612 60.7792 888.731 60.9297C888.791 61 888.861 61.0703 888.951 61.0606L888.951 61.0906Z" fill="#243263"/>
<path d="M820.766 31.5174C820.585 31.6467 820.604 31.8468 820.574 32.0266C820.345 33.9657 820.117 35.8947 819.869 37.8337C819.817 38.2734 819.975 38.5841 820.244 38.9053C823 42.2071 825.756 45.509 828.502 48.8108C829.118 49.5635 829.515 50.4452 830.001 51.2873C831.649 54.1444 833.266 57.0114 834.894 59.8784C835.222 60.4598 835.282 60.46 835.714 59.9419C836.418 59.0749 837.121 58.2079 837.825 57.3409C838.197 56.8825 838.197 56.8725 837.889 56.3512C835.526 52.401 833.173 48.4509 830.81 44.5007C830.343 43.7187 829.847 42.9565 829.42 42.1547C828.746 40.8818 827.8 39.8277 826.895 38.7338C824.995 36.4456 823.084 34.1674 821.174 31.8892C821.055 31.7487 820.986 31.5584 820.766 31.5174Z" fill="#243263"/>
<path d="M977.491 19.1221C977.129 19.5006 976.628 19.6684 976.177 19.9065C972.719 21.7517 969.251 23.5768 965.783 25.4219C960.902 28.011 956.011 30.61 951.13 33.2091C947.752 35.0046 944.364 36.7901 940.987 38.5856C936.506 40.9664 932.016 43.3471 927.536 45.7279C925.631 46.7397 923.717 47.7415 921.813 48.7634C921.582 48.8824 921.322 48.9713 921.161 49.1906C921.21 49.4008 921.4 49.4416 921.539 49.5222C923.814 50.732 926.099 51.9218 928.364 53.1415C928.743 53.3432 929.043 53.3445 929.424 53.1461C933.614 50.9341 937.803 48.732 941.993 46.53C944.779 45.0719 947.565 43.6139 950.351 42.1458C954.942 39.7355 959.542 37.3153 964.133 34.8949C966.779 33.5063 969.435 32.1177 972.081 30.719C977.032 28.1203 981.973 25.5214 986.924 22.9227C988.999 21.8316 991.084 20.7405 993.168 19.6495C993.369 19.5403 993.579 19.4512 993.63 19.1914L977.48 19.1221L977.491 19.1221Z" fill="#243263"/>
<path d="M908.696 43.3863C909.863 44.0113 911.061 44.5865 912.258 45.1616C912.558 45.3029 912.798 45.2439 913.059 45.1051C914.201 44.51 915.344 43.9249 916.486 43.3298C919.112 41.961 921.728 40.5922 924.344 39.2334C930.357 36.1092 936.381 32.9751 942.394 29.8509C948.779 26.5282 955.173 23.2157 961.557 19.893C961.828 19.7542 962.089 19.6053 962.359 19.4665C962.53 19.3772 962.7 19.2779 962.691 19.0479L945.401 18.9737C945.28 19.1332 945.11 19.2124 944.94 19.3017C943.076 20.2737 941.211 21.2557 939.347 22.2277C935.268 24.3602 931.189 26.4927 927.109 28.6252C921.888 31.3528 916.666 34.0704 911.444 36.798C910.522 37.2841 909.58 37.7201 908.688 38.2762L908.666 43.3962L908.696 43.3863Z" fill="#243263"/>
<path d="M1003.99 19.2359C1003.77 19.8149 1003.81 20.4251 1003.73 21.0248C1003.57 22.5141 1003.44 24.0036 1003.28 25.4829C1003.22 26.0126 1003.3 26.453 1003.62 26.9144C1009.61 35.6202 1015.58 44.3459 1021.57 53.0617C1021.82 53.4328 1022.07 53.8138 1022.34 54.185C1022.57 54.496 1022.66 54.5064 1022.9 54.2074C1023.29 53.7191 1023.68 53.2207 1024.06 52.7323C1025.11 51.3669 1026.17 50.0014 1027.23 48.6359C1027.62 48.1276 1027.62 48.1276 1027.25 47.606C1025.27 44.7775 1023.28 41.9589 1021.31 39.1404C1019.68 36.8134 1018.05 34.4864 1016.41 32.1593C1015.67 31.1161 1014.8 30.1924 1013.98 29.2289C1011.33 26.1075 1008.67 23.006 1006.01 19.8846C1005.84 19.6838 1005.63 19.5029 1005.58 19.2227L1003.99 19.2159L1003.99 19.2359Z" fill="#243263"/>
<path d="M1079.4 42.4091C1078.84 41.9667 1078.44 41.3949 1077.98 40.863C1074.93 37.4098 1071.91 33.9368 1068.87 30.4838C1066.51 27.7936 1064.15 25.1034 1061.79 22.4133C1061.76 22.3831 1061.74 22.3531 1061.71 22.3329C1061.32 21.9213 1061.3 21.9212 1060.92 22.3295C1059.66 23.7142 1058.39 25.0987 1057.14 26.4934C1056.49 27.2206 1056.57 27.0809 1057.08 27.7431C1061.44 33.2919 1065.8 38.8206 1070.15 44.3694C1072.95 47.9314 1075.74 51.4935 1078.55 55.0455C1078.78 55.3365 1078.92 55.7171 1079.33 55.8289L1079.39 42.409L1079.4 42.4091Z" fill="#243263"/>
<path d="M1011.38 19.2676C1011.32 19.5774 1011.53 19.7583 1011.69 19.9689C1013.16 21.8453 1014.63 23.7216 1016.1 25.608C1020.43 31.1266 1024.76 36.6452 1029.08 42.1538C1029.54 42.7358 1030 43.3178 1030.45 43.8997C1030.82 44.3613 1030.87 44.3615 1031.25 43.9032C1032.38 42.518 1033.5 41.1328 1034.61 39.7476C1034.85 39.4486 1035.07 39.1495 1035.33 38.8706C1035.54 38.6315 1035.55 38.4216 1035.35 38.1707C1035.01 37.7392 1034.69 37.2879 1034.36 36.8565C1030.15 31.2483 1025.94 25.6502 1021.73 20.0421C1021.56 19.8213 1021.35 19.6104 1021.27 19.3301L1011.38 19.2876L1011.38 19.2676Z" fill="#243263"/>
<path d="M1025.94 19.3304C1025.91 19.6102 1026.09 19.791 1026.24 19.9816C1028.48 23.1013 1030.73 26.221 1032.98 29.3407C1034.48 31.4271 1035.99 33.5236 1037.49 35.6101C1037.93 36.212 1037.94 36.212 1038.43 35.6641C1039.86 34.0702 1041.27 32.4663 1042.69 30.8624C1043.03 30.4738 1043.03 30.4438 1042.69 29.9924C1041.27 28.0563 1039.84 26.1201 1038.41 24.1839C1037.36 22.7494 1036.29 21.3148 1035.24 19.8903C1035.12 19.7198 1034.97 19.5691 1034.91 19.3589L1025.93 19.3203L1025.94 19.3304Z" fill="#243263"/>
<path d="M1064.72 19.4964C1064.69 19.7362 1064.83 19.8868 1064.97 20.0474C1066.89 22.2157 1068.81 24.384 1070.73 26.5522C1073.09 29.2224 1075.45 31.8825 1077.81 34.5527C1078.19 34.9944 1078.58 35.436 1078.97 35.8677C1079.1 36.0083 1079.22 36.1588 1079.43 36.1597L1079.48 23.9898C1079.35 23.9492 1079.25 23.8688 1079.15 23.7784C1077.76 22.4824 1076.36 21.1964 1074.97 19.9004C1074.86 19.7999 1074.76 19.6895 1074.72 19.5293L1064.71 19.4863L1064.72 19.4964Z" fill="#243263"/>
<path d="M908.759 28.7161C909.51 28.4293 910.152 27.9621 910.834 27.565C915.475 24.8549 920.107 22.1248 924.739 19.4046C924.929 19.2955 925.239 19.2468 925.171 18.8965L908.791 18.8262L908.749 28.7161L908.759 28.7161Z" fill="#243263"/>
<path d="M1039.47 19.3887C1039.5 19.6288 1039.64 19.8094 1039.78 19.99C1041.44 22.1472 1043.1 24.3043 1044.76 26.4615C1045.1 26.9029 1045.15 26.9132 1045.53 26.5048C1047.57 24.3435 1049.6 22.1822 1051.63 20.0209C1051.78 19.8516 1051.95 19.7023 1051.97 19.4524L1039.46 19.3987L1039.47 19.3887Z" fill="#243263"/>
<path d="M995.287 24.4184C995.318 24.2885 995.348 24.1386 995.239 24.0482C995.089 23.9375 994.949 24.0569 994.818 24.1264C993.505 24.8407 992.192 25.5651 990.879 26.2895C986.91 28.4724 982.94 30.6554 978.981 32.8384C975.032 35.0115 971.082 37.1846 967.133 39.3576C963.294 41.4712 959.465 43.5748 955.626 45.6883C951.325 48.0499 947.025 50.4214 942.725 52.783C940.82 53.8348 938.906 54.8766 937.001 55.9284C936.791 56.0375 936.461 56.0961 936.47 56.3761C936.478 56.6162 936.808 56.6476 937.008 56.7285C938.914 57.5767 940.821 58.4049 942.727 59.263C943.106 59.4347 943.417 59.426 943.787 59.2276C951.506 54.9807 959.234 50.7538 966.962 46.517C974.109 42.5976 981.256 38.6883 988.393 34.7689C990.357 33.6973 992.312 32.6057 994.277 31.5441C994.587 31.3754 994.778 31.1863 994.8 30.8063C994.833 30.1665 994.925 29.5269 994.968 28.8871C995.084 27.3975 995.181 25.9079 995.287 24.4084L995.287 24.4184Z" fill="#243263"/>
<path d="M1070.69 61.8719C1070.85 61.8726 1070.96 61.8031 1071.08 61.7436C1072.68 60.9704 1074.29 60.1973 1075.89 59.4242C1076.42 59.1665 1076.42 59.1365 1076.06 58.6349C1073.83 55.5353 1071.56 52.4455 1069.35 49.316C1067.57 46.8084 1065.53 44.5096 1063.58 42.1412C1060.76 38.699 1057.9 35.2868 1055.06 31.8645C1054.71 31.443 1054.35 31.0215 1053.99 30.5999C1053.63 30.1784 1053.6 30.1783 1053.22 30.5966C1052.57 31.3138 1051.93 32.0311 1051.28 32.7483C1050.65 33.4556 1050.02 34.1529 1049.37 34.8501C1048.91 35.3582 1048.9 35.3781 1049.35 35.87C1050.63 37.2956 1051.92 38.7111 1053.19 40.1266C1055.64 42.8471 1058.09 45.5576 1060.52 48.2881C1061.11 48.9707 1061.62 49.7329 1062.16 50.4652C1064.81 54.0566 1067.47 57.658 1070.12 61.2595C1070.23 61.4099 1070.35 61.5604 1070.47 61.711C1070.53 61.7812 1070.6 61.8515 1070.69 61.8419L1070.69 61.8719Z" fill="#243263"/>
<path d="M1002.5 32.2987C1002.32 32.4279 1002.34 32.628 1002.31 32.8079C1002.08 34.7469 1001.86 36.676 1001.61 38.6149C1001.56 39.0547 1001.71 39.3654 1001.98 39.6865C1004.74 42.9884 1007.49 46.2902 1010.24 49.5921C1010.86 50.3447 1011.25 51.2264 1011.74 52.0685C1013.39 54.9256 1015 57.7926 1016.63 60.6596C1016.96 61.241 1017.02 61.2413 1017.45 60.7231C1018.16 59.8561 1018.86 58.9892 1019.56 58.1222C1019.94 57.6638 1019.94 57.6538 1019.63 57.1324C1017.26 53.1823 1014.91 49.2321 1012.55 45.2819C1012.08 44.4999 1011.59 43.7378 1011.16 42.936C1010.48 41.663 1009.54 40.609 1008.63 39.5151C1006.73 37.2269 1004.82 34.9487 1002.91 32.6705C1002.79 32.5299 1002.72 32.3396 1002.5 32.2987Z" fill="#243263"/>
<path d="M1159.23 19.9014C1158.87 20.2799 1158.37 20.4477 1157.92 20.6858C1154.46 22.531 1150.99 24.3561 1147.52 26.2012C1142.64 28.7903 1137.75 31.3893 1132.87 33.9884C1129.49 35.7839 1126.1 37.5694 1122.72 39.3649C1118.24 41.7457 1113.75 44.1264 1109.27 46.5072C1107.37 47.519 1105.46 48.5208 1103.55 49.5427C1103.32 49.6617 1103.06 49.7506 1102.9 49.9699C1102.95 50.1801 1103.14 50.2209 1103.28 50.3015C1105.55 51.5113 1107.84 52.7011 1110.1 53.9208C1110.48 54.1225 1110.78 54.1238 1111.16 53.9254C1115.35 51.7134 1119.54 49.5113 1123.73 47.3093C1126.52 45.8512 1129.3 44.3932 1132.09 42.9251C1136.68 40.5148 1141.28 38.0946 1145.87 35.6742C1148.52 34.2856 1151.17 32.897 1153.82 31.4983C1158.77 28.8996 1163.71 26.3007 1168.66 23.702C1170.74 22.6109 1172.82 21.5198 1174.91 20.4288C1175.11 20.3196 1175.32 20.2305 1175.37 19.9707L1159.22 19.9014L1159.23 19.9014Z" fill="#243263"/>
<path d="M1090.43 44.1656C1091.6 44.7906 1092.8 45.3658 1094 45.9409C1094.3 46.0822 1094.54 46.0232 1094.8 45.8844C1095.94 45.2893 1097.08 44.7042 1098.22 44.109C1100.85 42.7403 1103.47 41.3715 1106.08 40.0127C1112.1 36.8885 1118.12 33.7544 1124.13 30.6302C1130.52 27.3075 1136.91 23.995 1143.3 20.6723C1143.57 20.5335 1143.83 20.3846 1144.1 20.2458C1144.27 20.1565 1144.44 20.0572 1144.43 19.8272L1127.14 19.753C1127.02 19.9124 1126.85 19.9917 1126.68 20.081C1124.81 21.053 1122.95 22.035 1121.09 23.007C1117.01 25.1395 1112.93 27.272 1108.85 29.4045C1103.63 32.1321 1098.4 34.8497 1093.18 37.5773C1092.26 38.0634 1091.32 38.4993 1090.43 39.0555L1090.4 44.1755L1090.43 44.1656Z" fill="#243263"/>
<path d="M1185.73 20.0152C1185.51 20.5942 1185.54 21.2044 1185.47 21.8041C1185.31 23.2934 1185.18 24.7829 1185.02 26.2622C1184.96 26.7919 1185.04 27.2323 1185.36 27.6937C1191.35 36.3995 1197.32 45.1252 1203.3 53.8409C1203.56 54.2121 1203.81 54.5931 1204.08 54.9643C1204.31 55.2753 1204.4 55.2857 1204.64 54.9867C1205.03 54.4984 1205.41 54 1205.8 53.5116C1206.85 52.1462 1207.91 50.7807 1208.96 49.4152C1209.36 48.9069 1209.36 48.9069 1208.99 48.3853C1207.01 45.5568 1205.02 42.7382 1203.04 39.9197C1201.41 37.5927 1199.78 35.2657 1198.14 32.9386C1197.41 31.8954 1196.54 30.9717 1195.72 30.0082C1193.07 26.8868 1190.4 23.7853 1187.75 20.6639C1187.58 20.4631 1187.37 20.2822 1187.32 20.002L1185.73 19.9952L1185.73 20.0152Z" fill="#243263"/>
<path d="M1261.14 43.1884C1260.58 42.746 1260.17 42.1742 1259.72 41.6423C1256.67 38.1891 1253.65 34.7161 1250.61 31.2631C1248.25 28.5729 1245.88 25.8827 1243.53 23.1926C1243.5 23.1624 1243.48 23.1324 1243.45 23.1122C1243.06 22.7006 1243.04 22.7005 1242.66 23.1088C1241.4 24.4935 1240.12 25.878 1238.88 27.2727C1238.23 27.9999 1238.31 27.8602 1238.82 28.5224C1243.18 34.0712 1247.54 39.5999 1251.89 45.1487C1254.69 48.7107 1257.48 52.2727 1260.29 55.8248C1260.51 56.1158 1260.66 56.4964 1261.07 56.6082L1261.13 43.1883L1261.14 43.1884Z" fill="#243263"/>
<path d="M1193.12 20.0469C1193.06 20.3567 1193.27 20.5376 1193.42 20.7482C1194.9 22.6246 1196.37 24.5009 1197.84 26.3873C1202.17 31.9059 1206.49 37.4245 1210.82 42.9331C1211.28 43.5151 1211.73 44.0971 1212.19 44.679C1212.56 45.1406 1212.61 45.1408 1212.99 44.6825C1214.12 43.2973 1215.23 41.9121 1216.35 40.5269C1216.59 40.2279 1216.81 39.9288 1217.06 39.6499C1217.27 39.4108 1217.29 39.2009 1217.09 38.95C1216.75 38.5185 1216.43 38.0672 1216.1 37.6358C1211.89 32.0276 1207.68 26.4295 1203.46 20.8213C1203.3 20.6006 1203.09 20.3897 1203.01 20.1094L1193.12 20.0669L1193.12 20.0469Z" fill="#243263"/>
<path d="M1207.68 20.1097C1207.65 20.3895 1207.83 20.5703 1207.98 20.7609C1210.22 23.8806 1212.47 27.0003 1214.72 30.12C1216.22 32.2064 1217.73 34.3029 1219.23 36.3894C1219.67 36.9913 1219.68 36.9913 1220.17 36.4434C1221.59 34.8495 1223.01 33.2456 1224.43 31.6417C1224.77 31.2531 1224.77 31.2231 1224.43 30.7717C1223.01 28.8356 1221.58 26.8994 1220.15 24.9632C1219.09 23.5287 1218.03 22.0941 1216.98 20.6696C1216.86 20.4991 1216.71 20.3484 1216.65 20.1382L1207.67 20.0996L1207.68 20.1097Z" fill="#243263"/>
<path d="M1246.46 20.2757C1246.43 20.5155 1246.57 20.6661 1246.71 20.8267C1248.63 22.995 1250.55 25.1633 1252.47 27.3315C1254.83 30.0017 1257.19 32.6618 1259.54 35.332C1259.93 35.7737 1260.32 36.2153 1260.71 36.647C1260.84 36.7876 1260.96 36.9381 1261.17 36.939L1261.22 24.7691C1261.09 24.7285 1260.99 24.6481 1260.89 24.5577C1259.5 23.2617 1258.1 21.9757 1256.71 20.6797C1256.6 20.5792 1256.5 20.4688 1256.46 20.3086L1246.45 20.2656L1246.46 20.2757Z" fill="#243263"/>
<path d="M1090.5 29.4954C1091.25 29.2086 1091.89 28.7414 1092.57 28.3443C1097.21 25.6342 1101.85 22.9041 1106.48 20.1839C1106.67 20.0748 1106.98 20.0261 1106.91 19.6758L1090.53 19.6055L1090.49 29.4954L1090.5 29.4954Z" fill="#243263"/>
<path d="M1221.21 20.168C1221.24 20.4081 1221.38 20.5887 1221.52 20.7693C1223.18 22.9265 1224.84 25.0836 1226.5 27.2408C1226.84 27.6822 1226.89 27.6925 1227.27 27.2841C1229.31 25.1228 1231.34 22.9615 1233.37 20.8002C1233.52 20.6309 1233.69 20.4816 1233.71 20.2317L1221.2 20.178L1221.21 20.168Z" fill="#243263"/>
<path d="M1177.03 25.1977C1177.06 25.0678 1177.09 24.9179 1176.98 24.8275C1176.83 24.7168 1176.69 24.8362 1176.56 24.9057C1175.24 25.62 1173.93 26.3444 1172.62 27.0688C1168.65 29.2517 1164.68 31.4347 1160.72 33.6177C1156.77 35.7908 1152.82 37.9639 1148.87 40.1369C1145.03 42.2505 1141.2 44.3541 1137.36 46.4676C1133.06 48.8292 1128.76 51.2007 1124.46 53.5623C1122.56 54.6141 1120.64 55.6559 1118.74 56.7077C1118.53 56.8168 1118.2 56.8754 1118.21 57.1554C1118.22 57.3955 1118.55 57.4269 1118.75 57.5078C1120.65 58.356 1122.56 59.1841 1124.47 60.0423C1124.84 60.214 1125.15 60.2053 1125.53 60.0069C1133.24 55.76 1140.97 51.5331 1148.7 47.2963C1155.85 43.3769 1162.99 39.4676 1170.13 35.5482C1172.1 34.4766 1174.05 33.385 1176.01 32.3234C1176.33 32.1547 1176.52 31.9656 1176.54 31.5856C1176.57 30.9458 1176.66 30.3062 1176.71 29.6663C1176.82 28.1768 1176.92 26.6872 1177.03 25.1877L1177.03 25.1977Z" fill="#243263"/>
<path d="M1252.43 62.6512C1252.59 62.6519 1252.7 62.5824 1252.82 62.5229C1254.42 61.7497 1256.02 60.9766 1257.63 60.2035C1258.16 59.9458 1258.16 59.9158 1257.8 59.4142C1255.56 56.3146 1253.3 53.2248 1251.09 50.0953C1249.31 47.5877 1247.27 45.2889 1245.32 42.9205C1242.5 39.4783 1239.64 36.0661 1236.8 32.6438C1236.45 32.2223 1236.09 31.8008 1235.73 31.3792C1235.37 30.9577 1235.34 30.9576 1234.96 31.3759C1234.31 32.0931 1233.67 32.8104 1233.02 33.5276C1232.39 34.2349 1231.76 34.9322 1231.11 35.6294C1230.65 36.1375 1230.64 36.1574 1231.09 36.6493C1232.37 38.0749 1233.66 39.4904 1234.93 40.9059C1237.38 43.6264 1239.83 46.3369 1242.26 49.0674C1242.85 49.75 1243.36 50.5122 1243.9 51.2445C1246.55 54.8359 1249.21 58.4373 1251.86 62.0388C1251.97 62.1892 1252.09 62.3397 1252.21 62.4902C1252.27 62.5605 1252.34 62.6308 1252.43 62.6212L1252.43 62.6512Z" fill="#243263"/>
<path d="M1184.24 33.078C1184.06 33.2072 1184.08 33.4073 1184.05 33.5872C1183.82 35.5262 1183.59 37.4552 1183.35 39.3942C1183.29 39.834 1183.45 40.1447 1183.72 40.4658C1186.48 43.7677 1189.23 47.0695 1191.98 50.3714C1192.59 51.124 1192.99 52.0057 1193.48 52.8478C1195.13 55.7049 1196.74 58.5719 1198.37 61.4389C1198.7 62.0203 1198.76 62.0206 1199.19 61.5024C1199.89 60.6354 1200.6 59.7685 1201.3 58.9015C1201.67 58.4431 1201.67 58.4331 1201.37 57.9117C1199 53.9616 1196.65 50.0114 1194.29 46.0612C1193.82 45.2792 1193.32 44.5171 1192.9 43.7152C1192.22 42.4423 1191.28 41.3883 1190.37 40.2944C1188.47 38.0062 1186.56 35.728 1184.65 33.4498C1184.53 33.3092 1184.46 33.1189 1184.24 33.078Z" fill="#243263"/>
<path d="M1340.97 20.6827C1340.61 21.0611 1340.1 21.229 1339.65 21.4671C1336.2 23.3122 1332.73 25.1374 1329.26 26.9825C1324.38 29.5716 1319.49 32.1706 1314.61 34.7696C1311.23 36.5652 1307.84 38.3506 1304.46 40.1461C1299.98 42.5269 1295.49 44.9077 1291.01 47.2885C1289.11 48.3003 1287.19 49.3021 1285.29 50.3239C1285.06 50.4429 1284.8 50.5318 1284.64 50.7511C1284.69 50.9613 1284.88 51.0022 1285.02 51.0828C1287.29 52.2925 1289.58 53.4824 1291.84 54.7021C1292.22 54.9037 1292.52 54.905 1292.9 54.7066C1297.09 52.4946 1301.28 50.2926 1305.47 48.0905C1308.26 46.6325 1311.04 45.1744 1313.83 43.7064C1318.42 41.2961 1323.02 38.8758 1327.61 36.4555C1330.26 35.0668 1332.91 33.6782 1335.56 32.2796C1340.51 29.6808 1345.45 27.082 1350.4 24.4832C1352.48 23.3921 1354.56 22.3011 1356.64 21.21C1356.85 21.1009 1357.06 21.0118 1357.11 20.752L1340.96 20.6826L1340.97 20.6827Z" fill="#243263"/>
<path d="M1272.17 44.9469C1273.34 45.5719 1274.54 46.147 1275.73 46.7222C1276.03 46.8634 1276.27 46.8045 1276.54 46.6656C1277.68 46.0705 1278.82 45.4854 1279.96 44.8903C1282.59 43.5216 1285.2 42.1528 1287.82 40.794C1293.83 37.6698 1299.86 34.5356 1305.87 31.4114C1312.26 28.0888 1318.65 24.7762 1325.03 21.4536C1325.3 21.3147 1325.57 21.1659 1325.84 21.027C1326.01 20.9378 1326.18 20.8385 1326.17 20.6084L1308.88 20.5342C1308.76 20.6937 1308.59 20.773 1308.42 20.8622C1306.55 21.8342 1304.69 22.8162 1302.82 23.7883C1298.74 25.9208 1294.67 28.0533 1290.59 30.1858C1285.36 32.9134 1280.14 35.631 1274.92 38.3586C1274 38.8446 1273.06 39.2806 1272.16 39.8368L1272.14 44.9567L1272.17 44.9469Z" fill="#243263"/>
<path d="M1367.47 20.7964C1367.25 21.3755 1367.28 21.9857 1367.21 22.5853C1367.04 24.0746 1366.92 25.5641 1366.76 27.0435C1366.7 27.5732 1366.78 28.0135 1367.09 28.4749C1373.09 37.1807 1379.06 45.9064 1385.04 54.6222C1385.3 54.9933 1385.55 55.3744 1385.82 55.7455C1386.05 56.0565 1386.14 56.0669 1386.38 55.7679C1386.77 55.2796 1387.15 54.7813 1387.53 54.2929C1388.59 52.9274 1389.65 51.5619 1390.7 50.1965C1391.09 49.6881 1391.09 49.6881 1390.73 49.1666C1388.75 46.338 1386.76 43.5195 1384.78 40.701C1383.15 38.3739 1381.52 36.0469 1379.88 33.7199C1379.15 32.6767 1378.28 31.753 1377.46 30.7894C1374.81 27.668 1372.14 24.5665 1369.49 21.4451C1369.32 21.2444 1369.11 21.0635 1369.06 20.7833L1367.47 20.7764L1367.47 20.7964Z" fill="#243263"/>
<path d="M1442.88 43.9696C1442.32 43.5272 1441.91 42.9555 1441.45 42.4235C1438.41 38.9704 1435.38 35.4974 1432.35 32.0443C1429.99 29.3542 1427.62 26.664 1425.26 23.9738C1425.23 23.9437 1425.21 23.9136 1425.18 23.8935C1424.8 23.4818 1424.78 23.4817 1424.39 23.8901C1423.14 25.2747 1421.86 26.6592 1420.62 28.0539C1419.96 28.7811 1420.04 28.6414 1420.56 29.3037C1424.92 34.8524 1429.27 40.3812 1433.63 45.9299C1436.42 49.492 1439.22 53.054 1442.02 56.6061C1442.25 56.8971 1442.4 57.2777 1442.81 57.3895L1442.87 43.9696L1442.88 43.9696Z" fill="#243263"/>
<path d="M1374.86 20.8282C1374.79 21.1379 1375 21.3188 1375.16 21.5295C1376.64 23.4058 1378.11 25.2822 1379.58 27.1685C1383.91 32.6871 1388.23 38.2058 1392.56 43.7144C1393.02 44.2963 1393.47 44.8783 1393.93 45.4603C1394.3 45.9219 1394.35 45.9221 1394.73 45.4637C1395.86 44.0785 1396.97 42.6933 1398.09 41.3081C1398.33 41.0091 1398.55 40.7101 1398.8 40.4312C1399.01 40.1921 1399.02 39.9821 1398.83 39.7313C1398.49 39.2998 1398.17 38.8484 1397.84 38.417C1393.62 32.8089 1389.42 27.2108 1385.2 21.6026C1385.03 21.3819 1384.82 21.171 1384.75 20.8906L1374.86 20.8482L1374.86 20.8282Z" fill="#243263"/>
<path d="M1389.42 20.8909C1389.39 21.1708 1389.56 21.3515 1389.71 21.5422C1391.96 24.6619 1394.21 27.7815 1396.45 30.9012C1397.95 32.9877 1399.47 35.0842 1400.97 37.1706C1401.4 37.7725 1401.41 37.7726 1401.91 37.2247C1403.33 35.6308 1404.75 34.0269 1406.17 32.4229C1406.51 32.0344 1406.51 32.0044 1406.17 31.5529C1404.75 29.6168 1403.32 27.6806 1401.89 25.7445C1400.83 24.3099 1399.77 22.8754 1398.71 21.4508C1398.59 21.2803 1398.45 21.1297 1398.39 20.9194L1389.41 20.8809L1389.42 20.8909Z" fill="#243263"/>
<path d="M1428.2 21.0569C1428.17 21.2968 1428.31 21.4474 1428.45 21.608C1430.37 23.7763 1432.29 25.9445 1434.21 28.1128C1436.57 30.7829 1438.92 33.4431 1441.28 36.1132C1441.67 36.5549 1442.06 36.9966 1442.45 37.4282C1442.58 37.5688 1442.7 37.7193 1442.91 37.7202L1442.96 25.5503C1442.83 25.5098 1442.73 25.4293 1442.63 25.3389C1441.23 24.0429 1439.84 22.7569 1438.45 21.4609C1438.34 21.3604 1438.24 21.25 1438.2 21.0899L1428.19 21.0469L1428.2 21.0569Z" fill="#243263"/>
<path d="M1272.24 30.2767C1272.99 29.9899 1273.63 29.5226 1274.31 29.1256C1278.95 26.4155 1283.58 23.6853 1288.22 20.9652C1288.41 20.856 1288.72 20.8073 1288.65 20.457L1272.27 20.3867L1272.23 30.2766L1272.24 30.2767Z" fill="#243263"/>
<path d="M1402.95 20.9493C1402.98 21.1894 1403.12 21.37 1403.25 21.5506C1404.92 23.7077 1406.58 25.8649 1408.24 28.022C1408.58 28.4635 1408.63 28.4737 1409.01 28.0653C1411.05 25.9041 1413.08 23.7428 1415.1 21.5815C1415.26 21.4121 1415.43 21.2628 1415.45 21.0129L1402.94 20.9592L1402.95 20.9493Z" fill="#243263"/>
<path d="M1358.76 25.9789C1358.79 25.8491 1358.83 25.6992 1358.72 25.6087C1358.57 25.4981 1358.43 25.6175 1358.3 25.6869C1356.98 26.4013 1355.67 27.1256 1354.36 27.85C1350.39 30.033 1346.42 32.216 1342.46 34.399C1338.51 36.5721 1334.56 38.7451 1330.61 40.9182C1326.77 43.0317 1322.94 45.1353 1319.1 47.2488C1314.8 49.6104 1310.5 51.982 1306.2 54.3435C1304.3 55.3954 1302.38 56.4371 1300.48 57.489C1300.27 57.5981 1299.94 57.6567 1299.95 57.9367C1299.96 58.1767 1300.28 58.2082 1300.48 58.289C1302.39 59.1372 1304.3 59.9654 1306.2 60.8236C1306.58 60.9952 1306.89 60.9866 1307.26 60.7881C1314.98 56.5412 1322.71 52.3144 1330.44 48.0775C1337.59 44.1582 1344.73 40.2488 1351.87 36.3294C1353.83 35.2578 1355.79 34.1662 1357.75 33.1047C1358.06 32.936 1358.25 32.7468 1358.28 32.3669C1358.31 31.727 1358.4 31.0874 1358.44 30.4476C1358.56 28.9581 1358.66 27.4685 1358.76 25.9689L1358.76 25.9789Z" fill="#243263"/>
<path d="M1434.17 63.4324C1434.33 63.4331 1434.44 63.3636 1434.56 63.3041C1436.16 62.531 1437.76 61.7579 1439.37 60.9847C1439.9 60.727 1439.9 60.697 1439.54 60.1955C1437.3 57.0959 1435.04 54.0061 1432.83 50.8766C1431.05 48.3689 1429.01 46.0701 1427.06 43.7018C1424.23 40.2596 1421.38 36.8473 1418.53 33.4251C1418.19 33.0036 1417.83 32.582 1417.47 32.1605C1417.11 31.7389 1417.08 31.7388 1416.7 32.1572C1416.05 32.8744 1415.4 33.5916 1414.76 34.3089C1414.13 35.0162 1413.49 35.7134 1412.85 36.4107C1412.39 36.9187 1412.38 36.9387 1412.83 37.4306C1414.11 38.8561 1415.39 40.2716 1416.67 41.6871C1419.12 44.4077 1421.57 47.1182 1423.99 49.8486C1424.59 50.5312 1425.1 51.2934 1425.63 52.0257C1428.29 55.6171 1430.94 59.2186 1433.6 62.82C1433.71 62.9705 1433.83 63.121 1433.95 63.2715C1434.01 63.3418 1434.08 63.4121 1434.17 63.4024L1434.17 63.4324Z" fill="#243263"/>
<path d="M1365.98 33.8592C1365.8 33.9885 1365.82 34.1886 1365.79 34.3684C1365.56 36.3075 1365.33 38.2365 1365.08 40.1755C1365.03 40.6152 1365.19 40.9259 1365.46 41.2471C1368.21 44.5489 1370.97 47.8508 1373.72 51.1526C1374.33 51.9053 1374.73 52.787 1375.22 53.6291C1376.86 56.4862 1378.48 59.3531 1380.11 62.2202C1380.44 62.8016 1380.5 62.8018 1380.93 62.2837C1381.63 61.4167 1382.34 60.5497 1383.04 59.6827C1383.41 59.2243 1383.41 59.2143 1383.1 58.693C1380.74 54.7428 1378.39 50.7927 1376.02 46.8425C1375.56 46.0605 1375.06 45.2983 1374.64 44.4965C1373.96 43.2236 1373.02 42.1695 1372.11 41.0756C1370.21 38.7874 1368.3 36.5092 1366.39 34.231C1366.27 34.0905 1366.2 33.9002 1365.98 33.8592Z" fill="#243263"/>
</g>
<defs>
<clipPath id="clip0_457_4020">
<rect width="39.0139" height="1466.89" fill="white" transform="matrix(-0.0042933 0.999991 0.999991 0.0042933 -11.832 0.853516)"/>
</clipPath>
</defs>
</svg>
