<svg width="403" height="353" viewBox="0 0 403 353" fill="none" xmlns="http://www.w3.org/2000/svg">
<path d="M189.018 60.1988L138.823 68.5544C138.413 68.6363 138.03 68.8001 137.702 69.0459L73.5357 120.026C73.153 120.326 72.8522 120.736 72.7155 121.227L55.2455 178.57C55.1908 178.788 55.1361 179.034 55.1361 179.28V226.301C55.1361 226.847 54.9447 227.393 54.5893 227.802L31.8701 256.146C31.5693 256.528 31.1319 256.829 30.6398 256.965L12.0488 262.262C11.1739 262.508 10.5178 263.218 10.3264 264.119L0.0466911 314.608C-0.117347 315.454 0.15605 316.328 0.784862 316.902L19.7313 334.05C20.5241 334.76 21.6724 334.869 22.5746 334.35L58.4169 313.679C59.1551 313.27 60.0299 313.243 60.7681 313.652L81.1362 324.493C81.5736 324.738 81.9563 325.121 82.1751 325.558L94.97 351.635C95.3801 352.481 96.2277 353 97.1572 353H165.561C166.081 353 166.573 352.836 166.983 352.536L200.638 328.397C201.157 328.015 201.513 327.469 201.622 326.841L214.554 253.525C214.882 251.668 217.096 250.876 218.545 252.105L245.557 275.233C246.131 275.724 246.897 275.915 247.607 275.779L268.249 271.656C268.55 271.601 268.823 271.492 269.069 271.328L291.816 257.129C292.198 256.883 292.636 256.747 293.101 256.747H310.735C311.336 256.747 311.938 256.965 312.375 257.402L330.091 273.731C330.638 274.222 331.376 274.468 332.114 274.332L385.837 265.867C386.739 265.73 387.477 265.102 387.751 264.228L402.869 219.065C403.061 218.546 403.033 217.972 402.842 217.426L386.001 172.89C385.864 172.535 385.809 172.126 385.864 171.743L393.109 111.343C393.164 110.824 393.054 110.305 392.808 109.841L372.686 74.9713C372.55 74.6982 372.331 74.4798 372.112 74.2886L334.438 43.8971C334.11 43.6241 333.837 43.2691 333.7 42.8595L325.252 20.3594C325.115 19.9772 325.061 19.5676 325.115 19.158L327.467 2.77444C327.713 1.02686 326.072 -0.393048 324.377 0.0984583L303.572 6.21498C303.08 6.35151 302.642 6.65188 302.314 7.06146L264.558 56.3759C264.339 56.649 264.093 56.8674 263.792 57.0313L210.726 85.6752C209.906 86.1121 208.894 86.0574 208.129 85.5113L193.94 75.1897C193.366 74.7801 193.01 74.1521 192.955 73.4694L191.834 62.3286C191.698 60.936 190.413 59.953 189.018 60.1715" fill="#020E46" fill-opacity="0.54"/>
</svg>
