<svg width="572" height="498" viewBox="0 0 572 498" fill="none" xmlns="http://www.w3.org/2000/svg">
<g clip-path="url(#clip0_119_1246)">
<path d="M384.753 219.081L389.364 220.613L391.435 220.915L391.795 222.414L393.715 225.145L394.788 229.199L394.604 233.086L396.348 235.222L398.008 236.897L398.586 241.504L398.486 247.033L397.161 249.403L393.321 251.229L389.263 252.946L387.738 254.697L387.561 257.947L386.715 268.099L384.853 278.251L382.632 283.344L380.729 286.042L378.893 283.503L376.755 280.823L374.851 277.9L371.884 274.005L368.438 273.033L365.017 274.239L362.007 275.546L360.389 276.392L358.427 277.833L356.742 279.265L356.055 280.312L355.099 280.488L354.277 280.521L352.014 280.723L349.482 281.259L347.855 281.77L346.002 282.18L344.334 282.498L343.387 282.733L342.599 282.976L340.872 283.194L338.457 282.934L337.149 281.2L336.126 279.994L334.106 280.547L332.639 282.088L330.895 283.051L328.187 284.241L326.904 285.33L326.233 284.827L324.464 284.274L322.863 283.746L321.639 283.57L319.224 282.079L317.506 278.662L318.051 275.94L320.113 273.846L322.393 272.932L323.383 271.852L324.666 269.699L322.829 265.369L320.172 261.18L321.128 259.723L321.672 257.947L321.874 256.163L321.916 255.082L322.008 254.563L322.486 253.323L321.672 251.288L320.826 249.169L319.979 247.426L319.166 246.321L318.587 245.391L317.833 243.247L316.986 240.851L316.416 239.904L316.567 239.544L317.304 239.251L318.352 238.438L317.246 235.063L315.703 230.791L316.952 227.934L319.266 224.098L321.404 220.697L324.112 219.767L327.868 222.205L331.331 224.534L335.02 222.356L338.08 218.838L339.648 216.769L345.349 214.214L352.249 212.991L354.923 213.401L356.466 211.416L358.411 206.633L359.836 202.956L362.033 203.944L366.686 206.684L375.967 212.849L384.753 219.081Z" fill="#FF712C"/>
<path d="M272.627 74.8139H272.66L275.745 76.3803L283.66 87.8728L284.909 93.7697L285.58 105.346L288.313 111.302L293.142 115.808L298.642 117.383L304.561 116.738L310.74 114.443L329.855 103.863L332.764 103.252L335.321 97.1119L338.993 93.3342L340.452 92.5468L340.461 92.5552L341.643 93.1666L342.456 93.3844L344.041 94.6325L344.929 97.4972L346.48 99.6165L348.316 101.091L351.863 107.021L355.007 111.754L357.463 116.336L359.894 121.63L361.085 124.277L361.798 128.607L362.007 131.195L364.548 130.425L367.909 129.244H370.659L372.202 130.073L372.085 131.371L369.846 133.373L368.362 138.098L369.536 144.397L371.707 150.126L374.482 155.127L378.146 158.988L383.252 165.622L388.727 172.407L392.743 176.755L394.394 180.541L393.455 183.766L392.374 186.89L393.38 192.795L396.289 202.445L398.469 211.09L398.561 215.378L396.96 216.333L394.545 217.992L392.55 220.103L391.435 220.915L389.364 220.613L384.753 219.081L375.966 212.849L366.685 206.684L362.032 203.944L359.836 202.956L358.411 206.633L356.465 211.416L354.923 213.401L352.248 212.991L345.348 214.214L339.647 216.769L338.08 218.838L335.019 222.356L331.331 224.534L327.868 222.205L324.112 219.767L321.404 220.697L319.266 224.098L316.952 227.934L315.703 230.791L317.246 235.063L318.352 238.438L317.304 239.251L316.567 239.544L315.82 239.05L313.582 238.614L310.849 236.746L308.141 233.84L305.844 231.545L304.066 229.869L301.987 228.462L299.748 227.298L297.812 225.899L294.408 224.885L289.495 224.768L283.911 225.79L278.479 225.84L270.79 223.227L265.45 219.826L264.041 215.78L260.109 212.061L256.798 206.943L253.042 201.356L250.149 196.85L249.143 194.253L246.98 193.901L243.459 194.555L238.177 192.62L233.549 189.554L230.405 188.967L227.194 189.42L225.517 189.931L222.499 187.636L218.986 183.414L219.339 177.282L219.456 169.124L219.062 157.598L217.897 149.079L212.372 148.685L206.687 149.004L201.464 146.415L196.895 144.279L195.394 143.81L194.279 143.132L192.418 143.869L190.121 143.928L184.797 142.244L178.727 140.15L171.936 132.184L166.906 125.332L165.682 123.59L171.106 115.054L180.789 104.961L192.015 96.8774L203.074 92.9572L214.392 93.5687L220.294 93.1331L225.534 91.7091L231.336 88.4507L235.687 85.3096L240.399 82.872L247.232 81.6491L250.577 82.403L256.571 86.0383L258.525 86.7336L260.847 85.3682L262.541 79.8147L265.081 76.7908L267.688 75.1658L270.128 74.437L272.627 74.8139Z" fill="#FF712C"/>
<path d="M451.597 1.54571L454.683 2.509L452.444 4.83764L450.281 7.92015L449.392 11.0864L450.323 14.1103L454.423 16.9332L455.353 20.7695L454.758 22.4281L453.702 24.028L452.939 25.7116L453.408 27.3953L455.882 29.0538L458.12 28.702L459.956 27.7136L461.113 27.3953L464.576 29.8998L465.775 31.6421L466.873 38.9128L468.592 43.0089L473.714 51.4942L475.374 57.2236L477.99 60.6244L478.56 62.9196L478.283 63.7991L477.638 65.0137L476.975 66.6722L476.682 68.7663L478.191 73.2728L481.83 76.0035L490.121 79.4378L493.089 81.5319L497.306 85.5442L499.897 87.1106L518.484 94.0044L524.009 94.7918L529.484 98.1004L531.085 105.455L530.557 112.784L529.685 116.101L528.184 117.726L529.861 121.395L534.514 127.61L538.002 131.338L539.259 133.491L541.993 143.609L544.701 149.942L549.102 153.401L555.792 150.847L557.846 156.811L557.612 164.048L553.973 186.237L553.889 189.261L554.526 190.71L557.033 194.546L557.729 197.135L554.501 204.874L555.491 207.84L557.729 219.123L556.186 223.889L553.319 228.11L551.735 232.441L553.889 237.475L549.32 241.052L547.61 242.878L546.21 245.148L554.644 246.488L555.491 253.935L551.777 270.311L557.05 269.172L562.122 271.701L566.415 276.007L569.425 280.078L571.78 288.253L562.097 319.581L559.649 331.969L560.84 351.227L559.649 356.956L556.74 362.217L553.076 364.872L548.348 366.966L543.996 369.462L540.073 370.425L538.035 371.59L535.478 372.285L533.173 371.732L518.484 364.487L515.458 363.532L511.819 364.026L508.591 366.556L504.575 374.119L501.423 376.766L495.529 377.085L489.426 375.342L483.431 374.58L477.99 377.788L468.742 377.436L459.369 373.039L444.085 360.508L442.467 358.296L441.017 354.334L439.675 352.793L438.72 353.145L429.816 351.017L428.449 350.322L423.922 351.662L421.172 354.217L420.007 355.75L418.716 357.45L415.094 360.793L411.053 362.862L405.754 364.579L400.372 365.684L395.836 365.885L392.34 365.098L383.562 360.826L380.284 360.508L379.278 362.392L379.135 365.039L378.557 367.025L365.839 382.965L361.043 386.282L354.755 386.483L348.299 383.978L342.422 380.083L337.794 376.038L329.067 365.71L325.638 363.063L322.418 361.932L319.719 361.84L317.346 362.074L315.166 361.756L310.203 357.492L309.717 357.073L310.379 356.303L310.756 355.499L311.083 354.803L311.746 349.409L312.752 344.132L312.852 343.604L313.003 343.169L316.357 333.402L317.916 319.581L317.447 310.241L320.473 304.394L324.665 299.821L326.527 296.403L326.56 293.153L326.568 288.052L326.904 285.33L328.187 284.241L330.895 283.051L332.638 282.088L334.106 280.547L336.126 279.994L337.149 281.2L338.457 282.934L340.871 283.194L342.598 282.976L343.387 282.733L344.334 282.498L346.002 282.18L347.855 281.77L349.482 281.259L352.014 280.723L354.277 280.522L355.099 280.488L356.055 280.312L356.742 279.265L358.427 277.833L360.389 276.392L362.007 275.546L365.017 274.239L368.438 273.033L371.883 274.005L374.851 277.9L376.754 280.823L378.892 283.504L380.728 286.042L382.632 283.344L384.853 278.252L386.714 268.099L387.561 257.947L387.737 254.697L389.263 252.946L393.321 251.229L397.161 249.403L398.485 247.033L398.586 241.504L398.008 236.897L396.348 235.222L394.604 233.086L394.788 229.199L393.715 225.145L391.795 222.415L391.435 220.915L392.55 220.103L394.545 217.992L396.96 216.333L398.561 215.378L398.469 211.09L396.289 202.445L393.38 192.796L392.374 186.89L393.455 183.766L394.394 180.541L392.742 176.755L388.727 172.407L383.252 165.623L378.146 158.988L374.482 155.127L371.707 150.126L369.536 144.397L368.362 138.098L369.846 133.373L372.085 131.371L372.202 130.073L370.659 129.244H367.909L364.547 130.425L362.007 131.196L361.798 128.607L361.085 124.277L359.894 121.63L357.463 116.336L355.007 111.754L351.863 107.021L348.316 101.091L346.48 99.6166L344.929 97.4973L344.04 94.6326L342.456 93.3845L341.643 93.1667L340.461 92.5553L340.452 92.5469L348.761 88.099L360.255 83.626L363.307 80.778L364.765 76.4977L366.484 65.6L368.488 61.7636L370.701 60.4485L372.94 60.0716L375.178 59.9041L377.257 59.2926L381.609 56.7043L394.134 44.8098L397.815 40.1023L400.841 35.0178L401.378 33.1499L401.998 29.1124L402.82 27.4288L403.776 26.633L404.799 25.7954L409.51 23.6762L411.221 22.2522L412.679 17.9802L414.499 6.35377L416.871 2.34147L421.172 0.800215L425.825 1.49546L430.629 2.89431L435.366 3.49741L439.793 2.40011L443.49 0.74158L447.313 0.213867L451.597 1.54571Z" fill="#FF712C"/>
<path d="M171.938 132.184L178.729 140.15L184.799 142.244L190.122 143.928L192.419 143.869L194.281 143.132L195.396 143.81L196.896 144.28L201.466 146.416L206.689 149.004L212.373 148.686L217.898 149.079L219.063 157.598L219.458 169.124L219.34 177.283L218.988 183.414L222.501 187.636L225.519 189.931L226.248 190.944L227.062 193.801L228.143 198.902L229.091 208.351L228.319 216.191L227.389 219.449L227.296 222.85L228.638 229.769L229.418 237.241L227.967 240.851L226.877 243.029L226.944 246.162L228.026 249.303L229.275 251.598L228.621 254.546L226.047 256.858L222.786 257.889L218.552 257.704H215.693L216.959 260.536L217.957 266.734L217.68 272.681L218.669 275.839L219.499 277.724L219.181 280.086L218.946 282.524L218.493 285.145L216.548 288.136L215.165 290.121L214.469 291.486L213.438 293.262L213.421 295.356L211.82 299.251L209.246 303.976L208.944 306.84L209.766 308.591L210.814 312.469L210.923 316.322L208.617 317.545L205.607 319.363L203.679 320.452L201.373 321.122L199.311 321.935L197.534 321.256L196.025 320.72L194.859 322.37L193.233 324.087L189.636 326.332L186.568 329.038L182.82 331.132L175.819 336.602L171.72 340.857L170.001 340.614L166.673 340.756L161.801 340.874L156.109 341.803L150.877 345.749L147.297 347.357L144.128 346.402L139.953 347.039L135.686 349.225L132.835 352.626L132.081 356.437L133.942 361.061L135.862 364.989L135.627 367.578L132.81 372.042L130.437 375.837L131.267 378.484L132.106 381.658L130.957 384.221L125.189 387.388L119.253 390.562L116.805 394.139L115.531 397.833L115.791 399.726L119.195 401.569L124.426 403.219L128.216 404.945L130.538 408.077L131.15 412.349L132.835 415.859L134.965 418.665L136.356 421.429L137.522 423.188L136.985 425.936L136.65 428.541L137.027 430.518L138.436 432.629L141.722 437.462L140.791 447.614L136.826 454.7L134.252 456.049L132.835 456.476L127.52 459.282L126.547 455.463L126.916 452.146L126.707 450.839L123.278 448.276L118.13 445.344L112.177 443.912L100.297 442.429L94.0093 440.511L76.923 433.064L72.337 432.394L55.9632 433.466L49.5747 439.723L44.7288 467.893L40.4363 463.085L34.6682 460.237L26.2591 459.333L22.5031 457.85L12.0065 450.981L9.81831 448.745L11.7131 427.243L9.81831 420.692L6.92586 417.76L3.77352 416.244L1.26674 414.527L0.21875 410.917L1.24158 407.223L6.12939 402.859L5.14009 399.425L2.28957 394.34L1.24158 388.753L0.67148 382.73L2.78422 375.342L6.73303 371.933L14.3037 369.32L20.1808 367.603L25.0518 364.721L29.051 360.65L32.3123 355.557L34.4334 351.369L35.3892 348.345L35.7245 345.899L38.6254 343.194L41.0064 342.356L49.1052 342.616L61.6308 339.299L71.3225 331.651L78.3566 320.686L82.7833 307.36L84.4098 295.608L83.8313 285.489L76.3529 241.312L75.7408 231.017L77.141 220.957L82.4312 208.568L92.9446 191.765L100.146 180.239L106.082 168.99L109.486 164.014L123.076 152.765L125.927 149.071L133.632 133.198L136.893 129.009L141.311 127.15L162.824 126.279L163.529 126.103L164.149 125.692L164.736 125.081L165.683 123.59L166.907 125.332L171.938 132.184Z" fill="#FF712C"/>
<path d="M243.459 194.555L246.98 193.901L249.143 194.253L250.149 196.85L253.042 201.356L256.798 206.943L260.11 212.061L264.042 215.78L265.45 219.826L270.791 223.227L278.479 225.84L283.911 225.79L289.495 224.768L294.408 224.886L297.812 225.899L299.749 227.298L301.987 228.462L304.066 229.869L305.844 231.545L308.141 233.84L310.849 236.747L313.582 238.614L315.82 239.05L316.567 239.544L316.416 239.904L316.986 240.851L317.833 243.247L318.587 245.391L319.166 246.321L319.979 247.426L320.826 249.169L321.672 251.288L322.486 253.323L322.008 254.563L321.916 255.082L321.874 256.163L321.672 257.947L321.127 259.723L320.172 261.18L322.829 265.369L324.665 269.699L323.383 271.852L322.393 272.933L320.113 273.846L318.051 275.94L317.506 278.662L319.224 282.08L321.639 283.571L322.863 283.746L324.464 284.274L326.233 284.827L326.904 285.33L326.569 288.052L326.56 293.153L326.527 296.403L324.665 299.821L320.474 304.394L317.447 310.241L317.916 319.581L316.357 333.402L313.003 343.169L312.853 343.604L312.752 344.132L311.746 349.409L311.084 354.803L310.757 355.499L310.379 356.303L309.717 357.073L307.789 355.415L305.533 354.133L302.658 354.217L301.836 355.792L301.87 358.414L300.034 372.813L302.062 394.457L295.967 415.725L294.785 444.59L294.651 447.723L293.142 453.921L290.468 460.061L287.03 465.883L283.283 470.976L277.523 476.822L272.224 479.938L266.54 481.011L259.539 480.81L253.26 478.917L250.032 478.95L247.936 481.563L247.005 487.477L245.781 490.091L243.048 491.749L236.752 492.537L231.437 491.724L219.733 487.854L216.714 486.866L214.711 486.748L206.335 489.772L204.239 491.054L202.001 491.925L199.092 491.808L192.921 492.629L187.656 495.971L182.307 497.772L175.759 494.078L165.573 492.185L160.132 491.171L155.085 491.749L142.945 497.018L136.02 497.663L133.53 492.302L133.194 488.784L130.578 482.937L129.941 479.679L130.897 476.739L134.795 471.964L135.408 468.764L133.689 465.271L127.585 459.542L127.518 459.282L132.834 456.476L134.251 456.049L136.824 454.7L140.79 447.614L141.721 437.462L138.434 432.629L137.026 430.518L136.648 428.541L136.984 425.936L137.52 423.188L136.355 421.429L134.963 418.665L132.834 415.859L131.148 412.349L130.536 408.077L128.214 404.945L124.425 403.219L119.193 401.569L115.789 399.726L115.529 397.833L116.804 394.139L119.252 390.562L125.188 387.388L130.956 384.221L132.104 381.658L131.266 378.483L130.436 375.837L132.808 372.042L135.625 367.577L135.86 364.989L133.94 361.061L132.079 356.437L132.834 352.626L135.684 349.225L139.952 347.038L144.127 346.402L147.296 347.357L150.876 345.749L156.107 341.803L161.8 340.873L166.671 340.756L169.999 340.614L171.718 340.857L175.818 336.602L182.818 331.132L186.566 329.038L189.635 326.332L193.231 324.087L194.858 322.37L196.023 320.72L197.532 321.256L199.31 321.934L201.372 321.122L203.678 320.452L205.606 319.363L208.616 317.545L210.921 316.322L210.812 312.469L209.764 308.591L208.943 306.84L209.244 303.975L211.818 299.251L213.42 295.356L213.436 293.262L214.468 291.486L215.163 290.121L216.547 288.136L218.492 285.145L218.945 282.523L219.179 280.086L219.498 277.724L218.668 275.839L217.679 272.681L217.955 266.734L216.958 260.535L215.692 257.704H218.551L222.784 257.889L226.046 256.858L228.62 254.546L229.274 251.598L228.024 249.303L226.943 246.162L226.876 243.029L227.966 240.851L229.416 237.241L228.636 229.769L227.295 222.85L227.387 219.449L228.318 216.191L229.089 208.351L228.142 198.902L227.06 193.801L226.247 190.944L225.518 189.931L227.194 189.42L230.405 188.968L233.549 189.554L238.177 192.62L243.459 194.555Z" fill="#FF712C"/>
</g>
<defs>
<clipPath id="clip0_119_1246">
<rect width="572" height="498" fill="white"/>
</clipPath>
</defs>
</svg>
