<svg width="87" height="89" viewBox="0 0 87 89" fill="none" xmlns="http://www.w3.org/2000/svg">
<g clip-path="url(#clip0_448_7087)">
<path d="M24.2583 34.8542L3.25433 35.3799L0 88.0572L27.2957 87.1074L24.2583 34.8457V34.8542ZM18.1768 55.9353C18.1226 56.5373 17.9802 57.1309 17.7429 57.7076C17.5056 58.2842 17.2208 58.8099 16.8751 59.2848C16.5293 59.7597 16.1361 60.1667 15.6954 60.5144C15.2547 60.8621 14.8004 61.108 14.3326 61.2606C13.8377 61.4642 13.3156 61.515 12.7665 61.4133C12.1292 61.3115 11.641 61.0995 11.2817 60.7773C10.9224 60.455 10.6579 60.0819 10.4884 59.6579C10.3122 59.2255 10.2173 58.7675 10.1969 58.2927C10.1766 57.8093 10.1834 57.3684 10.2308 56.9783C10.2715 56.5797 10.3596 56.1133 10.502 55.5876L12.6716 56.5712C12.5766 56.9189 12.5156 57.2327 12.5088 57.5295C12.4953 57.7669 12.5224 57.9959 12.5902 58.1994C12.658 58.4029 12.8072 58.5301 13.0445 58.564C13.2614 58.581 13.5055 58.564 13.7699 58.5131C13.9869 58.4453 14.2241 58.3096 14.475 58.1146C14.7259 57.9196 14.9496 57.6821 15.153 57.4023C15.3564 57.1309 15.5327 56.8341 15.6818 56.5204C15.8242 56.2066 15.8988 55.9098 15.9191 55.613V55.5876C15.9191 55.189 15.7971 54.8413 15.5598 54.5276C15.3157 54.2138 15.0716 53.9679 14.8276 53.7814C14.4682 53.4846 14.0953 53.2641 13.7224 53.1114C13.3428 52.9588 13.0173 52.891 12.7394 52.9079L11.58 52.9588C11.5529 52.4076 11.5258 51.8564 11.519 51.3052C11.5054 50.754 11.4851 50.1943 11.4783 49.6262L11.8512 49.1852C11.919 49.1004 12.1021 48.9224 12.4004 48.6595C12.6919 48.3966 13.0106 48.0913 13.3428 47.7521C13.675 47.4129 13.9665 47.0822 14.2309 46.743C14.4886 46.4038 14.6242 46.1325 14.6242 45.929C14.6242 45.7933 14.475 45.7254 14.1699 45.7254C13.9733 45.7254 13.7496 45.7509 13.4784 45.7933C13.2072 45.8357 12.9495 45.895 12.7055 45.9629C12.4275 46.0307 12.136 46.107 11.8376 46.1918L11.5868 43.3002C11.7224 43.2832 11.8783 43.2663 12.041 43.2493C12.1766 43.2323 12.3393 43.2154 12.5292 43.2069C12.7122 43.1984 12.9156 43.1899 13.1394 43.1899C13.5529 43.1899 13.9869 43.2154 14.4479 43.2663C14.9089 43.3171 15.3225 43.4274 15.7089 43.5885C16.0886 43.7496 16.4005 43.9786 16.6513 44.2754C16.9022 44.5722 17.0107 44.9453 16.9836 45.4117C16.97 45.8272 16.8615 46.2597 16.6649 46.7176C16.4683 47.1755 16.231 47.6249 15.953 48.0574C15.675 48.4984 15.3835 48.9139 15.0784 49.3124C14.7665 49.711 14.4953 50.0502 14.2648 50.347C14.6784 50.4827 15.092 50.6862 15.5055 50.9406C15.9191 51.195 16.2988 51.5087 16.6513 51.8734C17.0039 52.238 17.309 52.645 17.5802 53.103C17.8514 53.5609 18.048 54.0442 18.17 54.5615C18.2514 55.0449 18.2649 55.5113 18.2107 55.9522L18.1768 55.9353Z" fill="#243263"/>
<path d="M27.1533 1.06252L30.1907 86.8623L54.2321 87.2015L56.6186 0.714844L27.1601 1.06252H27.1533ZM43.1945 28.6053L40.8825 28.529L41.1334 13.9096L40.3266 14.0114L40.0554 11.1451L43.4792 10.6533L43.1877 28.5968L43.1945 28.6053Z" fill="#243263"/>
<path d="M82.3617 20.7109L60.7068 21.1095L58.3203 87.5581L86.0499 88.7453L82.3617 20.7109ZM75.3174 36.0341C75.175 36.8397 74.9378 37.586 74.6123 38.2644C74.2869 38.9428 73.9004 39.5787 73.4462 40.1723C72.9919 40.7659 72.5309 41.3511 72.0631 41.9192C71.6088 42.4534 71.1817 42.9877 70.7817 43.5219C70.3817 44.0561 70.0766 44.5989 69.8732 45.1501L74.5784 45.2518L74.5377 48.118L68.4901 48.0163H67.3579L67.3375 46.6256C67.324 45.8708 67.4053 45.1755 67.5748 44.5565C67.7443 43.9374 67.9816 43.3523 68.2799 42.8096C68.5782 42.2669 68.9105 41.7496 69.2901 41.2578C69.6698 40.7659 70.063 40.2826 70.4766 39.7992C70.8359 39.3668 71.1885 38.9343 71.5275 38.4933C71.8665 38.0524 72.1716 37.5944 72.4224 37.1111C72.6733 36.6277 72.8631 36.1189 72.9919 35.5762C73.114 35.0335 73.1275 34.4569 73.0326 33.8294C73.0055 33.6428 72.8902 33.4732 72.6936 33.3291C72.497 33.1849 72.2597 33.0662 71.9817 32.9814C71.8733 32.9475 71.758 32.922 71.6292 32.9135C71.5071 32.9051 71.3851 32.9135 71.2766 32.9559C71.0732 32.9729 70.8902 33.0662 70.741 33.2358C70.5376 33.4223 70.3817 33.7361 70.2732 34.177C70.1715 34.618 70.1647 35.237 70.2596 36.0511L67.9884 36.4921C67.8121 35.0674 67.8596 33.8887 68.1443 32.9814C68.4291 32.074 68.8427 31.3702 69.3918 30.8868C69.6969 30.59 70.0359 30.378 70.4224 30.2424C70.8088 30.1067 71.1885 30.0388 71.5546 30.0388C71.9546 30.0388 72.3546 30.1152 72.7614 30.2593C73.1682 30.4035 73.5479 30.624 73.8937 30.9038C74.2462 31.1836 74.5445 31.5313 74.7886 31.9383C75.0327 32.3454 75.2022 32.8033 75.2835 33.3206C75.4327 34.3212 75.4395 35.2201 75.2971 36.0341H75.3174Z" fill="#243263"/>
</g>
<defs>
<clipPath id="clip0_448_7087">
<rect width="86.05" height="88.03" fill="white" transform="translate(0 0.714844)"/>
</clipPath>
</defs>
</svg>
