<svg width="87" height="85" viewBox="0 0 87 85" fill="none" xmlns="http://www.w3.org/2000/svg">
<path d="M87 40C87 62.0914 78 85 40 85C17.9086 85 0 70 0 45C7.99985 6.5 24.9086 0 47 0C74.5 12 87 17.9086 87 40Z" fill="#F45001"/>
<path d="M35.4417 32.82L34.9137 27.936H34.9577C35.2804 27.8773 35.6471 27.848 36.0577 27.848C36.4684 27.8187 37.1724 27.7893 38.1697 27.76C39.1964 27.7307 40.1351 27.7747 40.9857 27.892C41.8657 28.0093 42.7457 28.1853 43.6257 28.42C44.5057 28.6547 45.1804 29.036 45.6497 29.564C46.1484 30.092 46.3831 30.7373 46.3537 31.5C46.2657 32.9373 45.3124 34.712 43.4937 36.824C42.6431 37.8213 41.6897 38.8333 40.6337 39.86C42.0417 40.3 43.3031 40.8867 44.4177 41.62C46.7937 43.116 48.2604 44.92 48.8177 47.032C49.0231 47.7947 49.0817 48.6013 48.9937 49.452C48.7297 51.3587 47.8497 53.192 46.3537 54.952C44.7404 56.7413 42.8924 57.9147 40.8097 58.472C39.6951 58.7947 38.5804 58.8827 37.4657 58.736C36.3804 58.6187 35.4417 58.34 34.6497 57.9C33.8871 57.46 33.3151 56.9467 32.9337 56.36C32.5817 55.7733 32.3177 55.128 32.1417 54.424C31.9951 53.72 31.9364 53.06 31.9657 52.444C31.9951 51.7987 32.0537 51.1973 32.1417 50.64C32.2591 50.0533 32.3617 49.628 32.4497 49.364C32.5377 49.0707 32.5964 48.8947 32.6257 48.836L37.2457 50.508H37.2017C37.1431 50.7133 37.0844 50.9333 37.0257 51.168C36.9964 51.3733 36.9524 51.7107 36.8937 52.18C36.8351 52.62 36.8937 53.0013 37.0697 53.324C37.2751 53.6467 37.5977 53.8227 38.0377 53.852C38.5364 53.9107 39.0351 53.8813 39.5337 53.764C40.6484 53.4413 41.6897 52.752 42.6577 51.696C43.5084 50.728 43.9924 49.7893 44.1097 48.88V48.836C44.1391 48.6013 44.1244 48.4253 44.0657 48.308C43.8311 47.428 43.0684 46.5627 41.7777 45.712C40.1644 44.6853 38.6977 44.2013 37.3777 44.26L34.9577 44.348C34.8111 41.8547 34.7084 39.9773 34.6497 38.716L35.4857 37.924C35.5151 37.924 36.0724 37.5133 37.1577 36.692C38.2431 35.8707 39.2111 35.064 40.0617 34.272C40.9124 33.4507 41.3377 32.8347 41.3377 32.424C41.3671 31.896 39.4017 32.028 35.4417 32.82Z" fill="white"/>
</svg>
