<svg width="87" height="85" viewBox="0 0 87 85" fill="none" xmlns="http://www.w3.org/2000/svg">
<path d="M87 40C87 62.0914 78 85 40 85C17.9086 85 0 70 0 45C7.99985 6.5 24.9086 0 47 0C74.5 12 87 17.9086 87 40Z" fill="#F45001"/>
<path d="M38.1708 38.144L33.3308 38.936C32.5974 34.5067 33.5801 31.324 36.2788 29.388C37.2468 28.684 38.3174 28.244 39.4908 28.068C40.5761 27.892 41.6761 27.9213 42.7908 28.156C43.7881 28.3613 44.7121 28.7133 45.5628 29.212C46.4134 29.7107 47.1321 30.3413 47.7188 31.104C48.3054 31.8667 48.6868 32.688 48.8628 33.568C48.9801 34.3013 49.0388 35.02 49.0388 35.724C49.0681 36.428 49.0388 37.088 48.9508 37.704C48.8921 38.2907 48.7308 38.9067 48.4668 39.552C48.2321 40.168 48.0121 40.7107 47.8068 41.18C47.6014 41.62 47.2934 42.1333 46.8828 42.72C46.4721 43.3067 46.1201 43.7907 45.8268 44.172C45.5334 44.524 45.1081 44.9787 44.5508 45.536C44.0228 46.0933 43.6121 46.5187 43.3188 46.812C43.0254 47.1053 42.5708 47.5453 41.9548 48.132C41.1334 48.924 40.4881 49.5547 40.0188 50.024C39.5788 50.464 39.0801 51.036 38.5228 51.74C37.9948 52.4147 37.5988 53.0453 37.3348 53.632L47.3228 53.808L47.2348 58.692L34.3428 58.516L32.0108 58.472L31.9228 56.14C31.8934 55.1427 32.0108 54.1893 32.2748 53.28C32.5387 52.3413 32.8321 51.5347 33.1548 50.86C33.5068 50.1853 34.0348 49.4227 34.7388 48.572C35.4721 47.692 36.0588 47.032 36.4988 46.592C36.9681 46.1227 37.6574 45.448 38.5668 44.568C38.9774 44.1867 39.2854 43.8933 39.4908 43.688C39.6961 43.4827 39.9894 43.1893 40.3708 42.808C40.7521 42.4267 41.0454 42.1187 41.2508 41.884C41.4561 41.6493 41.7201 41.3413 42.0428 40.96C42.3654 40.5787 42.6001 40.256 42.7468 39.992C42.9228 39.6987 43.1134 39.3613 43.3188 38.98C43.5241 38.5987 43.6708 38.2467 43.7588 37.924C43.8761 37.572 43.9641 37.2053 44.0228 36.824C44.1108 36.4427 44.1547 36.0613 44.1547 35.68C44.1547 35.2693 44.1108 34.8587 44.0228 34.448C43.9641 34.096 43.7148 33.788 43.2748 33.524C42.8641 33.26 42.3654 33.0693 41.7788 32.952C41.2801 32.8347 40.7814 32.82 40.2828 32.908C39.8134 32.9667 39.4321 33.1133 39.1388 33.348C38.0828 34.1107 37.7601 35.7093 38.1708 38.144Z" fill="white"/>
</svg>
