<svg width="44" height="46" viewBox="0 0 44 46" fill="none" xmlns="http://www.w3.org/2000/svg">
<g clip-path="url(#clip0_624_4007)">
<path d="M18.4502 38.3223L26.497 38.6533L26.0558 42.5112L22.7493 44.6054L18.7812 42.8417L18.4502 38.3223Z" fill="#132060"/>
<path d="M18.5596 37.3302L17.2371 31.5984L11.7257 28.2918L11.1748 20.7964L14.5916 12.9704L22.3074 10.9863L29.0312 12.5297L33.2201 19.4738L32.2281 28.8432L27.3781 32.1497L26.8268 37.0878L18.5596 37.3302Z" fill="#132060"/>
<path d="M13.3949 12.7333L8.37966 5.36719L5.87207 8.03142L13.3949 12.7333Z" fill="#F45001"/>
<path d="M22.015 9.28533L20.291 0.822266H23.896L22.015 9.28533Z" fill="#F45001"/>
<path d="M30.6348 12.8908L35.3362 5.83789L38.3142 8.03221L30.6348 12.8908Z" fill="#F45001"/>
<path d="M9.79087 21.6669L1.64107 20.0996L0.857422 23.8612L9.79087 21.6669Z" fill="#F45001"/>
<path d="M34.3955 21.6669L42.8586 20.0996V22.7643L34.3955 21.6669Z" fill="#F45001"/>
</g>
<defs>
<clipPath id="clip0_624_4007">
<rect width="44" height="45.0763" fill="white" transform="translate(0 0.265625)"/>
</clipPath>
</defs>
</svg>
