<?xml version="1.0" encoding="UTF-8"?>
<svg id="Layer_1" data-name="Layer 1" xmlns="http://www.w3.org/2000/svg" viewBox="0 0 416.33 213.99">
  <defs>
    <style>
      .cls-1 {
        fill: #fff;
        stroke-width: 0px;
      }
    </style>
  </defs>
  <g>
    <path class="cls-1" d="m416.33,103.5v43.94c0,.13-.03.26-.1.37l-17.69,31.36c-.13.24-.39.38-.66.38h-60.95c-.42,0-.76-.34-.76-.76v-66.36c0-.39-.3-.71-.68-.75l-11.96-1.16-82.54-8.06c-.91-.09-.91-1.42,0-1.5l79.08-7.54s.1,0,.15,0l95.43,9.33c.39.04.68.36.68.75Z"/>
    <path class="cls-1" d="m360.18,61.97l4.68-45.44c.04-.34-.16-.66-.48-.78L322.92.05c-.18-.07-.37-.07-.55,0l-39.09,15.49c-.31.12-.51.44-.47.78l4.6,44.74c.03.25.18.48.4.59l35.42,18.36c.21.11.46.11.68,0l35.85-17.45c.24-.11.39-.34.42-.6Z"/>
  </g>
  <g>
    <path class="cls-1" d="m80.15,112.54l4.02,66.22c.03.43-.32.8-.75.8H15.92c-.29,0-.56-.17-.68-.43l-12.14-25.29c-.04-.09-.07-.18-.07-.28L0,103.55c-.02-.41.28-.76.68-.8l97.84-9.32s.1,0,.15,0l78.3,7.65c.91.09.91,1.42,0,1.5l-96.13,9.16c-.41.04-.71.39-.68.8Z"/>
    <path class="cls-1" d="m138.64,61.97l4.68-45.44c.04-.34-.16-.66-.48-.78L101.37.05c-.18-.07-.37-.07-.55,0l-39.09,15.49c-.31.12-.51.44-.47.78l4.6,44.74c.03.25.18.48.4.59l35.42,18.36c.21.11.46.11.68,0l35.85-17.45c.24-.11.39-.34.42-.6Z"/>
  </g>
  <g>
    <path class="cls-1" d="m322.18,125.14v51.41c0,.13-.03.26-.1.37l-20.68,36.68c-.13.24-.39.38-.66.38H113.45c-.29,0-.56-.17-.68-.43l-14.21-29.6c-.04-.09-.07-.18-.07-.28l-3.55-58.49c-.02-.41.28-.76.68-.8l114.28-10.88s.1,0,.15,0l111.44,10.89c.39.04.68.36.68.75Z"/>
    <path class="cls-1" d="m262.15,23.71l-5.48,53.17c-.03.26-.19.49-.42.6l-41.94,20.41c-.21.1-.47.1-.68,0l-41.43-21.48c-.23-.12-.38-.34-.4-.59l-5.38-52.35c-.03-.34.16-.66.47-.78l45.73-18.12c.18-.07.37-.07.55,0l48.5,18.37c.32.12.52.44.48.78Z"/>
  </g>
</svg>