<?xml version="1.0" encoding="UTF-8"?>
<svg id="Layer_1" data-name="Layer 1" xmlns="http://www.w3.org/2000/svg" viewBox="0 0 257.9 267.54">
  <defs>
    <style>
      .cls-1 {
        fill: #fff;
        stroke-width: 0px;
      }
    </style>
  </defs>
  <g>
    <path class="cls-1" d="m257.9,36.47v46.25L1.09,79.22,0,43.88c4.4-4.68,6.87-7.3,11.27-11.98l17.72-.53,1.77,27.56,42.84.33,1.47-29.27,102.54-3.08,2.06,31.93,42.82.33,1.69-33.67,21.78-.65c4.7,4.57,7.27,7.05,11.97,11.62Z"/>
    <path class="cls-1" d="m1.66,97.74l4.85,156.55c5.3,5.14,8.36,8.11,13.66,13.25h224.06c5.34-5.34,8.33-8.33,13.67-13.67V101.22L1.66,97.74Zm133.91,130.08H37.4v-19.49l98.17,2.71v16.78Zm92.13-39.14H37.4v-16.78l190.3-2.71v19.49Zm0-39.13H37.4v-19.49l190.3,2.71v16.78Z"/>
  </g>
  <polygon class="cls-1" points="216.06 0 214.77 25.79 213.57 49.73 188.43 49.54 186.96 26.62 185.27 .2 216.06 0"/>
  <polygon class="cls-1" points="67.17 0 65.65 30.26 64.67 49.82 39.55 49.62 38.36 31.09 36.38 .2 67.17 0"/>
</svg>