<svg width="50" height="51" viewBox="0 0 50 51" fill="none" xmlns="http://www.w3.org/2000/svg">
<circle cx="25" cy="25.4824" r="24.5" stroke="white"/>
<path d="M31.339 21.3118C31.2757 21.0634 31.0957 20.8759 30.8898 20.8184C30.5248 20.7159 28.7507 20.4826 25.0007 20.4826C21.2507 20.4826 19.4773 20.7159 19.1098 20.8184C18.9065 20.8751 18.7265 21.0626 18.6623 21.3118C18.5715 21.6651 18.334 23.1451 18.334 25.4826C18.334 27.8193 18.5715 29.2993 18.6623 29.6543C18.7257 29.9018 18.9057 30.0893 19.1107 30.1459C19.4773 30.2493 21.2498 30.4826 24.9998 30.4826C28.7498 30.4826 30.524 30.2493 30.8907 30.1468C31.094 30.0901 31.274 29.9026 31.3382 29.6534C31.4298 29.3001 31.6665 27.8159 31.6665 25.4826C31.6665 23.1493 31.4298 21.6659 31.339 21.3118ZM32.9523 20.8976C33.3332 22.3826 33.3332 25.4826 33.3332 25.4826C33.3332 25.4826 33.3332 28.5826 32.9523 30.0676C32.7407 30.8884 32.1215 31.5343 31.3373 31.7526C29.914 32.1493 24.9998 32.1493 24.9998 32.1493C24.9998 32.1493 20.089 32.1493 18.6623 31.7526C17.8748 31.5309 17.2565 30.8859 17.0473 30.0676C16.6665 28.5826 16.6665 25.4826 16.6665 25.4826C16.6665 25.4826 16.6665 22.3826 17.0473 20.8976C17.259 20.0768 17.8782 19.4309 18.6623 19.2126C20.0898 18.8159 25.0007 18.8159 25.0007 18.8159C25.0007 18.8159 29.914 18.8159 31.3382 19.2126C32.1248 19.4343 32.744 20.0793 32.9532 20.8976M23.334 28.3993V22.5659L28.334 25.4826L23.334 28.3993Z" fill="white"/>
</svg>
